<svg width="36" height="36" viewBox="0 0 36 36" fill="none" xmlns="http://www.w3.org/2000/svg">
<g clip-path="url(#clip0_435_374)">
<path d="M34.0695 6.1155C33.6476 5.60916 33.1193 5.20193 32.5223 4.92272C31.9253 4.64352 31.2741 4.4992 30.615 4.5H6.363L6.3 3.9735C6.17107 2.87913 5.64508 1.8701 4.82173 1.13772C3.99839 0.405335 2.93494 0.00051269 1.833 0L1.5 0C1.10218 0 0.720644 0.158035 0.43934 0.43934C0.158035 0.720644 0 1.10218 0 1.5C0 1.89782 0.158035 2.27936 0.43934 2.56066C0.720644 2.84196 1.10218 3 1.5 3H1.833C2.2004 3.00005 2.55501 3.13493 2.82956 3.37907C3.10411 3.62321 3.27951 3.95962 3.3225 4.3245L5.3865 21.8745C5.60078 23.6997 6.47772 25.3827 7.85086 26.604C9.22401 27.8254 10.9978 28.5 12.8355 28.5H28.5C28.8978 28.5 29.2794 28.342 29.5607 28.0607C29.842 27.7794 30 27.3978 30 27C30 26.6022 29.842 26.2206 29.5607 25.9393C29.2794 25.658 28.8978 25.5 28.5 25.5H12.8355C11.9071 25.4974 11.0022 25.2077 10.2449 24.6706C9.48761 24.1335 8.91497 23.3753 8.6055 22.5H26.4855C28.2439 22.5001 29.9465 21.8823 31.2957 20.7547C32.645 19.627 33.5551 18.061 33.867 16.3305L35.0445 9.7995C35.162 9.15151 35.1356 8.4856 34.9671 7.84896C34.7986 7.21231 34.4922 6.62052 34.0695 6.1155ZM32.1 9.267L30.921 15.798C30.7337 16.8375 30.1867 17.778 29.3758 18.4548C28.5649 19.1316 27.5417 19.5016 26.4855 19.5H8.1285L6.717 7.5H30.615C30.8353 7.49868 31.0533 7.54593 31.2533 7.63838C31.4533 7.73083 31.6305 7.86622 31.7723 8.03491C31.9141 8.2036 32.0169 8.40146 32.0736 8.61441C32.1302 8.82735 32.1392 9.05017 32.1 9.267Z" fill="white"/>
<path d="M10.5 36C12.1569 36 13.5 34.6569 13.5 33C13.5 31.3431 12.1569 30 10.5 30C8.84315 30 7.5 31.3431 7.5 33C7.5 34.6569 8.84315 36 10.5 36Z" fill="white"/>
<path d="M25.5 36C27.1569 36 28.5 34.6569 28.5 33C28.5 31.3431 27.1569 30 25.5 30C23.8431 30 22.5 31.3431 22.5 33C22.5 34.6569 23.8431 36 25.5 36Z" fill="white"/>
</g>
<defs>
<clipPath id="clip0_435_374">
<rect width="36" height="36" fill="white"/>
</clipPath>
</defs>
</svg>
