<svg width="36" height="36" viewBox="0 0 36 36" fill="none" xmlns="http://www.w3.org/2000/svg">
<g clip-path="url(#clip0_435_369)">
<path d="M35.5604 33.4394L26.6069 24.4859C29.0469 21.5018 30.2465 17.6941 29.9577 13.8503C29.6689 10.0065 27.9137 6.42071 25.0553 3.8347C22.1969 1.24868 18.4538 -0.139745 14.6004 -0.0433968C10.747 0.0529509 7.07797 1.6267 4.35234 4.35234C1.6267 7.07797 0.0529509 10.747 -0.0433968 14.6004C-0.139745 18.4538 1.24868 22.1969 3.8347 25.0553C6.42071 27.9137 10.0065 29.6689 13.8503 29.9577C17.6941 30.2465 21.5018 29.0469 24.4859 26.6069L33.4394 35.5604C33.7223 35.8337 34.1012 35.9849 34.4945 35.9814C34.8878 35.978 35.264 35.8203 35.5421 35.5421C35.8203 35.264 35.978 34.8878 35.9814 34.4945C35.9849 34.1012 35.8337 33.7223 35.5604 33.4394ZM14.9999 26.9999C12.6265 26.9999 10.3065 26.2961 8.33307 24.9776C6.35968 23.659 4.82161 21.7848 3.91336 19.5921C3.00511 17.3994 2.76747 14.9866 3.23049 12.6588C3.69352 10.3311 4.83641 8.19287 6.51464 6.51464C8.19287 4.83641 10.3311 3.69352 12.6588 3.23049C14.9866 2.76747 17.3994 3.00511 19.5921 3.91336C21.7848 4.82161 23.659 6.35968 24.9776 8.33307C26.2961 10.3065 26.9999 12.6265 26.9999 14.9999C26.9963 18.1814 25.7309 21.2316 23.4813 23.4813C21.2316 25.7309 18.1814 26.9963 14.9999 26.9999Z" fill="white"/>
</g>
<defs>
<clipPath id="clip0_435_369">
<rect width="36" height="36" fill="white"/>
</clipPath>
</defs>
</svg>
