<svg width="36" height="36" viewBox="0 0 36 36" fill="none" xmlns="http://www.w3.org/2000/svg">
<g clip-path="url(#clip0_435_371)">
<path d="M18 12C16.8133 12 15.6533 12.3519 14.6666 13.0112C13.6799 13.6705 12.9109 14.6075 12.4567 15.7039C12.0026 16.8003 11.8838 18.0067 12.1153 19.1705C12.3468 20.3344 12.9182 21.4035 13.7574 22.2426C14.5965 23.0818 15.6656 23.6532 16.8295 23.8847C17.9933 24.1162 19.1997 23.9974 20.2961 23.5433C21.3925 23.0892 22.3295 22.3201 22.9888 21.3334C23.6481 20.3467 24 19.1867 24 18C24 16.4087 23.3679 14.8826 22.2426 13.7574C21.1174 12.6321 19.5913 12 18 12ZM18 21C17.4067 21 16.8266 20.8241 16.3333 20.4944C15.8399 20.1648 15.4554 19.6962 15.2284 19.148C15.0013 18.5999 14.9419 17.9967 15.0576 17.4147C15.1734 16.8328 15.4591 16.2982 15.8787 15.8787C16.2982 15.4591 16.8328 15.1734 17.4147 15.0576C17.9967 14.9419 18.5999 15.0013 19.1481 15.2284C19.6962 15.4554 20.1648 15.8399 20.4944 16.3333C20.8241 16.8266 21 17.4067 21 18C21 18.7956 20.6839 19.5587 20.1213 20.1213C19.5587 20.6839 18.7957 21 18 21Z" fill="white"/>
<path d="M31.9409 20.85L31.2749 20.466C31.5748 18.8347 31.5748 17.1623 31.2749 15.531L31.9409 15.147C32.4531 14.8515 32.902 14.4581 33.2621 13.9891C33.6222 13.5201 33.8864 12.9848 34.0397 12.4137C34.1929 11.8426 34.2321 11.247 34.1551 10.6607C34.0781 10.0745 33.8864 9.50916 33.5909 8.997C33.2955 8.48484 32.902 8.0359 32.433 7.67581C31.9641 7.31571 31.4288 7.05151 30.8577 6.89829C30.2866 6.74508 29.6909 6.70584 29.1047 6.78283C28.5184 6.85982 27.9531 7.05153 27.4409 7.347L26.7734 7.7325C25.5127 6.65538 24.0639 5.82037 22.4999 5.2695V4.5C22.4999 3.30653 22.0258 2.16193 21.1819 1.31802C20.338 0.474106 19.1934 0 17.9999 0C16.8065 0 15.6619 0.474106 14.818 1.31802C13.974 2.16193 13.4999 3.30653 13.4999 4.5V5.2695C11.936 5.82235 10.4877 6.6594 9.22794 7.7385L8.55744 7.35C7.5231 6.75326 6.29406 6.59186 5.14072 6.90129C3.98737 7.21073 3.00418 7.96566 2.40744 9C1.81071 10.0343 1.6493 11.2634 1.95874 12.4167C2.26817 13.5701 3.0231 14.5533 4.05744 15.15L4.72344 15.534C4.42361 17.1653 4.42361 18.8377 4.72344 20.469L4.05744 20.853C3.0231 21.4497 2.26817 22.4329 1.95874 23.5863C1.6493 24.7396 1.81071 25.9687 2.40744 27.003C3.00418 28.0373 3.98737 28.7923 5.14072 29.1017C6.29406 29.4111 7.5231 29.2497 8.55744 28.653L9.22494 28.2675C10.4861 29.3448 11.9354 30.1798 13.4999 30.7305V31.5C13.4999 32.6935 13.974 33.8381 14.818 34.682C15.6619 35.5259 16.8065 36 17.9999 36C19.1934 36 20.338 35.5259 21.1819 34.682C22.0258 33.8381 22.4999 32.6935 22.4999 31.5V30.7305C24.0639 30.1776 25.5122 29.3406 26.7719 28.2615L27.4424 28.6485C28.4768 29.2452 29.7058 29.4066 30.8592 29.0972C32.0125 28.7878 32.9957 28.0328 33.5924 26.9985C34.1892 25.9642 34.3506 24.7351 34.0412 23.5818C33.7317 22.4284 32.9768 21.4452 31.9424 20.8485L31.9409 20.85ZM28.1189 15.186C28.6269 17.0266 28.6269 18.9704 28.1189 20.811C28.0302 21.1314 28.0505 21.4721 28.1765 21.7797C28.3024 22.0873 28.527 22.3444 28.8149 22.5105L30.4409 23.4495C30.7857 23.6484 31.0372 23.9761 31.1403 24.3605C31.2434 24.7449 31.1896 25.1545 30.9907 25.4993C30.7918 25.844 30.4641 26.0955 30.0797 26.1986C29.6953 26.3017 29.2857 26.2479 28.9409 26.049L27.3119 25.107C27.0238 24.9401 26.6883 24.8738 26.3583 24.9187C26.0283 24.9635 25.7227 25.1168 25.4894 25.3545C24.1543 26.7175 22.4723 27.69 20.6249 28.167C20.3025 28.2499 20.0168 28.4377 19.8128 28.7009C19.6089 28.964 19.4983 29.2876 19.4984 29.6205V31.5C19.4984 31.8978 19.3404 32.2794 19.0591 32.5607C18.7778 32.842 18.3963 33 17.9984 33C17.6006 33 17.2191 32.842 16.9378 32.5607C16.6565 32.2794 16.4984 31.8978 16.4984 31.5V29.622C16.4986 29.2891 16.388 28.9655 16.184 28.7024C15.9801 28.4392 15.6944 28.2514 15.3719 28.1685C13.5245 27.6895 11.8429 26.7149 10.5089 25.35C10.2757 25.1123 9.97005 24.959 9.64008 24.9142C9.3101 24.8693 8.9746 24.9356 8.68644 25.1025L7.06044 26.043C6.88979 26.143 6.70103 26.2083 6.50503 26.2351C6.30903 26.2619 6.10967 26.2497 5.91842 26.1991C5.72717 26.1486 5.54782 26.0607 5.39067 25.9405C5.23353 25.8204 5.10171 25.6703 5.0028 25.499C4.90388 25.3277 4.83984 25.1385 4.81434 24.9423C4.78884 24.7461 4.8024 24.5469 4.85423 24.356C4.90606 24.1651 4.99514 23.9863 5.11634 23.8299C5.23754 23.6736 5.38847 23.5428 5.56044 23.445L7.18644 22.506C7.47437 22.3399 7.69895 22.0828 7.82493 21.7752C7.95091 21.4676 7.97114 21.1269 7.88244 20.8065C7.37448 18.9659 7.37448 17.0221 7.88244 15.1815C7.96954 14.8618 7.94835 14.5223 7.82216 14.2159C7.69598 13.9096 7.47192 13.6536 7.18494 13.488L5.55894 12.549C5.21423 12.3501 4.96265 12.0224 4.85955 11.638C4.75645 11.2536 4.81028 10.844 5.00919 10.4992C5.2081 10.1545 5.53581 9.90296 5.92021 9.79986C6.30461 9.69676 6.71423 9.75059 7.05894 9.9495L8.68794 10.8915C8.97531 11.0588 9.31011 11.1258 9.63973 11.0821C9.96935 11.0384 10.2751 10.8864 10.5089 10.65C11.8441 9.28701 13.5261 8.31453 15.3734 7.8375C15.6969 7.75435 15.9833 7.56563 16.1874 7.30125C16.3915 7.03688 16.5014 6.71196 16.4999 6.378V4.5C16.4999 4.10218 16.658 3.72064 16.9393 3.43934C17.2206 3.15804 17.6021 3 17.9999 3C18.3978 3 18.7793 3.15804 19.0606 3.43934C19.3419 3.72064 19.4999 4.10218 19.4999 4.5V6.378C19.4998 6.71094 19.6104 7.03447 19.8143 7.29762C20.0183 7.56078 20.304 7.7486 20.6264 7.8315C22.4745 8.31023 24.1565 9.28483 25.4909 10.65C25.7242 10.8877 26.0298 11.041 26.3598 11.0858C26.6898 11.1307 27.0253 11.0644 27.3134 10.8975L28.9394 9.957C29.1101 9.85695 29.2989 9.79165 29.4949 9.76485C29.6909 9.73805 29.8902 9.75029 30.0815 9.80085C30.2727 9.85141 30.4521 9.93931 30.6092 10.0595C30.7664 10.1796 30.8982 10.3297 30.9971 10.501C31.096 10.6723 31.1601 10.8615 31.1855 11.0577C31.211 11.2539 31.1975 11.4531 31.1457 11.644C31.0938 11.8349 31.0047 12.0137 30.8835 12.1701C30.7623 12.3264 30.6114 12.4572 30.4394 12.555L28.8134 13.494C28.527 13.6601 28.3036 13.9162 28.1779 14.2225C28.0523 14.5289 28.0316 14.8681 28.1189 15.1875V15.186Z" fill="white"/>
</g>
<defs>
<clipPath id="clip0_435_371">
<rect width="36" height="36" fill="white"/>
</clipPath>
</defs>
</svg>
