<svg width="767" height="563" viewBox="0 0 767 563" fill="none" xmlns="http://www.w3.org/2000/svg">
<g clip-path="url(#clip0_87_19701)">
<path d="M242.251 33.0831C234.87 18.5427 222.661 5.20455 205.044 1.27826C190.507 -1.97173 174.467 1.56005 159.216 5.26091C113.613 16.3447 65.4563 30.6973 33.0761 63.0469C12.4535 83.6552 0.1325 110.632 0.00102623 136.726C-0.224358 180.648 36.701 218.971 84.8393 224.757C189.737 237.382 282.182 111.628 242.251 33.0831Z" fill="#EBEBEB"/>
<path d="M631.451 534.709C680.979 489.679 706.41 420.847 702.973 353.987C699.536 287.128 668.602 222.954 621.985 174.937C575.368 126.92 513.819 94.5891 448.89 78.3015C400.714 66.2221 346.641 63.5169 304.344 89.5356C253.614 120.721 230.869 186.058 178.786 214.933C133.108 240.256 93.4783 259.963 55.1255 295.412C2.47961 344.049 11.4386 436.214 28.117 468.169C50.2986 510.701 73.175 522.311 127.755 559.282H597.718C609.795 552.312 621.14 544.084 631.451 534.709Z" fill="#EBEBEB"/>
<path d="M739.897 352.577C745.288 347.673 750.302 342.225 754.979 338.299C760.219 333.903 763.694 336.834 765.366 339.577C767.037 342.319 764.22 346.283 764.22 346.283C768.295 348.97 767.319 352.708 765.046 355.676C763.844 357.254 761.046 359.377 757.552 361.819C757.59 362.665 757.289 363.735 756.745 364.769C753.833 370.254 735.69 385.847 721.716 385.602C710.24 385.396 687.571 396.329 681.166 403.036L659.473 371.269C665.239 365.201 663.623 357.743 674.442 350.078C683.946 343.353 686.368 344.16 696.511 336.928C708.738 328.23 712.945 324.98 717.378 327.61C723.125 331.029 717.772 339.426 713.264 345.1C709.564 349.759 706.991 353.666 709.639 354.587C714.71 356.353 724.12 354.042 727.52 347.655C731.314 340.516 732.647 333.903 736.141 330.014C739.108 326.746 742.921 328.004 744.518 330.672C746.414 333.847 743.353 343.39 742.583 345.795C741.832 348.237 739.897 352.577 739.897 352.577Z" fill="#FCA688"/>
<path d="M726.843 372.734C726.787 372.734 726.712 372.734 726.656 372.734C719.594 372.565 710.879 369.446 701.638 366.159L700.173 365.633C690.744 362.289 683.138 361.368 676.583 367.812C676.151 368.225 675.475 368.225 675.061 367.793C674.648 367.361 674.648 366.685 675.08 366.271C682.875 358.626 692.097 360.467 700.906 363.604L702.371 364.13C711.423 367.361 719.988 370.423 726.712 370.574C726.75 370.574 726.806 370.574 726.843 370.574C730.637 370.574 735.633 366.685 740.047 363.247C742.771 361.124 745.325 359.133 747.691 357.893C751.542 355.864 756.218 356.691 757.909 359.696C758.191 360.222 758.022 360.88 757.496 361.162C756.97 361.443 756.312 361.274 756.031 360.748C755.054 359.001 751.711 358.212 748.706 359.79C746.508 360.936 744.029 362.89 741.381 364.938C736.46 368.77 731.389 372.734 726.843 372.734Z" fill="#CC5548"/>
<path d="M728.365 362.213C727.99 362.213 727.614 362.006 727.408 361.649C727.126 361.123 727.332 360.466 727.858 360.184C731.183 358.418 734.639 355.863 738.752 352.163C739.203 351.768 739.879 351.806 740.273 352.238C740.668 352.689 740.63 353.365 740.198 353.759C735.953 357.573 732.366 360.222 728.873 362.082C728.722 362.157 728.534 362.213 728.365 362.213Z" fill="#CC5548"/>
<path d="M728.382 369.109C728.251 369.109 728.119 369.09 728.007 369.052C727.443 368.883 727.105 368.282 727.274 367.719C727.406 367.249 727.838 366.948 728.288 366.948C729.265 366.554 733.134 363.454 736.552 360.693C739.689 358.175 743.258 355.32 746.507 352.915C747.502 352.182 748.46 351.45 749.381 350.717C754.02 347.11 758.02 344.011 763.617 344.706C764.2 344.781 764.632 345.326 764.556 345.908C764.481 346.49 763.937 346.922 763.354 346.847C758.64 346.265 755.147 348.989 750.714 352.427C749.775 353.159 748.817 353.911 747.803 354.662C744.572 357.029 741.041 359.885 737.924 362.383C731.068 367.888 729.397 369.109 728.382 369.109Z" fill="#CC5548"/>
<path d="M342.828 290.189C342.828 290.189 377.8 295.957 388.337 295.957C398.874 295.957 423.234 290.415 425.638 293.083C428.042 295.75 424.098 341.645 423.215 361.501C422.332 381.34 424.53 486.711 424.53 488.026C424.53 489.341 419.703 561.291 419.703 561.291H324.027C324.027 561.291 325.342 414.704 328.854 380.024C332.367 345.345 342.828 290.189 342.828 290.189Z" fill="white"/>
<path d="M105.707 265.204C102.533 258.328 99.9595 251.058 97.0859 245.422C93.8741 239.091 89.3477 240.481 86.6431 242.416C83.9385 244.351 85.009 249.292 85.009 249.292C80.013 250.194 79.4308 254.176 80.3887 257.934C80.8958 259.944 82.7176 263.1 85.0654 266.857C84.6897 267.646 84.5395 268.792 84.6334 270.013C85.1969 276.438 96.2031 298.756 109.67 304.185C120.732 308.637 137.974 328.325 141.374 337.361L175.031 315.795C171.988 307.642 176.571 301.179 169.321 289.438C162.973 279.143 160.325 278.937 153.545 267.89C145.393 254.59 142.689 249.762 137.373 250.494C130.499 251.434 132.189 261.635 134.199 268.905C135.852 274.86 136.716 279.65 133.823 279.463C128.264 279.106 120.188 273.038 119.53 265.561C118.798 257.182 120.225 250.325 118.441 245.178C116.938 240.838 112.769 240.5 110.158 242.398C107.059 244.652 106.101 255.022 105.857 257.652C105.613 260.263 105.707 265.204 105.707 265.204Z" fill="#FCA688"/>
<path d="M161.115 306.158C160.702 306.158 160.289 305.914 160.12 305.501C156.457 296.652 148.775 294.436 138.389 293.797L136.774 293.703C126.613 293.102 117.015 292.538 110.197 289.814C105.783 288.067 102.497 282.131 99.3225 276.42C97.6321 273.376 96.0356 270.502 94.4016 268.511C92.1477 265.768 88.6167 265.148 86.9451 266.426C86.4756 266.782 85.7994 266.707 85.4426 266.238C85.0857 265.768 85.1608 265.092 85.6304 264.735C88.4477 262.574 93.2183 263.683 96.0732 267.158C97.8199 269.3 99.4727 272.268 101.201 275.387C104.056 280.534 107.286 286.358 111.005 287.823C117.503 290.397 126.932 290.96 136.924 291.561L138.539 291.655C148.231 292.238 157.791 294.21 162.129 304.674C162.355 305.219 162.092 305.858 161.547 306.083C161.397 306.139 161.247 306.158 161.115 306.158Z" fill="#CC5548"/>
<path d="M113.256 279.143C112.937 279.143 112.636 279.012 112.411 278.749C109.838 275.555 107.471 271.572 104.973 266.2C104.729 265.655 104.954 265.016 105.499 264.772C106.044 264.528 106.682 264.753 106.926 265.298C109.349 270.502 111.641 274.353 114.101 277.415C114.477 277.885 114.402 278.561 113.932 278.937C113.725 279.068 113.5 279.143 113.256 279.143Z" fill="#CC5548"/>
<path d="M110.496 285.775C110.458 285.775 110.421 285.775 110.365 285.775C109.275 285.644 108.505 284.479 103.622 275.387C101.65 271.723 99.4146 267.553 97.311 263.984C96.6349 262.856 96.0151 261.748 95.414 260.658C92.578 255.549 90.3241 251.51 85.5535 250.157C84.99 249.988 84.652 249.406 84.821 248.823C84.99 248.26 85.5723 247.921 86.1545 248.091C91.7703 249.687 94.3435 254.29 97.2922 259.606C97.8933 260.677 98.4943 261.767 99.1517 262.875C101.293 266.501 103.547 270.671 105.519 274.372C107.679 278.411 110.139 282.976 110.909 283.728C111.341 283.916 111.604 284.348 111.548 284.836C111.51 285.362 111.041 285.775 110.496 285.775Z" fill="#CC5548"/>
<path d="M332.177 561.234C332.177 561.234 333.435 429.9 334.694 394.188C335.952 358.476 337.417 307.396 347.916 287.352C302.407 294.434 282.273 309.388 255.265 346.302C235.13 373.843 218.546 395.127 218.546 395.127L182.334 311.341L124.223 330.597C124.223 330.597 164.998 491.819 205.079 500.724C224.913 505.139 264.055 467.379 289.73 440.477L287.814 561.271L332.177 561.234Z" fill="#37474F"/>
<path d="M407.512 561.233C407.512 561.233 408.77 429.9 410.029 394.187C411.287 358.663 415.344 309.086 423.12 287.708C423.195 287.501 423.42 287.37 423.645 287.388C450.447 290.582 483.278 293.701 510.043 324.773C523.115 339.952 568.567 406.492 582.616 426.518C601.267 410.268 647.658 369.897 654.889 364.224L699.515 398.057C686.781 411.395 606.732 513.047 584.325 510.605C568.473 508.876 510.531 466.082 483.147 442.468C483.41 478.819 483.785 531.476 483.86 561.102L407.512 561.233Z" fill="#37474F"/>
<path d="M420.959 230.656C443.535 216.792 455.762 197.949 460.157 180.685C467.933 150.082 464.984 124.308 442.99 115.704C436.999 75.3513 401.539 81.8512 386.569 78.8455C379.958 77.5304 361.533 71.8946 352.687 65.7704C352.687 65.7704 348.836 64.8686 350.733 77.2862C348.254 76.2154 326.993 76.6475 319.536 70.3166C310.765 81.5507 317.038 106.818 317.038 106.818C317.038 106.818 317.038 106.818 306.37 105.634C305.976 115.103 313.526 123.857 323.293 129.944L420.959 230.656Z" fill="#313438"/>
<path d="M420.848 295.129C398.516 309.631 353.758 309.782 344.95 294.49C344.95 294.49 345.814 292.066 346.133 291.259C346.546 290.263 347.936 287.332 347.936 287.332C350.265 279.254 351.073 261.877 350.246 250.944C341.682 250.7 336.46 248.934 330.957 246.435C317.678 240.424 312.175 223.046 314.842 193.627C316.476 175.63 321.604 140.613 323.257 129.924C347.41 143.919 392.374 148.221 424.698 142.116C421.28 149.724 422.538 161.597 426.989 170.877C428.285 170.69 429.6 170.652 430.971 170.784C439.968 171.666 446.541 179.669 445.677 188.668C444.795 197.666 436.794 204.354 427.778 203.471C426.745 203.377 425.449 203.246 424.304 202.964C424.304 202.964 415.007 257.763 423.534 287.332C422.388 289.85 420.848 295.129 420.848 295.129Z" fill="#FCA688"/>
<path d="M640.674 563H112.318C111.36 563 110.59 562.229 110.59 561.271C110.59 560.313 111.36 559.543 112.318 559.543H640.674C641.632 559.543 642.402 560.313 642.402 561.271C642.402 562.229 641.613 563 640.674 563Z" fill="#707477"/>
<path d="M423.739 203.754C423.626 203.754 423.532 203.735 423.419 203.697C421.597 203.134 420.076 202.232 418.818 200.955C418.405 200.541 418.405 199.846 418.818 199.433C419.231 199.02 419.926 199.02 420.339 199.433C421.353 200.447 422.574 201.18 424.058 201.631C424.621 201.8 424.941 202.401 424.772 202.984C424.621 203.453 424.189 203.754 423.739 203.754Z" fill="#D35F4C"/>
<path d="M437.753 188.2C437.716 188.2 437.678 188.2 437.641 188.2C437.058 188.143 436.626 187.599 436.683 187.016C436.946 184.687 436.251 182.489 434.786 181.005C433.339 179.539 431.236 178.844 428.888 179.051C428.287 179.107 427.78 178.675 427.724 178.074C427.667 177.473 428.099 176.966 428.7 176.909C431.724 176.646 434.429 177.567 436.326 179.502C438.242 181.456 439.143 184.273 438.824 187.26C438.767 187.786 438.298 188.2 437.753 188.2Z" fill="#D35F4C"/>
<path d="M335.794 169.702C336.128 166.274 334.767 163.336 332.754 163.139C330.74 162.943 328.837 165.563 328.503 168.992C328.169 172.42 329.53 175.358 331.544 175.555C333.557 175.751 335.46 173.131 335.794 169.702Z" fill="#2E2E2E"/>
<path d="M383.954 178.013C384.288 174.584 382.927 171.646 380.914 171.45C378.901 171.254 376.998 173.874 376.664 177.302C376.329 180.73 377.691 183.669 379.704 183.865C381.717 184.061 383.62 181.441 383.954 178.013Z" fill="#2E2E2E"/>
<path d="M398.368 164.83C398.011 164.83 397.673 164.661 397.466 164.341C390.028 153.126 378.478 153.859 372.261 155.286C371.678 155.418 371.096 155.061 370.965 154.479C370.833 153.896 371.19 153.314 371.772 153.182C377.05 151.961 382.196 152.055 386.629 153.427C391.794 155.023 396.039 158.292 399.25 163.139C399.588 163.627 399.438 164.304 398.95 164.623C398.781 164.773 398.574 164.83 398.368 164.83Z" fill="#313438"/>
<path d="M342.34 150.627C342.077 150.627 341.814 150.533 341.607 150.345C338.715 147.696 329.624 144.202 320.722 147.64C320.158 147.846 319.538 147.583 319.332 147.02C319.125 146.456 319.388 145.836 319.952 145.629C329.399 141.985 339.335 145.329 343.072 148.748C343.504 149.142 343.542 149.838 343.147 150.27C342.922 150.514 342.64 150.627 342.34 150.627Z" fill="#313438"/>
<path d="M344.425 199.546C344.406 199.546 344.406 199.546 344.387 199.546C342.246 199.489 338.452 197.893 336.461 195.695C335.372 194.511 334.846 193.196 334.921 191.9C335.128 188.499 337.475 186.489 340.218 184.141C340.875 183.578 341.551 182.995 342.246 182.356L342.547 182.075C345.533 179.351 348.914 176.251 349.515 167.76C349.552 167.158 350.078 166.726 350.66 166.764C351.261 166.802 351.693 167.328 351.656 167.91C351.017 177.265 347.129 180.816 343.993 183.671L343.692 183.953C342.979 184.611 342.284 185.212 341.608 185.776C339.053 187.973 337.213 189.552 337.062 192.031C337.025 192.745 337.344 193.497 338.039 194.248C339.729 196.108 342.96 197.348 344.444 197.385C345.045 197.404 345.495 197.893 345.495 198.494C345.477 199.095 345.007 199.546 344.425 199.546Z" fill="#D35F4C"/>
<path d="M483.148 441.867C482.566 441.867 482.078 441.397 482.078 440.796C481.909 418.948 481.777 403.186 481.777 403.017C481.777 402.416 482.247 401.928 482.848 401.928C483.43 401.928 483.918 402.397 483.918 402.999C483.918 403.149 484.05 418.929 484.219 440.777C484.238 441.379 483.749 441.867 483.148 441.867Z" fill="black"/>
<path d="M574.878 434.353C574.577 434.353 574.277 434.222 574.07 433.977C573.676 433.526 573.732 432.85 574.164 432.456C574.164 432.456 576.718 430.22 580.944 426.557C581.395 426.162 582.071 426.219 582.466 426.669C582.86 427.12 582.804 427.797 582.353 428.191C578.146 431.854 575.592 434.09 575.592 434.09C575.385 434.259 575.141 434.353 574.878 434.353Z" fill="black"/>
<path d="M289.77 439.951C289.151 439.933 288.681 439.444 288.7 438.862L290.052 353.742C290.052 353.141 290.559 352.671 291.141 352.69C291.742 352.69 292.212 353.197 292.193 353.78L290.841 438.899C290.841 439.482 290.353 439.951 289.77 439.951Z" fill="black"/>
<path d="M231.846 426.952C231.433 426.952 231.039 426.708 230.851 426.294L218.06 396.725C217.816 396.18 218.079 395.542 218.624 395.316C219.168 395.072 219.807 395.335 220.032 395.88L232.823 425.449C233.067 425.994 232.804 426.633 232.26 426.858C232.128 426.914 231.978 426.952 231.846 426.952Z" fill="black"/>
<path d="M353.572 252.147C353.215 252.147 352.858 252.147 352.52 252.147C352.069 252.128 351.637 252.128 351.205 252.109C350.604 252.09 350.154 251.583 350.172 250.982C350.191 250.381 350.698 249.93 351.299 249.949C351.713 249.967 352.126 249.986 352.539 249.986C363.395 250.118 375.491 248.145 383.323 244.952C383.867 244.726 384.506 244.989 384.731 245.553C384.957 246.098 384.694 246.736 384.13 246.962C376.336 250.137 364.428 252.147 353.572 252.147Z" fill="#D35F4C"/>
<path d="M380.091 531.345C379.735 531.345 379.397 531.175 379.19 530.856C370.982 518.044 365.01 497.417 362.774 474.272C362.718 473.69 363.15 473.164 363.751 473.089C364.352 473.033 364.878 473.465 364.934 474.066C367.132 496.891 372.992 517.161 381.012 529.71C381.331 530.217 381.181 530.875 380.692 531.194C380.486 531.288 380.298 531.345 380.091 531.345Z" fill="#B2AFAF"/>
<path d="M347.147 215.326C350.302 215.326 353.214 215.965 355.186 217.13C355.693 217.43 355.862 218.088 355.561 218.614C355.261 219.121 354.604 219.29 354.078 218.989C350.34 216.773 341.25 216.604 335.502 221.357C335.052 221.732 334.357 221.676 333.981 221.206C333.605 220.755 333.662 220.06 334.131 219.685C337.118 217.205 341.174 215.683 345.532 215.383C346.077 215.345 346.602 215.326 347.147 215.326Z" fill="#D35F4C"/>
<path d="M484.854 125.905C483.239 125.623 482.131 124.083 482.413 122.467L482.544 121.753C483.089 118.578 484.216 115.948 485.981 113.826C487.728 111.703 490.62 109.636 494.677 107.607C498.565 105.71 501.195 104.094 502.547 102.723C503.899 101.352 504.763 99.7172 505.082 97.801C505.439 95.6594 504.932 93.8935 503.542 92.5033C502.152 91.1132 500.03 90.1739 497.194 89.7042C492.912 88.9715 487.916 89.366 482.206 90.8877C480.666 91.301 479.051 90.3993 478.6 88.8776L476.74 82.7346C476.252 81.1377 477.172 79.4658 478.769 78.9961C485.887 76.9109 493.081 76.4788 500.349 77.6999C507.148 78.8458 512.276 81.4008 515.732 85.3458C519.188 89.2909 520.446 93.9874 519.526 99.4354C518.906 103.061 517.554 106.067 515.45 108.415C513.347 110.782 509.722 113.224 504.538 115.742C500.969 117.545 498.659 118.992 497.626 120.062C496.574 121.133 495.879 122.674 495.541 124.646V124.684C495.259 126.299 493.719 127.408 492.104 127.126L484.854 125.905ZM477.473 142.08C477.942 139.299 479.032 137.346 480.76 136.162C482.488 134.997 484.76 134.659 487.596 135.129C490.339 135.599 492.329 136.669 493.588 138.379C494.846 140.088 495.241 142.286 494.79 144.992C494.339 147.603 493.25 149.519 491.465 150.778C489.7 152.018 487.446 152.412 484.742 151.961C481.962 151.492 479.952 150.402 478.675 148.674C477.417 146.945 477.022 144.747 477.473 142.08Z" fill="white"/>
<path d="M486.828 153.219C486.114 153.219 485.363 153.144 484.574 153.013C481.532 152.506 479.259 151.247 477.832 149.293C476.385 147.339 475.916 144.841 476.404 141.873C476.93 138.81 478.188 136.575 480.161 135.26C482.114 133.945 484.687 133.532 487.786 134.058C490.791 134.565 493.045 135.805 494.472 137.74C495.9 139.675 496.369 142.192 495.862 145.179C495.374 148.072 494.116 150.251 492.106 151.66C490.622 152.712 488.857 153.219 486.828 153.219ZM485.269 135.993C483.71 135.993 482.396 136.35 481.363 137.045C479.898 138.04 478.94 139.787 478.527 142.248C478.113 144.653 478.451 146.532 479.56 148.034C480.649 149.519 482.452 150.477 484.931 150.909C487.373 151.322 489.307 151.003 490.847 149.913C492.388 148.823 493.327 147.17 493.721 144.841C494.134 142.417 493.796 140.52 492.726 139.036C491.655 137.571 489.871 136.613 487.429 136.199C486.659 136.068 485.945 135.993 485.269 135.993ZM492.594 128.253C492.369 128.253 492.143 128.234 491.918 128.196L484.687 126.975C482.49 126.6 480.987 124.495 481.363 122.298L481.494 121.584C482.058 118.24 483.297 115.403 485.157 113.149C486.997 110.932 490.04 108.753 494.191 106.649C497.966 104.808 500.52 103.248 501.797 101.971C503.018 100.75 503.751 99.3409 504.032 97.6314C504.333 95.8279 503.939 94.4002 502.793 93.273C501.572 92.0519 499.619 91.2066 497.027 90.7557C492.932 90.0606 488.03 90.4551 482.489 91.9204C480.367 92.484 478.207 91.2817 477.569 89.1777L475.709 83.0346C475.39 81.9826 475.503 80.8742 476.028 79.9161C476.554 78.958 477.418 78.2442 478.47 77.9436C485.72 75.8208 493.139 75.3699 500.539 76.6286C507.563 77.8121 512.935 80.5173 516.541 84.6314C520.204 88.8207 521.575 93.8554 520.598 99.6039C519.96 103.418 518.495 106.63 516.278 109.128C514.062 111.627 510.381 114.088 505.028 116.699C500.764 118.86 499.074 120.137 498.417 120.813C497.534 121.734 496.933 123.087 496.632 124.834V124.852C496.257 126.844 494.548 128.253 492.594 128.253ZM492.82 88.2759C494.416 88.2759 495.919 88.3886 497.365 88.6329C500.408 89.1401 502.736 90.1921 504.295 91.7326C505.948 93.3857 506.568 95.471 506.136 97.9695C505.779 100.092 504.821 101.952 503.3 103.474C501.835 104.939 499.168 106.592 495.13 108.565C491.242 110.519 488.443 112.51 486.791 114.501C485.175 116.455 484.086 118.954 483.598 121.922L483.466 122.636C483.297 123.669 483.992 124.665 485.025 124.834L492.256 126.055C493.289 126.224 494.285 125.529 494.454 124.495V124.477C494.829 122.279 495.618 120.55 496.82 119.311C497.966 118.127 500.314 116.643 504.032 114.764C509.085 112.303 512.635 109.936 514.625 107.701C516.579 105.503 517.856 102.666 518.438 99.247C519.321 94.0808 518.156 89.7788 514.888 86.0404C511.62 82.302 506.662 79.841 500.145 78.7514C493.064 77.5491 485.964 77.9812 479.034 80.0101C478.545 80.1603 478.132 80.4797 477.888 80.9306C477.644 81.3814 477.587 81.9075 477.738 82.3959L479.597 88.5389C479.898 89.5158 480.912 90.0794 481.907 89.8164C485.87 88.8019 489.514 88.2759 492.82 88.2759Z" fill="#919191"/>
<path d="M504.614 238.321C502.492 237.626 501.327 235.334 502.022 233.211L502.323 232.272C503.675 228.12 505.741 224.795 508.521 222.315C511.301 219.817 515.602 217.619 521.443 215.703C527.04 213.937 530.89 212.284 532.994 210.724C535.098 209.165 536.562 207.136 537.389 204.619C538.309 201.801 537.971 199.34 536.375 197.18C534.778 195.038 532.13 193.347 528.411 192.145C522.814 190.323 516.015 189.853 508.033 190.736C505.873 190.98 503.901 189.458 503.581 187.317L502.304 178.694C501.966 176.458 503.544 174.392 505.76 174.073C515.752 172.682 525.5 173.547 535.022 176.665C543.925 179.577 550.311 184.029 554.161 190.022C558.012 196.015 558.782 202.571 556.453 209.71C554.894 214.463 552.49 218.22 549.184 220.963C545.878 223.705 540.525 226.26 533.069 228.609C527.923 230.318 524.523 231.802 522.908 233.042C521.293 234.282 520.053 236.198 519.208 238.791L519.189 238.828C518.494 240.951 516.203 242.116 514.08 241.421L504.614 238.321ZM491.448 258.554C492.631 254.928 494.51 252.505 497.045 251.265C499.6 250.044 502.736 250.044 506.455 251.246C510.042 252.411 512.503 254.27 513.855 256.825C515.207 259.361 515.301 262.405 514.137 265.955C513.029 269.374 511.15 271.741 508.521 273.056C505.892 274.372 502.811 274.447 499.261 273.301C495.637 272.117 493.139 270.239 491.767 267.665C490.415 265.091 490.302 262.048 491.448 258.554Z" fill="white"/>
<path d="M503.939 275.179C502.362 275.179 500.69 274.898 498.943 274.315C495.055 273.038 492.332 270.971 490.848 268.153C489.346 265.317 489.214 261.973 490.454 258.197C491.731 254.289 493.797 251.622 496.614 250.288C499.413 248.954 502.85 248.917 506.813 250.213C510.663 251.471 513.349 253.519 514.833 256.299C516.317 259.099 516.429 262.461 515.19 266.275C513.988 269.957 511.922 272.549 509.029 273.996C507.452 274.804 505.761 275.179 503.939 275.179ZM492.482 258.892C491.431 262.142 491.506 264.847 492.745 267.158C493.966 269.468 496.276 271.178 499.619 272.268C502.869 273.32 505.705 273.263 508.071 272.08C510.457 270.877 512.109 268.773 513.143 265.617C514.194 262.386 514.119 259.587 512.936 257.314C511.734 255.041 509.442 253.331 506.156 252.26C502.737 251.133 499.826 251.133 497.553 252.223C495.262 253.331 493.572 255.567 492.482 258.892ZM515.34 242.68C514.814 242.68 514.288 242.604 513.762 242.435L504.277 239.336C502.981 238.904 501.911 238.002 501.291 236.781C500.671 235.56 500.559 234.169 500.991 232.873L501.291 231.934C502.7 227.613 504.878 224.119 507.79 221.508C510.663 218.934 515.133 216.623 521.087 214.669C526.553 212.941 530.347 211.326 532.338 209.841C534.253 208.432 535.606 206.554 536.338 204.281C537.146 201.801 536.864 199.697 535.474 197.818C534.028 195.865 531.53 194.305 528.037 193.159C522.609 191.394 515.903 190.924 508.109 191.807C505.348 192.107 502.888 190.21 502.474 187.467L501.197 178.844C500.991 177.473 501.347 176.12 502.174 175.012C503 173.904 504.221 173.19 505.573 173.002C515.678 171.593 525.689 172.495 535.305 175.632C544.415 178.6 551.045 183.24 555.008 189.421C559.027 195.677 559.835 202.609 557.412 210.029C555.796 214.951 553.242 218.915 549.824 221.789C546.443 224.626 540.883 227.256 533.333 229.642C528.337 231.314 525.031 232.742 523.51 233.906C522.064 234.996 520.956 236.762 520.167 239.129L520.148 239.167C519.51 241.308 517.5 242.68 515.34 242.68ZM515.453 189.214C520.43 189.214 524.881 189.853 528.732 191.112C532.638 192.389 535.512 194.211 537.221 196.541C539.024 198.983 539.418 201.801 538.404 204.957C537.522 207.662 535.906 209.898 533.634 211.589C531.399 213.242 527.529 214.914 521.763 216.736C516.11 218.596 511.884 220.756 509.236 223.123C506.625 225.471 504.634 228.665 503.357 232.61L503.057 233.549C502.812 234.301 502.869 235.109 503.226 235.823C503.582 236.536 504.202 237.062 504.954 237.307L514.438 240.406C515.997 240.914 517.688 240.068 518.195 238.509L518.214 238.471C519.134 235.672 520.505 233.568 522.289 232.197C524.017 230.882 527.454 229.36 532.77 227.594C540.076 225.302 545.372 222.785 548.547 220.136C551.664 217.525 553.993 213.899 555.477 209.372C557.712 202.496 557.017 196.353 553.298 190.605C549.598 184.856 543.363 180.516 534.742 177.698C525.426 174.655 515.734 173.791 505.968 175.162C505.179 175.275 504.465 175.688 503.996 176.327C503.507 176.966 503.319 177.755 503.432 178.563L504.709 187.185C504.935 188.763 506.381 189.872 507.977 189.703C510.551 189.365 513.067 189.214 515.453 189.214Z" fill="#919191"/>
<path d="M48.9819 152.468C41.225 135.805 36.6797 116.342 43.0844 99.1344C51.4987 76.5348 75.596 64.5492 97.6085 54.7053C112.296 48.149 127.134 41.5175 142.911 38.3614C158.688 35.2054 175.704 35.769 190.035 43.0768C210.019 53.2776 222.095 76.0275 222.002 98.4581C221.833 141.685 181.977 171.611 148.677 192.595C109.253 217.468 66.5243 190.172 48.9819 152.468Z" fill="#37474F"/>
<path d="M161.731 197.235C169.037 183.484 189.96 170.427 204.14 180.328C215.184 188.049 220.762 203.528 215.428 216.134C201.699 248.54 144.282 230.111 161.731 197.235Z" fill="#37474F"/>
<path d="M222.188 227.819C230.189 224.813 240.237 230.336 241.984 238.715C243.58 246.342 238.115 254.739 230.489 256.411C222.864 258.064 214.431 252.729 212.609 245.14C210.825 237.55 214.656 229.885 222.188 227.819Z" fill="#37474F"/>
<path d="M126.364 179.464C124.711 179.464 123.058 179.351 121.387 179.107C112.146 177.754 102.924 172.175 95.4301 163.42C91.73 159.1 88.6498 154.347 85.8701 149.462C84.1609 147.452 82.5644 145.311 81.0994 143.075C77.775 137.965 75.4461 132.499 74.3755 127.257C74.2816 126.825 74.2065 126.374 74.1313 125.942C70.544 117.263 68.4779 108.659 70.3561 99.961C73.0232 87.6937 83.2782 77.305 100.802 69.0955C112.954 63.4033 125.481 59.9467 137.051 59.0825C150.63 58.0681 162.651 60.5478 172.793 66.4279C181.639 71.5752 188.983 80.1981 192.909 90.0795C192.946 90.1547 192.965 90.2486 193.003 90.3238C195.275 93.3671 197.041 96.711 198.224 100.28C202.224 112.36 199.482 127.032 190.899 139.525C182.823 151.247 171.046 159.738 160.585 166.501C150.499 173.02 138.723 179.464 126.364 179.464ZM92.6879 156.338C94.059 158.292 95.5052 160.208 97.0454 162.011C104.22 170.39 112.972 175.688 121.706 176.965C135.154 178.938 148.32 171.874 159.42 164.679C169.694 158.029 181.264 149.707 189.096 138.303C195.557 128.929 198.562 118.296 197.717 108.64C197.679 109.993 197.529 111.327 197.247 112.66C196.327 117.169 194.148 121.396 190.692 125.397C187.274 131.071 182.259 136.275 175.948 140.652C173.62 142.267 171.159 143.733 168.605 145.048C167.778 146.945 166.783 148.767 165.656 150.496C157.692 162.613 142.892 170.052 127.566 170.052C125.632 170.052 123.697 169.939 121.781 169.695C111.32 168.38 101.14 163.627 92.6879 156.338ZM87.6356 148.222C96.7448 158.874 109.16 165.938 122.063 167.535C138.554 169.582 155.345 162.256 163.872 149.293C164.473 148.392 165.017 147.452 165.524 146.513C165.28 146.626 165.036 146.738 164.792 146.832C164.097 147.49 163.365 148.129 162.613 148.748C155.758 154.403 147.325 158.01 138.854 158.893C130.402 159.776 121.65 158.179 113.517 154.272C105.516 150.42 98.6982 144.634 93.8148 137.514C92.3123 135.335 91.0163 133.025 89.9645 130.676C86.997 127.407 84.3675 123.876 82.17 120.156C80.1416 116.718 78.7705 113.449 78.0568 110.406C77.9065 110.707 77.775 111.026 77.6436 111.345C75.6527 116.023 75.4648 120.851 76.1786 125.285C77.7187 129.004 79.5593 132.762 81.4751 136.538C83.4472 140.407 85.4569 144.371 87.6356 148.222ZM95.3737 135.993C95.4489 136.087 95.5052 136.199 95.5804 136.293C105.159 150.214 122.457 158.442 138.629 156.751C145.709 156.019 152.527 153.313 158.35 149.237C156.058 149.951 153.711 150.552 151.344 151.022C142.46 152.787 133.219 152.712 124.617 150.834C122.063 150.27 119.546 149.556 117.048 148.673C112.24 147.772 107.77 146.062 103.863 143.564C101.083 141.798 98.6043 139.543 96.5007 136.932C96.1062 136.631 95.7306 136.312 95.3737 135.993ZM128.017 149.312C139.868 151.285 152.358 149.744 163.458 145.066C164.548 144.033 165.581 142.944 166.557 141.816C161.843 143.958 157.298 145.555 152.978 146.588C147.362 147.941 141.991 148.41 136.938 147.959C133.971 148.673 130.984 149.124 128.017 149.312ZM117.386 146.532C121.612 147.321 126.101 147.433 130.628 146.907C130.59 146.889 130.552 146.889 130.515 146.87C123.509 145.066 117.142 141.065 112.146 135.711C107.751 134.659 104.37 132.442 102.079 129.061C98.4916 123.782 98.9235 117.188 101.177 111.759C101.177 111.665 101.159 111.571 101.159 111.496C100.727 106.517 101.253 101.464 102.699 96.5607C100.144 98.0824 97.8154 100.074 95.8433 102.647C91.9742 107.701 90.528 114.408 91.7676 121.49C92.6691 126.6 94.8666 131.409 97.9845 135.373C103.732 140.163 110.343 143.996 117.386 146.532ZM149.24 141.065C149.635 141.065 149.992 141.272 150.198 141.629C150.48 142.155 150.274 142.812 149.748 143.075C147.775 144.127 145.728 145.048 143.662 145.837C151.307 145.311 159.646 142.85 168.605 138.435C169.431 135.166 169.807 131.785 169.75 128.441C163.008 131.597 155.589 133.212 148.696 133.043C146.536 132.987 144.47 132.762 142.498 132.367C140.469 132.686 138.441 132.855 136.375 132.855C135.586 133.118 134.778 133.381 133.99 133.644C129.557 135.072 122.946 136.688 116.616 136.312C116.316 136.293 116.034 136.275 115.733 136.256C120.091 140.276 125.331 143.282 131.022 144.747C132.863 145.217 134.778 145.555 136.732 145.743C140.789 144.728 144.827 143.207 148.715 141.14C148.902 141.103 149.071 141.065 149.24 141.065ZM170.22 140.727C170.088 141.14 169.957 141.553 169.826 141.967C171.516 141.027 173.169 139.994 174.746 138.886C177.057 137.27 179.198 135.542 181.132 133.738C179.01 135.204 176.681 136.631 174.127 138.022C173.056 138.604 171.985 139.168 170.934 139.712C170.708 140.051 170.464 140.389 170.22 140.727ZM177.507 123.876C177.32 125.022 177.057 126.168 176.756 127.295C175.948 130.319 174.728 133.269 173.188 136.087C180.043 132.311 185.283 128.347 188.964 124.139C189.847 122.673 190.598 121.171 191.256 119.649C194.186 112.736 194.637 104.996 192.984 97.5C192.195 95.922 191.237 94.4003 190.148 92.9538C190.148 93.1605 190.166 93.3483 190.166 93.555C190.204 96.0159 189.753 98.4206 188.852 100.75C188.87 100.806 188.87 100.863 188.889 100.919C189.997 106.179 188.57 111.665 184.757 116.775C182.823 119.311 180.343 121.734 177.507 123.876ZM171.873 127.426C171.967 129.831 171.854 132.217 171.535 134.565C172.868 132.066 173.939 129.436 174.671 126.731C174.765 126.374 174.859 125.999 174.953 125.642C173.958 126.262 172.925 126.863 171.873 127.426ZM113.254 133.757C114.362 133.983 115.527 134.133 116.766 134.208C121.612 134.49 126.702 133.532 130.703 132.423C125.932 131.559 121.368 129.342 117.781 126.13C113.761 122.504 111.376 117.883 111.075 113.111C111 111.815 111.057 110.5 111.282 109.204C111.169 109.016 111.057 108.847 110.944 108.659C110.118 107.269 109.498 105.785 109.085 104.225C107.901 105.353 106.812 106.555 105.835 107.851C104.896 109.091 104.051 110.538 103.375 112.078C104.239 120.175 107.883 127.802 113.254 133.757ZM101.929 116.568C101.159 120.4 101.553 124.458 103.863 127.858C105.253 129.906 107.131 131.465 109.46 132.536C105.854 127.84 103.243 122.373 101.929 116.568ZM149.203 130.92C156.265 130.996 163.571 129.098 169.638 126.149C169.544 124.947 169.394 123.744 169.187 122.561C166.182 124.289 163.045 125.736 160.003 127.013C156.603 128.441 152.978 129.85 149.203 130.92ZM113.198 111.74C113.198 112.153 113.198 112.566 113.217 112.98C113.818 122.579 123.19 129.117 131.698 130.394C133.144 130.62 134.591 130.714 136.037 130.733C136.206 130.676 136.375 130.62 136.544 130.564C133.313 129.173 130.477 127.22 128.111 124.74C126.308 122.842 124.824 120.644 123.678 118.221C119.565 116.981 115.884 114.727 113.198 111.74ZM91.8052 129.512C91.8991 129.624 92.0118 129.737 92.1057 129.85C90.96 127.314 90.1148 124.627 89.6265 121.866C88.2554 114.163 89.8518 106.874 94.0966 101.332C96.5758 98.1012 99.7687 95.5087 103.638 93.6113C103.769 93.2544 103.92 92.8787 104.051 92.5217C98.2662 95.7717 93.4392 100.017 90.7722 105.954C87.3351 113.712 88.6874 122.373 91.8052 129.512ZM159.214 123.951C154.725 125.999 150.161 127.896 145.54 129.643C150.311 128.553 154.931 126.806 159.157 125.022C160.416 124.496 161.674 123.932 162.951 123.35C162.2 123.538 161.468 123.688 160.698 123.782C160.209 123.857 159.721 123.913 159.214 123.951ZM126.477 118.916C127.359 120.494 128.43 121.96 129.67 123.275C132.525 126.262 135.98 128.272 139.756 129.474C144.583 127.764 149.372 125.886 154.086 123.857C150.593 123.462 147.081 122.41 143.681 120.701C142.479 120.1 141.314 119.423 140.169 118.691C138.366 119.085 136.619 119.254 134.929 119.198C134.816 119.198 134.722 119.198 134.609 119.179C133.558 119.292 132.506 119.348 131.454 119.367C129.782 119.367 128.111 119.217 126.477 118.916ZM171.159 121.358C171.403 122.579 171.591 123.801 171.704 125.059C173 124.327 174.277 123.519 175.516 122.655C175.742 121.077 175.855 119.499 175.873 117.902C174.408 119.16 172.812 120.306 171.159 121.358ZM79.7284 107.438C80.0852 110.951 81.5126 114.821 84.0106 119.048C85.1751 121.02 86.4523 122.918 87.8234 124.74C87.5604 123.744 87.3351 122.767 87.1472 121.772C86.0579 115.779 86.6401 109.993 88.8376 105.071C92.1057 97.7818 98.285 92.8974 105.497 89.3281C105.61 89.0839 105.741 88.8584 105.854 88.6142C103.488 89.8541 101.177 91.1128 98.9235 92.3527C91.561 96.3917 84.1233 100.882 79.7284 107.438ZM142.986 117.883C147.982 120.738 153.429 122.147 158.669 121.828C161.43 120.569 164.172 119.254 166.877 117.883C167.215 117.714 167.534 117.545 167.872 117.376C166.633 113.694 164.811 110.237 162.388 107.269C160.867 108.603 159.176 109.749 157.392 110.669C156.058 111.345 154.668 111.89 153.222 112.285C152.452 112.848 151.663 113.412 150.818 113.957C148.132 115.685 145.522 117 142.986 117.883ZM178.014 115.892C178.071 117.545 178.033 119.179 177.883 120.795C183.217 116.305 187.124 110.444 187.067 104.207C185.884 106.142 184.363 108.02 182.485 109.842C182.428 109.955 182.372 110.049 182.316 110.162C181.151 112.303 179.686 114.201 178.014 115.892ZM142.667 61.0363C129.933 61.0363 115.94 64.3802 101.703 71.0492C84.8183 78.9582 74.9765 88.8396 72.4409 100.431C71.1262 106.423 71.8775 112.473 73.7181 118.559C73.9247 115.723 74.5633 113.017 75.6339 110.481C76.1786 109.223 76.7984 108.02 77.5121 106.893C77.3618 104.545 77.6436 102.347 78.3761 100.28C81.3248 91.9206 90.3777 88.2197 98.623 85.4018C102.417 84.1056 106.305 82.8281 110.23 81.6634C113.705 77.1359 117.95 73.3411 122.795 70.4857C123.753 69.9221 124.73 69.3961 125.744 68.9076C130.365 64.0796 137.107 61.2241 143.813 61.7501C144.526 61.8065 145.221 61.9004 145.916 62.0319C147.325 61.9943 148.771 62.0883 150.236 62.2761C154.95 62.9149 159.326 64.7371 162.839 67.4423C166.313 68.8513 169.525 70.6735 172.38 72.8527C174.803 73.5666 177.057 74.5247 179.085 75.727C182.24 77.6056 184.945 80.2168 186.898 83.2414C187.18 83.6923 187.462 84.1431 187.706 84.6128C187.856 84.7443 187.988 84.8758 188.138 85.0073C184.306 78.2819 178.709 72.3831 171.685 68.3065C163.365 63.4409 153.466 61.0363 142.667 61.0363ZM123.49 109.617C125.031 113.694 129.463 116.662 134.553 117.019C135.436 116.906 136.337 116.775 137.239 116.587C134.628 114.52 132.28 112.097 130.233 109.392C129.632 108.584 129.069 107.757 128.524 106.893C126.665 105.409 125.068 103.699 123.753 101.858C123.641 102.14 123.528 102.441 123.434 102.723C123.19 105.014 123.209 107.363 123.49 109.617ZM125.293 116.455C125.857 116.605 126.439 116.737 127.021 116.831C126.214 116.342 125.463 115.779 124.786 115.159C124.955 115.591 125.106 116.023 125.293 116.455ZM163.947 105.766C166.482 108.847 168.454 112.435 169.807 116.324C171.328 115.478 172.756 114.633 174.07 113.75C174.427 113.318 174.765 112.867 175.085 112.416C175.216 112.228 175.347 112.04 175.46 111.853C174.653 106.386 172.699 101.088 169.807 96.448C168.454 99.9986 166.445 103.173 163.947 105.766ZM133.614 110.124C135.53 112.341 137.652 114.276 139.925 115.91C142.141 115.253 144.376 114.351 146.63 113.205C142.441 113.243 138.084 112.285 134.027 110.331C133.877 110.256 133.745 110.181 133.614 110.124ZM113.555 108.753C115.696 111.777 118.889 114.145 122.626 115.61C122.007 113.806 121.575 111.909 121.312 109.936C121.293 109.899 121.293 109.861 121.274 109.805C120.485 107.325 120.504 104.808 121.293 102.29C121.443 101.088 121.65 99.9047 121.913 98.7399C121.631 98.1575 121.368 97.5564 121.124 96.9365C117.18 100.224 114.494 104.413 113.555 108.753ZM130.177 105.428C131.623 106.555 133.219 107.532 134.947 108.377C140.225 110.913 145.991 111.646 151.175 110.556C151.551 110.312 151.926 110.068 152.302 109.805C153.748 108.828 155.025 107.851 156.171 106.874C157.204 105.841 158.124 104.77 158.932 103.662C156.866 101.821 154.481 100.168 151.832 98.7399C151.663 98.8338 151.476 98.9466 151.288 99.0405C144.977 102.366 136.356 101.201 130.327 96.2414C129.839 95.8281 129.35 95.4148 128.9 94.9639C128.036 95.7717 127.247 96.5983 126.571 97.4061C127.472 100.243 128.693 102.967 130.177 105.428ZM174.483 88.3512C177.489 91.2067 179.517 94.6633 180.325 98.4393C181.151 102.328 180.625 106.423 178.822 110.256C179.498 109.692 180.137 109.11 180.738 108.527C182.917 104.263 183.668 99.172 183.011 94.1373C180.7 91.5824 177.639 89.6099 174.483 88.3512ZM170.708 93.7992C172.342 96.185 173.77 98.7963 174.897 101.558C175.855 103.906 176.606 106.329 177.132 108.772C178.522 105.522 178.916 102.121 178.221 98.8902C177.338 94.7197 174.897 91.3006 171.647 88.7269C171.497 90.4177 171.178 92.1084 170.708 93.7992ZM105.366 95.133C103.938 99.2659 103.168 103.587 103.149 107.945C103.45 107.475 103.769 107.006 104.107 106.574C105.441 104.808 106.943 103.211 108.577 101.764C108.239 99.172 108.39 96.4668 109.085 93.724C107.826 94.0998 106.587 94.5882 105.366 95.133ZM160.754 105.409C160.284 105.954 159.758 106.499 159.214 107.043C159.815 106.611 160.416 106.142 160.979 105.653C160.904 105.559 160.829 105.484 160.754 105.409ZM110.888 102.61C111.132 103.775 111.507 104.958 112.052 106.142C112.954 103.493 114.419 100.957 116.353 98.646C114.475 99.8671 112.616 101.163 110.888 102.61ZM162.106 103.699C162.256 103.85 162.388 103.981 162.519 104.132C165.092 101.408 167.102 98.026 168.323 94.2125C167.384 92.9162 166.37 91.6951 165.28 90.5492C165.9 93.4986 165.6 96.805 164.285 99.8483C163.721 101.182 163.008 102.46 162.106 103.699ZM185.415 97.6127C185.433 99.7731 185.189 101.877 184.72 103.906C185.471 102.798 186.072 101.689 186.579 100.543C186.279 99.5102 185.903 98.5333 185.415 97.6127ZM108.239 84.5001C105.272 85.4206 102.286 86.4162 99.3368 87.4119C91.561 90.0795 83.034 93.5362 80.4233 100.975C80.104 101.877 79.8786 102.816 79.7659 103.793C84.4426 98.1576 91.2042 94.1185 97.8905 90.4365C101.083 88.6706 104.408 86.9047 107.807 85.1764C107.939 84.9509 108.089 84.7255 108.239 84.5001ZM153.823 97.3685C156.152 98.7023 158.275 100.205 160.172 101.858C160.867 100.712 161.449 99.5289 161.918 98.3266C162.895 95.8093 163.289 93.1605 163.139 90.6243C162.839 89.3469 162.313 88.1634 161.599 87.1301C161.28 86.8671 160.942 86.6229 160.604 86.3787C160.247 86.3975 159.871 86.4163 159.514 86.435C159.195 90.5492 157.148 94.6446 153.823 97.3685ZM124.918 99.6792C125.031 99.8483 125.143 100.036 125.256 100.205C125.162 99.9798 125.087 99.7544 125.012 99.5289C124.993 99.5665 124.955 99.6229 124.918 99.6792ZM111.507 93.0477C110.906 95.0203 110.437 97.4625 110.568 100.111C113.63 97.7067 116.973 95.6778 120.222 93.8368C120.204 93.7616 120.185 93.6865 120.166 93.6113C120.091 93.292 120.185 92.935 120.41 92.6908C120.654 92.409 120.898 92.1272 121.143 91.8454C118.062 91.9206 114.757 92.2587 111.507 93.0477ZM130.534 93.5362C130.909 93.8931 131.304 94.25 131.717 94.5882C136.826 98.7963 143.982 99.961 149.466 97.5564C148.809 97.2558 148.151 96.9552 147.456 96.6734C145.54 97.7255 143.437 98.12 141.408 97.8006C141.314 97.7818 141.239 97.763 141.145 97.7255C139.023 96.8237 137.22 95.2457 135.887 93.2356C134.929 93.0477 133.971 92.8599 132.975 92.7096C132.6 92.6532 132.205 92.5781 131.792 92.5217C131.379 92.8411 130.947 93.1792 130.534 93.5362ZM185.058 93.2168C186.11 94.4755 186.974 95.8093 187.631 97.2182C187.894 96.0159 188.007 94.7761 187.988 93.5362C187.969 92.2963 187.8 91.0564 187.481 89.8165C186.072 88.3512 184.513 86.9986 182.86 85.7775C183.931 88.1634 184.663 90.6619 185.058 93.2168ZM149.522 95.2081C150.273 95.5463 151.006 95.8844 151.72 96.2602C154.875 94.0058 156.904 90.305 157.279 86.6041C157.26 86.6041 157.242 86.6041 157.223 86.6041C155.983 87.4495 154.668 88.2009 153.316 88.8772C152.79 91.2631 151.457 93.5174 149.522 95.2081ZM141.878 95.6778C142.742 95.8093 143.625 95.7529 144.489 95.5463C142.855 94.9827 141.145 94.4755 139.361 94.0246C140.131 94.7009 140.958 95.2645 141.878 95.6778ZM125.744 94.1373C125.801 94.4003 125.857 94.6446 125.913 94.9076C126.402 94.4003 126.909 93.8743 127.453 93.3671C127.378 93.2732 127.303 93.198 127.228 93.1041C126.777 93.3107 126.345 93.5362 125.894 93.7804C125.857 93.9119 125.801 94.0246 125.744 94.1373ZM141.615 92.3714C143.587 92.935 145.484 93.555 147.268 94.25C147.531 94.0622 147.794 93.8743 148.038 93.6489C149.184 92.672 150.086 91.4321 150.687 90.0795C147.775 91.2631 144.714 92.0333 141.615 92.3714ZM107.056 90.9625C106.831 91.4321 106.624 91.9206 106.418 92.3902C107.507 91.9769 108.653 91.6012 109.817 91.2818C110.042 90.6431 110.305 90.0044 110.587 89.3844C109.404 89.8729 108.221 90.3989 107.056 90.9625ZM137.258 91.3006C138.478 91.5636 139.68 91.8454 140.845 92.1648C140.62 91.9957 140.469 91.7327 140.432 91.4321C140.375 90.8498 140.789 90.305 141.39 90.2486C144.864 89.8729 148.264 88.9148 151.438 87.4307C151.438 87.3931 151.438 87.3556 151.457 87.318C150.18 87.5058 148.921 87.6937 147.682 87.9003C144 88.4827 140.263 89.0651 136.619 89.9292C136.788 90.3989 137.013 90.8686 137.258 91.3006ZM164.698 86.9423C166.257 88.3324 167.703 89.8729 169.037 91.5448C169.337 90.1171 169.525 88.6706 169.581 87.2616C169.337 87.1113 169.093 86.961 168.849 86.8108C167.421 86.5853 165.994 86.4538 164.548 86.3787C164.604 86.5665 164.661 86.7544 164.698 86.9423ZM134.271 90.7183C134.384 90.737 134.497 90.7558 134.609 90.7746C134.572 90.6995 134.553 90.6243 134.515 90.5492C134.44 90.6055 134.365 90.6619 134.271 90.7183ZM113.573 88.2197C113.123 89.0275 112.728 89.8353 112.371 90.6807C115.658 90.0044 119.208 89.6662 122.946 89.685C122.908 89.1778 122.889 88.6706 122.871 88.1634C122.852 87.318 122.871 86.4914 122.908 85.6648C122.852 85.5145 122.795 85.3642 122.739 85.2139C119.715 86.1157 116.616 87.0926 113.573 88.2197ZM171.76 85.2139C175.629 86.172 179.329 88.0131 182.259 90.4365C181.696 88.4264 180.907 86.4726 179.893 84.6128C179.667 84.1995 179.423 83.7862 179.179 83.3729C176.568 81.8888 173.826 80.7053 171.028 79.9351C171.441 81.6446 171.685 83.4105 171.76 85.2139ZM133.576 83.6547C131.698 85.3267 130.027 87.1677 128.58 89.1778C130.214 88.3136 131.867 87.4495 133.576 86.6417C133.482 85.6272 133.482 84.6128 133.576 83.6547ZM109.254 86.8671C109.047 87.1865 108.859 87.5246 108.671 87.8628C109.798 87.3743 110.944 86.9235 112.09 86.4726C112.371 85.9842 112.691 85.4957 113.01 85.0261C111.752 85.6272 110.493 86.2472 109.254 86.8671ZM149.522 83.5608C146.912 84.1243 143.982 85.2139 140.807 86.8483C143.024 86.435 145.221 86.0969 147.325 85.7587C148.639 85.5521 149.992 85.3454 151.382 85.1388C151.288 84.5376 151.156 83.9365 150.95 83.3353C150.461 83.4105 149.992 83.4668 149.522 83.5608ZM125.068 85.2703C125.275 85.7587 125.481 86.2472 125.707 86.7356C126.815 85.5709 127.961 84.4249 129.163 83.3541C127.81 83.7486 126.458 84.1243 125.124 84.5189C125.106 84.7631 125.087 85.0073 125.068 85.2703ZM136.206 81.5319C135.774 82.8093 135.586 84.2183 135.661 85.6648C139.962 83.7486 144.47 82.1894 149.147 81.4192C149.24 81.4004 149.334 81.3816 149.428 81.3628C149.635 81.3252 149.823 81.2877 150.029 81.2501C150.011 81.2125 149.992 81.1749 149.973 81.1561C147.926 80.5362 145.841 80.0666 143.737 79.766C141.277 80.2356 138.816 80.7804 136.412 81.3816C136.337 81.4379 136.281 81.4755 136.206 81.5319ZM117.255 83.0535C116.616 83.7486 116.034 84.5001 115.47 85.2515C117.668 84.5001 119.884 83.805 122.082 83.1663C121.894 82.5275 121.725 81.87 121.575 81.2125C120.128 81.7949 118.682 82.4148 117.255 83.0535ZM153.147 83.1475C153.316 83.7111 153.429 84.2934 153.504 84.857C154.499 84.7255 155.495 84.6128 156.49 84.5189C156.678 84.3874 156.847 84.2558 157.035 84.1243C157.016 84.1243 157.016 84.1056 156.997 84.1056C156.49 83.8238 155.983 83.5796 155.476 83.3165C154.762 83.185 154.03 83.1287 153.241 83.1287C153.222 83.1287 153.185 83.1475 153.147 83.1475ZM162.764 81.9827C165.168 82.6215 167.478 83.5608 169.581 84.7443C169.469 82.8845 169.149 81.081 168.624 79.3527C167.008 79.0145 165.374 78.7703 163.74 78.6012C163.853 79.0521 163.947 79.4842 164.041 79.9351C164.097 80.2544 164.003 80.5926 163.797 80.8368C163.458 81.2501 163.12 81.6258 162.764 81.9827ZM125.876 80.1981C125.707 80.8556 125.556 81.5131 125.444 82.1706C128.148 81.3816 130.778 80.6489 133.37 79.9538C133.67 79.7472 133.99 79.5218 134.29 79.3339C131.529 79.4466 128.712 79.7472 125.876 80.1981ZM158.876 81.1937C158.988 81.2125 159.101 81.2313 159.233 81.2501C159.063 81.081 158.894 80.9119 158.725 80.7616C158.782 80.8931 158.838 81.0434 158.876 81.1937ZM155.439 80.9307C155.795 80.9307 156.133 80.9495 156.49 80.9683C156.434 80.8368 156.378 80.7053 156.303 80.5926C155.908 79.8036 155.382 79.0709 154.781 78.4134C153.504 78.4697 152.227 78.5825 150.95 78.714C151.119 78.9394 151.269 79.146 151.4 79.3715C152.79 79.8223 154.124 80.3483 155.439 80.9307ZM122.533 73.1721C119.283 75.2573 116.372 77.7934 113.836 80.6489C115.057 80.3108 116.297 80.0102 117.518 79.7096C118.588 78.714 119.715 77.7934 120.917 76.9669C120.917 76.8166 120.936 76.6851 120.974 76.5348C121.406 75.37 121.931 74.2429 122.533 73.1721ZM159.176 78.3382C159.74 78.7703 160.284 79.2588 160.81 79.8035C160.998 79.9914 161.167 80.1793 161.336 80.3859C161.505 80.2168 161.674 80.029 161.824 79.8599C161.731 79.3903 161.599 78.9206 161.468 78.451C160.698 78.3758 159.946 78.3382 159.176 78.3382ZM177.789 77.8874C178.484 78.2443 179.179 78.62 179.874 78.9957C180.156 79.146 180.437 79.3151 180.7 79.4842C179.855 78.7891 178.954 78.1504 177.996 77.5868C177.676 77.3989 177.357 77.2111 177.019 77.042C177.263 77.305 177.526 77.6056 177.789 77.8874ZM170.276 77.5304C171.91 77.9249 173.544 78.4322 175.122 79.0333C173.488 78.2819 171.798 77.6056 170.088 77.042C170.164 77.1923 170.22 77.3614 170.276 77.5304ZM123.209 78.0189C123.209 78.094 123.227 78.1504 123.227 78.2255C123.603 78.0752 123.998 77.9249 124.392 77.7934C124.448 77.6056 124.523 77.4177 124.599 77.2111C124.129 77.4741 123.659 77.7371 123.209 78.0189ZM143.531 77.6056C143.587 77.6056 143.625 77.6244 143.681 77.6244C144.601 77.4553 145.522 77.305 146.442 77.1547C146.442 77.1547 146.442 77.1547 146.423 77.1547C145.447 77.2299 144.47 77.3801 143.531 77.6056ZM137.032 76.159C135.586 76.4972 134.159 76.8729 132.75 77.2862C133.896 77.2111 135.023 77.1735 136.131 77.1735C136.318 76.9293 136.525 76.6851 136.75 76.4596C136.844 76.3469 136.938 76.253 137.032 76.159ZM163.045 76.3845C164.66 76.516 166.219 76.7226 167.76 77.0044C167.647 76.7226 167.515 76.4596 167.384 76.1966C165.769 75.7458 164.135 75.37 162.501 75.0695C162.688 75.5015 162.876 75.9336 163.045 76.3845ZM127.453 75.8773C127.303 76.1966 127.153 76.516 127.021 76.8353C130.214 75.727 133.464 74.7689 136.769 73.9987C133.802 73.9987 130.628 74.6186 127.453 75.8773ZM158.106 76.1778C158.97 76.1778 159.815 76.1966 160.66 76.2342C160.416 75.6894 160.153 75.1634 159.871 74.6562C157.955 74.3932 156.04 74.2429 154.143 74.2053C153.767 74.2617 153.373 74.3368 152.997 74.4119C153.955 74.9192 154.838 75.5391 155.608 76.2342C156.453 76.1966 157.279 76.1778 158.106 76.1778ZM143.08 75.201C142.178 75.4264 141.314 75.7833 140.526 76.2154C140.864 76.1027 141.202 75.99 141.54 75.896C142.047 75.6518 142.573 75.4264 143.08 75.201ZM168.83 74.3368C169.957 74.675 171.084 75.0507 172.192 75.464C171.929 75.2573 171.666 75.0319 171.403 74.8252C170.539 74.581 169.657 74.3744 168.755 74.2053C168.774 74.2429 168.811 74.2804 168.83 74.3368ZM127.021 70.6735C125.801 72.0073 124.749 73.5102 123.922 75.1258C124.411 74.8628 124.899 74.6374 125.387 74.4119C125.556 74.3368 125.744 74.2617 125.913 74.1865C126.721 72.6273 127.698 71.1807 128.824 69.8469C128.223 70.1099 127.622 70.3917 127.021 70.6735ZM133.877 68.081C133.257 68.5319 132.656 69.0203 132.093 69.5464C130.947 70.6172 129.97 71.7819 129.106 73.0218C133.971 71.5565 138.741 71.4625 142.855 72.8151H142.873C145.785 72.3643 148.733 72.1013 151.701 72.0261C152.49 72.0073 153.279 72.0073 154.067 72.0261C155.307 71.8195 156.565 71.6692 157.824 71.5752C156.321 69.7154 154.499 68.1186 152.49 66.8599C146.273 65.9394 139.887 66.3715 133.877 68.081ZM161.674 71.4062C162.501 71.4062 163.308 71.425 164.097 71.4813C163.383 70.7111 162.594 69.9972 161.749 69.3397C161.223 69.1331 160.698 68.9452 160.172 68.7573C159.195 68.4192 158.218 68.1186 157.223 67.8556C158.387 68.9452 159.439 70.1475 160.359 71.4437C160.829 71.425 161.242 71.4062 161.674 71.4062ZM145.747 64.1923C145.296 64.2111 144.846 64.2299 144.414 64.2675C144.939 64.2487 145.465 64.2487 146.01 64.2299C145.916 64.2111 145.841 64.2111 145.747 64.1923Z" fill="white"/>
<path d="M239 519.603L235.469 531.457L247.489 528.583L259.491 525.727L251.02 516.747L242.531 507.768L239 519.603Z" fill="white"/>
<path d="M233.91 532.923L242.024 505.664L261.557 526.329L233.91 532.923ZM243.019 509.872L237.028 529.973L257.425 525.108L243.019 509.872Z" fill="#919191"/>
<path d="M227.223 292.875L210.789 287.314L214.207 304.335L217.626 321.355L230.642 309.877L243.676 298.417L227.223 292.875Z" fill="white"/>
<path d="M216.932 323.402L209.363 285.717L245.782 298.003L216.932 323.402ZM212.218 288.948L218.322 319.325L241.574 298.848L212.218 288.948Z" fill="#919191"/>
<path d="M545.675 332.157C545.543 332.157 545.412 332.138 545.299 332.082C544.736 331.875 544.454 331.255 544.679 330.692C546.689 325.356 550.427 320.547 555.798 316.377C560.437 312.77 566.335 309.67 572.834 307.416C576.571 306.119 580.421 305.143 584.197 304.485C581.793 296.313 583.802 288.028 589.944 281.209C595.541 275.01 604.331 272.286 615.206 273.263C614.06 262.893 616.727 253.594 623.075 245.985C623.451 245.534 624.127 245.459 624.597 245.854C625.047 246.229 625.123 246.906 624.728 247.375C617.647 255.848 616.445 265.354 617.422 273.507C619.357 273.77 621.329 274.127 623.376 274.615C632.955 276.869 643.172 281.622 651.38 287.634C659.982 293.946 665.729 301.066 667.57 307.697C669.204 313.596 667.701 319.007 663.25 323.346C660.733 325.788 656.864 326.127 652.056 324.304C647.736 322.689 642.89 319.439 638.026 314.93C628.579 306.157 620.822 294.153 617.272 282.825C616.483 280.307 615.901 277.846 615.525 275.423C605.12 274.371 596.781 276.832 591.578 282.618C585.906 288.911 584.103 296.595 586.394 304.109C593.907 303.02 600.875 303.283 605.627 304.992C610.886 306.89 613.027 310.534 611.506 314.986C610.059 319.232 607.167 321.674 603.392 321.9C603.204 321.918 603.016 321.918 602.828 321.918C596.762 321.918 589.55 316.301 585.831 308.562C585.493 307.885 585.211 307.19 584.929 306.495C581.192 307.134 577.322 308.111 573.585 309.407C565.621 312.168 551.554 318.687 546.745 331.405C546.501 331.894 546.107 332.157 545.675 332.157ZM617.704 275.723C618.098 278.034 618.662 280.213 619.281 282.205C622.719 293.195 630.25 304.842 639.434 313.371C648.901 322.163 657.86 325.544 661.691 321.806C665.617 317.992 666.875 313.446 665.448 308.28C663.738 302.118 658.273 295.393 650.065 289.381C642.083 283.52 632.166 278.917 622.85 276.719C621.066 276.287 619.357 275.968 617.704 275.723ZM587.052 306.195C587.258 306.683 587.465 307.171 587.709 307.66C591.127 314.761 597.926 320.096 603.204 319.777C606.096 319.608 608.238 317.71 609.421 314.31C610.567 311.004 609.026 308.562 604.838 307.04C600.443 305.481 594.038 305.236 587.052 306.195Z" fill="#707477"/>
</g>
<defs>
<clipPath id="clip0_87_19701">
<rect width="767" height="563" fill="white"/>
</clipPath>
</defs>
</svg>
