<?xml version="1.0" encoding="utf-8"?>
<!-- Generator: Adobe Illustrator 25.0.0, SVG Export Plug-In . SVG Version: 6.00 Build 0)  -->
<svg version="1.1" id="Ñëîé_1" xmlns="http://www.w3.org/2000/svg" xmlns:xlink="http://www.w3.org/1999/xlink" x="0px" y="0px"
	 viewBox="0 0 112.5 92.56" style="enable-background:new 0 0 112.5 92.56;" xml:space="preserve">
<style type="text/css">
	.st0{fill:#FF2C9C;}
	.st1{fill:#173D7A;}
	.st2{fill:#FFFFFF;}
	.st3{opacity:0.6;}
	.st4{fill:#396CAA;}
	.st5{fill:#D4ECFF;}
	.st6{fill:#5793CE;}
	.st7{fill:#C4D9E8;}
	.st8{fill:#D3D0CF;}
	.st9{fill:#F2F2F2;}
	.st10{fill:#FFC2B0;}
	.st11{fill:#EA9C92;}
	.st12{fill:#274F89;}
	.st13{fill:#D3008D;}
</style>
<path class="st0" d="M0,0v86.57c7.9,6.04,18.44,7.69,27.91,4.12l47.85-18.05c7.82-2.95,13.99-9.12,16.94-16.94l18.05-47.85
	c0.97-2.56,1.54-5.21,1.76-7.85H0z"/>
<g>
	<path class="st1" d="M85.3,172.09v-23.55h4.29v20.58h5.64v2.97H85.3z"/>
	<path class="st1" d="M103.64,172.38c-2.42,0-4.16-0.66-5.21-1.97c-1.05-1.32-1.58-3.24-1.58-5.78v-8.69c0-1.25,0.12-2.33,0.36-3.25
		c0.24-0.92,0.62-1.71,1.14-2.39c0.53-0.67,1.23-1.18,2.11-1.51c0.88-0.34,1.94-0.5,3.18-0.5c2.41,0,4.15,0.65,5.21,1.95
		c1.06,1.3,1.58,3.2,1.58,5.71v8.69c0,1.23-0.12,2.31-0.36,3.25c-0.24,0.93-0.62,1.74-1.15,2.43c-0.53,0.69-1.23,1.21-2.11,1.56
		C105.93,172.2,104.88,172.38,103.64,172.38z M102.57,169.01c0.3,0.12,0.66,0.18,1.07,0.18c0.42,0,0.77-0.06,1.07-0.18
		c0.29-0.12,0.53-0.28,0.7-0.48c0.18-0.2,0.31-0.46,0.41-0.78c0.1-0.32,0.17-0.64,0.2-0.97c0.03-0.32,0.05-0.71,0.05-1.15v-10.7
		c0-0.57-0.03-1.04-0.09-1.42c-0.06-0.38-0.17-0.74-0.33-1.07c-0.17-0.34-0.41-0.59-0.75-0.75c-0.33-0.16-0.75-0.25-1.26-0.25
		s-0.93,0.08-1.27,0.25c-0.34,0.17-0.58,0.42-0.75,0.75c-0.16,0.34-0.27,0.69-0.33,1.07c-0.06,0.38-0.09,0.85-0.09,1.42v10.7
		c0,0.45,0.02,0.83,0.05,1.15c0.03,0.32,0.1,0.64,0.2,0.97c0.1,0.32,0.23,0.58,0.4,0.78C102.04,168.73,102.27,168.89,102.57,169.01z
		"/>
	<path class="st1" d="M119.47,172.4c-2.23,0-3.83-0.7-4.81-2.09c-0.98-1.39-1.47-3.42-1.47-6.08v-7.67c0-1.35,0.11-2.52,0.32-3.5
		c0.21-0.98,0.57-1.84,1.07-2.58c0.5-0.74,1.19-1.29,2.07-1.66c0.88-0.37,1.96-0.55,3.24-0.55c2.33,0,4,0.57,5.01,1.71
		c1.01,1.14,1.52,2.87,1.52,5.19v1.15h-4.11v-1.22c0-0.52-0.01-0.95-0.04-1.28c-0.02-0.33-0.08-0.66-0.17-1
		c-0.09-0.34-0.22-0.59-0.39-0.77c-0.17-0.18-0.4-0.33-0.7-0.44c-0.29-0.11-0.65-0.17-1.08-0.17c-0.32,0-0.61,0.04-0.86,0.12
		c-0.25,0.08-0.46,0.18-0.63,0.3c-0.17,0.12-0.31,0.29-0.43,0.5c-0.12,0.22-0.21,0.43-0.27,0.63c-0.06,0.2-0.11,0.47-0.14,0.79
		c-0.03,0.32-0.05,0.61-0.06,0.85c-0.01,0.25-0.01,0.56-0.01,0.95v9.5c0,1.42,0.18,2.46,0.53,3.12c0.35,0.66,1.02,0.99,2,0.99
		c0.51,0,0.94-0.1,1.29-0.29c0.35-0.19,0.62-0.49,0.81-0.88c0.19-0.39,0.33-0.84,0.41-1.35c0.08-0.51,0.12-1.12,0.12-1.84v-1.93
		h-2.54v-2.77h6.41v11.96h-2.78l-0.31-2.39C122.75,171.5,121.42,172.4,119.47,172.4z"/>
	<path class="st1" d="M129.92,172.09v-23.55h4.23v23.55H129.92z"/>
	<path class="st1" d="M137.77,172.09v-23.55h2.95l5.77,13.34v-13.34h3.55v23.55h-2.81l-5.82-14.02v14.02H137.77z"/>
	<path class="st1" d="M160.8,172.09v-23.55h4.23v23.55H160.8z"/>
	<path class="st1" d="M174.97,172.38c-1.01,0-1.91-0.13-2.68-0.38c-0.78-0.26-1.42-0.61-1.92-1.07c-0.51-0.45-0.92-1.02-1.24-1.69
		c-0.32-0.67-0.54-1.39-0.67-2.17s-0.19-1.64-0.19-2.61v-8.21c0-1.02,0.07-1.93,0.2-2.72c0.13-0.79,0.36-1.52,0.67-2.2
		c0.31-0.68,0.72-1.23,1.23-1.67c0.51-0.44,1.15-0.78,1.92-1.02c0.77-0.25,1.67-0.37,2.69-0.37c1.17,0,2.18,0.16,3.01,0.47
		c0.83,0.31,1.49,0.77,1.97,1.38c0.48,0.61,0.83,1.31,1.05,2.12c0.22,0.81,0.33,1.75,0.33,2.83v2.02h-4.13v-2
		c0-1.17-0.06-1.96-0.18-2.37c-0.25-0.8-0.85-1.22-1.8-1.28c-0.08,0-0.15,0-0.23,0c-0.36,0-0.67,0.04-0.94,0.13
		c-0.27,0.08-0.49,0.22-0.66,0.4c-0.17,0.18-0.31,0.38-0.41,0.59c-0.1,0.21-0.18,0.48-0.23,0.82c-0.05,0.34-0.09,0.65-0.1,0.93
		c-0.01,0.28-0.02,0.64-0.02,1.08v9.97c0,1.38,0.17,2.37,0.52,2.95c0.35,0.59,0.96,0.88,1.85,0.88c0.3,0,0.57-0.04,0.8-0.11
		c0.23-0.07,0.43-0.16,0.58-0.27c0.16-0.11,0.29-0.27,0.4-0.47c0.11-0.2,0.19-0.39,0.25-0.57c0.06-0.17,0.1-0.42,0.13-0.73
		c0.03-0.31,0.04-0.58,0.05-0.79c0-0.22,0.01-0.52,0.01-0.9v-2.1h4.13v1.93c0,0.88-0.06,1.67-0.18,2.37
		c-0.12,0.7-0.33,1.36-0.63,1.97c-0.3,0.62-0.68,1.13-1.16,1.53c-0.47,0.41-1.08,0.73-1.82,0.96
		C176.8,172.26,175.95,172.38,174.97,172.38z"/>
	<path class="st1" d="M190.71,172.38c-2.42,0-4.16-0.66-5.21-1.97c-1.05-1.32-1.58-3.24-1.58-5.78v-8.69c0-1.25,0.12-2.33,0.36-3.25
		c0.24-0.92,0.62-1.71,1.14-2.39c0.53-0.67,1.23-1.18,2.11-1.51c0.88-0.34,1.94-0.5,3.18-0.5c2.41,0,4.15,0.65,5.21,1.95
		c1.06,1.3,1.58,3.2,1.58,5.71v8.69c0,1.23-0.12,2.31-0.36,3.25c-0.24,0.93-0.62,1.74-1.15,2.43c-0.53,0.69-1.23,1.21-2.11,1.56
		C192.99,172.2,191.94,172.38,190.71,172.38z M189.63,169.01c0.3,0.12,0.66,0.18,1.07,0.18s0.77-0.06,1.07-0.18
		c0.29-0.12,0.53-0.28,0.7-0.48c0.18-0.2,0.31-0.46,0.41-0.78c0.1-0.32,0.17-0.64,0.2-0.97c0.03-0.32,0.05-0.71,0.05-1.15v-10.7
		c0-0.57-0.03-1.04-0.09-1.42c-0.06-0.38-0.17-0.74-0.33-1.07c-0.17-0.34-0.41-0.59-0.75-0.75c-0.33-0.16-0.75-0.25-1.26-0.25
		c-0.51,0-0.93,0.08-1.27,0.25c-0.34,0.17-0.58,0.42-0.75,0.75c-0.16,0.34-0.27,0.69-0.33,1.07c-0.06,0.38-0.09,0.85-0.09,1.42v10.7
		c0,0.45,0.02,0.83,0.05,1.15c0.03,0.32,0.1,0.64,0.2,0.97c0.1,0.32,0.23,0.58,0.4,0.78C189.1,168.73,189.34,168.89,189.63,169.01z"
		/>
	<path class="st1" d="M200.63,172.09v-23.55h2.95l5.77,13.34v-13.34h3.55v23.55h-2.81l-5.82-14.02v14.02H200.63z"/>
</g>
<g>
	<path class="st0" d="M180.81,263.6H96.98c-6.46,0-11.7-5.24-11.7-11.7l0,0c0-6.46,5.24-11.7,11.7-11.7h83.84
		c6.46,0,11.7,5.24,11.7,11.7l0,0C192.51,258.37,187.27,263.6,180.81,263.6z"/>
	<g>
		<path class="st2" d="M113.33,257.12v-8.55h-1.66v-1.33h5.06v1.33h-1.6v8.55H113.33z"/>
		<path class="st2" d="M117.52,257.12v-9.87h2.26c0.52,0,0.97,0.04,1.34,0.13c0.37,0.09,0.7,0.23,0.97,0.43
			c0.28,0.2,0.48,0.47,0.62,0.82c0.14,0.34,0.21,0.76,0.21,1.26c0,0.62-0.09,1.13-0.28,1.52c-0.18,0.39-0.49,0.68-0.91,0.86
			l1.37,4.87h-1.8l-1.18-4.51h-0.8v4.51H117.52z M119.31,251.46h0.43c0.53,0,0.91-0.11,1.13-0.34c0.22-0.23,0.34-0.61,0.34-1.16
			c0-0.53-0.1-0.91-0.29-1.13c-0.2-0.23-0.55-0.34-1.07-0.34h-0.54V251.46z"/>
		<path class="st2" d="M125.65,257.12v-3.76l-2.01-6.12h1.68l1.22,3.93l1.17-3.93h1.66l-2,6.12v3.76H125.65z"/>
		<path class="st2" d="M133.26,257.12v-9.87h1.77v9.87H133.26z"/>
		<path class="st2" d="M137.51,257.12v-8.55h-1.66v-1.33h5.06v1.33h-1.6v8.55H137.51z"/>
		<path class="st2" d="M144.68,257.12v-9.87h1.24l2.42,5.59v-5.59h1.49v9.87h-1.18l-2.44-5.88v5.88H144.68z"/>
		<path class="st2" d="M153.99,257.23c-1.02,0-1.75-0.28-2.19-0.83c-0.44-0.55-0.66-1.36-0.66-2.42v-3.64
			c0-0.52,0.05-0.98,0.15-1.36c0.1-0.39,0.26-0.72,0.48-1c0.22-0.28,0.51-0.49,0.88-0.63c0.37-0.14,0.81-0.21,1.33-0.21
			c1.01,0,1.74,0.27,2.18,0.82c0.44,0.54,0.66,1.34,0.66,2.39v3.64c0,0.52-0.05,0.97-0.15,1.36c-0.1,0.39-0.26,0.73-0.48,1.02
			c-0.22,0.29-0.51,0.5-0.88,0.65C154.94,257.16,154.5,257.23,153.99,257.23z M153.54,255.82c0.12,0.05,0.28,0.08,0.45,0.08
			c0.17,0,0.32-0.03,0.45-0.08c0.12-0.05,0.22-0.12,0.29-0.2c0.07-0.08,0.13-0.19,0.17-0.33c0.04-0.13,0.07-0.27,0.08-0.41
			c0.01-0.13,0.02-0.3,0.02-0.48v-4.48c0-0.24-0.01-0.44-0.04-0.6c-0.02-0.16-0.07-0.31-0.14-0.45c-0.07-0.14-0.17-0.25-0.31-0.32
			c-0.14-0.07-0.32-0.1-0.53-0.1c-0.21,0-0.39,0.04-0.53,0.1c-0.14,0.07-0.25,0.17-0.31,0.32c-0.07,0.14-0.11,0.29-0.14,0.45
			c-0.02,0.16-0.04,0.36-0.04,0.6v4.48c0,0.19,0.01,0.35,0.02,0.48c0.01,0.13,0.04,0.27,0.08,0.41c0.04,0.13,0.1,0.24,0.17,0.33
			C153.31,255.7,153.41,255.77,153.54,255.82z"/>
		<path class="st2" d="M159.22,257.12l-1.41-9.87h1.51l0.81,6.37l1.05-6.37h1.21l1.08,6.37l0.81-6.37h1.48l-1.41,9.87h-1.44
			l-1.11-6.59l-1.11,6.59H159.22z"/>
	</g>
</g>
<g class="st3">
	<path class="st4" d="M86.01,196.63v-8.39h0.79v7.79h2.39v0.59H86.01z"/>
	<path class="st4" d="M92.08,196.58c-0.21,0.1-0.47,0.15-0.77,0.15c-0.31,0-0.56-0.05-0.77-0.15c-0.21-0.1-0.37-0.25-0.49-0.45
		c-0.12-0.2-0.21-0.43-0.26-0.7c-0.05-0.27-0.08-0.59-0.08-0.97v-1.66c0-0.76,0.12-1.33,0.35-1.7c0.24-0.37,0.65-0.56,1.24-0.56
		c0.6,0,1.01,0.18,1.25,0.55c0.23,0.37,0.35,0.94,0.35,1.7v1.66c0,0.38-0.03,0.7-0.08,0.97c-0.05,0.27-0.14,0.5-0.25,0.7
		C92.45,196.33,92.28,196.48,92.08,196.58z M91.3,196.15c0.15,0,0.28-0.03,0.38-0.08c0.1-0.06,0.19-0.13,0.25-0.21
		c0.06-0.08,0.1-0.2,0.13-0.36c0.03-0.16,0.05-0.3,0.06-0.45c0.01-0.14,0.01-0.33,0.01-0.55v-1.74c0-0.23,0-0.41-0.01-0.55
		c-0.01-0.14-0.03-0.29-0.06-0.45c-0.03-0.15-0.08-0.27-0.13-0.36c-0.06-0.08-0.14-0.15-0.25-0.21c-0.1-0.06-0.23-0.08-0.38-0.08
		c-0.13,0-0.24,0.02-0.33,0.05c-0.09,0.03-0.17,0.09-0.23,0.16c-0.06,0.08-0.11,0.16-0.15,0.24c-0.04,0.09-0.07,0.2-0.08,0.34
		c-0.02,0.14-0.03,0.27-0.04,0.39c0,0.12-0.01,0.28-0.01,0.46v1.74c0,0.19,0,0.34,0.01,0.46c0,0.12,0.02,0.25,0.04,0.39
		c0.02,0.14,0.05,0.25,0.08,0.34c0.04,0.09,0.09,0.17,0.15,0.24c0.06,0.08,0.14,0.13,0.23,0.16
		C91.06,196.14,91.17,196.15,91.3,196.15z"/>
	<path class="st4" d="M94,196.63v-5.99h0.76v0.83c0.18-0.3,0.39-0.53,0.64-0.67c0.24-0.15,0.49-0.22,0.74-0.22c0.06,0,0.1,0,0.13,0
		v0.82c-0.11-0.04-0.23-0.07-0.36-0.07c-0.49,0-0.87,0.23-1.15,0.7v4.6H94z"/>
	<path class="st4" d="M98.54,196.72c-0.57,0-0.99-0.18-1.24-0.53c-0.25-0.35-0.38-0.96-0.38-1.82v-1.51c0-0.58,0.06-1.05,0.18-1.39
		c0.12-0.34,0.3-0.58,0.53-0.72c0.23-0.14,0.54-0.21,0.92-0.21c0.25,0,0.47,0.03,0.65,0.1c0.18,0.07,0.33,0.16,0.45,0.28
		c0.12,0.12,0.21,0.29,0.28,0.49c0.07,0.21,0.12,0.44,0.14,0.69c0.03,0.25,0.04,0.55,0.04,0.91l0,0.54h-2.42v0.9
		c0,0.62,0.06,1.06,0.18,1.31c0.12,0.26,0.34,0.38,0.68,0.38c0.26,0,0.46-0.08,0.61-0.25c0.14-0.17,0.21-0.47,0.21-0.91v-0.42h0.74
		v0.33c0,0.58-0.12,1.03-0.36,1.34C99.49,196.57,99.09,196.72,98.54,196.72z M97.68,193.12h1.67v-0.5c0-0.21,0-0.38-0.02-0.52
		c-0.01-0.14-0.03-0.28-0.06-0.41c-0.03-0.14-0.08-0.24-0.13-0.32c-0.06-0.08-0.14-0.14-0.24-0.19c-0.1-0.05-0.22-0.07-0.36-0.07
		c-0.32,0-0.54,0.11-0.67,0.33c-0.13,0.22-0.19,0.65-0.19,1.27V193.12z"/>
	<path class="st4" d="M101.12,196.63v-5.99h0.71v0.61c0.4-0.48,0.87-0.71,1.41-0.71c0.5,0,0.81,0.26,0.94,0.79
		c0.42-0.53,0.91-0.79,1.48-0.79c0.3,0,0.54,0.11,0.73,0.32c0.19,0.21,0.29,0.56,0.29,1.05v4.72h-0.72v-4.7
		c0-0.33-0.05-0.55-0.15-0.68c-0.1-0.13-0.25-0.19-0.44-0.19c-0.38,0.01-0.76,0.21-1.13,0.62c0.01,0.1,0.01,0.18,0.01,0.23v4.72
		h-0.71v-4.7c0-0.33-0.05-0.55-0.16-0.68c-0.1-0.13-0.25-0.19-0.44-0.19c-0.38,0.01-0.75,0.21-1.12,0.62v4.96H101.12z"/>
	<path class="st4" d="M109.99,189.81v-1.03h0.76v1.03H109.99z M109.99,196.63v-5.99h0.76v5.99H109.99z"/>
	<path class="st4" d="M112.03,198.6v-7.96h0.76v0.5c0.32-0.39,0.7-0.59,1.15-0.59c0.22,0,0.42,0.05,0.58,0.14
		c0.17,0.09,0.3,0.21,0.39,0.35c0.1,0.14,0.17,0.33,0.23,0.54c0.06,0.22,0.1,0.43,0.12,0.64c0.02,0.21,0.03,0.45,0.03,0.72v1.26
		c0,0.32-0.01,0.6-0.04,0.85c-0.03,0.25-0.07,0.48-0.14,0.7c-0.07,0.21-0.16,0.39-0.27,0.53c-0.11,0.14-0.25,0.25-0.41,0.33
		c-0.17,0.08-0.36,0.12-0.58,0.12c-0.39,0-0.74-0.19-1.07-0.57v2.45H112.03z M113.73,196.12c0.13,0,0.25-0.03,0.34-0.08
		c0.09-0.06,0.17-0.13,0.23-0.23c0.06-0.1,0.11-0.23,0.14-0.39c0.03-0.17,0.06-0.34,0.07-0.53c0.01-0.19,0.02-0.41,0.02-0.68v-1.27
		c0-0.64-0.05-1.1-0.16-1.38c-0.11-0.28-0.33-0.41-0.65-0.41c-0.31,0-0.62,0.15-0.93,0.46v4.08
		C113.06,195.98,113.38,196.12,113.73,196.12z"/>
	<path class="st4" d="M117.72,196.72c-0.48,0-0.86-0.15-1.14-0.46c-0.29-0.31-0.45-0.72-0.49-1.24l0.64-0.19
		c0.04,0.46,0.14,0.79,0.31,1c0.17,0.21,0.4,0.32,0.71,0.32c0.26,0,0.47-0.08,0.62-0.23c0.15-0.15,0.22-0.35,0.22-0.6
		c0-0.01,0-0.02,0-0.04c-0.01-0.4-0.25-0.79-0.73-1.19l-0.81-0.69c-0.29-0.24-0.5-0.47-0.63-0.7c-0.13-0.22-0.19-0.48-0.19-0.78
		c0-0.44,0.13-0.78,0.39-1.02c0.26-0.24,0.6-0.35,1.04-0.35c0.44,0,0.78,0.14,1.02,0.42c0.24,0.28,0.37,0.67,0.4,1.15l-0.54,0.18
		c-0.02-0.4-0.11-0.7-0.25-0.89c-0.14-0.19-0.34-0.29-0.6-0.29c-0.24,0-0.42,0.07-0.57,0.2c-0.14,0.13-0.21,0.3-0.21,0.52
		c0,0.2,0.04,0.36,0.11,0.5c0.07,0.14,0.2,0.29,0.39,0.45l0.84,0.76c0.15,0.13,0.28,0.25,0.37,0.35c0.1,0.1,0.2,0.22,0.31,0.37
		c0.11,0.15,0.19,0.31,0.24,0.48c0.05,0.17,0.08,0.35,0.08,0.55c0,0.46-0.14,0.81-0.42,1.07
		C118.56,196.6,118.19,196.72,117.72,196.72z"/>
	<path class="st4" d="M120.98,196.72c-0.3,0-0.53-0.11-0.69-0.33c-0.16-0.22-0.24-0.54-0.24-0.95v-4.8h0.76v4.64
		c0,0.3,0.05,0.52,0.14,0.65c0.09,0.13,0.23,0.19,0.43,0.19c0.34,0,0.69-0.2,1.06-0.59v-4.9h0.76v5.99h-0.76v-0.66
		C122,196.47,121.52,196.72,120.98,196.72z"/>
	<path class="st4" d="M124.37,196.63v-5.99h0.71v0.61c0.4-0.48,0.87-0.71,1.41-0.71c0.5,0,0.81,0.26,0.94,0.79
		c0.42-0.53,0.91-0.79,1.48-0.79c0.3,0,0.54,0.11,0.73,0.32c0.19,0.21,0.29,0.56,0.29,1.05v4.72h-0.72v-4.7
		c0-0.33-0.05-0.55-0.15-0.68c-0.1-0.13-0.25-0.19-0.44-0.19c-0.38,0.01-0.76,0.21-1.13,0.62c0.01,0.1,0.01,0.18,0.01,0.23v4.72
		h-0.71v-4.7c0-0.33-0.05-0.55-0.16-0.68c-0.1-0.13-0.25-0.19-0.44-0.19c-0.38,0.01-0.75,0.21-1.12,0.62v4.96H124.37z"/>
	<path class="st4" d="M134.49,196.72c-0.52,0-0.89-0.19-1.11-0.58c-0.22-0.39-0.34-1.03-0.34-1.93v-1.11c0-0.33,0.01-0.62,0.04-0.87
		c0.02-0.25,0.07-0.48,0.13-0.7c0.06-0.22,0.15-0.4,0.25-0.54c0.1-0.14,0.24-0.25,0.41-0.33c0.17-0.08,0.36-0.12,0.59-0.12
		c0.39,0,0.75,0.18,1.06,0.52v-2.83h0.76v8.39h-0.76v-0.42C135.21,196.55,134.87,196.72,134.49,196.72z M134.64,196.12
		c0.29,0,0.58-0.13,0.87-0.39v-4.16c-0.3-0.28-0.6-0.42-0.89-0.42c-0.32,0-0.54,0.13-0.65,0.4c-0.11,0.27-0.17,0.71-0.17,1.31v1.41
		c0,0.65,0.06,1.13,0.17,1.42C134.09,195.98,134.31,196.12,134.64,196.12z"/>
	<path class="st4" d="M139.69,196.58c-0.21,0.1-0.47,0.15-0.77,0.15c-0.31,0-0.56-0.05-0.77-0.15c-0.21-0.1-0.37-0.25-0.49-0.45
		c-0.12-0.2-0.21-0.43-0.26-0.7c-0.05-0.27-0.08-0.59-0.08-0.97v-1.66c0-0.76,0.12-1.33,0.35-1.7c0.24-0.37,0.65-0.56,1.24-0.56
		c0.6,0,1.01,0.18,1.25,0.55c0.23,0.37,0.35,0.94,0.35,1.7v1.66c0,0.38-0.03,0.7-0.08,0.97c-0.05,0.27-0.14,0.5-0.25,0.7
		C140.06,196.33,139.9,196.48,139.69,196.58z M138.91,196.15c0.15,0,0.28-0.03,0.38-0.08c0.1-0.06,0.19-0.13,0.25-0.21
		c0.06-0.08,0.1-0.2,0.13-0.36c0.03-0.16,0.05-0.3,0.06-0.45c0.01-0.14,0.01-0.33,0.01-0.55v-1.74c0-0.23,0-0.41-0.01-0.55
		c-0.01-0.14-0.03-0.29-0.06-0.45c-0.03-0.15-0.08-0.27-0.13-0.36c-0.06-0.08-0.14-0.15-0.25-0.21c-0.1-0.06-0.23-0.08-0.38-0.08
		c-0.13,0-0.24,0.02-0.33,0.05c-0.09,0.03-0.17,0.09-0.23,0.16c-0.06,0.08-0.11,0.16-0.15,0.24c-0.04,0.09-0.07,0.2-0.08,0.34
		c-0.02,0.14-0.03,0.27-0.04,0.39c0,0.12-0.01,0.28-0.01,0.46v1.74c0,0.19,0,0.34,0.01,0.46c0,0.12,0.02,0.25,0.04,0.39
		c0.02,0.14,0.05,0.25,0.08,0.34c0.04,0.09,0.09,0.17,0.15,0.24c0.06,0.08,0.14,0.13,0.23,0.16
		C138.67,196.14,138.79,196.15,138.91,196.15z"/>
	<path class="st4" d="M141.66,196.63v-8.39h0.76v8.39H141.66z"/>
	<path class="st4" d="M145.91,196.58c-0.21,0.1-0.47,0.15-0.77,0.15c-0.31,0-0.56-0.05-0.77-0.15c-0.21-0.1-0.37-0.25-0.49-0.45
		c-0.12-0.2-0.21-0.43-0.26-0.7c-0.05-0.27-0.08-0.59-0.08-0.97v-1.66c0-0.76,0.12-1.33,0.35-1.7c0.24-0.37,0.65-0.56,1.24-0.56
		c0.6,0,1.01,0.18,1.25,0.55c0.23,0.37,0.35,0.94,0.35,1.7v1.66c0,0.38-0.03,0.7-0.08,0.97c-0.05,0.27-0.14,0.5-0.25,0.7
		C146.28,196.33,146.12,196.48,145.91,196.58z M145.13,196.15c0.15,0,0.28-0.03,0.38-0.08c0.1-0.06,0.19-0.13,0.25-0.21
		c0.06-0.08,0.1-0.2,0.13-0.36c0.03-0.16,0.05-0.3,0.06-0.45c0.01-0.14,0.01-0.33,0.01-0.55v-1.74c0-0.23,0-0.41-0.01-0.55
		c-0.01-0.14-0.03-0.29-0.06-0.45c-0.03-0.15-0.08-0.27-0.13-0.36c-0.06-0.08-0.14-0.15-0.25-0.21c-0.1-0.06-0.23-0.08-0.38-0.08
		c-0.13,0-0.24,0.02-0.33,0.05c-0.09,0.03-0.17,0.09-0.23,0.16c-0.06,0.08-0.11,0.16-0.15,0.24c-0.04,0.09-0.07,0.2-0.08,0.34
		c-0.02,0.14-0.03,0.27-0.04,0.39c0,0.12-0.01,0.28-0.01,0.46v1.74c0,0.19,0,0.34,0.01,0.46c0,0.12,0.02,0.25,0.04,0.39
		c0.02,0.14,0.05,0.25,0.08,0.34c0.04,0.09,0.09,0.17,0.15,0.24c0.06,0.08,0.14,0.13,0.23,0.16
		C144.9,196.14,145.01,196.15,145.13,196.15z"/>
	<path class="st4" d="M147.84,196.63v-5.99h0.76v0.83c0.18-0.3,0.39-0.53,0.64-0.67c0.24-0.15,0.49-0.22,0.74-0.22
		c0.06,0,0.1,0,0.13,0v0.82c-0.11-0.04-0.23-0.07-0.36-0.07c-0.49,0-0.87,0.23-1.15,0.7v4.6H147.84z"/>
	<path class="st4" d="M154.35,196.72c-0.48,0-0.86-0.15-1.14-0.46c-0.29-0.31-0.45-0.72-0.49-1.24l0.64-0.19
		c0.04,0.46,0.14,0.79,0.31,1c0.17,0.21,0.4,0.32,0.71,0.32c0.26,0,0.47-0.08,0.62-0.23c0.15-0.15,0.22-0.35,0.22-0.6
		c0-0.01,0-0.02,0-0.04c-0.01-0.4-0.25-0.79-0.73-1.19l-0.81-0.69c-0.29-0.24-0.5-0.47-0.63-0.7c-0.13-0.22-0.19-0.48-0.19-0.78
		c0-0.44,0.13-0.78,0.39-1.02c0.26-0.24,0.6-0.35,1.04-0.35c0.44,0,0.78,0.14,1.02,0.42c0.24,0.28,0.37,0.67,0.4,1.15l-0.54,0.18
		c-0.02-0.4-0.11-0.7-0.25-0.89c-0.14-0.19-0.34-0.29-0.6-0.29c-0.24,0-0.42,0.07-0.57,0.2c-0.14,0.13-0.21,0.3-0.21,0.52
		c0,0.2,0.04,0.36,0.11,0.5c0.07,0.14,0.2,0.29,0.39,0.45l0.84,0.76c0.15,0.13,0.28,0.25,0.37,0.35c0.1,0.1,0.2,0.22,0.31,0.37
		c0.11,0.15,0.19,0.31,0.24,0.48c0.05,0.17,0.08,0.35,0.08,0.55c0,0.46-0.14,0.81-0.41,1.07
		C155.19,196.6,154.82,196.72,154.35,196.72z"/>
	<path class="st4" d="M156.82,189.81v-1.03h0.76v1.03H156.82z M156.82,196.63v-5.99h0.76v5.99H156.82z"/>
	<path class="st4" d="M160.27,196.7c-0.41,0-0.69-0.11-0.84-0.34c-0.16-0.22-0.23-0.55-0.24-0.98v-4.24h-0.72v-0.51h0.72v-1.85h0.76
		v1.85h1v0.51h-1v4.17c0,0.3,0.04,0.51,0.11,0.62c0.07,0.11,0.21,0.17,0.43,0.17c0.14,0,0.28-0.01,0.43-0.04v0.57
		C160.68,196.68,160.47,196.7,160.27,196.7z"/>
	<path class="st4" d="M164.9,196.72c-0.35,0-0.64-0.13-0.86-0.39c-0.23-0.26-0.34-0.58-0.34-0.96c0-0.2,0.02-0.38,0.05-0.53
		c0.03-0.16,0.1-0.3,0.19-0.44c0.09-0.14,0.19-0.26,0.3-0.37c0.11-0.11,0.27-0.22,0.47-0.34c0.2-0.12,0.41-0.23,0.61-0.33
		c0.2-0.1,0.47-0.22,0.79-0.37v-0.43c0-0.55-0.05-0.93-0.16-1.14s-0.3-0.31-0.59-0.31c-0.55,0-0.83,0.34-0.83,1.03v0.22l-0.75-0.03
		c0-0.1,0-0.16,0-0.18c0.02-0.56,0.17-0.97,0.44-1.23c0.27-0.25,0.66-0.38,1.17-0.38c0.53,0,0.91,0.16,1.13,0.47
		c0.22,0.31,0.33,0.82,0.33,1.51v2.91c0,0.48,0.02,0.88,0.06,1.19h-0.67l-0.11-0.83c-0.09,0.26-0.25,0.48-0.46,0.66
		C165.46,196.64,165.2,196.72,164.9,196.72z M165.14,196.07c0.2,0,0.39-0.07,0.56-0.21c0.17-0.14,0.3-0.31,0.4-0.5v-1.87
		c-0.02,0.01-0.05,0.03-0.1,0.05c-0.17,0.09-0.29,0.16-0.38,0.2c-0.09,0.05-0.19,0.11-0.32,0.18c-0.12,0.07-0.22,0.13-0.28,0.18
		c-0.06,0.05-0.13,0.1-0.21,0.17c-0.08,0.07-0.14,0.13-0.17,0.19c-0.04,0.06-0.07,0.13-0.11,0.21c-0.04,0.08-0.06,0.16-0.08,0.25
		c-0.01,0.09-0.02,0.18-0.02,0.29c0,0.29,0.07,0.51,0.2,0.66C164.78,196,164.94,196.07,165.14,196.07z"/>
	<path class="st4" d="M167.97,196.63v-5.99h0.71v0.61c0.4-0.48,0.87-0.71,1.41-0.71c0.5,0,0.81,0.26,0.94,0.79
		c0.42-0.53,0.91-0.79,1.48-0.79c0.3,0,0.54,0.11,0.73,0.32c0.19,0.21,0.29,0.56,0.29,1.05v4.72h-0.72v-4.7
		c0-0.33-0.05-0.55-0.15-0.68c-0.1-0.13-0.25-0.19-0.44-0.19c-0.38,0.01-0.76,0.21-1.13,0.62c0.01,0.1,0.01,0.18,0.01,0.23v4.72
		h-0.71v-4.7c0-0.33-0.05-0.55-0.16-0.68c-0.1-0.13-0.25-0.19-0.44-0.19c-0.38,0.01-0.75,0.21-1.12,0.62v4.96H167.97z"/>
	<path class="st4" d="M176.15,196.72c-0.57,0-0.99-0.18-1.24-0.53c-0.25-0.35-0.38-0.96-0.38-1.82v-1.51c0-0.58,0.06-1.05,0.18-1.39
		c0.12-0.34,0.3-0.58,0.53-0.72c0.23-0.14,0.54-0.21,0.92-0.21c0.25,0,0.47,0.03,0.65,0.1c0.18,0.07,0.33,0.16,0.45,0.28
		c0.12,0.12,0.21,0.29,0.28,0.49c0.07,0.21,0.12,0.44,0.14,0.69c0.03,0.25,0.04,0.55,0.04,0.91l0,0.54h-2.42v0.9
		c0,0.62,0.06,1.06,0.18,1.31c0.12,0.26,0.34,0.38,0.68,0.38c0.26,0,0.46-0.08,0.61-0.25c0.14-0.17,0.21-0.47,0.21-0.91v-0.42h0.74
		v0.33c0,0.58-0.12,1.03-0.36,1.34C177.1,196.57,176.7,196.72,176.15,196.72z M175.29,193.12h1.67v-0.5c0-0.21,0-0.38-0.02-0.52
		c-0.01-0.14-0.03-0.28-0.06-0.41c-0.03-0.14-0.08-0.24-0.13-0.32c-0.06-0.08-0.14-0.14-0.24-0.19c-0.1-0.05-0.22-0.07-0.36-0.07
		c-0.32,0-0.54,0.11-0.67,0.33c-0.13,0.22-0.19,0.65-0.19,1.27V193.12z"/>
	<path class="st4" d="M180.16,196.7c-0.41,0-0.69-0.11-0.84-0.34c-0.16-0.22-0.23-0.55-0.24-0.98v-4.24h-0.72v-0.51h0.72v-1.85h0.76
		v1.85h1v0.51h-1v4.17c0,0.3,0.04,0.51,0.11,0.62c0.07,0.11,0.21,0.17,0.43,0.17c0.14,0,0.28-0.01,0.43-0.04v0.57
		C180.57,196.68,180.36,196.7,180.16,196.7z"/>
	<path class="st4" d="M181.73,197.84l-0.16-0.33c0.18-0.1,0.31-0.22,0.38-0.35c0.08-0.13,0.11-0.31,0.11-0.52h-0.46v-1.13h0.85v1.05
		c0,0.34-0.06,0.6-0.17,0.8C182.18,197.54,181.99,197.7,181.73,197.84z"/>
	<path class="st4" d="M187.11,196.72c-0.27,0-0.51-0.04-0.7-0.12c-0.2-0.08-0.35-0.19-0.46-0.32c-0.11-0.13-0.21-0.3-0.27-0.51
		c-0.07-0.21-0.11-0.43-0.13-0.65c-0.02-0.22-0.03-0.47-0.03-0.77v-1.4c0-0.44,0.02-0.8,0.07-1.08c0.05-0.29,0.13-0.54,0.25-0.74
		c0.12-0.21,0.28-0.35,0.49-0.45c0.21-0.09,0.47-0.14,0.79-0.14c0.25,0,0.47,0.03,0.65,0.09c0.18,0.06,0.33,0.14,0.44,0.25
		c0.11,0.11,0.2,0.24,0.27,0.41c0.07,0.17,0.11,0.34,0.14,0.52c0.03,0.18,0.04,0.4,0.04,0.64v0.28h-0.7v-0.28
		c0-0.51-0.06-0.87-0.18-1.06c-0.12-0.19-0.33-0.29-0.64-0.29c-0.34,0-0.57,0.12-0.68,0.37c-0.11,0.24-0.17,0.7-0.17,1.35v1.68
		c0,0.61,0.06,1.04,0.18,1.28c0.12,0.24,0.34,0.36,0.68,0.36c0.14,0,0.26-0.02,0.36-0.06c0.1-0.04,0.18-0.1,0.23-0.17
		c0.06-0.07,0.11-0.17,0.14-0.29c0.03-0.12,0.06-0.26,0.07-0.4c0.01-0.14,0.02-0.32,0.02-0.53v-0.33h0.7v0.29
		c0,0.26-0.01,0.49-0.03,0.68c-0.02,0.19-0.07,0.38-0.13,0.56c-0.07,0.18-0.15,0.33-0.26,0.44c-0.11,0.11-0.26,0.2-0.44,0.27
		C187.58,196.69,187.36,196.72,187.11,196.72z"/>
	<path class="st4" d="M191.91,196.58c-0.21,0.1-0.47,0.15-0.77,0.15c-0.31,0-0.56-0.05-0.77-0.15c-0.21-0.1-0.37-0.25-0.49-0.45
		c-0.12-0.2-0.21-0.43-0.26-0.7c-0.05-0.27-0.08-0.59-0.08-0.97v-1.66c0-0.76,0.12-1.33,0.35-1.7c0.24-0.37,0.65-0.56,1.24-0.56
		c0.6,0,1.01,0.18,1.25,0.55c0.23,0.37,0.35,0.94,0.35,1.7v1.66c0,0.38-0.03,0.7-0.08,0.97c-0.05,0.27-0.14,0.5-0.25,0.7
		C192.28,196.33,192.12,196.48,191.91,196.58z M191.13,196.15c0.15,0,0.28-0.03,0.38-0.08c0.1-0.06,0.19-0.13,0.25-0.21
		c0.06-0.08,0.1-0.2,0.13-0.36c0.03-0.16,0.05-0.3,0.06-0.45c0.01-0.14,0.01-0.33,0.01-0.55v-1.74c0-0.23,0-0.41-0.01-0.55
		c-0.01-0.14-0.03-0.29-0.06-0.45c-0.03-0.15-0.08-0.27-0.13-0.36c-0.06-0.08-0.14-0.15-0.25-0.21c-0.1-0.06-0.23-0.08-0.38-0.08
		c-0.13,0-0.24,0.02-0.33,0.05c-0.09,0.03-0.17,0.09-0.23,0.16c-0.06,0.08-0.11,0.16-0.15,0.24c-0.04,0.09-0.07,0.2-0.08,0.34
		c-0.02,0.14-0.03,0.27-0.04,0.39c0,0.12-0.01,0.28-0.01,0.46v1.74c0,0.19,0,0.34,0.01,0.46c0,0.12,0.02,0.25,0.04,0.39
		c0.02,0.14,0.05,0.25,0.08,0.34c0.04,0.09,0.09,0.17,0.15,0.24c0.06,0.08,0.14,0.13,0.23,0.16
		C190.89,196.14,191,196.15,191.13,196.15z"/>
	<path class="st4" d="M193.77,196.63v-5.99h0.76v0.62c0.44-0.48,0.92-0.71,1.44-0.71c0.3,0,0.52,0.11,0.68,0.33
		c0.16,0.22,0.24,0.54,0.24,0.94v4.81h-0.76v-4.64c0-0.3-0.05-0.52-0.14-0.65c-0.09-0.13-0.24-0.19-0.43-0.19
		c-0.33,0-0.67,0.18-1.03,0.55v4.93H193.77z"/>
	<path class="st4" d="M199.38,196.72c-0.48,0-0.86-0.15-1.14-0.46c-0.29-0.31-0.45-0.72-0.49-1.24l0.64-0.19
		c0.04,0.46,0.14,0.79,0.31,1c0.17,0.21,0.4,0.32,0.71,0.32c0.26,0,0.47-0.08,0.62-0.23c0.15-0.15,0.22-0.35,0.22-0.6
		c0-0.01,0-0.02,0-0.04c-0.01-0.4-0.25-0.79-0.73-1.19l-0.81-0.69c-0.29-0.24-0.5-0.47-0.63-0.7c-0.13-0.22-0.19-0.48-0.19-0.78
		c0-0.44,0.13-0.78,0.39-1.02c0.26-0.24,0.6-0.35,1.04-0.35c0.44,0,0.78,0.14,1.02,0.42c0.24,0.28,0.37,0.67,0.4,1.15l-0.54,0.18
		c-0.02-0.4-0.11-0.7-0.25-0.89c-0.14-0.19-0.34-0.29-0.6-0.29c-0.24,0-0.42,0.07-0.57,0.2c-0.14,0.13-0.21,0.3-0.21,0.52
		c0,0.2,0.04,0.36,0.11,0.5c0.07,0.14,0.2,0.29,0.39,0.45l0.84,0.76c0.15,0.13,0.28,0.25,0.37,0.35c0.1,0.1,0.2,0.22,0.31,0.37
		c0.11,0.15,0.19,0.31,0.24,0.48c0.05,0.17,0.08,0.35,0.08,0.55c0,0.46-0.14,0.81-0.42,1.07
		C200.23,196.6,199.85,196.72,199.38,196.72z"/>
	<path class="st4" d="M203.28,196.72c-0.57,0-0.99-0.18-1.24-0.53c-0.25-0.35-0.38-0.96-0.38-1.82v-1.51c0-0.58,0.06-1.05,0.18-1.39
		c0.12-0.34,0.3-0.58,0.53-0.72c0.23-0.14,0.54-0.21,0.92-0.21c0.25,0,0.47,0.03,0.65,0.1c0.18,0.07,0.33,0.16,0.45,0.28
		c0.12,0.12,0.21,0.29,0.28,0.49c0.07,0.21,0.12,0.44,0.14,0.69c0.03,0.25,0.04,0.55,0.04,0.91l0,0.54h-2.42v0.9
		c0,0.62,0.06,1.06,0.18,1.31c0.12,0.26,0.34,0.38,0.68,0.38c0.26,0,0.46-0.08,0.61-0.25c0.14-0.17,0.21-0.47,0.21-0.91v-0.42h0.74
		v0.33c0,0.58-0.12,1.03-0.36,1.34C204.23,196.57,203.83,196.72,203.28,196.72z M202.42,193.12h1.67v-0.5c0-0.21,0-0.38-0.02-0.52
		c-0.01-0.14-0.03-0.28-0.06-0.41c-0.03-0.14-0.08-0.24-0.13-0.32c-0.06-0.08-0.14-0.14-0.24-0.19c-0.1-0.05-0.22-0.07-0.36-0.07
		c-0.32,0-0.54,0.11-0.67,0.33c-0.13,0.22-0.19,0.65-0.19,1.27V193.12z"/>
	<path class="st4" d="M207.35,196.72c-0.27,0-0.51-0.04-0.7-0.12c-0.2-0.08-0.35-0.19-0.46-0.32c-0.11-0.13-0.21-0.3-0.27-0.51
		c-0.07-0.21-0.11-0.43-0.13-0.65c-0.02-0.22-0.03-0.47-0.03-0.77v-1.4c0-0.44,0.02-0.8,0.07-1.08c0.05-0.29,0.13-0.54,0.25-0.74
		c0.12-0.21,0.28-0.35,0.49-0.45c0.21-0.09,0.47-0.14,0.79-0.14c0.25,0,0.47,0.03,0.65,0.09c0.18,0.06,0.33,0.14,0.44,0.25
		c0.11,0.11,0.2,0.24,0.27,0.41c0.07,0.17,0.11,0.34,0.14,0.52c0.03,0.18,0.04,0.4,0.04,0.64v0.28h-0.7v-0.28
		c0-0.51-0.06-0.87-0.18-1.06c-0.12-0.19-0.33-0.29-0.64-0.29c-0.34,0-0.57,0.12-0.68,0.37c-0.11,0.24-0.17,0.7-0.17,1.35v1.68
		c0,0.61,0.06,1.04,0.18,1.28c0.12,0.24,0.34,0.36,0.68,0.36c0.14,0,0.26-0.02,0.36-0.06c0.1-0.04,0.18-0.1,0.23-0.17
		c0.06-0.07,0.11-0.17,0.14-0.29c0.03-0.12,0.06-0.26,0.07-0.4c0.01-0.14,0.02-0.32,0.02-0.53v-0.33h0.7v0.29
		c0,0.26-0.01,0.49-0.03,0.68c-0.02,0.19-0.07,0.38-0.13,0.56c-0.07,0.18-0.15,0.33-0.26,0.44c-0.11,0.11-0.26,0.2-0.44,0.27
		C207.82,196.69,207.6,196.72,207.35,196.72z"/>
	<path class="st4" d="M211.31,196.7c-0.41,0-0.69-0.11-0.84-0.34c-0.16-0.22-0.23-0.55-0.24-0.98v-4.24h-0.72v-0.51h0.72v-1.85h0.76
		v1.85h1v0.51h-1v4.17c0,0.3,0.04,0.51,0.11,0.62c0.07,0.11,0.21,0.17,0.43,0.17c0.14,0,0.28-0.01,0.43-0.04v0.57
		C211.72,196.68,211.51,196.7,211.31,196.7z"/>
	<path class="st4" d="M214.29,196.72c-0.57,0-0.99-0.18-1.24-0.53c-0.25-0.35-0.38-0.96-0.38-1.82v-1.51c0-0.58,0.06-1.05,0.18-1.39
		c0.12-0.34,0.3-0.58,0.53-0.72c0.23-0.14,0.54-0.21,0.92-0.21c0.25,0,0.47,0.03,0.65,0.1c0.18,0.07,0.33,0.16,0.45,0.28
		c0.12,0.12,0.21,0.29,0.28,0.49c0.07,0.21,0.12,0.44,0.14,0.69c0.03,0.25,0.04,0.55,0.04,0.91l0,0.54h-2.42v0.9
		c0,0.62,0.06,1.06,0.18,1.31c0.12,0.26,0.34,0.38,0.68,0.38c0.26,0,0.46-0.08,0.61-0.25c0.14-0.17,0.21-0.47,0.21-0.91v-0.42h0.74
		v0.33c0,0.58-0.12,1.03-0.36,1.34C215.24,196.57,214.85,196.72,214.29,196.72z M213.43,193.12h1.67v-0.5c0-0.21,0-0.38-0.02-0.52
		c-0.01-0.14-0.03-0.28-0.06-0.41c-0.03-0.14-0.08-0.24-0.13-0.32c-0.06-0.08-0.14-0.14-0.24-0.19c-0.1-0.05-0.22-0.07-0.36-0.07
		c-0.32,0-0.54,0.11-0.67,0.33c-0.13,0.22-0.19,0.65-0.19,1.27V193.12z"/>
	<path class="st4" d="M218.3,196.7c-0.41,0-0.69-0.11-0.84-0.34c-0.16-0.22-0.23-0.55-0.24-0.98v-4.24h-0.72v-0.51h0.72v-1.85h0.76
		v1.85h1v0.51h-1v4.17c0,0.3,0.04,0.51,0.11,0.62c0.07,0.11,0.21,0.17,0.43,0.17c0.14,0,0.28-0.01,0.43-0.04v0.57
		C218.71,196.68,218.5,196.7,218.3,196.7z"/>
	<path class="st4" d="M220.66,196.72c-0.3,0-0.53-0.11-0.69-0.33c-0.16-0.22-0.24-0.54-0.24-0.95v-4.8h0.76v4.64
		c0,0.3,0.05,0.52,0.14,0.65c0.09,0.13,0.23,0.19,0.43,0.19c0.34,0,0.69-0.2,1.06-0.59v-4.9h0.76v5.99h-0.76v-0.66
		C221.68,196.47,221.19,196.72,220.66,196.72z"/>
	<path class="st4" d="M224.1,196.63v-5.99h0.76v0.83c0.18-0.3,0.39-0.53,0.64-0.67c0.24-0.15,0.49-0.22,0.74-0.22
		c0.06,0,0.1,0,0.13,0v0.82c-0.11-0.04-0.23-0.07-0.36-0.07c-0.49,0-0.87,0.23-1.15,0.7v4.6H224.1z"/>
	<path class="st4" d="M230.28,196.72c-0.35,0-0.64-0.13-0.86-0.39c-0.23-0.26-0.34-0.58-0.34-0.96c0-0.2,0.02-0.38,0.05-0.53
		c0.03-0.16,0.1-0.3,0.19-0.44s0.19-0.26,0.3-0.37c0.11-0.11,0.27-0.22,0.47-0.34c0.2-0.12,0.41-0.23,0.61-0.33
		c0.2-0.1,0.47-0.22,0.79-0.37v-0.43c0-0.55-0.05-0.93-0.16-1.14c-0.1-0.21-0.3-0.31-0.59-0.31c-0.55,0-0.83,0.34-0.83,1.03v0.22
		l-0.75-0.03c0-0.1,0-0.16,0-0.18c0.02-0.56,0.17-0.97,0.44-1.23c0.27-0.25,0.66-0.38,1.17-0.38c0.53,0,0.91,0.16,1.13,0.47
		c0.22,0.31,0.33,0.82,0.33,1.51v2.91c0,0.48,0.02,0.88,0.06,1.19h-0.67l-0.11-0.83c-0.09,0.26-0.25,0.48-0.46,0.66
		C230.84,196.64,230.58,196.72,230.28,196.72z M230.52,196.07c0.2,0,0.39-0.07,0.56-0.21c0.17-0.14,0.3-0.31,0.4-0.5v-1.87
		c-0.02,0.01-0.05,0.03-0.1,0.05c-0.17,0.09-0.29,0.16-0.38,0.2c-0.09,0.05-0.19,0.11-0.32,0.18c-0.12,0.07-0.22,0.13-0.28,0.18
		c-0.06,0.05-0.13,0.1-0.21,0.17c-0.08,0.07-0.14,0.13-0.17,0.19c-0.04,0.06-0.07,0.13-0.11,0.21c-0.04,0.08-0.06,0.16-0.08,0.25
		c-0.01,0.09-0.02,0.18-0.02,0.29c0,0.29,0.07,0.51,0.2,0.66C230.16,196,230.32,196.07,230.52,196.07z"/>
	<path class="st4" d="M234.69,196.72c-0.52,0-0.89-0.19-1.11-0.58c-0.22-0.39-0.34-1.03-0.34-1.93v-1.11c0-0.33,0.01-0.62,0.04-0.87
		c0.02-0.25,0.07-0.48,0.13-0.7c0.06-0.22,0.15-0.4,0.25-0.54c0.1-0.14,0.24-0.25,0.41-0.33c0.17-0.08,0.36-0.12,0.59-0.12
		c0.39,0,0.75,0.18,1.06,0.52v-2.83h0.76v8.39h-0.76v-0.42C235.4,196.55,235.06,196.72,234.69,196.72z M234.84,196.12
		c0.29,0,0.58-0.13,0.87-0.39v-4.16c-0.3-0.28-0.6-0.42-0.89-0.42c-0.32,0-0.54,0.13-0.65,0.4c-0.11,0.27-0.17,0.71-0.17,1.31v1.41
		c0,0.65,0.06,1.13,0.17,1.42C234.29,195.98,234.51,196.12,234.84,196.12z"/>
	<path class="st4" d="M237.71,189.81v-1.03h0.76v1.03H237.71z M237.71,196.63v-5.99h0.76v5.99H237.71z"/>
	<path class="st4" d="M239.75,198.6v-7.96h0.76v0.5c0.32-0.39,0.7-0.59,1.15-0.59c0.22,0,0.42,0.05,0.58,0.14
		c0.17,0.09,0.3,0.21,0.39,0.35c0.1,0.14,0.17,0.33,0.23,0.54c0.06,0.22,0.1,0.43,0.12,0.64c0.02,0.21,0.03,0.45,0.03,0.72v1.26
		c0,0.32-0.01,0.6-0.04,0.85c-0.03,0.25-0.07,0.48-0.14,0.7c-0.07,0.21-0.16,0.39-0.27,0.53c-0.11,0.14-0.25,0.25-0.41,0.33
		c-0.17,0.08-0.36,0.12-0.58,0.12c-0.39,0-0.74-0.19-1.07-0.57v2.45H239.75z M241.45,196.12c0.13,0,0.25-0.03,0.34-0.08
		c0.09-0.06,0.17-0.13,0.23-0.23c0.06-0.1,0.11-0.23,0.14-0.39c0.03-0.17,0.06-0.34,0.07-0.53c0.01-0.19,0.02-0.41,0.02-0.68v-1.27
		c0-0.64-0.05-1.1-0.16-1.38c-0.11-0.28-0.33-0.41-0.65-0.41c-0.31,0-0.62,0.15-0.93,0.46v4.08
		C240.78,195.98,241.1,196.12,241.45,196.12z"/>
	<path class="st4" d="M244.15,189.81v-1.03h0.76v1.03H244.15z M244.15,196.63v-5.99h0.76v5.99H244.15z"/>
	<path class="st4" d="M247.55,196.72c-0.48,0-0.86-0.15-1.14-0.46c-0.29-0.31-0.45-0.72-0.49-1.24l0.64-0.19
		c0.04,0.46,0.14,0.79,0.31,1c0.17,0.21,0.4,0.32,0.71,0.32c0.26,0,0.47-0.08,0.62-0.23c0.15-0.15,0.22-0.35,0.22-0.6
		c0-0.01,0-0.02,0-0.04c-0.01-0.4-0.25-0.79-0.73-1.19l-0.81-0.69c-0.29-0.24-0.5-0.47-0.63-0.7c-0.13-0.22-0.19-0.48-0.19-0.78
		c0-0.44,0.13-0.78,0.39-1.02c0.26-0.24,0.6-0.35,1.04-0.35c0.44,0,0.78,0.14,1.02,0.42c0.24,0.28,0.37,0.67,0.4,1.15l-0.54,0.18
		c-0.02-0.4-0.11-0.7-0.25-0.89c-0.14-0.19-0.34-0.29-0.6-0.29c-0.24,0-0.42,0.07-0.57,0.2c-0.14,0.13-0.21,0.3-0.21,0.52
		c0,0.2,0.04,0.36,0.11,0.5c0.07,0.14,0.2,0.29,0.39,0.45l0.84,0.76c0.15,0.13,0.28,0.25,0.37,0.35c0.1,0.1,0.2,0.22,0.31,0.37
		c0.11,0.15,0.19,0.31,0.24,0.48c0.05,0.17,0.08,0.35,0.08,0.55c0,0.46-0.14,0.81-0.42,1.07
		C248.4,196.6,248.02,196.72,247.55,196.72z"/>
	<path class="st4" d="M251.43,196.72c-0.27,0-0.51-0.04-0.7-0.12c-0.2-0.08-0.35-0.19-0.46-0.32c-0.11-0.13-0.21-0.3-0.27-0.51
		c-0.07-0.21-0.11-0.43-0.13-0.65c-0.02-0.22-0.03-0.47-0.03-0.77v-1.4c0-0.44,0.02-0.8,0.07-1.08c0.05-0.29,0.13-0.54,0.25-0.74
		c0.12-0.21,0.28-0.35,0.49-0.45c0.21-0.09,0.47-0.14,0.79-0.14c0.25,0,0.47,0.03,0.65,0.09c0.18,0.06,0.33,0.14,0.44,0.25
		c0.11,0.11,0.2,0.24,0.27,0.41c0.07,0.17,0.11,0.34,0.14,0.52c0.03,0.18,0.04,0.4,0.04,0.64v0.28h-0.7v-0.28
		c0-0.51-0.06-0.87-0.18-1.06c-0.12-0.19-0.33-0.29-0.64-0.29c-0.34,0-0.57,0.12-0.68,0.37c-0.11,0.24-0.17,0.7-0.17,1.35v1.68
		c0,0.61,0.06,1.04,0.18,1.28c0.12,0.24,0.34,0.36,0.68,0.36c0.14,0,0.26-0.02,0.36-0.06c0.1-0.04,0.18-0.1,0.23-0.17
		c0.06-0.07,0.11-0.17,0.14-0.29c0.03-0.12,0.06-0.26,0.07-0.4c0.01-0.14,0.02-0.32,0.02-0.53v-0.33h0.7v0.29
		c0,0.26-0.01,0.49-0.03,0.68c-0.02,0.19-0.07,0.38-0.13,0.56c-0.07,0.18-0.15,0.33-0.26,0.44c-0.11,0.11-0.26,0.2-0.44,0.27
		C251.9,196.69,251.68,196.72,251.43,196.72z"/>
	<path class="st4" d="M254.05,189.81v-1.03h0.76v1.03H254.05z M254.05,196.63v-5.99h0.76v5.99H254.05z"/>
	<path class="st4" d="M256.08,196.63v-5.99h0.76v0.62c0.44-0.48,0.92-0.71,1.44-0.71c0.3,0,0.52,0.11,0.68,0.33
		c0.16,0.22,0.24,0.54,0.24,0.94v4.81h-0.76v-4.64c0-0.3-0.05-0.52-0.14-0.65c-0.09-0.13-0.24-0.19-0.43-0.19
		c-0.33,0-0.67,0.18-1.03,0.55v4.93H256.08z"/>
	<path class="st4" d="M261.96,198.6c-0.32,0-0.6-0.02-0.84-0.05c-0.24-0.03-0.46-0.09-0.64-0.17c-0.19-0.08-0.33-0.18-0.42-0.32
		c-0.1-0.13-0.15-0.29-0.15-0.48c0-0.29,0.1-0.56,0.29-0.8c0.19-0.24,0.43-0.43,0.7-0.58c-0.18-0.05-0.34-0.12-0.47-0.22
		c-0.13-0.1-0.2-0.2-0.2-0.31c0-0.32,0.24-0.72,0.71-1.21c-0.5-0.36-0.75-0.97-0.75-1.83c0-0.29,0.03-0.56,0.1-0.81
		c0.07-0.25,0.17-0.47,0.3-0.66c0.13-0.19,0.31-0.35,0.52-0.46c0.22-0.11,0.46-0.17,0.74-0.17c0.6,0,1.03,0.25,1.29,0.74
		c0.06-0.11,0.17-0.23,0.32-0.36c0.15-0.13,0.31-0.23,0.49-0.31l0.16-0.07l0.2,0.53c-0.17,0.04-0.35,0.11-0.55,0.22
		c-0.2,0.1-0.35,0.21-0.43,0.3c0.05,0.12,0.09,0.29,0.13,0.51c0.04,0.22,0.06,0.4,0.06,0.54c0,0.64-0.13,1.15-0.4,1.53
		c-0.26,0.38-0.68,0.56-1.26,0.56c-0.09,0-0.2-0.01-0.33-0.03c-0.13-0.02-0.22-0.04-0.27-0.06c-0.01,0.02-0.05,0.07-0.11,0.17
		c-0.07,0.1-0.12,0.17-0.15,0.23c-0.03,0.05-0.07,0.12-0.1,0.19c-0.03,0.08-0.05,0.14-0.05,0.19c0,0.1,0.17,0.17,0.5,0.23
		c0.07,0.02,0.24,0.05,0.51,0.09c0.27,0.04,0.42,0.06,0.46,0.07c0.49,0.09,0.86,0.24,1.12,0.46c0.25,0.22,0.38,0.53,0.38,0.92
		c0,0.48-0.17,0.83-0.5,1.05C262.99,198.48,262.53,198.6,261.96,198.6z M261.95,197.99c0.39,0,0.7-0.06,0.93-0.19
		c0.23-0.13,0.34-0.32,0.34-0.57c0-0.22-0.08-0.39-0.23-0.51c-0.16-0.12-0.45-0.22-0.9-0.3l-0.77-0.1
		c-0.51,0.31-0.76,0.66-0.76,1.03c0,0.23,0.11,0.4,0.32,0.5C261.1,197.94,261.46,197.99,261.95,197.99z M261.88,194.21
		c0.17,0,0.32-0.03,0.44-0.1c0.12-0.06,0.22-0.15,0.29-0.24c0.07-0.1,0.12-0.22,0.16-0.37c0.04-0.15,0.07-0.28,0.08-0.41
		c0.01-0.13,0.02-0.28,0.02-0.45c0-1.03-0.33-1.55-0.98-1.55c-0.16,0-0.3,0.03-0.42,0.1c-0.12,0.07-0.22,0.15-0.29,0.25
		c-0.07,0.1-0.13,0.22-0.18,0.36s-0.08,0.28-0.09,0.41c-0.02,0.13-0.02,0.27-0.02,0.42C260.88,193.68,261.21,194.21,261.88,194.21z"
		/>
	<path class="st4" d="M87.36,209.15c-0.57,0-0.99-0.18-1.24-0.53c-0.25-0.35-0.38-0.96-0.38-1.82v-1.51c0-0.58,0.06-1.05,0.18-1.39
		c0.12-0.34,0.3-0.58,0.53-0.72c0.23-0.14,0.54-0.21,0.92-0.21c0.25,0,0.47,0.03,0.65,0.1c0.18,0.07,0.33,0.16,0.45,0.28
		c0.12,0.12,0.21,0.29,0.28,0.49c0.07,0.21,0.12,0.44,0.14,0.69c0.03,0.25,0.04,0.55,0.04,0.91l0,0.54H86.5v0.9
		c0,0.62,0.06,1.06,0.18,1.31c0.12,0.26,0.34,0.38,0.68,0.38c0.26,0,0.46-0.08,0.61-0.25c0.14-0.17,0.21-0.47,0.21-0.91v-0.42h0.74
		v0.33c0,0.58-0.12,1.03-0.36,1.34C88.31,209,87.91,209.15,87.36,209.15z M86.5,205.55h1.67v-0.5c0-0.21,0-0.38-0.02-0.52
		c-0.01-0.14-0.03-0.28-0.06-0.41c-0.03-0.14-0.08-0.24-0.13-0.32c-0.06-0.08-0.14-0.14-0.24-0.19c-0.1-0.05-0.22-0.07-0.36-0.07
		c-0.32,0-0.54,0.11-0.67,0.33c-0.13,0.22-0.19,0.65-0.19,1.27V205.55z"/>
	<path class="st4" d="M90.05,209.06v-8.39h0.76v8.39H90.05z"/>
	<path class="st4" d="M92.13,202.25v-1.03h0.76v1.03H92.13z M92.13,209.06v-5.99h0.76v5.99H92.13z"/>
	<path class="st4" d="M95.57,209.13c-0.41,0-0.69-0.11-0.84-0.34c-0.16-0.22-0.23-0.55-0.24-0.98v-4.24h-0.72v-0.51h0.72v-1.85h0.76
		v1.85h1v0.51h-1v4.17c0,0.3,0.04,0.51,0.11,0.62c0.07,0.11,0.21,0.17,0.43,0.17c0.14,0,0.28-0.01,0.43-0.04v0.57
		C95.99,209.11,95.77,209.13,95.57,209.13z"/>
	<path class="st4" d="M97.14,210.27l-0.16-0.33c0.18-0.1,0.31-0.22,0.38-0.35c0.08-0.13,0.11-0.31,0.11-0.52h-0.46v-1.13h0.85v1.05
		c0,0.34-0.06,0.6-0.17,0.8C97.6,209.97,97.41,210.13,97.14,210.27z"/>
	<path class="st4" d="M102.41,209.15c-0.48,0-0.86-0.15-1.14-0.46c-0.29-0.31-0.45-0.72-0.49-1.24l0.64-0.19
		c0.04,0.46,0.14,0.79,0.31,1c0.17,0.21,0.4,0.32,0.71,0.32c0.26,0,0.47-0.08,0.62-0.23c0.15-0.15,0.22-0.35,0.22-0.6
		c0-0.01,0-0.02,0-0.04c-0.01-0.4-0.25-0.79-0.73-1.19l-0.81-0.69c-0.29-0.24-0.5-0.47-0.63-0.7c-0.13-0.22-0.19-0.48-0.19-0.78
		c0-0.44,0.13-0.78,0.39-1.02c0.26-0.24,0.6-0.35,1.04-0.35c0.44,0,0.78,0.14,1.02,0.42c0.24,0.28,0.37,0.67,0.4,1.15l-0.54,0.18
		c-0.02-0.4-0.11-0.7-0.25-0.89c-0.14-0.19-0.34-0.29-0.6-0.29c-0.24,0-0.42,0.07-0.57,0.2c-0.14,0.13-0.21,0.3-0.21,0.52
		c0,0.2,0.04,0.36,0.11,0.5c0.07,0.14,0.2,0.29,0.39,0.45l0.84,0.76c0.15,0.13,0.28,0.25,0.37,0.35c0.1,0.1,0.2,0.22,0.31,0.37
		c0.11,0.15,0.19,0.31,0.24,0.48c0.05,0.17,0.08,0.35,0.08,0.55c0,0.46-0.14,0.81-0.42,1.07
		C103.25,209.03,102.88,209.15,102.41,209.15z"/>
	<path class="st4" d="M106.3,209.15c-0.57,0-0.99-0.18-1.24-0.53c-0.25-0.35-0.38-0.96-0.38-1.82v-1.51c0-0.58,0.06-1.05,0.18-1.39
		c0.12-0.34,0.3-0.58,0.53-0.72c0.23-0.14,0.54-0.21,0.92-0.21c0.25,0,0.47,0.03,0.65,0.1c0.18,0.07,0.33,0.16,0.45,0.28
		c0.12,0.12,0.21,0.29,0.28,0.49c0.07,0.21,0.12,0.44,0.14,0.69c0.03,0.25,0.04,0.55,0.04,0.91l0,0.54h-2.42v0.9
		c0,0.62,0.06,1.06,0.18,1.31c0.12,0.26,0.34,0.38,0.68,0.38c0.26,0,0.46-0.08,0.61-0.25c0.14-0.17,0.21-0.47,0.21-0.91v-0.42h0.74
		v0.33c0,0.58-0.12,1.03-0.36,1.34C107.25,209,106.86,209.15,106.3,209.15z M105.44,205.55h1.67v-0.5c0-0.21,0-0.38-0.02-0.52
		c-0.01-0.14-0.03-0.28-0.06-0.41c-0.03-0.14-0.08-0.24-0.13-0.32c-0.06-0.08-0.14-0.14-0.24-0.19c-0.1-0.05-0.22-0.07-0.36-0.07
		c-0.32,0-0.54,0.11-0.67,0.33c-0.13,0.22-0.19,0.65-0.19,1.27V205.55z"/>
	<path class="st4" d="M110.22,209.15c-0.52,0-0.89-0.19-1.11-0.58c-0.22-0.39-0.34-1.03-0.34-1.93v-1.11c0-0.33,0.01-0.62,0.04-0.87
		c0.02-0.25,0.07-0.48,0.13-0.7c0.06-0.22,0.15-0.4,0.25-0.54c0.1-0.14,0.24-0.25,0.41-0.33s0.36-0.12,0.59-0.12
		c0.39,0,0.75,0.18,1.06,0.52v-2.83H112v8.39h-0.76v-0.42C110.94,208.98,110.6,209.15,110.22,209.15z M110.37,208.55
		c0.29,0,0.58-0.13,0.87-0.39V204c-0.3-0.28-0.6-0.42-0.89-0.42c-0.32,0-0.54,0.13-0.65,0.4c-0.11,0.27-0.17,0.71-0.17,1.31v1.41
		c0,0.65,0.06,1.13,0.17,1.42C109.82,208.41,110.04,208.55,110.37,208.55z"/>
	<path class="st4" d="M116.61,209.15c-0.52,0-0.89-0.19-1.11-0.58c-0.22-0.39-0.34-1.03-0.34-1.93v-1.11c0-0.33,0.01-0.62,0.04-0.87
		s0.07-0.48,0.13-0.7c0.06-0.22,0.15-0.4,0.25-0.54c0.1-0.14,0.24-0.25,0.41-0.33c0.17-0.08,0.36-0.12,0.59-0.12
		c0.39,0,0.75,0.18,1.06,0.52v-2.83h0.76v8.39h-0.76v-0.42C117.33,208.98,116.99,209.15,116.61,209.15z M116.76,208.55
		c0.29,0,0.58-0.13,0.87-0.39V204c-0.3-0.28-0.6-0.42-0.89-0.42c-0.32,0-0.54,0.13-0.65,0.4c-0.11,0.27-0.17,0.71-0.17,1.31v1.41
		c0,0.65,0.06,1.13,0.17,1.42C116.21,208.41,116.43,208.55,116.76,208.55z"/>
	<path class="st4" d="M121.81,209.01c-0.21,0.1-0.47,0.15-0.77,0.15c-0.31,0-0.56-0.05-0.77-0.15c-0.21-0.1-0.37-0.25-0.49-0.45
		c-0.12-0.2-0.21-0.43-0.26-0.7c-0.05-0.27-0.08-0.59-0.08-0.97v-1.66c0-0.76,0.12-1.33,0.35-1.7c0.24-0.37,0.65-0.56,1.24-0.56
		c0.6,0,1.01,0.18,1.25,0.55c0.23,0.37,0.35,0.94,0.35,1.7v1.66c0,0.38-0.03,0.7-0.08,0.97c-0.05,0.27-0.14,0.5-0.25,0.7
		C122.18,208.76,122.02,208.91,121.81,209.01z M121.04,208.58c0.15,0,0.28-0.03,0.38-0.08c0.1-0.06,0.19-0.13,0.25-0.21
		c0.06-0.09,0.1-0.2,0.13-0.36c0.03-0.16,0.05-0.3,0.06-0.45c0.01-0.14,0.01-0.33,0.01-0.55v-1.74c0-0.23,0-0.41-0.01-0.55
		c-0.01-0.14-0.03-0.29-0.06-0.45c-0.03-0.15-0.08-0.27-0.13-0.36c-0.06-0.08-0.14-0.15-0.25-0.21c-0.1-0.06-0.23-0.08-0.38-0.08
		c-0.13,0-0.24,0.02-0.33,0.05c-0.09,0.03-0.17,0.09-0.23,0.16c-0.06,0.08-0.11,0.16-0.15,0.24c-0.04,0.09-0.07,0.2-0.08,0.34
		c-0.02,0.14-0.03,0.27-0.04,0.39c0,0.12-0.01,0.28-0.01,0.46v1.74c0,0.19,0,0.34,0.01,0.46c0,0.12,0.02,0.25,0.04,0.39
		c0.02,0.14,0.05,0.25,0.08,0.34c0.04,0.09,0.09,0.17,0.15,0.24c0.06,0.08,0.14,0.13,0.23,0.16
		C120.8,208.57,120.91,208.58,121.04,208.58z"/>
	<path class="st4" d="M127.3,209.15c-0.57,0-0.99-0.18-1.24-0.53c-0.25-0.35-0.38-0.96-0.38-1.82v-1.51c0-0.58,0.06-1.05,0.18-1.39
		c0.12-0.34,0.3-0.58,0.53-0.72c0.23-0.14,0.54-0.21,0.92-0.21c0.25,0,0.47,0.03,0.65,0.1c0.18,0.07,0.33,0.16,0.45,0.28
		c0.12,0.12,0.21,0.29,0.28,0.49c0.07,0.21,0.12,0.44,0.14,0.69c0.03,0.25,0.04,0.55,0.04,0.91l0,0.54h-2.42v0.9
		c0,0.62,0.06,1.06,0.18,1.31c0.12,0.26,0.34,0.38,0.68,0.38c0.26,0,0.46-0.08,0.61-0.25c0.14-0.17,0.21-0.47,0.21-0.91v-0.42h0.74
		v0.33c0,0.58-0.12,1.03-0.36,1.34C128.25,209,127.85,209.15,127.3,209.15z M126.44,205.55h1.67v-0.5c0-0.21,0-0.38-0.02-0.52
		c-0.01-0.14-0.03-0.28-0.06-0.41c-0.03-0.14-0.08-0.24-0.13-0.32c-0.06-0.08-0.14-0.14-0.24-0.19c-0.1-0.05-0.22-0.07-0.36-0.07
		c-0.32,0-0.54,0.11-0.67,0.33c-0.13,0.22-0.19,0.65-0.19,1.27V205.55z"/>
	<path class="st4" d="M129.97,202.25v-1.03h0.76v1.03H129.97z M129.97,209.06v-5.99h0.76v5.99H129.97z"/>
	<path class="st4" d="M132.88,209.15c-0.3,0-0.53-0.11-0.69-0.33c-0.16-0.22-0.24-0.54-0.24-0.95v-4.8h0.76v4.64
		c0,0.3,0.05,0.52,0.14,0.65c0.09,0.13,0.23,0.19,0.43,0.19c0.34,0,0.69-0.2,1.06-0.59v-4.9h0.76v5.99h-0.76v-0.66
		C133.9,208.9,133.41,209.15,132.88,209.15z"/>
	<path class="st4" d="M137.63,209.15c-0.48,0-0.86-0.15-1.14-0.46c-0.29-0.31-0.45-0.72-0.49-1.24l0.64-0.19
		c0.04,0.46,0.14,0.79,0.31,1c0.17,0.21,0.4,0.32,0.71,0.32c0.26,0,0.47-0.08,0.62-0.23c0.15-0.15,0.22-0.35,0.22-0.6
		c0-0.01,0-0.02,0-0.04c-0.01-0.4-0.25-0.79-0.73-1.19l-0.81-0.69c-0.29-0.24-0.5-0.47-0.63-0.7c-0.13-0.22-0.19-0.48-0.19-0.78
		c0-0.44,0.13-0.78,0.39-1.02c0.26-0.24,0.6-0.35,1.04-0.35c0.44,0,0.78,0.14,1.02,0.42c0.24,0.28,0.37,0.67,0.4,1.15l-0.54,0.18
		c-0.02-0.4-0.11-0.7-0.25-0.89c-0.14-0.19-0.34-0.29-0.6-0.29c-0.24,0-0.42,0.07-0.57,0.2c-0.14,0.13-0.21,0.3-0.21,0.52
		c0,0.2,0.04,0.36,0.11,0.5c0.07,0.14,0.2,0.29,0.39,0.45l0.84,0.76c0.15,0.13,0.28,0.25,0.37,0.35c0.1,0.1,0.2,0.22,0.31,0.37
		c0.11,0.15,0.19,0.31,0.24,0.48c0.05,0.17,0.08,0.35,0.08,0.55c0,0.46-0.14,0.81-0.42,1.07
		C138.48,209.03,138.1,209.15,137.63,209.15z"/>
	<path class="st4" d="M140.02,209.06v-5.99h0.71v0.61c0.4-0.48,0.87-0.71,1.41-0.71c0.5,0,0.81,0.26,0.94,0.79
		c0.42-0.53,0.91-0.79,1.48-0.79c0.3,0,0.54,0.11,0.73,0.32c0.19,0.21,0.29,0.56,0.29,1.05v4.72h-0.72v-4.7
		c0-0.33-0.05-0.55-0.15-0.68c-0.1-0.13-0.25-0.19-0.44-0.19c-0.38,0.01-0.76,0.21-1.13,0.62c0.01,0.1,0.01,0.18,0.01,0.23v4.72
		h-0.71v-4.7c0-0.33-0.05-0.55-0.16-0.68c-0.1-0.13-0.25-0.19-0.44-0.19c-0.38,0.01-0.75,0.21-1.12,0.62v4.96H140.02z"/>
	<path class="st4" d="M148.95,209.01c-0.21,0.1-0.47,0.15-0.77,0.15c-0.31,0-0.56-0.05-0.77-0.15c-0.21-0.1-0.37-0.25-0.49-0.45
		c-0.12-0.2-0.21-0.43-0.26-0.7c-0.05-0.27-0.08-0.59-0.08-0.97v-1.66c0-0.76,0.12-1.33,0.35-1.7c0.24-0.37,0.65-0.56,1.24-0.56
		c0.6,0,1.01,0.18,1.25,0.55c0.23,0.37,0.35,0.94,0.35,1.7v1.66c0,0.38-0.03,0.7-0.08,0.97c-0.05,0.27-0.14,0.5-0.25,0.7
		C149.32,208.76,149.16,208.91,148.95,209.01z M148.18,208.58c0.15,0,0.28-0.03,0.38-0.08c0.1-0.06,0.19-0.13,0.25-0.21
		c0.06-0.09,0.1-0.2,0.13-0.36c0.03-0.16,0.05-0.3,0.06-0.45c0.01-0.14,0.01-0.33,0.01-0.55v-1.74c0-0.23,0-0.41-0.01-0.55
		c-0.01-0.14-0.03-0.29-0.06-0.45c-0.03-0.15-0.08-0.27-0.13-0.36c-0.06-0.08-0.14-0.15-0.25-0.21c-0.1-0.06-0.23-0.08-0.38-0.08
		c-0.13,0-0.24,0.02-0.33,0.05c-0.09,0.03-0.17,0.09-0.23,0.16c-0.06,0.08-0.11,0.16-0.15,0.24c-0.04,0.09-0.07,0.2-0.08,0.34
		c-0.02,0.14-0.03,0.27-0.04,0.39c0,0.12-0.01,0.28-0.01,0.46v1.74c0,0.19,0,0.34,0.01,0.46c0,0.12,0.02,0.25,0.04,0.39
		c0.02,0.14,0.05,0.25,0.08,0.34c0.04,0.09,0.09,0.17,0.15,0.24c0.06,0.08,0.14,0.13,0.23,0.16
		C147.94,208.57,148.05,208.58,148.18,208.58z"/>
	<path class="st4" d="M152.15,209.15c-0.52,0-0.89-0.19-1.11-0.58c-0.22-0.39-0.34-1.03-0.34-1.93v-1.11c0-0.33,0.01-0.62,0.04-0.87
		c0.02-0.25,0.07-0.48,0.13-0.7c0.06-0.22,0.15-0.4,0.25-0.54c0.1-0.14,0.24-0.25,0.41-0.33c0.16-0.08,0.36-0.12,0.59-0.12
		c0.39,0,0.75,0.18,1.06,0.52v-2.83h0.76v8.39h-0.76v-0.42C152.87,208.98,152.53,209.15,152.15,209.15z M152.3,208.55
		c0.29,0,0.58-0.13,0.87-0.39V204c-0.3-0.28-0.6-0.42-0.89-0.42c-0.32,0-0.54,0.13-0.65,0.4c-0.11,0.27-0.17,0.71-0.17,1.31v1.41
		c0,0.65,0.06,1.13,0.17,1.42C151.75,208.41,151.97,208.55,152.3,208.55z"/>
	<path class="st4" d="M158.63,209.13c-0.41,0-0.69-0.11-0.84-0.34c-0.16-0.22-0.23-0.55-0.24-0.98v-4.24h-0.72v-0.51h0.72v-1.85
		h0.76v1.85h1v0.51h-1v4.17c0,0.3,0.04,0.51,0.11,0.62c0.07,0.11,0.21,0.17,0.43,0.17c0.14,0,0.28-0.01,0.43-0.04v0.57
		C159.04,209.11,158.83,209.13,158.63,209.13z"/>
	<path class="st4" d="M161.61,209.15c-0.57,0-0.99-0.18-1.24-0.53c-0.25-0.35-0.38-0.96-0.38-1.82v-1.51c0-0.58,0.06-1.05,0.18-1.39
		c0.12-0.34,0.3-0.58,0.53-0.72c0.23-0.14,0.54-0.21,0.92-0.21c0.25,0,0.47,0.03,0.65,0.1c0.18,0.07,0.33,0.16,0.45,0.28
		c0.12,0.12,0.21,0.29,0.28,0.49c0.07,0.21,0.12,0.44,0.14,0.69c0.03,0.25,0.04,0.55,0.04,0.91l0,0.54h-2.42v0.9
		c0,0.62,0.06,1.06,0.18,1.31c0.12,0.26,0.34,0.38,0.68,0.38c0.26,0,0.46-0.08,0.61-0.25c0.14-0.17,0.21-0.47,0.21-0.91v-0.42h0.74
		v0.33c0,0.58-0.12,1.03-0.36,1.34C162.56,209,162.16,209.15,161.61,209.15z M160.75,205.55h1.67v-0.5c0-0.21,0-0.38-0.02-0.52
		c-0.01-0.14-0.03-0.28-0.06-0.41c-0.03-0.14-0.08-0.24-0.13-0.32c-0.06-0.08-0.14-0.14-0.24-0.19c-0.1-0.05-0.22-0.07-0.36-0.07
		c-0.32,0-0.54,0.11-0.67,0.33c-0.13,0.22-0.19,0.65-0.19,1.27V205.55z"/>
	<path class="st4" d="M164.2,209.06v-5.99h0.71v0.61c0.4-0.48,0.87-0.71,1.41-0.71c0.5,0,0.81,0.26,0.94,0.79
		c0.42-0.53,0.91-0.79,1.48-0.79c0.3,0,0.54,0.11,0.73,0.32c0.19,0.21,0.29,0.56,0.29,1.05v4.72h-0.72v-4.7
		c0-0.33-0.05-0.55-0.15-0.68c-0.1-0.13-0.25-0.19-0.44-0.19c-0.38,0.01-0.76,0.21-1.13,0.62c0.01,0.1,0.01,0.18,0.01,0.23v4.72
		h-0.71v-4.7c0-0.33-0.05-0.55-0.16-0.68c-0.1-0.13-0.25-0.19-0.44-0.19c-0.38,0.01-0.75,0.21-1.12,0.62v4.96H164.2z"/>
	<path class="st4" d="M170.87,211.03v-7.96h0.76v0.5c0.32-0.39,0.7-0.59,1.15-0.59c0.22,0,0.42,0.05,0.58,0.14
		c0.17,0.09,0.3,0.21,0.39,0.35c0.1,0.14,0.17,0.33,0.23,0.54c0.06,0.22,0.1,0.43,0.12,0.64c0.02,0.21,0.03,0.45,0.03,0.72v1.26
		c0,0.32-0.01,0.6-0.04,0.85c-0.03,0.25-0.07,0.48-0.14,0.7c-0.07,0.21-0.16,0.39-0.27,0.53c-0.11,0.14-0.25,0.25-0.41,0.33
		c-0.17,0.08-0.36,0.12-0.58,0.12c-0.39,0-0.74-0.19-1.07-0.57v2.45H170.87z M172.58,208.55c0.13,0,0.25-0.03,0.34-0.08
		c0.09-0.06,0.17-0.13,0.23-0.23c0.06-0.1,0.11-0.23,0.14-0.39c0.03-0.17,0.06-0.34,0.07-0.53c0.01-0.19,0.02-0.41,0.02-0.68v-1.27
		c0-0.64-0.05-1.1-0.16-1.38c-0.11-0.28-0.33-0.42-0.65-0.42c-0.31,0-0.62,0.15-0.93,0.46v4.08
		C171.91,208.41,172.22,208.55,172.58,208.55z"/>
	<path class="st4" d="M177.45,209.01c-0.21,0.1-0.47,0.15-0.77,0.15s-0.56-0.05-0.77-0.15c-0.21-0.1-0.37-0.25-0.49-0.45
		c-0.12-0.2-0.21-0.43-0.26-0.7c-0.05-0.27-0.08-0.59-0.08-0.97v-1.66c0-0.76,0.12-1.33,0.35-1.7c0.24-0.37,0.65-0.56,1.24-0.56
		c0.6,0,1.01,0.18,1.25,0.55c0.23,0.37,0.35,0.94,0.35,1.7v1.66c0,0.38-0.03,0.7-0.08,0.97c-0.05,0.27-0.14,0.5-0.25,0.7
		C177.83,208.76,177.66,208.91,177.45,209.01z M176.68,208.58c0.15,0,0.28-0.03,0.38-0.08c0.1-0.06,0.19-0.13,0.25-0.21
		c0.06-0.09,0.1-0.2,0.13-0.36c0.03-0.16,0.05-0.3,0.06-0.45c0.01-0.14,0.01-0.33,0.01-0.55v-1.74c0-0.23,0-0.41-0.01-0.55
		c-0.01-0.14-0.03-0.29-0.06-0.45c-0.03-0.15-0.08-0.27-0.13-0.36c-0.06-0.08-0.14-0.15-0.25-0.21c-0.1-0.06-0.23-0.08-0.38-0.08
		c-0.13,0-0.24,0.02-0.33,0.05c-0.09,0.03-0.17,0.09-0.23,0.16c-0.06,0.08-0.11,0.16-0.15,0.24c-0.04,0.09-0.07,0.2-0.08,0.34
		c-0.02,0.14-0.03,0.27-0.04,0.39c0,0.12-0.01,0.28-0.01,0.46v1.74c0,0.19,0,0.34,0.01,0.46c0,0.12,0.02,0.25,0.04,0.39
		c0.02,0.14,0.05,0.25,0.08,0.34c0.04,0.09,0.09,0.17,0.15,0.24c0.06,0.08,0.14,0.13,0.23,0.16
		C176.44,208.57,176.55,208.58,176.68,208.58z"/>
	<path class="st4" d="M179.38,209.06v-5.99h0.76v0.83c0.18-0.3,0.39-0.53,0.64-0.67c0.24-0.15,0.49-0.22,0.74-0.22
		c0.06,0,0.1,0,0.13,0v0.82c-0.11-0.04-0.23-0.07-0.36-0.07c-0.49,0-0.87,0.23-1.15,0.7v4.6H179.38z"/>
	<path class="st4" d="M184.61,202.25v-1.03h0.76v1.03H184.61z M184.61,209.06v-5.99h0.76v5.99H184.61z"/>
	<path class="st4" d="M186.63,209.06v-5.99h0.76v0.62c0.44-0.48,0.92-0.71,1.44-0.71c0.3,0,0.52,0.11,0.68,0.33
		c0.16,0.22,0.24,0.54,0.24,0.94v4.81H189v-4.64c0-0.3-0.05-0.52-0.14-0.65c-0.09-0.13-0.24-0.19-0.43-0.19
		c-0.33,0-0.67,0.18-1.03,0.55v4.93H186.63z"/>
	<path class="st4" d="M192.36,209.15c-0.27,0-0.51-0.04-0.7-0.12c-0.2-0.08-0.35-0.19-0.46-0.32c-0.11-0.13-0.21-0.3-0.27-0.51
		c-0.07-0.21-0.11-0.43-0.13-0.65c-0.02-0.22-0.03-0.47-0.03-0.77v-1.4c0-0.44,0.02-0.8,0.07-1.08c0.05-0.29,0.13-0.54,0.25-0.74
		c0.12-0.21,0.28-0.35,0.49-0.45c0.21-0.09,0.47-0.14,0.79-0.14c0.25,0,0.47,0.03,0.65,0.09c0.18,0.06,0.33,0.14,0.44,0.25
		c0.11,0.11,0.2,0.24,0.27,0.41c0.07,0.16,0.11,0.34,0.14,0.52c0.03,0.18,0.04,0.4,0.04,0.64v0.28h-0.7v-0.28
		c0-0.51-0.06-0.87-0.18-1.06c-0.12-0.19-0.33-0.29-0.64-0.29c-0.34,0-0.57,0.12-0.68,0.37c-0.11,0.24-0.17,0.7-0.17,1.35v1.68
		c0,0.61,0.06,1.04,0.18,1.28c0.12,0.24,0.34,0.36,0.68,0.36c0.14,0,0.26-0.02,0.36-0.06c0.1-0.04,0.18-0.1,0.23-0.17
		c0.06-0.07,0.11-0.17,0.14-0.29c0.03-0.12,0.06-0.26,0.07-0.4c0.01-0.14,0.02-0.32,0.02-0.53v-0.33h0.7v0.29
		c0,0.26-0.01,0.49-0.03,0.68c-0.02,0.19-0.07,0.38-0.13,0.56c-0.07,0.18-0.15,0.33-0.26,0.44c-0.11,0.11-0.26,0.2-0.44,0.27
		C192.84,209.12,192.62,209.15,192.36,209.15z"/>
	<path class="st4" d="M194.98,202.25v-1.03h0.76v1.03H194.98z M194.98,209.06v-5.99h0.76v5.99H194.98z"/>
	<path class="st4" d="M198.35,209.15c-0.52,0-0.89-0.19-1.11-0.58c-0.22-0.39-0.34-1.03-0.34-1.93v-1.11c0-0.33,0.01-0.62,0.04-0.87
		c0.02-0.25,0.07-0.48,0.13-0.7c0.06-0.22,0.15-0.4,0.25-0.54c0.1-0.14,0.24-0.25,0.41-0.33c0.16-0.08,0.36-0.12,0.59-0.12
		c0.39,0,0.75,0.18,1.06,0.52v-2.83h0.76v8.39h-0.76v-0.42C199.07,208.98,198.73,209.15,198.35,209.15z M198.5,208.55
		c0.29,0,0.58-0.13,0.87-0.39V204c-0.3-0.28-0.6-0.42-0.89-0.42c-0.32,0-0.54,0.13-0.65,0.4c-0.11,0.27-0.17,0.71-0.17,1.31v1.41
		c0,0.65,0.06,1.13,0.17,1.42C197.95,208.41,198.17,208.55,198.5,208.55z"/>
	<path class="st4" d="M201.37,202.25v-1.03h0.76v1.03H201.37z M201.37,209.06v-5.99h0.76v5.99H201.37z"/>
	<path class="st4" d="M204.74,209.15c-0.52,0-0.89-0.19-1.11-0.58c-0.22-0.39-0.34-1.03-0.34-1.93v-1.11c0-0.33,0.01-0.62,0.04-0.87
		c0.02-0.25,0.07-0.48,0.13-0.7c0.06-0.22,0.15-0.4,0.25-0.54c0.1-0.14,0.24-0.25,0.41-0.33c0.17-0.08,0.36-0.12,0.59-0.12
		c0.39,0,0.75,0.18,1.06,0.52v-2.83h0.76v8.39h-0.76v-0.42C205.45,208.98,205.11,209.15,204.74,209.15z M204.89,208.55
		c0.29,0,0.58-0.13,0.87-0.39V204c-0.3-0.28-0.6-0.42-0.89-0.42c-0.32,0-0.54,0.13-0.65,0.4c-0.11,0.27-0.17,0.71-0.17,1.31v1.41
		c0,0.65,0.06,1.13,0.17,1.42C204.34,208.41,204.56,208.55,204.89,208.55z"/>
	<path class="st4" d="M208.56,209.15c-0.3,0-0.53-0.11-0.69-0.33c-0.16-0.22-0.24-0.54-0.24-0.95v-4.8h0.76v4.64
		c0,0.3,0.05,0.52,0.14,0.65c0.09,0.13,0.23,0.19,0.43,0.19c0.34,0,0.69-0.2,1.06-0.59v-4.9h0.76v5.99h-0.76v-0.66
		C209.58,208.9,209.09,209.15,208.56,209.15z"/>
	<path class="st4" d="M211.94,209.06v-5.99h0.76v0.62c0.44-0.48,0.92-0.71,1.44-0.71c0.3,0,0.52,0.11,0.68,0.33
		c0.16,0.22,0.24,0.54,0.24,0.94v4.81h-0.76v-4.64c0-0.3-0.05-0.52-0.14-0.65s-0.24-0.19-0.43-0.19c-0.33,0-0.67,0.18-1.03,0.55
		v4.93H211.94z"/>
	<path class="st4" d="M217.6,209.13c-0.41,0-0.69-0.11-0.84-0.34c-0.16-0.22-0.23-0.55-0.24-0.98v-4.24h-0.72v-0.51h0.72v-1.85h0.76
		v1.85h1v0.51h-1v4.17c0,0.3,0.04,0.51,0.11,0.62c0.07,0.11,0.21,0.17,0.43,0.17c0.14,0,0.28-0.01,0.43-0.04v0.57
		C218.01,209.11,217.8,209.13,217.6,209.13z"/>
	<path class="st4" d="M86.73,221.58c-0.3,0-0.53-0.11-0.69-0.33c-0.16-0.22-0.24-0.54-0.24-0.95v-4.8h0.76v4.64
		c0,0.3,0.05,0.52,0.14,0.65c0.09,0.13,0.23,0.19,0.43,0.19c0.34,0,0.69-0.2,1.06-0.59v-4.9h0.76v5.99H88.2v-0.66
		C87.76,221.33,87.27,221.58,86.73,221.58z"/>
	<path class="st4" d="M91.54,221.57c-0.41,0-0.69-0.11-0.84-0.34c-0.16-0.22-0.23-0.55-0.24-0.98v-4.24h-0.72v-0.51h0.72v-1.85h0.76
		v1.85h1v0.51h-1v4.17c0,0.3,0.04,0.51,0.11,0.62c0.07,0.11,0.21,0.17,0.43,0.17c0.14,0,0.28-0.01,0.43-0.04v0.57
		C91.95,221.54,91.74,221.57,91.54,221.57z"/>
	<path class="st4" d="M95.24,221.49v-8.39H96v8.39H95.24z"/>
	<path class="st4" d="M98.26,221.59c-0.35,0-0.64-0.13-0.86-0.39c-0.23-0.26-0.34-0.58-0.34-0.96c0-0.2,0.02-0.38,0.05-0.53
		c0.03-0.16,0.1-0.3,0.19-0.44c0.09-0.14,0.19-0.26,0.3-0.37c0.11-0.11,0.27-0.22,0.47-0.34c0.2-0.12,0.41-0.23,0.61-0.33
		c0.2-0.1,0.47-0.22,0.79-0.37v-0.43c0-0.55-0.05-0.93-0.16-1.14c-0.1-0.21-0.3-0.31-0.59-0.31c-0.55,0-0.83,0.34-0.83,1.03v0.22
		l-0.75-0.03c0-0.1,0-0.16,0-0.18c0.02-0.56,0.17-0.97,0.44-1.23c0.27-0.25,0.66-0.38,1.17-0.38c0.53,0,0.91,0.16,1.13,0.47
		c0.22,0.31,0.33,0.82,0.33,1.51v2.91c0,0.48,0.02,0.88,0.06,1.19h-0.67l-0.11-0.83c-0.09,0.26-0.25,0.48-0.46,0.66
		C98.82,221.5,98.56,221.59,98.26,221.59z M98.51,220.93c0.2,0,0.39-0.07,0.56-0.21c0.17-0.14,0.3-0.31,0.4-0.5v-1.87
		c-0.02,0.01-0.05,0.03-0.1,0.05c-0.16,0.09-0.29,0.16-0.38,0.2c-0.09,0.05-0.19,0.11-0.32,0.18c-0.12,0.07-0.22,0.13-0.28,0.18
		c-0.06,0.05-0.13,0.1-0.21,0.17c-0.08,0.07-0.14,0.13-0.17,0.19c-0.04,0.06-0.07,0.13-0.11,0.21c-0.04,0.08-0.06,0.16-0.08,0.25
		c-0.01,0.09-0.02,0.18-0.02,0.29c0,0.29,0.07,0.51,0.2,0.66C98.14,220.86,98.31,220.93,98.51,220.93z"/>
	<path class="st4" d="M103.17,221.59c-0.39,0-0.75-0.19-1.07-0.57v0.48h-0.76v-8.39h0.76V216c0.32-0.39,0.7-0.59,1.14-0.59
		c0.22,0,0.42,0.05,0.58,0.14c0.17,0.09,0.3,0.21,0.39,0.35c0.1,0.14,0.17,0.33,0.23,0.54c0.06,0.22,0.1,0.43,0.12,0.64
		c0.02,0.21,0.03,0.45,0.03,0.72v1.26c0,0.32-0.01,0.6-0.04,0.85c-0.03,0.25-0.07,0.48-0.14,0.7c-0.07,0.21-0.16,0.39-0.26,0.53
		c-0.11,0.14-0.25,0.25-0.41,0.33C103.58,221.55,103.39,221.59,103.17,221.59z M103.05,220.98c0.32,0,0.53-0.15,0.64-0.45
		c0.11-0.3,0.16-0.79,0.16-1.46v-1.27c0-0.64-0.05-1.1-0.16-1.38c-0.11-0.28-0.32-0.41-0.65-0.41c-0.31,0-0.62,0.15-0.93,0.46v4.08
		C102.38,220.84,102.69,220.98,103.05,220.98z"/>
	<path class="st4" d="M107.91,221.44c-0.21,0.1-0.47,0.15-0.77,0.15c-0.31,0-0.56-0.05-0.77-0.15c-0.21-0.1-0.37-0.25-0.49-0.45
		c-0.12-0.2-0.21-0.43-0.26-0.7c-0.05-0.27-0.08-0.59-0.08-0.97v-1.66c0-0.76,0.12-1.33,0.35-1.7c0.24-0.37,0.65-0.56,1.24-0.56
		c0.6,0,1.01,0.18,1.25,0.55c0.23,0.37,0.35,0.94,0.35,1.7v1.66c0,0.38-0.03,0.7-0.08,0.97c-0.05,0.27-0.14,0.5-0.25,0.7
		C108.28,221.19,108.12,221.34,107.91,221.44z M107.13,221.01c0.15,0,0.28-0.03,0.38-0.08c0.1-0.06,0.19-0.13,0.25-0.21
		c0.06-0.08,0.1-0.2,0.13-0.36c0.03-0.16,0.05-0.3,0.06-0.45c0.01-0.14,0.01-0.33,0.01-0.55v-1.74c0-0.23,0-0.41-0.01-0.55
		c-0.01-0.14-0.03-0.29-0.06-0.45c-0.03-0.15-0.08-0.27-0.13-0.36c-0.06-0.09-0.14-0.15-0.25-0.21s-0.23-0.08-0.38-0.08
		c-0.13,0-0.24,0.02-0.33,0.05c-0.09,0.03-0.17,0.09-0.23,0.16c-0.06,0.08-0.11,0.16-0.15,0.24c-0.04,0.09-0.07,0.2-0.08,0.34
		c-0.02,0.14-0.03,0.27-0.04,0.39c0,0.12-0.01,0.28-0.01,0.46v1.74c0,0.19,0,0.34,0.01,0.46c0,0.12,0.02,0.25,0.04,0.39
		c0.02,0.14,0.05,0.25,0.08,0.34c0.04,0.09,0.09,0.17,0.15,0.24c0.06,0.08,0.14,0.13,0.23,0.16C106.89,221,107,221.01,107.13,221.01
		z"/>
	<path class="st4" d="M109.83,221.49v-5.99h0.76v0.83c0.18-0.3,0.39-0.53,0.64-0.67c0.24-0.15,0.49-0.22,0.74-0.22
		c0.06,0,0.1,0,0.13,0v0.82c-0.11-0.04-0.23-0.07-0.36-0.07c-0.49,0-0.87,0.23-1.15,0.7v4.6H109.83z"/>
	<path class="st4" d="M114.37,221.59c-0.57,0-0.99-0.18-1.24-0.53c-0.25-0.35-0.38-0.96-0.38-1.82v-1.51c0-0.58,0.06-1.05,0.18-1.39
		c0.12-0.34,0.3-0.58,0.53-0.72c0.23-0.14,0.54-0.21,0.92-0.21c0.25,0,0.47,0.03,0.65,0.1c0.18,0.07,0.33,0.16,0.45,0.28
		c0.12,0.12,0.21,0.29,0.28,0.49c0.07,0.21,0.12,0.44,0.14,0.69c0.03,0.25,0.04,0.55,0.04,0.91l0,0.54h-2.42v0.9
		c0,0.62,0.06,1.06,0.18,1.31c0.12,0.26,0.34,0.38,0.68,0.38c0.26,0,0.46-0.08,0.61-0.25c0.14-0.17,0.21-0.47,0.21-0.91v-0.41h0.74
		v0.33c0,0.58-0.12,1.03-0.36,1.34C115.32,221.43,114.92,221.59,114.37,221.59z M113.51,217.98h1.67v-0.5c0-0.21,0-0.38-0.02-0.52
		c-0.01-0.14-0.03-0.28-0.06-0.41c-0.03-0.14-0.08-0.24-0.13-0.32c-0.06-0.08-0.14-0.14-0.24-0.19c-0.1-0.05-0.22-0.07-0.36-0.07
		c-0.32,0-0.54,0.11-0.67,0.33c-0.13,0.22-0.19,0.65-0.19,1.27V217.98z"/>
</g>
<path class="st5" d="M600,301.4l-66.15,41.02c-7.38,4.56-9.67,14.23-5.11,21.61L550.95,400H600V301.4z"/>
<path class="st4" d="M84.15,329.55c-1.77-6.36-6.8-11.29-13.19-12.94l-39-10.05c-6.39-1.65-13.18,0.24-17.8,4.95L0,325.96V400h76.85
	l13.49-13.76c4.62-4.71,6.38-11.53,4.61-17.89L84.15,329.55z"/>
<g>
	
		<rect x="515.93" y="300.83" transform="matrix(0.2483 0.9687 -0.9687 0.2483 682.6419 -272.4708)" class="st6" width="1.91" height="5.54"/>
	
		<rect x="513.19" y="303.51" transform="matrix(0.2482 0.9687 -0.9687 0.2482 683.2078 -267.7981)" class="st6" width="1.91" height="5.54"/>
	
		<rect x="510.45" y="306.18" transform="matrix(0.2482 0.9687 -0.9687 0.2482 683.7294 -263.1382)" class="st6" width="1.91" height="5.54"/>
	
		<rect x="507.71" y="308.85" transform="matrix(0.2483 0.9687 -0.9687 0.2483 684.2371 -258.4828)" class="st6" width="1.91" height="5.54"/>
</g>
<g>
	<path class="st7" d="M400.98,137.13l-50.4,29.57c-12.78-3.92-29.06-2.71-39.8,3.59c-13.07,7.67-12.98,19.95,0.19,27.44
		c2.96,1.68,6.32,2.98,9.91,3.89c2.54,0.64,5.18,1.1,7.88,1.36c10.48,1.02,21.67-0.85,29.73-5.58c9.77-5.73,12.18-14.04,7.28-21
		l6.95-4.08l-0.2-4.41l7.32-0.05l-0.18-4.13l7.32-0.05l-0.18-4.13l7.32-0.05l-0.18-4.13l7.32-0.05l-0.18-4.13l7.81-0.05l2.38-1.4
		l2.63-10.86L400.98,137.13z M330.07,193.71c-3.4,2-8.94,2.04-12.37,0.09c-3.43-1.95-3.45-5.15-0.05-7.14
		c3.4-2,8.94-2.04,12.37-0.09C333.45,188.51,333.47,191.71,330.07,193.71z"/>
	<path class="st7" d="M428.55,324.17l-67.97-39.08c-4.58-2.64-4-7.26,1.28-10.31l65.97-38.09c5.28-3.05,13.28-3.38,17.85-0.74
		l67.97,39.08c4.58,2.64,4,7.26-1.28,10.31l-65.97,38.09C441.12,326.48,433.13,326.81,428.55,324.17z"/>
	<g>
		<g>
			<path class="st6" d="M508.24,235.57l-11.75-6.78l43.32-25.01c2.05-1.18,2.05-3.1,0-4.29l-44.26-25.55
				c-2.05-1.18-5.38-1.18-7.42,0l-43.32,25.01l-11.75-6.78l43.32-25.01c8.52-4.92,22.4-4.92,30.92,0l44.26,25.55
				c8.53,4.92,8.53,12.93,0,17.85L508.24,235.57z"/>
		</g>
		<g>
			<path class="st5" d="M527.2,238.55c0-6.28-3.82-13.58-8.53-16.3l-78.49-45.32c-2.11-1.22-4.04-1.3-5.53-0.47l0,0l-93.72,54.46
				l90.63,68.29l92.33-53.59c0.29-0.13,0.56-0.28,0.82-0.47l0,0l0,0C526.24,243.98,527.2,241.69,527.2,238.55z"/>
			<path class="st1" d="M431.55,299.22l92.33-53.59c0.29-0.13,0.56-0.28,0.82-0.47l0,0l0,0c1.54-1.17,2.5-3.46,2.5-6.6
				c0-3-0.88-6.22-2.3-9.08l-105.25,60.77L431.55,299.22z"/>
			<path class="st6" d="M425.65,298.97l-78.49-45.32c-4.71-2.72-8.53-10.02-8.53-16.3l0,0c0-6.28,3.82-9.17,8.53-6.45l78.49,45.32
				c4.71,2.72,8.53,10.02,8.53,16.3l0,0C434.18,298.81,430.36,301.7,425.65,298.97z"/>
		</g>
		<path class="st2" d="M413.89,283.69l-9.44-5.44c-0.94-0.54-1.7-2-1.7-3.25l0,0c0-1.25,0.76-1.83,1.7-1.29l9.44,5.44
			c0.94,0.54,1.7,2,1.7,3.25l0,0C415.59,283.66,414.83,284.23,413.89,283.69z"/>
	</g>
	<g>
		<g>
			<polygon class="st4" points="343.03,124.1 359.16,133.27 375.61,123.61 375.57,119.41 375.43,119.49 375.41,119.2 382.73,119.14 
				382.69,115.01 389.87,114.96 389.82,110.82 397,110.77 396.96,106.64 404.13,106.59 404.09,102.45 411.76,102.4 414.15,101 
				416.78,90.15 416.73,85.95 415.46,89.97 403.85,88.42 			"/>
			<g>
				<g>
					<g>
						<g>
							<g>
								<polygon class="st5" points="359.11,129.07 375.57,119.41 375.37,115 382.69,114.94 382.5,110.81 389.82,110.76 
									389.64,106.63 396.96,106.57 396.77,102.44 404.09,102.39 403.91,98.25 411.72,98.2 414.1,96.8 416.73,85.95 403.81,84.22 
									342.99,119.9 								"/>
							</g>
						</g>
						<g>
							<g>
								<path class="st4" d="M370.07,122.64c-1.66-2.35-4.14-4.55-7.47-6.44c-2.35-1.33-4.96-2.41-7.73-3.26l-11.89,6.97l16.13,9.16
									L370.07,122.64z"/>
							</g>
						</g>
						<g>
							<g>
								<polygon class="st6" points="416.29,87.77 416.73,85.95 414.57,85.66 363.18,115.81 365.88,117.34 								"/>
							</g>
						</g>
						<g>
							<g>
								<polygon class="st8" points="304.05,137.35 303.87,131.38 305.78,135.42 								"/>
							</g>
						</g>
						<path class="st4" d="M313.98,150.79c13.18,7.49,34.45,7.34,47.52-0.33c6.55-3.84,9.8-8.85,9.74-13.83l0,0l-0.18-6.33
							l-1.07,1.2c-1.52-3.12-4.4-6.05-8.68-8.48c-13.18-7.48-34.45-7.34-47.52,0.33C300.72,131.02,300.81,143.3,313.98,150.79z
							 M333.02,139.62c3.43,1.95,3.45,5.15,0.05,7.14c-3.4,2-8.94,2.04-12.37,0.09c-3.43-1.95-3.45-5.15-0.05-7.14
							C324.05,137.71,329.59,137.67,333.02,139.62z"/>
						<g>
							<g>
								<path class="st9" d="M313.81,144.82c13.18,7.48,34.45,7.34,47.52-0.33c13.07-7.67,12.98-19.95-0.19-27.44
									c-13.18-7.48-34.45-7.34-47.52,0.33C300.54,125.05,300.63,137.33,313.81,144.82z M332.84,133.65
									c3.43,1.95,3.45,5.15,0.05,7.14c-3.4,2-8.94,2.04-12.37,0.09c-3.43-1.95-3.45-5.15-0.05-7.14
									C323.87,131.74,329.41,131.7,332.84,133.65z"/>
							</g>
						</g>
						<path class="st6" d="M329.08,148.09c-2.9,0.45-6.11,0.06-8.39-1.24c-2.46-1.4-3.16-3.44-2.11-5.21l-5.97-4.73
							c0,0-3.12-3.52-6.21-7.01c-4.81,7.03-2.28,15.3,7.57,20.9c4.35,2.47,9.21,3.87,14.74,4.68L329.08,148.09z"/>
						<g>
							<g>
								<path class="st5" d="M313.81,144.82c2.96,1.68,6.32,2.98,9.91,3.89c2.54,0.64,5.18,1.1,7.88,1.36
									c10.48,1.02,21.67-0.85,29.73-5.58c13.07-7.67,12.98-19.95-0.19-27.44c-13.18-7.48-34.45-7.34-47.52,0.33
									C300.54,125.05,300.63,137.33,313.81,144.82z M332.84,133.65c3.43,1.95,3.45,5.15,0.05,7.14c-3.4,2-8.94,2.04-12.37,0.09
									c-3.43-1.95-3.45-5.15-0.05-7.14C323.87,131.74,329.41,131.7,332.84,133.65z"/>
							</g>
						</g>
						<g>
							<g>
								<g>
									<path class="st4" d="M307.58,131.22c0.64-3.82,3.48-7.56,8.52-10.52c11.63-6.82,30.56-6.95,42.28-0.3
										c5.83,3.31,8.77,7.67,8.84,12.06c0.84-4.99-2.06-10.12-8.7-13.89c-11.72-6.66-30.65-6.53-42.28,0.3
										C310.4,122.31,307.51,126.78,307.58,131.22z"/>
								</g>
							</g>
						</g>
					</g>
					<g>
						<g>
							<g>
								<g>
									<path class="st4" d="M299.65,185.53c-2.37,0-4.59-0.56-6.59-1.7c-4.72-2.68-7.35-8.06-7.4-15.16
										c-0.09-12.95,8.92-28.81,20.09-35.37c6.12-3.59,12.09-4.09,16.81-1.41c2.01,1.14,3.66,2.79,4.89,4.89
										c1.64,2.79,2.48,6.25,2.51,10.28c0.09,12.95-8.92,28.81-20.09,35.37C306.34,184.49,302.87,185.53,299.65,185.53z
										 M315.96,134.95c-2.37,0-5.03,0.82-7.8,2.45c-9.86,5.79-17.82,19.8-17.74,31.24c0.04,5.33,1.81,9.26,4.99,11.06
										c3.18,1.81,7.46,1.32,12.06-1.38c9.87-5.79,17.82-19.8,17.74-31.24c-0.02-3.14-0.66-5.87-1.86-7.9l0,0
										c-0.8-1.37-1.86-2.44-3.14-3.16C318.95,135.3,317.52,134.95,315.96,134.95z"/>
								</g>
							</g>
						</g>
					</g>
				</g>
			</g>
		</g>
		<path class="st5" d="M322.16,145.46l9.38,2.3l1.35-6.96c-3.4,2-8.94,2.04-12.37,0.09L322.16,145.46z"/>
		<path class="st5" d="M313.81,144.82c2.96,1.68,6.32,2.98,9.91,3.89c2.54,0.64,5.18,1.1,7.88,1.36
			c10.48,1.02,21.67-0.85,29.73-5.58l-38.2-0.86L313.81,144.82z"/>
		<path class="st4" d="M327.92,149.64c0,0-4.06-0.66-8.3-2.14v5.86c2.02,0.7,5.35,1.72,8.2,2.1
			C336.57,156.62,327.92,149.64,327.92,149.64z"/>
	</g>
	<path class="st6" d="M321.83,148.21c-1.75-0.51-3.65-1.17-5.4-1.99c-5.11-2.39,1.35,6.47,1.35,6.47s1.74,0.69,4.05,1.4V148.21z"/>
</g>
<polygon class="st6" points="417.67,251.19 400.96,261.97 392.82,260.65 412.69,251.04 "/>
<g>
	<g>
		<path class="st1" d="M397.46,305.62c0,0-4.81-2.43-7.77,1.19c-2.96,3.62-7.18,12.15-7.31,17.92c-0.13,5.77,4.56,5.38,7.35,4.01
			c2.79-1.36,10.94-13.19,11.44-15.51c0.49-2.32-0.58-5.45-1.37-6.06C399.02,306.55,397.46,305.62,397.46,305.62z"/>
		<path class="st6" d="M398.51,304.46l0.22,4.99c0.05,1.06-0.49,2.07-1.41,2.59c-0.84,0.48-2.06,0.84-3.71,0.58
			c-3.63-0.58-3.95-1.62-4.21-6.61C389.14,301.03,398.51,304.46,398.51,304.46z"/>
		<g>
			<path class="st1" d="M379.84,296.03c0,0-4.81-2.43-7.77,1.19c-2.96,3.62-7.18,12.15-7.31,17.92c-0.13,5.77,4.56,5.38,7.35,4.01
				c2.79-1.36,10.94-13.19,11.44-15.51c0.49-2.32-0.58-5.45-1.37-6.06C381.39,296.96,379.84,296.03,379.84,296.03z"/>
			<path class="st6" d="M380.89,294.87l0.22,4.99c0.05,1.06-0.49,2.07-1.41,2.59c-0.84,0.48-2.06,0.84-3.71,0.58
				c-3.63-0.58-3.95-1.62-4.21-6.61C371.52,291.43,380.89,294.87,380.89,294.87z"/>
			<path class="st5" d="M423.85,203.29c-1.42-23.19-25.11,3.41-25.11,3.41l-16.21,15.89l-14.6,16.04
				c-2.85,3.13-4.18,7.36-3.63,11.56l5.91,44.96c0.29,2.22,2.19,3.86,4.43,3.84c0.63,0,1.36-0.06,2.19-0.19
				c5.27-0.82,4.88-5.83,4.88-5.83l-1.08-42.05l30.66-18.48C411.28,232.43,425.27,226.47,423.85,203.29z"/>
		</g>
		<path class="st6" d="M392.34,242.96l-4.36-1.6c-0.1,0-7.42,7.07-7.35,9.55l3.28,1.05l8.24-8L392.34,242.96z"/>
		<path class="st6" d="M417.67,251.19c0,0,18.22-10.4,20.4-14.76c0.85-1.71,2.18-3.49-3.13-6.07l-24.3,17.32l1.05,5.96
			L417.67,251.19z"/>
		<path class="st5" d="M441.47,212.24c-1.52-23.18-25.11,3.41-25.11,3.41l-16.21,15.89l-14.6,16.04c-2.85,3.13-4.18,7.36-3.63,11.56
			l5.91,44.96c0.29,2.22,2.19,3.86,4.43,3.84c0.63-0.01,1.36-0.06,2.19-0.19c5.27-0.82,4.88-5.83,4.88-5.83l-1.08-42.05l30.66-18.48
			C428.91,241.38,442.86,233.43,441.47,212.24z"/>
		<path class="st6" d="M427.46,137.69c17.96,7.44,17.6,18.06,17.6,18.06s-3.52,38.91-2.32,64.9c0.5,10.86-57.72,11.69-49.04-17.29
			c10.24-34.18,6.4-61.84,11.19-66.01C409.69,133.18,422.82,135.77,427.46,137.69z"/>
		<path class="st10" d="M433.24,147.11c-0.94,3.65-5.72,5.57-10.67,4.29c-4.95-1.28-8.21-5.27-7.27-8.91
			c0.94-3.65,5.72-5.57,10.67-4.29C430.92,139.47,434.18,143.46,433.24,147.11z"/>
		<path class="st2" d="M425.6,152.65c-1.05,0-2.15-0.13-3.25-0.42c-2.57-0.66-4.81-2.03-6.3-3.86c-1.55-1.9-2.11-4.07-1.59-6.1
			c1.05-4.1,6.31-6.3,11.71-4.91c2.57,0.66,4.81,2.03,6.29,3.86c1.55,1.9,2.12,4.07,1.59,6.1
			C433.23,150.58,429.72,152.65,425.6,152.65z M422.9,138.66c-3.33,0-6.12,1.55-6.77,4.04c-0.38,1.49,0.06,3.12,1.26,4.59
			c1.26,1.54,3.17,2.71,5.39,3.28c4.49,1.15,8.8-0.49,9.62-3.67c0.38-1.49-0.06-3.12-1.26-4.59c-1.26-1.54-3.17-2.71-5.39-3.28
			C424.78,138.77,423.82,138.66,422.9,138.66z"/>
		<path class="st10" d="M420.26,136.88c0,0,0.16,0.72-0.16,6.41c-0.1,1.79,6.17,3.46,7.78,1.84c1.62-1.62,0.97-3.3,1.36-9.39
			C429.64,129.66,420.26,136.88,420.26,136.88z"/>
		<path class="st11" d="M429.25,135.74c0,0-1.54,5.64-9.15,7.81l0.12-5.13L429.25,135.74z"/>
		<path class="st10" d="M434.07,121.4c1.91,7.39-2.53,14.93-9.92,16.84c-7.39,1.91-14.93-2.53-16.84-9.92
			c-1.91-7.39,2.53-14.93,9.92-16.84C424.62,109.57,432.16,114.01,434.07,121.4z"/>
		<path class="st11" d="M423.86,125.37c0,0-7.61,3.26-12.88,3.3c-5.27,0.04-4.11-4.38-4.11-4.38l15.64-2.26L423.86,125.37z"/>
		<path class="st0" d="M409.41,126.23c0,0,6.63-2.81,12.44-1.64c1.37,0.28,2.63,1.01,3.51,2.09c0.29,0.35,0.65,0.68,1.06,0.77
			c1.03,0.23,2.72-4.05,4.72-4.14c2-0.1,3.34,1.32,1.7,3.95c-1.64,2.63-1.09,5.58-0.33,6c0.76,0.42,8.78-5.72,1.7-19.74
			c-7.08-14.02-25.05-6.47-27.84-3.63c0,0-2.95,2.57-5.34,0.28C401.04,110.17,398.36,130.28,409.41,126.23z"/>
		<path class="st10" d="M434.98,184.18v10.51c0,1.2-0.51,2.35-1.4,3.17l-21.6,19.69l2.45,3.75l28.53-20.69
			c1.33-0.97,2.19-2.45,2.36-4.09l1.93-18.34L434.98,184.18z"/>
		<path class="st6" d="M443.54,150.49c0,0,6.55,9.86,8.99,35.8c0,0-11.19,3.62-17.55,1.57C428.63,185.8,443.54,150.49,443.54,150.49
			z"/>
		<path class="st4" d="M433.79,162.96c0,0-2.57,13.73-2.71,20.18c-0.04,1.77,1.04,3.37,2.71,3.98l0,0V162.96z"/>
	</g>
	<g>
		<path class="st1" d="M428.18,231.23l-4.77-0.63l-30.82-17.79c-0.99-0.57-2.71-0.5-3.85,0.16l-21.84,12.6l-2.89-0.38v2.87l0,0
			c-0.02,0.38,0.2,0.74,0.66,1.01l34.93,20.16c0.99,0.57,2.71,0.5,3.85-0.16l23.78-13.73c0.64-0.37,0.96-0.85,0.94-1.3h0V231.23z"/>
		<path class="st4" d="M405.03,219.99l-2.19-1.26h-24.07l-11.87,6.85l-2.89-0.38v2.87l0,0c-0.02,0.38,0.2,0.74,0.66,1.01
			l34.93,20.16c0.52,0.3,1.25,0.42,1.99,0.37L405.03,219.99z"/>
		<path class="st6" d="M365.29,225.36l-1.28-0.17v2.87l0,0c-0.02,0.38,0.2,0.74,0.66,1.01l0.62,0.36V225.36z"/>
		<path class="st12" d="M399.96,249.4c0.94,0.36,2.28,0.28,3.28-0.2v-4.89h-3.28V249.4z"/>
		<path class="st2" d="M399.6,246.37l-34.93-20.16c-0.99-0.57-0.86-1.57,0.28-2.23l23.78-13.73c1.14-0.66,2.87-0.73,3.85-0.16
			l34.93,20.16c0.99,0.57,0.86,1.57-0.28,2.23l-23.78,13.73C402.32,246.87,400.59,246.94,399.6,246.37z"/>
		<path class="st5" d="M399.01,243.31l-29.04-16.77c-0.82-0.47-0.72-1.3,0.23-1.85l12.74-7.17c0.95-0.55,2.38-0.61,3.21-0.13
			l29.04,16.77c0.82,0.47,0.72,1.3-0.23,1.85l-12.74,7.17C401.27,243.73,399.83,243.79,399.01,243.31z"/>
	</g>
	<path class="st10" d="M390.09,209.59l-0.36,2.41c-0.31,2.05-0.25,4.14,0.16,6.18l0.43,2.12c0.24,1.2,1.19,2.13,2.39,2.35l0,0
		c0.94,0.17,1.83-0.49,1.93-1.44l0.58-5.15c0,0,1.32,1.73,1.95,1.73c0.64,0-0.71-5.16-2.15-8.08S390.09,209.59,390.09,209.59z"/>
	<path class="st10" d="M401.93,171.29l-3.75,7.42c-0.89,1.75-1.41,3.67-1.53,5.63l-1.63,25.37l-4.93-0.12l-2.24-28.49
		c-0.07-0.88-0.03-1.76,0.13-2.63l2.56-14.45L401.93,171.29z"/>
	<g>
		<path class="st1" d="M398.42,248.3l-2.93-3.82l-30.8-17.83c-0.99-0.57-1.79-2.1-1.78-3.42l0.03-25.21l-1.77-2.31l1.66-0.96l0,0
			c0.32-0.21,0.74-0.2,1.21,0.07l34.9,20.21c0.99,0.57,1.79,2.1,1.78,3.42l-0.03,27.46c0,0.74-0.26,1.26-0.65,1.46h0L398.42,248.3z"
			/>
		<path class="st4" d="M377.12,233.85l-2.19-1.27l-12.01-20.86l0.01-13.7l-1.77-2.31l1.66-0.96l0,0c0.32-0.21,0.74-0.2,1.21,0.07
			l34.9,20.21c0.52,0.3,0.99,0.87,1.32,1.54L377.12,233.85z"/>
		<path class="st6" d="M361.95,196.73l-0.79-1.03l1.66-0.96l0,0c0.32-0.21,0.74-0.2,1.21,0.07l0.62,0.36L361.95,196.73z"/>
		<path class="st12" d="M399.26,215.24c0.77,0.63,1.38,1.83,1.46,2.94l-3.41,1.97l-1.63-2.84L399.26,215.24z"/>
		<path class="st6" d="M397.28,215.98l-34.9-20.21c-0.99-0.57-1.79,0.03-1.79,1.35l-0.03,27.46c0,1.32,0.8,2.85,1.78,3.42
			l34.9,20.21c0.99,0.57,1.79-0.03,1.79-1.35l0.03-27.46C399.07,218.09,398.27,216.55,397.28,215.98z"/>
	</g>
	<path class="st10" d="M414.44,221.31l-0.56,1.16c-0.64,1.33-1.66,2.46-2.92,3.23l-3.47,2.14c-1.08,0.66-2.44,0.72-3.54,0.08
		c-0.04-0.02-0.08-0.05-0.12-0.07c-1.1-0.69-1.2-2.27-0.29-3.2l3.62-3.72c0,0-2.04,1.56-2.61,0.93c-0.42-0.46,1.97-2.71,3.81-2.78
		c1.84-0.07,3.61-1.52,3.61-1.52L414.44,221.31z"/>
	<path class="st6" d="M405.25,137.3c0,0-13.28,14.45-18.64,27.71c0,0,4.54,8.18,15.66,11.39
		C413.39,179.61,405.25,137.3,405.25,137.3z"/>
	<path class="st4" d="M399.77,175.54l2.15-20.79l-5.07,19.48C397.76,174.7,398.74,175.14,399.77,175.54z"/>
	<path class="st2" d="M415.2,134.38l-3.57-0.98c0,0,1.7,2.68,4.19,3.36c2.49,0.68,2.87-1.42,2.87-1.42L415.2,134.38z"/>
</g>
<path class="st5" d="M347.47,102.43c-5.51,0-10-4.48-10-10c0-5.51,4.48-10,10-10c5.51,0,10,4.48,10,10
	C357.46,97.95,352.98,102.43,347.47,102.43z M347.47,84.62c-4.31,0-7.81,3.5-7.81,7.81c0,4.31,3.5,7.81,7.81,7.81
	c4.31,0,7.81-3.5,7.81-7.81C355.28,88.13,351.78,84.62,347.47,84.62z"/>
<path class="st6" d="M549.55,174.47c-3.91,0-7.09-3.18-7.09-7.09c0-3.91,3.18-7.09,7.09-7.09s7.09,3.18,7.09,7.09
	C556.64,171.29,553.46,174.47,549.55,174.47z M549.55,162.47c-2.71,0-4.91,2.2-4.91,4.91c0,2.7,2.2,4.91,4.91,4.91
	c2.71,0,4.91-2.2,4.91-4.91C554.46,164.67,552.26,162.47,549.55,162.47z"/>
<path class="st6" d="M317.14,302.53l-4.81-9.79l9.79-4.81l4.81,9.79L317.14,302.53z M315.25,293.74l2.89,5.87l5.87-2.89l-2.89-5.87
	L315.25,293.74z"/>
<path class="st6" d="M459.17,150.85l-4.81-9.79l9.79-4.81l4.81,9.79L459.17,150.85z M457.27,142.06l2.89,5.87l5.87-2.89l-2.89-5.87
	L457.27,142.06z"/>
<rect x="300.35" y="243.7" transform="matrix(0.8974 -0.4412 0.4412 0.8974 -77.5559 158.8763)" class="st6" width="5.01" height="5.01"/>
<g>
	<g>
		<path class="st13" d="M480.31,97.75l-26.74-15.44c-0.53-0.31-1.01-0.32-1.38-0.11c0,0,0-0.02,0-0.02l-2.59,1.5
			c0,0,1.15,0.42,1.82,0.67v19.47c0,1.58,0.96,3.42,2.15,4.11l25.56,14.76v2.28l2.62-1.51l-0.01-0.01c0.44-0.27,0.73-0.86,0.73-1.71
			v-19.88C482.46,100.28,481.5,98.44,480.31,97.75z"/>
		<path class="st0" d="M477.67,124.9l-26.74-15.44c-1.19-0.69-2.15-2.53-2.15-4.11V85.47c0-1.58,0.96-2.31,2.15-1.63l26.74,15.44
			c1.19,0.69,2.15,2.53,2.15,4.11v19.88C479.82,124.85,478.86,125.58,477.67,124.9z"/>
	</g>
	<g>
		<path class="st2" d="M459.92,102.61c0,1.15-0.81,1.62-1.8,1.04c-1-0.58-1.8-1.97-1.8-3.12c0-1.15,0.81-1.62,1.8-1.04
			C459.12,100.06,459.92,101.46,459.92,102.61z"/>
		<path class="st2" d="M465.39,105.76c0,1.15-0.81,1.62-1.8,1.04c-1-0.58-1.8-1.97-1.8-3.12c0-1.15,0.81-1.62,1.8-1.04
			C464.58,103.21,465.39,104.61,465.39,105.76z"/>
		<path class="st2" d="M470.86,108.92c0,1.15-0.81,1.62-1.8,1.04c-1-0.58-1.8-1.97-1.8-3.12c0-1.15,0.81-1.62,1.8-1.04
			C470.05,106.37,470.86,107.77,470.86,108.92z"/>
	</g>
</g>
<g>
	<g>
		<path class="st6" d="M295.47,266.91l-26.23-15.14c-0.52-0.3-0.99-0.31-1.36-0.11c0,0,0-0.02,0-0.02l-2.54,1.47
			c0,0,1.13,0.41,1.79,0.65v19.1c0,1.55,0.94,3.36,2.11,4.03l25.07,14.48v2.24l2.57-1.48l-0.01-0.01c0.43-0.26,0.71-0.85,0.71-1.68
			v-19.5C297.58,269.39,296.64,267.58,295.47,266.91z"/>
		<path class="st5" d="M292.88,293.53l-26.23-15.14c-1.17-0.67-2.11-2.48-2.11-4.03v-19.5c0-1.55,0.94-2.27,2.11-1.6l26.23,15.14
			c1.17,0.67,2.11,2.48,2.11,4.03v19.5C294.99,293.49,294.05,294.21,292.88,293.53z"/>
	</g>
	<g>
		<path class="st2" d="M275.47,271.67c0,1.13-0.79,1.59-1.77,1.02c-0.98-0.56-1.77-1.94-1.77-3.07c0-1.13,0.79-1.59,1.77-1.02
			C274.68,269.17,275.47,270.54,275.47,271.67z"/>
		<path class="st2" d="M280.83,274.76c0,1.13-0.79,1.59-1.77,1.02c-0.98-0.56-1.77-1.94-1.77-3.07c0-1.13,0.79-1.59,1.77-1.02
			C280.04,272.26,280.83,273.64,280.83,274.76z"/>
		<path class="st2" d="M286.2,277.86c0,1.13-0.79,1.59-1.77,1.02c-0.98-0.56-1.77-1.94-1.77-3.07c0-1.13,0.79-1.59,1.77-1.02
			C285.4,275.36,286.2,276.73,286.2,277.86z"/>
	</g>
</g>
</svg>
