<?xml version="1.0" encoding="utf-8"?>
<!-- Generator: Adobe Illustrator 25.0.0, SVG Export Plug-In . SVG Version: 6.00 Build 0)  -->
<svg version="1.1" id="Ñëîé_1" xmlns="http://www.w3.org/2000/svg" xmlns:xlink="http://www.w3.org/1999/xlink" x="0px" y="0px"
	 viewBox="0 0 95.62 94.01" style="enable-background:new 0 0 95.62 94.01;" xml:space="preserve">
<style type="text/css">
	.st0{fill:#FF2C9C;}
	.st1{fill:#173D7A;}
	.st2{fill:#FFFFFF;}
	.st3{opacity:0.6;}
	.st4{fill:#396CAA;}
	.st5{fill:#D4ECFF;}
	.st6{fill:#5793CE;}
	.st7{fill:#C4D9E8;}
	.st8{fill:#D3D0CF;}
	.st9{fill:#F2F2F2;}
	.st10{fill:#FFC2B0;}
	.st11{fill:#EA9C92;}
	.st12{fill:#274F89;}
	.st13{fill:#D3008D;}
</style>
<path class="st0" d="M0-305.99v86.57c7.9,6.04,18.44,7.69,27.91,4.12l47.85-18.05c7.82-2.95,13.99-9.12,16.94-16.94l18.05-47.85
	c0.97-2.56,1.54-5.21,1.76-7.85H0z"/>
<g>
	<path class="st1" d="M85.3-133.9v-23.55h4.29v20.58h5.64v2.97H85.3z"/>
	<path class="st1" d="M103.64-133.61c-2.42,0-4.16-0.66-5.21-1.97c-1.05-1.32-1.58-3.24-1.58-5.78v-8.69c0-1.25,0.12-2.33,0.36-3.25
		c0.24-0.92,0.62-1.71,1.14-2.39c0.53-0.67,1.23-1.18,2.11-1.51c0.88-0.34,1.94-0.5,3.18-0.5c2.41,0,4.15,0.65,5.21,1.95
		c1.06,1.3,1.58,3.2,1.58,5.71v8.69c0,1.23-0.12,2.31-0.36,3.25c-0.24,0.93-0.62,1.74-1.15,2.43c-0.53,0.69-1.23,1.21-2.11,1.56
		C105.93-133.79,104.88-133.61,103.64-133.61z M102.57-136.98c0.3,0.12,0.66,0.18,1.07,0.18c0.42,0,0.77-0.06,1.07-0.18
		c0.29-0.12,0.53-0.28,0.7-0.48c0.18-0.2,0.31-0.46,0.41-0.78c0.1-0.32,0.17-0.64,0.2-0.97c0.03-0.32,0.05-0.71,0.05-1.15v-10.7
		c0-0.57-0.03-1.04-0.09-1.42c-0.06-0.38-0.17-0.74-0.33-1.07c-0.17-0.34-0.41-0.59-0.75-0.75c-0.33-0.16-0.75-0.25-1.26-0.25
		s-0.93,0.08-1.27,0.25c-0.34,0.17-0.58,0.42-0.75,0.75c-0.16,0.34-0.27,0.69-0.33,1.07c-0.06,0.38-0.09,0.85-0.09,1.42v10.7
		c0,0.45,0.02,0.83,0.05,1.15c0.03,0.32,0.1,0.64,0.2,0.97c0.1,0.32,0.23,0.58,0.4,0.78C102.04-137.26,102.27-137.1,102.57-136.98z"
		/>
	<path class="st1" d="M119.47-133.58c-2.23,0-3.83-0.7-4.81-2.09c-0.98-1.39-1.47-3.42-1.47-6.08v-7.67c0-1.35,0.11-2.52,0.32-3.5
		c0.21-0.98,0.57-1.84,1.07-2.58c0.5-0.74,1.19-1.29,2.07-1.66c0.88-0.37,1.96-0.55,3.24-0.55c2.33,0,4,0.57,5.01,1.71
		c1.01,1.14,1.52,2.87,1.52,5.19v1.15h-4.11v-1.22c0-0.52-0.01-0.95-0.04-1.28c-0.02-0.33-0.08-0.66-0.17-1
		c-0.09-0.34-0.22-0.59-0.39-0.77c-0.17-0.18-0.4-0.33-0.7-0.44c-0.29-0.11-0.65-0.17-1.08-0.17c-0.32,0-0.61,0.04-0.86,0.12
		c-0.25,0.08-0.46,0.18-0.63,0.3c-0.17,0.12-0.31,0.29-0.43,0.5c-0.12,0.22-0.21,0.43-0.27,0.63c-0.06,0.2-0.11,0.47-0.14,0.79
		c-0.03,0.32-0.05,0.61-0.06,0.85c-0.01,0.25-0.01,0.56-0.01,0.95v9.5c0,1.42,0.18,2.46,0.53,3.12c0.35,0.66,1.02,0.99,2,0.99
		c0.51,0,0.94-0.1,1.29-0.29c0.35-0.19,0.62-0.49,0.81-0.88c0.19-0.39,0.33-0.84,0.41-1.35c0.08-0.51,0.12-1.12,0.12-1.84v-1.93
		h-2.54v-2.77h6.41v11.96h-2.78l-0.31-2.39C122.75-134.48,121.42-133.58,119.47-133.58z"/>
	<path class="st1" d="M129.92-133.9v-23.55h4.23v23.55H129.92z"/>
	<path class="st1" d="M137.77-133.9v-23.55h2.95l5.77,13.34v-13.34h3.55v23.55h-2.81l-5.82-14.02v14.02H137.77z"/>
	<path class="st1" d="M160.8-133.9v-23.55h4.23v23.55H160.8z"/>
	<path class="st1" d="M174.97-133.61c-1.01,0-1.91-0.13-2.68-0.38c-0.78-0.26-1.42-0.61-1.92-1.07c-0.51-0.45-0.92-1.02-1.24-1.69
		c-0.32-0.67-0.54-1.39-0.67-2.17s-0.19-1.64-0.19-2.61v-8.21c0-1.02,0.07-1.93,0.2-2.72c0.13-0.79,0.36-1.52,0.67-2.2
		c0.31-0.68,0.72-1.23,1.23-1.67c0.51-0.44,1.15-0.78,1.92-1.02c0.77-0.25,1.67-0.37,2.69-0.37c1.17,0,2.18,0.16,3.01,0.47
		c0.83,0.31,1.49,0.77,1.97,1.38c0.48,0.61,0.83,1.31,1.05,2.12c0.22,0.81,0.33,1.75,0.33,2.83v2.02h-4.13v-2
		c0-1.17-0.06-1.96-0.18-2.37c-0.25-0.8-0.85-1.22-1.8-1.28c-0.08,0-0.15,0-0.23,0c-0.36,0-0.67,0.04-0.94,0.13
		c-0.27,0.08-0.49,0.22-0.66,0.4c-0.17,0.18-0.31,0.38-0.41,0.59c-0.1,0.21-0.18,0.48-0.23,0.82c-0.05,0.34-0.09,0.65-0.1,0.93
		c-0.01,0.28-0.02,0.64-0.02,1.08v9.97c0,1.38,0.17,2.37,0.52,2.95c0.35,0.59,0.96,0.88,1.85,0.88c0.3,0,0.57-0.04,0.8-0.11
		c0.23-0.07,0.43-0.16,0.58-0.27c0.16-0.11,0.29-0.27,0.4-0.47c0.11-0.2,0.19-0.39,0.25-0.57c0.06-0.17,0.1-0.42,0.13-0.73
		c0.03-0.31,0.04-0.58,0.05-0.79c0-0.22,0.01-0.52,0.01-0.9v-2.1h4.13v1.93c0,0.88-0.06,1.67-0.18,2.37
		c-0.12,0.7-0.33,1.36-0.63,1.97c-0.3,0.62-0.68,1.13-1.16,1.53c-0.47,0.41-1.08,0.73-1.82,0.96
		C176.8-133.73,175.95-133.61,174.97-133.61z"/>
	<path class="st1" d="M190.71-133.61c-2.42,0-4.16-0.66-5.21-1.97c-1.05-1.32-1.58-3.24-1.58-5.78v-8.69c0-1.25,0.12-2.33,0.36-3.25
		c0.24-0.92,0.62-1.71,1.14-2.39c0.53-0.67,1.23-1.18,2.11-1.51c0.88-0.34,1.94-0.5,3.18-0.5c2.41,0,4.15,0.65,5.21,1.95
		c1.06,1.3,1.58,3.2,1.58,5.71v8.69c0,1.23-0.12,2.31-0.36,3.25c-0.24,0.93-0.62,1.74-1.15,2.43c-0.53,0.69-1.23,1.21-2.11,1.56
		C192.99-133.79,191.94-133.61,190.71-133.61z M189.63-136.98c0.3,0.12,0.66,0.18,1.07,0.18s0.77-0.06,1.07-0.18
		c0.29-0.12,0.53-0.28,0.7-0.48c0.18-0.2,0.31-0.46,0.41-0.78c0.1-0.32,0.17-0.64,0.2-0.97c0.03-0.32,0.05-0.71,0.05-1.15v-10.7
		c0-0.57-0.03-1.04-0.09-1.42c-0.06-0.38-0.17-0.74-0.33-1.07c-0.17-0.34-0.41-0.59-0.75-0.75c-0.33-0.16-0.75-0.25-1.26-0.25
		c-0.51,0-0.93,0.08-1.27,0.25c-0.34,0.17-0.58,0.42-0.75,0.75c-0.16,0.34-0.27,0.69-0.33,1.07c-0.06,0.38-0.09,0.85-0.09,1.42v10.7
		c0,0.45,0.02,0.83,0.05,1.15c0.03,0.32,0.1,0.64,0.2,0.97c0.1,0.32,0.23,0.58,0.4,0.78C189.1-137.26,189.34-137.1,189.63-136.98z"
		/>
	<path class="st1" d="M200.63-133.9v-23.55h2.95l5.77,13.34v-13.34h3.55v23.55h-2.81l-5.82-14.02v14.02H200.63z"/>
</g>
<g>
	<path class="st0" d="M180.81-42.38H96.98c-6.46,0-11.7-5.24-11.7-11.7l0,0c0-6.46,5.24-11.7,11.7-11.7h83.84
		c6.46,0,11.7,5.24,11.7,11.7l0,0C192.51-47.62,187.27-42.38,180.81-42.38z"/>
	<g>
		<path class="st2" d="M113.33-48.87v-8.55h-1.66v-1.33h5.06v1.33h-1.6v8.55H113.33z"/>
		<path class="st2" d="M117.52-48.87v-9.87h2.26c0.52,0,0.97,0.04,1.34,0.13c0.37,0.09,0.7,0.23,0.97,0.43
			c0.28,0.2,0.48,0.47,0.62,0.82c0.14,0.34,0.21,0.76,0.21,1.26c0,0.62-0.09,1.13-0.28,1.52c-0.18,0.39-0.49,0.68-0.91,0.86
			l1.37,4.87h-1.8l-1.18-4.51h-0.8v4.51H117.52z M119.31-54.53h0.43c0.53,0,0.91-0.11,1.13-0.34c0.22-0.23,0.34-0.61,0.34-1.16
			c0-0.53-0.1-0.91-0.29-1.13c-0.2-0.23-0.55-0.34-1.07-0.34h-0.54V-54.53z"/>
		<path class="st2" d="M125.65-48.87v-3.76l-2.01-6.12h1.68l1.22,3.93l1.17-3.93h1.66l-2,6.12v3.76H125.65z"/>
		<path class="st2" d="M133.26-48.87v-9.87h1.77v9.87H133.26z"/>
		<path class="st2" d="M137.51-48.87v-8.55h-1.66v-1.33h5.06v1.33h-1.6v8.55H137.51z"/>
		<path class="st2" d="M144.68-48.87v-9.87h1.24l2.42,5.59v-5.59h1.49v9.87h-1.18l-2.44-5.88v5.88H144.68z"/>
		<path class="st2" d="M153.99-48.75c-1.02,0-1.75-0.28-2.19-0.83c-0.44-0.55-0.66-1.36-0.66-2.42v-3.64c0-0.52,0.05-0.98,0.15-1.36
			c0.1-0.39,0.26-0.72,0.48-1c0.22-0.28,0.51-0.49,0.88-0.63c0.37-0.14,0.81-0.21,1.33-0.21c1.01,0,1.74,0.27,2.18,0.82
			c0.44,0.54,0.66,1.34,0.66,2.39v3.64c0,0.52-0.05,0.97-0.15,1.36c-0.1,0.39-0.26,0.73-0.48,1.02c-0.22,0.29-0.51,0.5-0.88,0.65
			C154.94-48.83,154.5-48.75,153.99-48.75z M153.54-50.16c0.12,0.05,0.28,0.08,0.45,0.08c0.17,0,0.32-0.03,0.45-0.08
			c0.12-0.05,0.22-0.12,0.29-0.2c0.07-0.08,0.13-0.19,0.17-0.33c0.04-0.13,0.07-0.27,0.08-0.41c0.01-0.13,0.02-0.3,0.02-0.48v-4.48
			c0-0.24-0.01-0.44-0.04-0.6c-0.02-0.16-0.07-0.31-0.14-0.45c-0.07-0.14-0.17-0.25-0.31-0.32c-0.14-0.07-0.32-0.1-0.53-0.1
			c-0.21,0-0.39,0.04-0.53,0.1c-0.14,0.07-0.25,0.17-0.31,0.32c-0.07,0.14-0.11,0.29-0.14,0.45c-0.02,0.16-0.04,0.36-0.04,0.6v4.48
			c0,0.19,0.01,0.35,0.02,0.48c0.01,0.13,0.04,0.27,0.08,0.41c0.04,0.13,0.1,0.24,0.17,0.33C153.31-50.28,153.41-50.22,153.54-50.16
			z"/>
		<path class="st2" d="M159.22-48.87l-1.41-9.87h1.51l0.81,6.37l1.05-6.37h1.21l1.08,6.37l0.81-6.37h1.48l-1.41,9.87h-1.44
			l-1.11-6.59l-1.11,6.59H159.22z"/>
	</g>
</g>
<g class="st3">
	<path class="st4" d="M86.01-109.36v-8.39h0.79v7.79h2.39v0.59H86.01z"/>
	<path class="st4" d="M92.08-109.41c-0.21,0.1-0.47,0.15-0.77,0.15c-0.31,0-0.56-0.05-0.77-0.15c-0.21-0.1-0.37-0.25-0.49-0.45
		c-0.12-0.2-0.21-0.43-0.26-0.7c-0.05-0.27-0.08-0.59-0.08-0.97v-1.66c0-0.76,0.12-1.33,0.35-1.7c0.24-0.37,0.65-0.56,1.24-0.56
		c0.6,0,1.01,0.18,1.25,0.55c0.23,0.37,0.35,0.94,0.35,1.7v1.66c0,0.38-0.03,0.7-0.08,0.97c-0.05,0.27-0.14,0.5-0.25,0.7
		C92.45-109.66,92.28-109.51,92.08-109.41z M91.3-109.84c0.15,0,0.28-0.03,0.38-0.08c0.1-0.06,0.19-0.13,0.25-0.21
		c0.06-0.08,0.1-0.2,0.13-0.36c0.03-0.16,0.05-0.3,0.06-0.45c0.01-0.14,0.01-0.33,0.01-0.55v-1.74c0-0.23,0-0.41-0.01-0.55
		c-0.01-0.14-0.03-0.29-0.06-0.45c-0.03-0.15-0.08-0.27-0.13-0.36c-0.06-0.08-0.14-0.15-0.25-0.21c-0.1-0.06-0.23-0.08-0.38-0.08
		c-0.13,0-0.24,0.02-0.33,0.05c-0.09,0.03-0.17,0.09-0.23,0.16c-0.06,0.08-0.11,0.16-0.15,0.24s-0.07,0.2-0.08,0.34
		c-0.02,0.14-0.03,0.27-0.04,0.39c0,0.12-0.01,0.28-0.01,0.46v1.74c0,0.19,0,0.34,0.01,0.46c0,0.12,0.02,0.25,0.04,0.39
		c0.02,0.14,0.05,0.25,0.08,0.34c0.04,0.09,0.09,0.17,0.15,0.24c0.06,0.08,0.14,0.13,0.23,0.16
		C91.06-109.85,91.17-109.84,91.3-109.84z"/>
	<path class="st4" d="M94-109.36v-5.99h0.76v0.83c0.18-0.3,0.39-0.53,0.64-0.67c0.24-0.15,0.49-0.22,0.74-0.22c0.06,0,0.1,0,0.13,0
		v0.82c-0.11-0.04-0.23-0.07-0.36-0.07c-0.49,0-0.87,0.23-1.15,0.7v4.6H94z"/>
	<path class="st4" d="M98.54-109.26c-0.57,0-0.99-0.18-1.24-0.53c-0.25-0.35-0.38-0.96-0.38-1.82v-1.51c0-0.58,0.06-1.05,0.18-1.39
		c0.12-0.34,0.3-0.58,0.53-0.72c0.23-0.14,0.54-0.21,0.92-0.21c0.25,0,0.47,0.03,0.65,0.1c0.18,0.07,0.33,0.16,0.45,0.28
		c0.12,0.12,0.21,0.29,0.28,0.49c0.07,0.21,0.12,0.44,0.14,0.69c0.03,0.25,0.04,0.55,0.04,0.91l0,0.54h-2.42v0.9
		c0,0.62,0.06,1.06,0.18,1.31c0.12,0.26,0.34,0.38,0.68,0.38c0.26,0,0.46-0.08,0.61-0.25s0.21-0.47,0.21-0.91v-0.42h0.74v0.33
		c0,0.58-0.12,1.03-0.36,1.34C99.49-109.42,99.09-109.26,98.54-109.26z M97.68-112.86h1.67v-0.5c0-0.21,0-0.38-0.02-0.52
		c-0.01-0.14-0.03-0.28-0.06-0.41c-0.03-0.14-0.08-0.24-0.13-0.32c-0.06-0.08-0.14-0.14-0.24-0.19c-0.1-0.05-0.22-0.07-0.36-0.07
		c-0.32,0-0.54,0.11-0.67,0.33c-0.13,0.22-0.19,0.65-0.19,1.27V-112.86z"/>
	<path class="st4" d="M101.12-109.36v-5.99h0.71v0.61c0.4-0.48,0.87-0.71,1.41-0.71c0.5,0,0.81,0.26,0.94,0.79
		c0.42-0.53,0.91-0.79,1.48-0.79c0.3,0,0.54,0.11,0.73,0.32c0.19,0.21,0.29,0.56,0.29,1.05v4.72h-0.72v-4.7
		c0-0.33-0.05-0.55-0.15-0.68c-0.1-0.13-0.25-0.19-0.44-0.19c-0.38,0.01-0.76,0.21-1.13,0.62c0.01,0.1,0.01,0.18,0.01,0.23v4.72
		h-0.71v-4.7c0-0.33-0.05-0.55-0.16-0.68c-0.1-0.13-0.25-0.19-0.44-0.19c-0.38,0.01-0.75,0.21-1.12,0.62v4.96H101.12z"/>
	<path class="st4" d="M109.99-116.17v-1.03h0.76v1.03H109.99z M109.99-109.36v-5.99h0.76v5.99H109.99z"/>
	<path class="st4" d="M112.03-107.39v-7.96h0.76v0.5c0.32-0.39,0.7-0.59,1.15-0.59c0.22,0,0.42,0.05,0.58,0.14
		c0.17,0.09,0.3,0.21,0.39,0.35c0.1,0.14,0.17,0.33,0.23,0.54c0.06,0.22,0.1,0.43,0.12,0.64c0.02,0.21,0.03,0.45,0.03,0.72v1.26
		c0,0.32-0.01,0.6-0.04,0.85c-0.03,0.25-0.07,0.48-0.14,0.7c-0.07,0.21-0.16,0.39-0.27,0.53c-0.11,0.14-0.25,0.25-0.41,0.33
		c-0.17,0.08-0.36,0.12-0.58,0.12c-0.39,0-0.74-0.19-1.07-0.57v2.45H112.03z M113.73-109.87c0.13,0,0.25-0.03,0.34-0.08
		c0.09-0.06,0.17-0.13,0.23-0.23c0.06-0.1,0.11-0.23,0.14-0.39c0.03-0.17,0.06-0.34,0.07-0.53c0.01-0.19,0.02-0.41,0.02-0.68v-1.27
		c0-0.64-0.05-1.1-0.16-1.38c-0.11-0.28-0.33-0.42-0.65-0.42c-0.31,0-0.62,0.15-0.93,0.46v4.08
		C113.06-110.01,113.38-109.87,113.73-109.87z"/>
	<path class="st4" d="M117.72-109.26c-0.48,0-0.86-0.15-1.14-0.46c-0.29-0.31-0.45-0.72-0.49-1.24l0.64-0.19
		c0.04,0.46,0.14,0.79,0.31,1c0.17,0.21,0.4,0.32,0.71,0.32c0.26,0,0.47-0.08,0.62-0.23c0.15-0.15,0.22-0.35,0.22-0.6
		c0-0.01,0-0.02,0-0.04c-0.01-0.4-0.25-0.79-0.73-1.19l-0.81-0.69c-0.29-0.24-0.5-0.47-0.63-0.7c-0.13-0.22-0.19-0.48-0.19-0.78
		c0-0.44,0.13-0.78,0.39-1.02c0.26-0.24,0.6-0.35,1.04-0.35c0.44,0,0.78,0.14,1.02,0.42c0.24,0.28,0.37,0.67,0.4,1.15l-0.54,0.18
		c-0.02-0.4-0.11-0.7-0.25-0.89c-0.14-0.19-0.34-0.29-0.6-0.29c-0.24,0-0.42,0.07-0.57,0.2c-0.14,0.13-0.21,0.3-0.21,0.52
		c0,0.2,0.04,0.36,0.11,0.5c0.07,0.14,0.2,0.29,0.39,0.45l0.84,0.76c0.15,0.13,0.28,0.25,0.37,0.35c0.1,0.1,0.2,0.22,0.31,0.37
		c0.11,0.15,0.19,0.31,0.24,0.48c0.05,0.17,0.08,0.35,0.08,0.55c0,0.46-0.14,0.81-0.42,1.07
		C118.56-109.39,118.19-109.26,117.72-109.26z"/>
	<path class="st4" d="M120.98-109.27c-0.3,0-0.53-0.11-0.69-0.33c-0.16-0.22-0.24-0.54-0.24-0.95v-4.8h0.76v4.64
		c0,0.3,0.05,0.52,0.14,0.65c0.09,0.13,0.23,0.19,0.43,0.19c0.34,0,0.69-0.2,1.06-0.59v-4.9h0.76v5.99h-0.76v-0.66
		C122-109.52,121.52-109.27,120.98-109.27z"/>
	<path class="st4" d="M124.37-109.36v-5.99h0.71v0.61c0.4-0.48,0.87-0.71,1.41-0.71c0.5,0,0.81,0.26,0.94,0.79
		c0.42-0.53,0.91-0.79,1.48-0.79c0.3,0,0.54,0.11,0.73,0.32c0.19,0.21,0.29,0.56,0.29,1.05v4.72h-0.72v-4.7
		c0-0.33-0.05-0.55-0.15-0.68c-0.1-0.13-0.25-0.19-0.44-0.19c-0.38,0.01-0.76,0.21-1.13,0.62c0.01,0.1,0.01,0.18,0.01,0.23v4.72
		h-0.71v-4.7c0-0.33-0.05-0.55-0.16-0.68c-0.1-0.13-0.25-0.19-0.44-0.19c-0.38,0.01-0.75,0.21-1.12,0.62v4.96H124.37z"/>
	<path class="st4" d="M134.49-109.26c-0.52,0-0.89-0.19-1.11-0.58c-0.22-0.39-0.34-1.03-0.34-1.93v-1.11c0-0.33,0.01-0.62,0.04-0.87
		c0.02-0.25,0.07-0.48,0.13-0.7c0.06-0.22,0.15-0.4,0.25-0.54c0.1-0.14,0.24-0.25,0.41-0.33c0.17-0.08,0.36-0.12,0.59-0.12
		c0.39,0,0.75,0.18,1.06,0.52v-2.83h0.76v8.39h-0.76v-0.42C135.21-109.44,134.87-109.27,134.49-109.26z M134.64-109.87
		c0.29,0,0.58-0.13,0.87-0.39v-4.16c-0.3-0.28-0.6-0.42-0.89-0.42c-0.32,0-0.54,0.13-0.65,0.4c-0.11,0.27-0.17,0.71-0.17,1.31v1.41
		c0,0.65,0.06,1.13,0.17,1.42C134.09-110.01,134.31-109.87,134.64-109.87z"/>
	<path class="st4" d="M139.69-109.41c-0.21,0.1-0.47,0.15-0.77,0.15c-0.31,0-0.56-0.05-0.77-0.15c-0.21-0.1-0.37-0.25-0.49-0.45
		c-0.12-0.2-0.21-0.43-0.26-0.7c-0.05-0.27-0.08-0.59-0.08-0.97v-1.66c0-0.76,0.12-1.33,0.35-1.7c0.24-0.37,0.65-0.56,1.24-0.56
		c0.6,0,1.01,0.18,1.25,0.55c0.23,0.37,0.35,0.94,0.35,1.7v1.66c0,0.38-0.03,0.7-0.08,0.97c-0.05,0.27-0.14,0.5-0.25,0.7
		C140.06-109.66,139.9-109.51,139.69-109.41z M138.91-109.84c0.15,0,0.28-0.03,0.38-0.08c0.1-0.06,0.19-0.13,0.25-0.21
		c0.06-0.08,0.1-0.2,0.13-0.36c0.03-0.16,0.05-0.3,0.06-0.45c0.01-0.14,0.01-0.33,0.01-0.55v-1.74c0-0.23,0-0.41-0.01-0.55
		c-0.01-0.14-0.03-0.29-0.06-0.45c-0.03-0.15-0.08-0.27-0.13-0.36c-0.06-0.08-0.14-0.15-0.25-0.21c-0.1-0.06-0.23-0.08-0.38-0.08
		c-0.13,0-0.24,0.02-0.33,0.05c-0.09,0.03-0.17,0.09-0.23,0.16c-0.06,0.08-0.11,0.16-0.15,0.24s-0.07,0.2-0.08,0.34
		c-0.02,0.14-0.03,0.27-0.04,0.39c0,0.12-0.01,0.28-0.01,0.46v1.74c0,0.19,0,0.34,0.01,0.46c0,0.12,0.02,0.25,0.04,0.39
		c0.02,0.14,0.05,0.25,0.08,0.34c0.04,0.09,0.09,0.17,0.15,0.24c0.06,0.08,0.14,0.13,0.23,0.16
		C138.67-109.85,138.79-109.84,138.91-109.84z"/>
	<path class="st4" d="M141.66-109.36v-8.39h0.76v8.39H141.66z"/>
	<path class="st4" d="M145.91-109.41c-0.21,0.1-0.47,0.15-0.77,0.15c-0.31,0-0.56-0.05-0.77-0.15c-0.21-0.1-0.37-0.25-0.49-0.45
		c-0.12-0.2-0.21-0.43-0.26-0.7c-0.05-0.27-0.08-0.59-0.08-0.97v-1.66c0-0.76,0.12-1.33,0.35-1.7c0.24-0.37,0.65-0.56,1.24-0.56
		c0.6,0,1.01,0.18,1.25,0.55c0.23,0.37,0.35,0.94,0.35,1.7v1.66c0,0.38-0.03,0.7-0.08,0.97c-0.05,0.27-0.14,0.5-0.25,0.7
		C146.28-109.66,146.12-109.51,145.91-109.41z M145.13-109.84c0.15,0,0.28-0.03,0.38-0.08c0.1-0.06,0.19-0.13,0.25-0.21
		c0.06-0.08,0.1-0.2,0.13-0.36c0.03-0.16,0.05-0.3,0.06-0.45c0.01-0.14,0.01-0.33,0.01-0.55v-1.74c0-0.23,0-0.41-0.01-0.55
		c-0.01-0.14-0.03-0.29-0.06-0.45c-0.03-0.15-0.08-0.27-0.13-0.36c-0.06-0.08-0.14-0.15-0.25-0.21c-0.1-0.06-0.23-0.08-0.38-0.08
		c-0.13,0-0.24,0.02-0.33,0.05c-0.09,0.03-0.17,0.09-0.23,0.16c-0.06,0.08-0.11,0.16-0.15,0.24c-0.04,0.09-0.07,0.2-0.08,0.34
		c-0.02,0.14-0.03,0.27-0.04,0.39c0,0.12-0.01,0.28-0.01,0.46v1.74c0,0.19,0,0.34,0.01,0.46c0,0.12,0.02,0.25,0.04,0.39
		c0.02,0.14,0.05,0.25,0.08,0.34c0.04,0.09,0.09,0.17,0.15,0.24c0.06,0.08,0.14,0.13,0.23,0.16
		C144.9-109.85,145.01-109.84,145.13-109.84z"/>
	<path class="st4" d="M147.84-109.36v-5.99h0.76v0.83c0.18-0.3,0.39-0.53,0.64-0.67c0.24-0.15,0.49-0.22,0.74-0.22
		c0.06,0,0.1,0,0.13,0v0.82c-0.11-0.04-0.23-0.07-0.36-0.07c-0.49,0-0.87,0.23-1.15,0.7v4.6H147.84z"/>
	<path class="st4" d="M154.35-109.26c-0.48,0-0.86-0.15-1.14-0.46c-0.29-0.31-0.45-0.72-0.49-1.24l0.64-0.19
		c0.04,0.46,0.14,0.79,0.31,1c0.17,0.21,0.4,0.32,0.71,0.32c0.26,0,0.47-0.08,0.62-0.23c0.15-0.15,0.22-0.35,0.22-0.6
		c0-0.01,0-0.02,0-0.04c-0.01-0.4-0.25-0.79-0.73-1.19l-0.81-0.69c-0.29-0.24-0.5-0.47-0.63-0.7c-0.13-0.22-0.19-0.48-0.19-0.78
		c0-0.44,0.13-0.78,0.39-1.02c0.26-0.24,0.6-0.35,1.04-0.35c0.44,0,0.78,0.14,1.02,0.42c0.24,0.28,0.37,0.67,0.4,1.15l-0.54,0.18
		c-0.02-0.4-0.11-0.7-0.25-0.89c-0.14-0.19-0.34-0.29-0.6-0.29c-0.24,0-0.42,0.07-0.57,0.2c-0.14,0.13-0.21,0.3-0.21,0.52
		c0,0.2,0.04,0.36,0.11,0.5c0.07,0.14,0.2,0.29,0.39,0.45l0.84,0.76c0.15,0.13,0.28,0.25,0.37,0.35c0.1,0.1,0.2,0.22,0.31,0.37
		c0.11,0.15,0.19,0.31,0.24,0.48c0.05,0.17,0.08,0.35,0.08,0.55c0,0.46-0.14,0.81-0.41,1.07
		C155.19-109.39,154.82-109.26,154.35-109.26z"/>
	<path class="st4" d="M156.82-116.17v-1.03h0.76v1.03H156.82z M156.82-109.36v-5.99h0.76v5.99H156.82z"/>
	<path class="st4" d="M160.27-109.28c-0.41,0-0.69-0.11-0.84-0.34c-0.16-0.22-0.23-0.55-0.24-0.98v-4.24h-0.72v-0.51h0.72v-1.85
		h0.76v1.85h1v0.51h-1v4.17c0,0.3,0.04,0.51,0.11,0.62c0.07,0.11,0.21,0.17,0.43,0.17c0.14,0,0.28-0.01,0.43-0.04v0.57
		C160.68-109.31,160.47-109.28,160.27-109.28z"/>
	<path class="st4" d="M164.9-109.26c-0.35,0-0.64-0.13-0.86-0.39c-0.23-0.26-0.34-0.58-0.34-0.96c0-0.2,0.02-0.38,0.05-0.53
		c0.03-0.16,0.1-0.3,0.19-0.44c0.09-0.14,0.19-0.26,0.3-0.37c0.11-0.11,0.27-0.22,0.47-0.34c0.2-0.12,0.41-0.23,0.61-0.33
		c0.2-0.1,0.47-0.22,0.79-0.37v-0.43c0-0.55-0.05-0.93-0.16-1.14s-0.3-0.31-0.59-0.31c-0.55,0-0.83,0.34-0.83,1.03v0.22l-0.75-0.03
		c0-0.1,0-0.16,0-0.18c0.02-0.56,0.17-0.97,0.44-1.23c0.27-0.25,0.66-0.38,1.17-0.38c0.53,0,0.91,0.16,1.13,0.47
		c0.22,0.31,0.33,0.82,0.33,1.51v2.91c0,0.48,0.02,0.88,0.06,1.19h-0.67l-0.11-0.83c-0.09,0.26-0.25,0.48-0.46,0.66
		C165.46-109.35,165.2-109.26,164.9-109.26z M165.14-109.92c0.2,0,0.39-0.07,0.56-0.21c0.17-0.14,0.3-0.31,0.4-0.5v-1.87
		c-0.02,0.01-0.05,0.03-0.1,0.05c-0.17,0.09-0.29,0.16-0.38,0.2c-0.09,0.05-0.19,0.11-0.32,0.18c-0.12,0.07-0.22,0.13-0.28,0.18
		c-0.06,0.05-0.13,0.1-0.21,0.17c-0.08,0.07-0.14,0.13-0.17,0.19c-0.04,0.06-0.07,0.13-0.11,0.2c-0.04,0.08-0.06,0.16-0.08,0.25
		c-0.01,0.09-0.02,0.18-0.02,0.29c0,0.29,0.07,0.51,0.2,0.66C164.78-109.99,164.94-109.92,165.14-109.92z"/>
	<path class="st4" d="M167.97-109.36v-5.99h0.71v0.61c0.4-0.48,0.87-0.71,1.41-0.71c0.5,0,0.81,0.26,0.94,0.79
		c0.42-0.53,0.91-0.79,1.48-0.79c0.3,0,0.54,0.11,0.73,0.32c0.19,0.21,0.29,0.56,0.29,1.05v4.72h-0.72v-4.7
		c0-0.33-0.05-0.55-0.15-0.68c-0.1-0.13-0.25-0.19-0.44-0.19c-0.38,0.01-0.76,0.21-1.13,0.62c0.01,0.1,0.01,0.18,0.01,0.23v4.72
		h-0.71v-4.7c0-0.33-0.05-0.55-0.16-0.68c-0.1-0.13-0.25-0.19-0.44-0.19c-0.38,0.01-0.75,0.21-1.12,0.62v4.96H167.97z"/>
	<path class="st4" d="M176.15-109.26c-0.57,0-0.99-0.18-1.24-0.53c-0.25-0.35-0.38-0.96-0.38-1.82v-1.51c0-0.58,0.06-1.05,0.18-1.39
		c0.12-0.34,0.3-0.58,0.53-0.72c0.23-0.14,0.54-0.21,0.92-0.21c0.25,0,0.47,0.03,0.65,0.1c0.18,0.07,0.33,0.16,0.45,0.28
		c0.12,0.12,0.21,0.29,0.28,0.49c0.07,0.21,0.12,0.44,0.14,0.69c0.03,0.25,0.04,0.55,0.04,0.91l0,0.54h-2.42v0.9
		c0,0.62,0.06,1.06,0.18,1.31c0.12,0.26,0.34,0.38,0.68,0.38c0.26,0,0.46-0.08,0.61-0.25s0.21-0.47,0.21-0.91v-0.42h0.74v0.33
		c0,0.58-0.12,1.03-0.36,1.34C177.1-109.42,176.7-109.26,176.15-109.26z M175.29-112.86h1.67v-0.5c0-0.21,0-0.38-0.02-0.52
		c-0.01-0.14-0.03-0.28-0.06-0.41c-0.03-0.14-0.08-0.24-0.13-0.32c-0.06-0.08-0.14-0.14-0.24-0.19c-0.1-0.05-0.22-0.07-0.36-0.07
		c-0.32,0-0.54,0.11-0.67,0.33c-0.13,0.22-0.19,0.65-0.19,1.27V-112.86z"/>
	<path class="st4" d="M180.16-109.28c-0.41,0-0.69-0.11-0.84-0.34c-0.16-0.22-0.23-0.55-0.24-0.98v-4.24h-0.72v-0.51h0.72v-1.85
		h0.76v1.85h1v0.51h-1v4.17c0,0.3,0.04,0.51,0.11,0.62c0.07,0.11,0.21,0.17,0.43,0.17c0.14,0,0.28-0.01,0.43-0.04v0.57
		C180.57-109.31,180.36-109.28,180.16-109.28z"/>
	<path class="st4" d="M181.73-108.15l-0.16-0.33c0.18-0.1,0.31-0.22,0.38-0.35c0.08-0.13,0.11-0.31,0.11-0.52h-0.46v-1.13h0.85v1.05
		c0,0.34-0.06,0.6-0.17,0.8C182.18-108.45,181.99-108.29,181.73-108.15z"/>
	<path class="st4" d="M187.11-109.26c-0.27,0-0.51-0.04-0.7-0.12c-0.2-0.08-0.35-0.19-0.46-0.32c-0.11-0.13-0.21-0.3-0.27-0.51
		c-0.07-0.21-0.11-0.43-0.13-0.65c-0.02-0.22-0.03-0.47-0.03-0.77v-1.4c0-0.44,0.02-0.8,0.07-1.08s0.13-0.54,0.25-0.74
		c0.12-0.21,0.28-0.35,0.49-0.45c0.21-0.09,0.47-0.14,0.79-0.14c0.25,0,0.47,0.03,0.65,0.09c0.18,0.06,0.33,0.14,0.44,0.25
		c0.11,0.11,0.2,0.24,0.27,0.41c0.07,0.17,0.11,0.34,0.14,0.52c0.03,0.18,0.04,0.4,0.04,0.64v0.28h-0.7v-0.28
		c0-0.51-0.06-0.87-0.18-1.06c-0.12-0.19-0.33-0.29-0.64-0.29c-0.34,0-0.57,0.12-0.68,0.37c-0.11,0.24-0.17,0.7-0.17,1.35v1.68
		c0,0.61,0.06,1.04,0.18,1.28c0.12,0.24,0.34,0.36,0.68,0.36c0.14,0,0.26-0.02,0.36-0.06c0.1-0.04,0.18-0.1,0.23-0.17
		c0.06-0.07,0.11-0.17,0.14-0.29c0.03-0.12,0.06-0.26,0.07-0.4c0.01-0.14,0.02-0.32,0.02-0.53v-0.33h0.7v0.29
		c0,0.26-0.01,0.49-0.03,0.68c-0.02,0.19-0.07,0.38-0.13,0.56c-0.07,0.18-0.15,0.33-0.26,0.44c-0.11,0.11-0.26,0.2-0.44,0.27
		C187.58-109.3,187.36-109.26,187.11-109.26z"/>
	<path class="st4" d="M191.91-109.41c-0.21,0.1-0.47,0.15-0.77,0.15c-0.31,0-0.56-0.05-0.77-0.15c-0.21-0.1-0.37-0.25-0.49-0.45
		c-0.12-0.2-0.21-0.43-0.26-0.7c-0.05-0.27-0.08-0.59-0.08-0.97v-1.66c0-0.76,0.12-1.33,0.35-1.7s0.65-0.56,1.24-0.56
		c0.6,0,1.01,0.18,1.25,0.55c0.23,0.37,0.35,0.94,0.35,1.7v1.66c0,0.38-0.03,0.7-0.08,0.97c-0.05,0.27-0.14,0.5-0.25,0.7
		C192.28-109.66,192.12-109.51,191.91-109.41z M191.13-109.84c0.15,0,0.28-0.03,0.38-0.08c0.1-0.06,0.19-0.13,0.25-0.21
		c0.06-0.08,0.1-0.2,0.13-0.36c0.03-0.16,0.05-0.3,0.06-0.45c0.01-0.14,0.01-0.33,0.01-0.55v-1.74c0-0.23,0-0.41-0.01-0.55
		c-0.01-0.14-0.03-0.29-0.06-0.45c-0.03-0.15-0.08-0.27-0.13-0.36c-0.06-0.08-0.14-0.15-0.25-0.21c-0.1-0.06-0.23-0.08-0.38-0.08
		c-0.13,0-0.24,0.02-0.33,0.05c-0.09,0.03-0.17,0.09-0.23,0.16c-0.06,0.08-0.11,0.16-0.15,0.24c-0.04,0.09-0.07,0.2-0.08,0.34
		c-0.02,0.14-0.03,0.27-0.04,0.39c0,0.12-0.01,0.28-0.01,0.46v1.74c0,0.19,0,0.34,0.01,0.46c0,0.12,0.02,0.25,0.04,0.39
		c0.02,0.14,0.05,0.25,0.08,0.34c0.04,0.09,0.09,0.17,0.15,0.24c0.06,0.08,0.14,0.13,0.23,0.16
		C190.89-109.85,191-109.84,191.13-109.84z"/>
	<path class="st4" d="M193.77-109.36v-5.99h0.76v0.62c0.44-0.48,0.92-0.71,1.44-0.71c0.3,0,0.52,0.11,0.68,0.33
		c0.16,0.22,0.24,0.54,0.24,0.94v4.81h-0.76V-114c0-0.3-0.05-0.52-0.14-0.65c-0.09-0.13-0.24-0.19-0.43-0.19
		c-0.33,0-0.67,0.18-1.03,0.55v4.93H193.77z"/>
	<path class="st4" d="M199.38-109.26c-0.48,0-0.86-0.15-1.14-0.46c-0.29-0.31-0.45-0.72-0.49-1.24l0.64-0.19
		c0.04,0.46,0.14,0.79,0.31,1c0.17,0.21,0.4,0.32,0.71,0.32c0.26,0,0.47-0.08,0.62-0.23c0.15-0.15,0.22-0.35,0.22-0.6
		c0-0.01,0-0.02,0-0.04c-0.01-0.4-0.25-0.79-0.73-1.19l-0.81-0.69c-0.29-0.24-0.5-0.47-0.63-0.7c-0.13-0.22-0.19-0.48-0.19-0.78
		c0-0.44,0.13-0.78,0.39-1.02c0.26-0.24,0.6-0.35,1.04-0.35c0.44,0,0.78,0.14,1.02,0.42c0.24,0.28,0.37,0.67,0.4,1.15l-0.54,0.18
		c-0.02-0.4-0.11-0.7-0.25-0.89c-0.14-0.19-0.34-0.29-0.6-0.29c-0.24,0-0.42,0.07-0.57,0.2c-0.14,0.13-0.21,0.3-0.21,0.52
		c0,0.2,0.04,0.36,0.11,0.5c0.07,0.14,0.2,0.29,0.39,0.45l0.84,0.76c0.15,0.13,0.28,0.25,0.37,0.35c0.1,0.1,0.2,0.22,0.31,0.37
		c0.11,0.15,0.19,0.31,0.24,0.48c0.05,0.17,0.08,0.35,0.08,0.55c0,0.46-0.14,0.81-0.42,1.07
		C200.23-109.39,199.85-109.26,199.38-109.26z"/>
	<path class="st4" d="M203.28-109.26c-0.57,0-0.99-0.18-1.24-0.53c-0.25-0.35-0.38-0.96-0.38-1.82v-1.51c0-0.58,0.06-1.05,0.18-1.39
		c0.12-0.34,0.3-0.58,0.53-0.72c0.23-0.14,0.54-0.21,0.92-0.21c0.25,0,0.47,0.03,0.65,0.1c0.18,0.07,0.33,0.16,0.45,0.28
		c0.12,0.12,0.21,0.29,0.28,0.49c0.07,0.21,0.12,0.44,0.14,0.69c0.03,0.25,0.04,0.55,0.04,0.91l0,0.54h-2.42v0.9
		c0,0.62,0.06,1.06,0.18,1.31c0.12,0.26,0.34,0.38,0.68,0.38c0.26,0,0.46-0.08,0.61-0.25s0.21-0.47,0.21-0.91v-0.42h0.74v0.33
		c0,0.58-0.12,1.03-0.36,1.34C204.23-109.42,203.83-109.26,203.28-109.26z M202.42-112.86h1.67v-0.5c0-0.21,0-0.38-0.02-0.52
		c-0.01-0.14-0.03-0.28-0.06-0.41c-0.03-0.14-0.08-0.24-0.13-0.32c-0.06-0.08-0.14-0.14-0.24-0.19c-0.1-0.05-0.22-0.07-0.36-0.07
		c-0.32,0-0.54,0.11-0.67,0.33c-0.13,0.22-0.19,0.65-0.19,1.27V-112.86z"/>
	<path class="st4" d="M207.35-109.26c-0.27,0-0.51-0.04-0.7-0.12c-0.2-0.08-0.35-0.19-0.46-0.32c-0.11-0.13-0.21-0.3-0.27-0.51
		c-0.07-0.21-0.11-0.43-0.13-0.65c-0.02-0.22-0.03-0.47-0.03-0.77v-1.4c0-0.44,0.02-0.8,0.07-1.08c0.05-0.29,0.13-0.54,0.25-0.74
		c0.12-0.21,0.28-0.35,0.49-0.45c0.21-0.09,0.47-0.14,0.79-0.14c0.25,0,0.47,0.03,0.65,0.09c0.18,0.06,0.33,0.14,0.44,0.25
		c0.11,0.11,0.2,0.24,0.27,0.41c0.07,0.17,0.11,0.34,0.14,0.52c0.03,0.18,0.04,0.4,0.04,0.64v0.28h-0.7v-0.28
		c0-0.51-0.06-0.87-0.18-1.06c-0.12-0.19-0.33-0.29-0.64-0.29c-0.34,0-0.57,0.12-0.68,0.37c-0.11,0.24-0.17,0.7-0.17,1.35v1.68
		c0,0.61,0.06,1.04,0.18,1.28c0.12,0.24,0.34,0.36,0.68,0.36c0.14,0,0.26-0.02,0.36-0.06c0.1-0.04,0.18-0.1,0.23-0.17
		c0.06-0.07,0.11-0.17,0.14-0.29c0.03-0.12,0.06-0.26,0.07-0.4c0.01-0.14,0.02-0.32,0.02-0.53v-0.33h0.7v0.29
		c0,0.26-0.01,0.49-0.03,0.68c-0.02,0.19-0.07,0.38-0.13,0.56c-0.07,0.18-0.15,0.33-0.26,0.44c-0.11,0.11-0.26,0.2-0.44,0.27
		C207.82-109.3,207.6-109.26,207.35-109.26z"/>
	<path class="st4" d="M211.31-109.28c-0.41,0-0.69-0.11-0.84-0.34c-0.16-0.22-0.23-0.55-0.24-0.98v-4.24h-0.72v-0.51h0.72v-1.85
		h0.76v1.85h1v0.51h-1v4.17c0,0.3,0.04,0.51,0.11,0.62c0.07,0.11,0.21,0.17,0.43,0.17c0.14,0,0.28-0.01,0.43-0.04v0.57
		C211.72-109.31,211.51-109.28,211.31-109.28z"/>
	<path class="st4" d="M214.29-109.26c-0.57,0-0.99-0.18-1.24-0.53c-0.25-0.35-0.38-0.96-0.38-1.82v-1.51c0-0.58,0.06-1.05,0.18-1.39
		c0.12-0.34,0.3-0.58,0.53-0.72c0.23-0.14,0.54-0.21,0.92-0.21c0.25,0,0.47,0.03,0.65,0.1c0.18,0.07,0.33,0.16,0.45,0.28
		c0.12,0.12,0.21,0.29,0.28,0.49c0.07,0.21,0.12,0.44,0.14,0.69c0.03,0.25,0.04,0.55,0.04,0.91l0,0.54h-2.42v0.9
		c0,0.62,0.06,1.06,0.18,1.31c0.12,0.26,0.34,0.38,0.68,0.38c0.26,0,0.46-0.08,0.61-0.25s0.21-0.47,0.21-0.91v-0.42h0.74v0.33
		c0,0.58-0.12,1.03-0.36,1.34C215.24-109.42,214.85-109.26,214.29-109.26z M213.43-112.86h1.67v-0.5c0-0.21,0-0.38-0.02-0.52
		c-0.01-0.14-0.03-0.28-0.06-0.41c-0.03-0.14-0.08-0.24-0.13-0.32c-0.06-0.08-0.14-0.14-0.24-0.19c-0.1-0.05-0.22-0.07-0.36-0.07
		c-0.32,0-0.54,0.11-0.67,0.33c-0.13,0.22-0.19,0.65-0.19,1.27V-112.86z"/>
	<path class="st4" d="M218.3-109.28c-0.41,0-0.69-0.11-0.84-0.34c-0.16-0.22-0.23-0.55-0.24-0.98v-4.24h-0.72v-0.51h0.72v-1.85h0.76
		v1.85h1v0.51h-1v4.17c0,0.3,0.04,0.51,0.11,0.62c0.07,0.11,0.21,0.17,0.43,0.17c0.14,0,0.28-0.01,0.43-0.04v0.57
		C218.71-109.31,218.5-109.28,218.3-109.28z"/>
	<path class="st4" d="M220.66-109.27c-0.3,0-0.53-0.11-0.69-0.33c-0.16-0.22-0.24-0.54-0.24-0.95v-4.8h0.76v4.64
		c0,0.3,0.05,0.52,0.14,0.65c0.09,0.13,0.23,0.19,0.43,0.19c0.34,0,0.69-0.2,1.06-0.59v-4.9h0.76v5.99h-0.76v-0.66
		C221.68-109.52,221.19-109.27,220.66-109.27z"/>
	<path class="st4" d="M224.1-109.36v-5.99h0.76v0.83c0.18-0.3,0.39-0.53,0.64-0.67c0.24-0.15,0.49-0.22,0.74-0.22
		c0.06,0,0.1,0,0.13,0v0.82c-0.11-0.04-0.23-0.07-0.36-0.07c-0.49,0-0.87,0.23-1.15,0.7v4.6H224.1z"/>
	<path class="st4" d="M230.28-109.26c-0.35,0-0.64-0.13-0.86-0.39c-0.23-0.26-0.34-0.58-0.34-0.96c0-0.2,0.02-0.38,0.05-0.53
		c0.03-0.16,0.1-0.3,0.19-0.44c0.09-0.14,0.19-0.26,0.3-0.37c0.11-0.11,0.27-0.22,0.47-0.34c0.2-0.12,0.41-0.23,0.61-0.33
		c0.2-0.1,0.47-0.22,0.79-0.37v-0.43c0-0.55-0.05-0.93-0.16-1.14c-0.1-0.21-0.3-0.31-0.59-0.31c-0.55,0-0.83,0.34-0.83,1.03v0.22
		l-0.75-0.03c0-0.1,0-0.16,0-0.18c0.02-0.56,0.17-0.97,0.44-1.23c0.27-0.25,0.66-0.38,1.17-0.38c0.53,0,0.91,0.16,1.13,0.47
		c0.22,0.31,0.33,0.82,0.33,1.51v2.91c0,0.48,0.02,0.88,0.06,1.19h-0.67l-0.11-0.83c-0.09,0.26-0.25,0.48-0.46,0.66
		C230.84-109.35,230.58-109.26,230.28-109.26z M230.52-109.92c0.2,0,0.39-0.07,0.56-0.21c0.17-0.14,0.3-0.31,0.4-0.5v-1.87
		c-0.02,0.01-0.05,0.03-0.1,0.05c-0.17,0.09-0.29,0.16-0.38,0.2c-0.09,0.05-0.19,0.11-0.32,0.18c-0.12,0.07-0.22,0.13-0.28,0.18
		c-0.06,0.05-0.13,0.1-0.21,0.17c-0.08,0.07-0.14,0.13-0.17,0.19c-0.04,0.06-0.07,0.13-0.11,0.2c-0.04,0.08-0.06,0.16-0.08,0.25
		c-0.01,0.09-0.02,0.18-0.02,0.29c0,0.29,0.07,0.51,0.2,0.66C230.16-109.99,230.32-109.92,230.52-109.92z"/>
	<path class="st4" d="M234.69-109.26c-0.52,0-0.89-0.19-1.11-0.58c-0.22-0.39-0.34-1.03-0.34-1.93v-1.11c0-0.33,0.01-0.62,0.04-0.87
		c0.02-0.25,0.07-0.48,0.13-0.7c0.06-0.22,0.15-0.4,0.25-0.54c0.1-0.14,0.24-0.25,0.41-0.33c0.17-0.08,0.36-0.12,0.59-0.12
		c0.39,0,0.75,0.18,1.06,0.52v-2.83h0.76v8.39h-0.76v-0.42C235.4-109.44,235.06-109.27,234.69-109.26z M234.84-109.87
		c0.29,0,0.58-0.13,0.87-0.39v-4.16c-0.3-0.28-0.6-0.42-0.89-0.42c-0.32,0-0.54,0.13-0.65,0.4c-0.11,0.27-0.17,0.71-0.17,1.31v1.41
		c0,0.65,0.06,1.13,0.17,1.42C234.29-110.01,234.51-109.87,234.84-109.87z"/>
	<path class="st4" d="M237.71-116.17v-1.03h0.76v1.03H237.71z M237.71-109.36v-5.99h0.76v5.99H237.71z"/>
	<path class="st4" d="M239.75-107.39v-7.96h0.76v0.5c0.32-0.39,0.7-0.59,1.15-0.59c0.22,0,0.42,0.05,0.58,0.14
		c0.17,0.09,0.3,0.21,0.39,0.35c0.1,0.14,0.17,0.33,0.23,0.54c0.06,0.22,0.1,0.43,0.12,0.64c0.02,0.21,0.03,0.45,0.03,0.72v1.26
		c0,0.32-0.01,0.6-0.04,0.85c-0.03,0.25-0.07,0.48-0.14,0.7c-0.07,0.21-0.16,0.39-0.27,0.53c-0.11,0.14-0.25,0.25-0.41,0.33
		c-0.17,0.08-0.36,0.12-0.58,0.12c-0.39,0-0.74-0.19-1.07-0.57v2.45H239.75z M241.45-109.87c0.13,0,0.25-0.03,0.34-0.08
		c0.09-0.06,0.17-0.13,0.23-0.23c0.06-0.1,0.11-0.23,0.14-0.39c0.03-0.17,0.06-0.34,0.07-0.53c0.01-0.19,0.02-0.41,0.02-0.68v-1.27
		c0-0.64-0.05-1.1-0.16-1.38c-0.11-0.28-0.33-0.42-0.65-0.42c-0.31,0-0.62,0.15-0.93,0.46v4.08
		C240.78-110.01,241.1-109.87,241.45-109.87z"/>
	<path class="st4" d="M244.15-116.17v-1.03h0.76v1.03H244.15z M244.15-109.36v-5.99h0.76v5.99H244.15z"/>
	<path class="st4" d="M247.55-109.26c-0.48,0-0.86-0.15-1.14-0.46c-0.29-0.31-0.45-0.72-0.49-1.24l0.64-0.19
		c0.04,0.46,0.14,0.79,0.31,1c0.17,0.21,0.4,0.32,0.71,0.32c0.26,0,0.47-0.08,0.62-0.23c0.15-0.15,0.22-0.35,0.22-0.6
		c0-0.01,0-0.02,0-0.04c-0.01-0.4-0.25-0.79-0.73-1.19l-0.81-0.69c-0.29-0.24-0.5-0.47-0.63-0.7c-0.13-0.22-0.19-0.48-0.19-0.78
		c0-0.44,0.13-0.78,0.39-1.02c0.26-0.24,0.6-0.35,1.04-0.35c0.44,0,0.78,0.14,1.02,0.42c0.24,0.28,0.37,0.67,0.4,1.15l-0.54,0.18
		c-0.02-0.4-0.11-0.7-0.25-0.89c-0.14-0.19-0.34-0.29-0.6-0.29c-0.24,0-0.42,0.07-0.57,0.2c-0.14,0.13-0.21,0.3-0.21,0.52
		c0,0.2,0.04,0.36,0.11,0.5c0.07,0.14,0.2,0.29,0.39,0.45l0.84,0.76c0.15,0.13,0.28,0.25,0.37,0.35c0.1,0.1,0.2,0.22,0.31,0.37
		c0.11,0.15,0.19,0.31,0.24,0.48c0.05,0.17,0.08,0.35,0.08,0.55c0,0.46-0.14,0.81-0.42,1.07
		C248.4-109.39,248.02-109.26,247.55-109.26z"/>
	<path class="st4" d="M251.43-109.26c-0.27,0-0.51-0.04-0.7-0.12c-0.2-0.08-0.35-0.19-0.46-0.32c-0.11-0.13-0.21-0.3-0.27-0.51
		c-0.07-0.21-0.11-0.43-0.13-0.65c-0.02-0.22-0.03-0.47-0.03-0.77v-1.4c0-0.44,0.02-0.8,0.07-1.08c0.05-0.29,0.13-0.54,0.25-0.74
		c0.12-0.21,0.28-0.35,0.49-0.45c0.21-0.09,0.47-0.14,0.79-0.14c0.25,0,0.47,0.03,0.65,0.09c0.18,0.06,0.33,0.14,0.44,0.25
		c0.11,0.11,0.2,0.24,0.27,0.41c0.07,0.17,0.11,0.34,0.14,0.52c0.03,0.18,0.04,0.4,0.04,0.64v0.28h-0.7v-0.28
		c0-0.51-0.06-0.87-0.18-1.06c-0.12-0.19-0.33-0.29-0.64-0.29c-0.34,0-0.57,0.12-0.68,0.37c-0.11,0.24-0.17,0.7-0.17,1.35v1.68
		c0,0.61,0.06,1.04,0.18,1.28c0.12,0.24,0.34,0.36,0.68,0.36c0.14,0,0.26-0.02,0.36-0.06c0.1-0.04,0.18-0.1,0.23-0.17
		c0.06-0.07,0.11-0.17,0.14-0.29c0.03-0.12,0.06-0.26,0.07-0.4c0.01-0.14,0.02-0.32,0.02-0.53v-0.33h0.7v0.29
		c0,0.26-0.01,0.49-0.03,0.68c-0.02,0.19-0.07,0.38-0.13,0.56c-0.07,0.18-0.15,0.33-0.26,0.44c-0.11,0.11-0.26,0.2-0.44,0.27
		S251.68-109.26,251.43-109.26z"/>
	<path class="st4" d="M254.05-116.17v-1.03h0.76v1.03H254.05z M254.05-109.36v-5.99h0.76v5.99H254.05z"/>
	<path class="st4" d="M256.08-109.36v-5.99h0.76v0.62c0.44-0.48,0.92-0.71,1.44-0.71c0.3,0,0.52,0.11,0.68,0.33
		c0.16,0.22,0.24,0.54,0.24,0.94v4.81h-0.76V-114c0-0.3-0.05-0.52-0.14-0.65c-0.09-0.13-0.24-0.19-0.43-0.19
		c-0.33,0-0.67,0.18-1.03,0.55v4.93H256.08z"/>
	<path class="st4" d="M261.96-107.39c-0.32,0-0.6-0.02-0.84-0.05c-0.24-0.03-0.46-0.09-0.64-0.17c-0.19-0.08-0.33-0.18-0.42-0.32
		c-0.1-0.13-0.15-0.29-0.15-0.48c0-0.29,0.1-0.56,0.29-0.8c0.19-0.24,0.43-0.43,0.7-0.58c-0.18-0.05-0.34-0.12-0.47-0.22
		c-0.13-0.1-0.2-0.2-0.2-0.31c0-0.32,0.24-0.72,0.71-1.21c-0.5-0.36-0.75-0.97-0.75-1.83c0-0.29,0.03-0.56,0.1-0.81
		c0.07-0.25,0.17-0.47,0.3-0.66c0.13-0.19,0.31-0.35,0.52-0.46c0.22-0.11,0.46-0.16,0.74-0.16c0.6,0,1.03,0.25,1.29,0.74
		c0.06-0.11,0.17-0.23,0.32-0.36c0.15-0.13,0.31-0.23,0.49-0.31l0.16-0.07l0.2,0.53c-0.17,0.04-0.35,0.11-0.55,0.22
		s-0.35,0.21-0.43,0.3c0.05,0.12,0.09,0.29,0.13,0.51c0.04,0.22,0.06,0.4,0.06,0.54c0,0.64-0.13,1.15-0.4,1.53
		c-0.26,0.38-0.68,0.56-1.26,0.56c-0.09,0-0.2-0.01-0.33-0.03c-0.13-0.02-0.22-0.04-0.27-0.06c-0.01,0.02-0.05,0.07-0.11,0.17
		c-0.07,0.1-0.12,0.17-0.15,0.23c-0.03,0.05-0.07,0.12-0.1,0.19c-0.03,0.08-0.05,0.14-0.05,0.19c0,0.1,0.17,0.17,0.5,0.23
		c0.07,0.02,0.24,0.05,0.51,0.09c0.27,0.04,0.42,0.06,0.46,0.07c0.49,0.09,0.86,0.24,1.12,0.46c0.25,0.22,0.38,0.53,0.38,0.92
		c0,0.48-0.17,0.83-0.5,1.05C262.99-107.51,262.53-107.39,261.96-107.39z M261.95-108c0.39,0,0.7-0.06,0.93-0.19
		c0.23-0.13,0.34-0.32,0.34-0.57c0-0.22-0.08-0.39-0.23-0.51c-0.16-0.12-0.45-0.22-0.9-0.3l-0.77-0.1
		c-0.51,0.31-0.76,0.66-0.76,1.03c0,0.23,0.11,0.4,0.32,0.5C261.1-108.05,261.46-108,261.95-108z M261.88-111.78
		c0.17,0,0.32-0.03,0.44-0.1c0.12-0.06,0.22-0.15,0.29-0.24c0.07-0.1,0.12-0.22,0.16-0.37c0.04-0.15,0.07-0.28,0.08-0.41
		c0.01-0.13,0.02-0.28,0.02-0.45c0-1.03-0.33-1.55-0.98-1.55c-0.16,0-0.3,0.03-0.42,0.1c-0.12,0.07-0.22,0.15-0.29,0.25
		c-0.07,0.1-0.13,0.22-0.18,0.36s-0.08,0.28-0.09,0.41c-0.02,0.13-0.02,0.27-0.02,0.42C260.88-112.3,261.21-111.78,261.88-111.78z"
		/>
	<path class="st4" d="M87.36-96.83c-0.57,0-0.99-0.18-1.24-0.53c-0.25-0.35-0.38-0.96-0.38-1.82v-1.51c0-0.58,0.06-1.05,0.18-1.39
		c0.12-0.34,0.3-0.58,0.53-0.72c0.23-0.14,0.54-0.21,0.92-0.21c0.25,0,0.47,0.03,0.65,0.1c0.18,0.07,0.33,0.16,0.45,0.28
		c0.12,0.12,0.21,0.29,0.28,0.49c0.07,0.21,0.12,0.44,0.14,0.69s0.04,0.55,0.04,0.91l0,0.54H86.5v0.9c0,0.62,0.06,1.06,0.18,1.31
		c0.12,0.26,0.34,0.38,0.68,0.38c0.26,0,0.46-0.08,0.61-0.25c0.14-0.17,0.21-0.47,0.21-0.91v-0.42h0.74v0.33
		c0,0.58-0.12,1.03-0.36,1.34C88.31-96.99,87.91-96.83,87.36-96.83z M86.5-100.43h1.67v-0.5c0-0.21,0-0.38-0.02-0.52
		c-0.01-0.14-0.03-0.28-0.06-0.41c-0.03-0.14-0.08-0.24-0.13-0.32c-0.06-0.08-0.14-0.14-0.24-0.19c-0.1-0.05-0.22-0.07-0.36-0.07
		c-0.32,0-0.54,0.11-0.67,0.33c-0.13,0.22-0.19,0.65-0.19,1.27V-100.43z"/>
	<path class="st4" d="M90.05-96.93v-8.39h0.76v8.39H90.05z"/>
	<path class="st4" d="M92.13-103.74v-1.03h0.76v1.03H92.13z M92.13-96.93v-5.99h0.76v5.99H92.13z"/>
	<path class="st4" d="M95.57-96.85c-0.41,0-0.69-0.11-0.84-0.34c-0.16-0.22-0.23-0.55-0.24-0.98v-4.24h-0.72v-0.51h0.72v-1.85h0.76
		v1.85h1v0.51h-1v4.17c0,0.3,0.04,0.51,0.11,0.62c0.07,0.11,0.21,0.17,0.43,0.17c0.14,0,0.28-0.01,0.43-0.04v0.57
		C95.99-96.88,95.77-96.85,95.57-96.85z"/>
	<path class="st4" d="M97.14-95.72l-0.16-0.33c0.18-0.1,0.31-0.22,0.38-0.35c0.08-0.13,0.11-0.31,0.11-0.52h-0.46v-1.13h0.85v1.05
		c0,0.34-0.06,0.6-0.17,0.8C97.6-96.02,97.41-95.85,97.14-95.72z"/>
	<path class="st4" d="M102.41-96.83c-0.48,0-0.86-0.15-1.14-0.46c-0.29-0.31-0.45-0.72-0.49-1.24l0.64-0.19
		c0.04,0.45,0.14,0.79,0.31,1c0.17,0.21,0.4,0.32,0.71,0.32c0.26,0,0.47-0.08,0.62-0.23c0.15-0.15,0.22-0.35,0.22-0.6
		c0-0.01,0-0.02,0-0.04c-0.01-0.4-0.25-0.79-0.73-1.19l-0.81-0.69c-0.29-0.24-0.5-0.47-0.63-0.7c-0.13-0.22-0.19-0.48-0.19-0.78
		c0-0.44,0.13-0.78,0.39-1.02c0.26-0.24,0.6-0.35,1.04-0.35c0.44,0,0.78,0.14,1.02,0.42c0.24,0.28,0.37,0.67,0.4,1.15l-0.54,0.18
		c-0.02-0.4-0.11-0.7-0.25-0.89c-0.14-0.19-0.34-0.29-0.6-0.29c-0.24,0-0.42,0.07-0.57,0.2c-0.14,0.13-0.21,0.3-0.21,0.52
		c0,0.2,0.04,0.36,0.11,0.5c0.07,0.14,0.2,0.29,0.39,0.45l0.84,0.76c0.15,0.13,0.28,0.25,0.37,0.35c0.1,0.1,0.2,0.22,0.31,0.37
		c0.11,0.15,0.19,0.31,0.24,0.48c0.05,0.17,0.08,0.35,0.08,0.55c0,0.46-0.14,0.81-0.42,1.07C103.25-96.96,102.88-96.83,102.41-96.83
		z"/>
	<path class="st4" d="M106.3-96.83c-0.57,0-0.99-0.18-1.24-0.53c-0.25-0.35-0.38-0.96-0.38-1.82v-1.51c0-0.58,0.06-1.05,0.18-1.39
		c0.12-0.34,0.3-0.58,0.53-0.72c0.23-0.14,0.54-0.21,0.92-0.21c0.25,0,0.47,0.03,0.65,0.1c0.18,0.07,0.33,0.16,0.45,0.28
		c0.12,0.12,0.21,0.29,0.28,0.49c0.07,0.21,0.12,0.44,0.14,0.69c0.03,0.25,0.04,0.55,0.04,0.91l0,0.54h-2.42v0.9
		c0,0.62,0.06,1.06,0.18,1.31c0.12,0.26,0.34,0.38,0.68,0.38c0.26,0,0.46-0.08,0.61-0.25c0.14-0.17,0.21-0.47,0.21-0.91v-0.42h0.74
		v0.33c0,0.58-0.12,1.03-0.36,1.34C107.25-96.99,106.86-96.83,106.3-96.83z M105.44-100.43h1.67v-0.5c0-0.21,0-0.38-0.02-0.52
		c-0.01-0.14-0.03-0.28-0.06-0.41c-0.03-0.14-0.08-0.24-0.13-0.32c-0.06-0.08-0.14-0.14-0.24-0.19c-0.1-0.05-0.22-0.07-0.36-0.07
		c-0.32,0-0.54,0.11-0.67,0.33c-0.13,0.22-0.19,0.65-0.19,1.27V-100.43z"/>
	<path class="st4" d="M110.22-96.83c-0.52,0-0.89-0.19-1.11-0.58c-0.22-0.39-0.34-1.03-0.34-1.93v-1.11c0-0.33,0.01-0.62,0.04-0.87
		c0.02-0.25,0.07-0.48,0.13-0.7c0.06-0.22,0.15-0.4,0.25-0.54c0.1-0.14,0.24-0.25,0.41-0.33s0.36-0.12,0.59-0.12
		c0.39,0,0.75,0.18,1.06,0.52v-2.83H112v8.39h-0.76v-0.42C110.94-97.01,110.6-96.84,110.22-96.83z M110.37-97.43
		c0.29,0,0.58-0.13,0.87-0.39v-4.16c-0.3-0.28-0.6-0.42-0.89-0.42c-0.32,0-0.54,0.13-0.65,0.4c-0.11,0.27-0.17,0.71-0.17,1.31v1.41
		c0,0.65,0.06,1.13,0.17,1.42C109.82-97.58,110.04-97.43,110.37-97.43z"/>
	<path class="st4" d="M116.61-96.83c-0.52,0-0.89-0.19-1.11-0.58c-0.22-0.39-0.34-1.03-0.34-1.93v-1.11c0-0.33,0.01-0.62,0.04-0.87
		s0.07-0.48,0.13-0.7c0.06-0.22,0.15-0.4,0.25-0.54c0.1-0.14,0.24-0.25,0.41-0.33c0.17-0.08,0.36-0.12,0.59-0.12
		c0.39,0,0.75,0.18,1.06,0.52v-2.83h0.76v8.39h-0.76v-0.42C117.33-97.01,116.99-96.84,116.61-96.83z M116.76-97.43
		c0.29,0,0.58-0.13,0.87-0.39v-4.16c-0.3-0.28-0.6-0.42-0.89-0.42c-0.32,0-0.54,0.13-0.65,0.4c-0.11,0.27-0.17,0.71-0.17,1.31v1.41
		c0,0.65,0.06,1.13,0.17,1.42C116.21-97.58,116.43-97.43,116.76-97.43z"/>
	<path class="st4" d="M121.81-96.98c-0.21,0.1-0.47,0.15-0.77,0.15c-0.31,0-0.56-0.05-0.77-0.15c-0.21-0.1-0.37-0.25-0.49-0.45
		c-0.12-0.2-0.21-0.43-0.26-0.7c-0.05-0.27-0.08-0.59-0.08-0.97v-1.66c0-0.76,0.12-1.33,0.35-1.7c0.24-0.37,0.65-0.56,1.24-0.56
		c0.6,0,1.01,0.18,1.25,0.55c0.23,0.37,0.35,0.94,0.35,1.7v1.66c0,0.38-0.03,0.7-0.08,0.97c-0.05,0.27-0.14,0.5-0.25,0.7
		C122.18-97.23,122.02-97.08,121.81-96.98z M121.04-97.4c0.15,0,0.28-0.03,0.38-0.08c0.1-0.06,0.19-0.13,0.25-0.21
		c0.06-0.08,0.1-0.2,0.13-0.36c0.03-0.16,0.05-0.3,0.06-0.45c0.01-0.14,0.01-0.33,0.01-0.55v-1.74c0-0.23,0-0.41-0.01-0.55
		c-0.01-0.14-0.03-0.29-0.06-0.45c-0.03-0.15-0.08-0.27-0.13-0.36c-0.06-0.09-0.14-0.15-0.25-0.21c-0.1-0.06-0.23-0.08-0.38-0.08
		c-0.13,0-0.24,0.02-0.33,0.05c-0.09,0.03-0.17,0.09-0.23,0.16c-0.06,0.08-0.11,0.16-0.15,0.24c-0.04,0.09-0.07,0.2-0.08,0.34
		c-0.02,0.14-0.03,0.27-0.04,0.39c0,0.12-0.01,0.28-0.01,0.46v1.74c0,0.19,0,0.34,0.01,0.46c0,0.12,0.02,0.25,0.04,0.39
		c0.02,0.14,0.05,0.25,0.08,0.34c0.04,0.09,0.09,0.17,0.15,0.24c0.06,0.08,0.14,0.13,0.23,0.16C120.8-97.42,120.91-97.4,121.04-97.4
		z"/>
	<path class="st4" d="M127.3-96.83c-0.57,0-0.99-0.18-1.24-0.53c-0.25-0.35-0.38-0.96-0.38-1.82v-1.51c0-0.58,0.06-1.05,0.18-1.39
		c0.12-0.34,0.3-0.58,0.53-0.72c0.23-0.14,0.54-0.21,0.92-0.21c0.25,0,0.47,0.03,0.65,0.1c0.18,0.07,0.33,0.16,0.45,0.28
		c0.12,0.12,0.21,0.29,0.28,0.49c0.07,0.21,0.12,0.44,0.14,0.69s0.04,0.55,0.04,0.91l0,0.54h-2.42v0.9c0,0.62,0.06,1.06,0.18,1.31
		c0.12,0.26,0.34,0.38,0.68,0.38c0.26,0,0.46-0.08,0.61-0.25c0.14-0.17,0.21-0.47,0.21-0.91v-0.42h0.74v0.33
		c0,0.58-0.12,1.03-0.36,1.34C128.25-96.99,127.85-96.83,127.3-96.83z M126.44-100.43h1.67v-0.5c0-0.21,0-0.38-0.02-0.52
		c-0.01-0.14-0.03-0.28-0.06-0.41c-0.03-0.14-0.08-0.24-0.13-0.32c-0.06-0.08-0.14-0.14-0.24-0.19c-0.1-0.05-0.22-0.07-0.36-0.07
		c-0.32,0-0.54,0.11-0.67,0.33c-0.13,0.22-0.19,0.65-0.19,1.27V-100.43z"/>
	<path class="st4" d="M129.97-103.74v-1.03h0.76v1.03H129.97z M129.97-96.93v-5.99h0.76v5.99H129.97z"/>
	<path class="st4" d="M132.88-96.84c-0.3,0-0.53-0.11-0.69-0.33c-0.16-0.22-0.24-0.54-0.24-0.95v-4.8h0.76v4.64
		c0,0.3,0.05,0.52,0.14,0.65c0.09,0.13,0.23,0.19,0.43,0.19c0.34,0,0.69-0.2,1.06-0.59v-4.9h0.76v5.99h-0.76v-0.66
		C133.9-97.09,133.41-96.84,132.88-96.84z"/>
	<path class="st4" d="M137.63-96.83c-0.48,0-0.86-0.15-1.14-0.46c-0.29-0.31-0.45-0.72-0.49-1.24l0.64-0.19
		c0.04,0.45,0.14,0.79,0.31,1c0.17,0.21,0.4,0.32,0.71,0.32c0.26,0,0.47-0.08,0.62-0.23c0.15-0.15,0.22-0.35,0.22-0.6
		c0-0.01,0-0.02,0-0.04c-0.01-0.4-0.25-0.79-0.73-1.19l-0.81-0.69c-0.29-0.24-0.5-0.47-0.63-0.7c-0.13-0.22-0.19-0.48-0.19-0.78
		c0-0.44,0.13-0.78,0.39-1.02c0.26-0.24,0.6-0.35,1.04-0.35c0.44,0,0.78,0.14,1.02,0.42c0.24,0.28,0.37,0.67,0.4,1.15l-0.54,0.18
		c-0.02-0.4-0.11-0.7-0.25-0.89c-0.14-0.19-0.34-0.29-0.6-0.29c-0.24,0-0.42,0.07-0.57,0.2c-0.14,0.13-0.21,0.3-0.21,0.52
		c0,0.2,0.04,0.36,0.11,0.5c0.07,0.14,0.2,0.29,0.39,0.45l0.84,0.76c0.15,0.13,0.28,0.25,0.37,0.35c0.1,0.1,0.2,0.22,0.31,0.37
		c0.11,0.15,0.19,0.31,0.24,0.48c0.05,0.17,0.08,0.35,0.08,0.55c0,0.46-0.14,0.81-0.42,1.07C138.48-96.96,138.1-96.83,137.63-96.83z
		"/>
	<path class="st4" d="M140.02-96.93v-5.99h0.71v0.61c0.4-0.48,0.87-0.71,1.41-0.71c0.5,0,0.81,0.26,0.94,0.79
		c0.42-0.53,0.91-0.79,1.48-0.79c0.3,0,0.54,0.11,0.73,0.32c0.19,0.21,0.29,0.56,0.29,1.05v4.72h-0.72v-4.7
		c0-0.33-0.05-0.55-0.15-0.68c-0.1-0.13-0.25-0.19-0.44-0.19c-0.38,0.01-0.76,0.21-1.13,0.62c0.01,0.1,0.01,0.18,0.01,0.23v4.72
		h-0.71v-4.7c0-0.33-0.05-0.55-0.16-0.68c-0.1-0.13-0.25-0.19-0.44-0.19c-0.38,0.01-0.75,0.21-1.12,0.62v4.96H140.02z"/>
	<path class="st4" d="M148.95-96.98c-0.21,0.1-0.47,0.15-0.77,0.15c-0.31,0-0.56-0.05-0.77-0.15c-0.21-0.1-0.37-0.25-0.49-0.45
		c-0.12-0.2-0.21-0.43-0.26-0.7c-0.05-0.27-0.08-0.59-0.08-0.97v-1.66c0-0.76,0.12-1.33,0.35-1.7c0.24-0.37,0.65-0.56,1.24-0.56
		c0.6,0,1.01,0.18,1.25,0.55c0.23,0.37,0.35,0.94,0.35,1.7v1.66c0,0.38-0.03,0.7-0.08,0.97c-0.05,0.27-0.14,0.5-0.25,0.7
		C149.32-97.23,149.16-97.08,148.95-96.98z M148.18-97.4c0.15,0,0.28-0.03,0.38-0.08c0.1-0.06,0.19-0.13,0.25-0.21
		c0.06-0.08,0.1-0.2,0.13-0.36c0.03-0.16,0.05-0.3,0.06-0.45c0.01-0.14,0.01-0.33,0.01-0.55v-1.74c0-0.23,0-0.41-0.01-0.55
		c-0.01-0.14-0.03-0.29-0.06-0.45c-0.03-0.15-0.08-0.27-0.13-0.36c-0.06-0.09-0.14-0.15-0.25-0.21c-0.1-0.06-0.23-0.08-0.38-0.08
		c-0.13,0-0.24,0.02-0.33,0.05c-0.09,0.03-0.17,0.09-0.23,0.16c-0.06,0.08-0.11,0.16-0.15,0.24c-0.04,0.09-0.07,0.2-0.08,0.34
		c-0.02,0.14-0.03,0.27-0.04,0.39c0,0.12-0.01,0.28-0.01,0.46v1.74c0,0.19,0,0.34,0.01,0.46s0.02,0.25,0.04,0.39
		c0.02,0.14,0.05,0.25,0.08,0.34c0.04,0.09,0.09,0.17,0.15,0.24c0.06,0.08,0.14,0.13,0.23,0.16
		C147.94-97.42,148.05-97.4,148.18-97.4z"/>
	<path class="st4" d="M152.15-96.83c-0.52,0-0.89-0.19-1.11-0.58c-0.22-0.39-0.34-1.03-0.34-1.93v-1.11c0-0.33,0.01-0.62,0.04-0.87
		c0.02-0.25,0.07-0.48,0.13-0.7c0.06-0.22,0.15-0.4,0.25-0.54c0.1-0.14,0.24-0.25,0.41-0.33c0.16-0.08,0.36-0.12,0.59-0.12
		c0.39,0,0.75,0.18,1.06,0.52v-2.83h0.76v8.39h-0.76v-0.42C152.87-97.01,152.53-96.84,152.15-96.83z M152.3-97.43
		c0.29,0,0.58-0.13,0.87-0.39v-4.16c-0.3-0.28-0.6-0.42-0.89-0.42c-0.32,0-0.54,0.13-0.65,0.4c-0.11,0.27-0.17,0.71-0.17,1.31v1.41
		c0,0.65,0.06,1.13,0.17,1.42C151.75-97.58,151.97-97.43,152.3-97.43z"/>
	<path class="st4" d="M158.63-96.85c-0.41,0-0.69-0.11-0.84-0.34c-0.16-0.22-0.23-0.55-0.24-0.98v-4.24h-0.72v-0.51h0.72v-1.85h0.76
		v1.85h1v0.51h-1v4.17c0,0.3,0.04,0.51,0.11,0.62c0.07,0.11,0.21,0.17,0.43,0.17c0.14,0,0.28-0.01,0.43-0.04v0.57
		C159.04-96.88,158.83-96.85,158.63-96.85z"/>
	<path class="st4" d="M161.61-96.83c-0.57,0-0.99-0.18-1.24-0.53c-0.25-0.35-0.38-0.96-0.38-1.82v-1.51c0-0.58,0.06-1.05,0.18-1.39
		c0.12-0.34,0.3-0.58,0.53-0.72c0.23-0.14,0.54-0.21,0.92-0.21c0.25,0,0.47,0.03,0.65,0.1c0.18,0.07,0.33,0.16,0.45,0.28
		c0.12,0.12,0.21,0.29,0.28,0.49c0.07,0.21,0.12,0.44,0.14,0.69c0.03,0.25,0.04,0.55,0.04,0.91l0,0.54h-2.42v0.9
		c0,0.62,0.06,1.06,0.18,1.31c0.12,0.26,0.34,0.38,0.68,0.38c0.26,0,0.46-0.08,0.61-0.25c0.14-0.17,0.21-0.47,0.21-0.91v-0.42h0.74
		v0.33c0,0.58-0.12,1.03-0.36,1.34C162.56-96.99,162.16-96.83,161.61-96.83z M160.75-100.43h1.67v-0.5c0-0.21,0-0.38-0.02-0.52
		c-0.01-0.14-0.03-0.28-0.06-0.41c-0.03-0.14-0.08-0.24-0.13-0.32c-0.06-0.08-0.14-0.14-0.24-0.19c-0.1-0.05-0.22-0.07-0.36-0.07
		c-0.32,0-0.54,0.11-0.67,0.33c-0.13,0.22-0.19,0.65-0.19,1.27V-100.43z"/>
	<path class="st4" d="M164.2-96.93v-5.99h0.71v0.61c0.4-0.48,0.87-0.71,1.41-0.71c0.5,0,0.81,0.26,0.94,0.79
		c0.42-0.53,0.91-0.79,1.48-0.79c0.3,0,0.54,0.11,0.73,0.32c0.19,0.21,0.29,0.56,0.29,1.05v4.72h-0.72v-4.7
		c0-0.33-0.05-0.55-0.15-0.68c-0.1-0.13-0.25-0.19-0.44-0.19c-0.38,0.01-0.76,0.21-1.13,0.62c0.01,0.1,0.01,0.18,0.01,0.23v4.72
		h-0.71v-4.7c0-0.33-0.05-0.55-0.16-0.68c-0.1-0.13-0.25-0.19-0.44-0.19c-0.38,0.01-0.75,0.21-1.12,0.62v4.96H164.2z"/>
	<path class="st4" d="M170.87-94.96v-7.96h0.76v0.5c0.32-0.39,0.7-0.59,1.15-0.59c0.22,0,0.42,0.05,0.58,0.14
		c0.17,0.09,0.3,0.21,0.39,0.35c0.1,0.14,0.17,0.33,0.23,0.54c0.06,0.22,0.1,0.43,0.12,0.64c0.02,0.21,0.03,0.45,0.03,0.72v1.26
		c0,0.32-0.01,0.6-0.04,0.85c-0.03,0.25-0.07,0.48-0.14,0.7c-0.07,0.21-0.16,0.39-0.27,0.53c-0.11,0.14-0.25,0.25-0.41,0.33
		c-0.17,0.08-0.36,0.12-0.58,0.12c-0.39,0-0.74-0.19-1.07-0.57v2.45H170.87z M172.58-97.43c0.13,0,0.25-0.03,0.34-0.08
		c0.09-0.06,0.17-0.13,0.23-0.23c0.06-0.1,0.11-0.23,0.14-0.39c0.03-0.17,0.06-0.34,0.07-0.53c0.01-0.19,0.02-0.41,0.02-0.68v-1.27
		c0-0.64-0.05-1.1-0.16-1.38c-0.11-0.28-0.33-0.42-0.65-0.42c-0.31,0-0.62,0.15-0.93,0.46v4.08
		C171.91-97.58,172.22-97.43,172.58-97.43z"/>
	<path class="st4" d="M177.45-96.98c-0.21,0.1-0.47,0.15-0.77,0.15s-0.56-0.05-0.77-0.15c-0.21-0.1-0.37-0.25-0.49-0.45
		c-0.12-0.2-0.21-0.43-0.26-0.7c-0.05-0.27-0.08-0.59-0.08-0.97v-1.66c0-0.76,0.12-1.33,0.35-1.7c0.24-0.37,0.65-0.56,1.24-0.56
		c0.6,0,1.01,0.18,1.25,0.55c0.23,0.37,0.35,0.94,0.35,1.7v1.66c0,0.38-0.03,0.7-0.08,0.97c-0.05,0.27-0.14,0.5-0.25,0.7
		C177.83-97.23,177.66-97.08,177.45-96.98z M176.68-97.4c0.15,0,0.28-0.03,0.38-0.08c0.1-0.06,0.19-0.13,0.25-0.21
		c0.06-0.08,0.1-0.2,0.13-0.36c0.03-0.16,0.05-0.3,0.06-0.45c0.01-0.14,0.01-0.33,0.01-0.55v-1.74c0-0.23,0-0.41-0.01-0.55
		c-0.01-0.14-0.03-0.29-0.06-0.45c-0.03-0.15-0.08-0.27-0.13-0.36c-0.06-0.09-0.14-0.15-0.25-0.21c-0.1-0.06-0.23-0.08-0.38-0.08
		c-0.13,0-0.24,0.02-0.33,0.05c-0.09,0.03-0.17,0.09-0.23,0.16c-0.06,0.08-0.11,0.16-0.15,0.24c-0.04,0.09-0.07,0.2-0.08,0.34
		c-0.02,0.14-0.03,0.27-0.04,0.39c0,0.12-0.01,0.28-0.01,0.46v1.74c0,0.19,0,0.34,0.01,0.46s0.02,0.25,0.04,0.39
		c0.02,0.14,0.05,0.25,0.08,0.34c0.04,0.09,0.09,0.17,0.15,0.24c0.06,0.08,0.14,0.13,0.23,0.16
		C176.44-97.42,176.55-97.4,176.68-97.4z"/>
	<path class="st4" d="M179.38-96.93v-5.99h0.76v0.83c0.18-0.3,0.39-0.53,0.64-0.67c0.24-0.15,0.49-0.22,0.74-0.22
		c0.06,0,0.1,0,0.13,0v0.82c-0.11-0.04-0.23-0.07-0.36-0.07c-0.49,0-0.87,0.23-1.15,0.7v4.6H179.38z"/>
	<path class="st4" d="M184.61-103.74v-1.03h0.76v1.03H184.61z M184.61-96.93v-5.99h0.76v5.99H184.61z"/>
	<path class="st4" d="M186.63-96.93v-5.99h0.76v0.62c0.44-0.48,0.92-0.71,1.44-0.71c0.3,0,0.52,0.11,0.68,0.33
		c0.16,0.22,0.24,0.54,0.24,0.94v4.81H189v-4.64c0-0.3-0.05-0.52-0.14-0.65c-0.09-0.13-0.24-0.19-0.43-0.19
		c-0.33,0-0.67,0.18-1.03,0.55v4.93H186.63z"/>
	<path class="st4" d="M192.36-96.83c-0.27,0-0.51-0.04-0.7-0.12c-0.2-0.08-0.35-0.19-0.46-0.32c-0.11-0.13-0.21-0.3-0.27-0.51
		c-0.07-0.21-0.11-0.43-0.13-0.65c-0.02-0.22-0.03-0.47-0.03-0.77v-1.4c0-0.44,0.02-0.8,0.07-1.08c0.05-0.29,0.13-0.54,0.25-0.74
		c0.12-0.21,0.28-0.35,0.49-0.45c0.21-0.09,0.47-0.14,0.79-0.14c0.25,0,0.47,0.03,0.65,0.09c0.18,0.06,0.33,0.14,0.44,0.25
		c0.11,0.11,0.2,0.24,0.27,0.41c0.07,0.17,0.11,0.34,0.14,0.52c0.03,0.18,0.04,0.4,0.04,0.64v0.28h-0.7v-0.28
		c0-0.51-0.06-0.87-0.18-1.06c-0.12-0.19-0.33-0.29-0.64-0.29c-0.34,0-0.57,0.12-0.68,0.37c-0.11,0.24-0.17,0.7-0.17,1.35v1.68
		c0,0.61,0.06,1.04,0.18,1.28c0.12,0.24,0.34,0.36,0.68,0.36c0.14,0,0.26-0.02,0.36-0.06c0.1-0.04,0.18-0.1,0.23-0.17
		c0.06-0.07,0.11-0.17,0.14-0.29c0.03-0.12,0.06-0.26,0.07-0.4c0.01-0.14,0.02-0.32,0.02-0.53v-0.33h0.7v0.29
		c0,0.26-0.01,0.49-0.03,0.68c-0.02,0.19-0.07,0.38-0.13,0.56c-0.07,0.18-0.15,0.33-0.26,0.44c-0.11,0.11-0.26,0.2-0.44,0.27
		C192.84-96.87,192.62-96.83,192.36-96.83z"/>
	<path class="st4" d="M194.98-103.74v-1.03h0.76v1.03H194.98z M194.98-96.93v-5.99h0.76v5.99H194.98z"/>
	<path class="st4" d="M198.35-96.83c-0.52,0-0.89-0.19-1.11-0.58c-0.22-0.39-0.34-1.03-0.34-1.93v-1.11c0-0.33,0.01-0.62,0.04-0.87
		c0.02-0.25,0.07-0.48,0.13-0.7c0.06-0.22,0.15-0.4,0.25-0.54c0.1-0.14,0.24-0.25,0.41-0.33c0.16-0.08,0.36-0.12,0.59-0.12
		c0.39,0,0.75,0.18,1.06,0.52v-2.83h0.76v8.39h-0.76v-0.42C199.07-97.01,198.73-96.84,198.35-96.83z M198.5-97.43
		c0.29,0,0.58-0.13,0.87-0.39v-4.16c-0.3-0.28-0.6-0.42-0.89-0.42c-0.32,0-0.54,0.13-0.65,0.4c-0.11,0.27-0.17,0.71-0.17,1.31v1.41
		c0,0.65,0.06,1.13,0.17,1.42C197.95-97.58,198.17-97.43,198.5-97.43z"/>
	<path class="st4" d="M201.37-103.74v-1.03h0.76v1.03H201.37z M201.37-96.93v-5.99h0.76v5.99H201.37z"/>
	<path class="st4" d="M204.74-96.83c-0.52,0-0.89-0.19-1.11-0.58c-0.22-0.39-0.34-1.03-0.34-1.93v-1.11c0-0.33,0.01-0.62,0.04-0.87
		c0.02-0.25,0.07-0.48,0.13-0.7c0.06-0.22,0.15-0.4,0.25-0.54c0.1-0.14,0.24-0.25,0.41-0.33c0.17-0.08,0.36-0.12,0.59-0.12
		c0.39,0,0.75,0.18,1.06,0.52v-2.83h0.76v8.39h-0.76v-0.42C205.45-97.01,205.11-96.84,204.74-96.83z M204.89-97.43
		c0.29,0,0.58-0.13,0.87-0.39v-4.16c-0.3-0.28-0.6-0.42-0.89-0.42c-0.32,0-0.54,0.13-0.65,0.4c-0.11,0.27-0.17,0.71-0.17,1.31v1.41
		c0,0.65,0.06,1.13,0.17,1.42C204.34-97.58,204.56-97.43,204.89-97.43z"/>
	<path class="st4" d="M208.56-96.84c-0.3,0-0.53-0.11-0.69-0.33c-0.16-0.22-0.24-0.54-0.24-0.95v-4.8h0.76v4.64
		c0,0.3,0.05,0.52,0.14,0.65c0.09,0.13,0.23,0.19,0.43,0.19c0.34,0,0.69-0.2,1.06-0.59v-4.9h0.76v5.99h-0.76v-0.66
		C209.58-97.09,209.09-96.84,208.56-96.84z"/>
	<path class="st4" d="M211.94-96.93v-5.99h0.76v0.62c0.44-0.48,0.92-0.71,1.44-0.71c0.3,0,0.52,0.11,0.68,0.33
		c0.16,0.22,0.24,0.54,0.24,0.94v4.81h-0.76v-4.64c0-0.3-0.05-0.52-0.14-0.65s-0.24-0.19-0.43-0.19c-0.33,0-0.67,0.18-1.03,0.55
		v4.93H211.94z"/>
	<path class="st4" d="M217.6-96.85c-0.41,0-0.69-0.11-0.84-0.34c-0.16-0.22-0.23-0.55-0.24-0.98v-4.24h-0.72v-0.51h0.72v-1.85h0.76
		v1.85h1v0.51h-1v4.17c0,0.3,0.04,0.51,0.11,0.62c0.07,0.11,0.21,0.17,0.43,0.17c0.14,0,0.28-0.01,0.43-0.04v0.57
		C218.01-96.88,217.8-96.85,217.6-96.85z"/>
	<path class="st4" d="M86.73-84.41c-0.3,0-0.53-0.11-0.69-0.33c-0.16-0.22-0.24-0.54-0.24-0.95v-4.8h0.76v4.64
		c0,0.3,0.05,0.52,0.14,0.65C86.8-85.07,86.94-85,87.14-85c0.34,0,0.69-0.2,1.06-0.59v-4.9h0.76v5.99H88.2v-0.66
		C87.76-84.66,87.27-84.41,86.73-84.41z"/>
	<path class="st4" d="M91.54-84.42c-0.41,0-0.69-0.11-0.84-0.34c-0.16-0.22-0.23-0.55-0.24-0.98v-4.24h-0.72v-0.51h0.72v-1.85h0.76
		v1.85h1v0.51h-1v4.17c0,0.3,0.04,0.51,0.11,0.62c0.07,0.11,0.21,0.17,0.43,0.17c0.14,0,0.28-0.01,0.43-0.04v0.57
		C91.95-84.44,91.74-84.42,91.54-84.42z"/>
	<path class="st4" d="M95.24-84.5v-8.39H96v8.39H95.24z"/>
	<path class="st4" d="M98.26-84.4c-0.35,0-0.64-0.13-0.86-0.39c-0.23-0.26-0.34-0.58-0.34-0.96c0-0.2,0.02-0.38,0.05-0.53
		c0.03-0.16,0.1-0.3,0.19-0.44c0.09-0.14,0.19-0.26,0.3-0.37c0.11-0.11,0.27-0.22,0.47-0.34c0.2-0.12,0.41-0.23,0.61-0.33
		c0.2-0.1,0.47-0.22,0.79-0.37v-0.43c0-0.55-0.05-0.93-0.16-1.14c-0.1-0.21-0.3-0.31-0.59-0.31c-0.55,0-0.83,0.34-0.83,1.03v0.22
		l-0.75-0.03c0-0.1,0-0.16,0-0.18c0.02-0.56,0.17-0.97,0.44-1.23c0.27-0.25,0.66-0.38,1.17-0.38c0.53,0,0.91,0.16,1.13,0.47
		c0.22,0.31,0.33,0.82,0.33,1.51v2.91c0,0.48,0.02,0.88,0.06,1.19h-0.67l-0.11-0.83c-0.09,0.26-0.25,0.48-0.46,0.66
		C98.82-84.49,98.56-84.4,98.26-84.4z M98.51-85.05c0.2,0,0.39-0.07,0.56-0.21c0.17-0.14,0.3-0.31,0.4-0.5v-1.87
		c-0.02,0.01-0.05,0.03-0.1,0.05c-0.16,0.09-0.29,0.16-0.38,0.2c-0.09,0.05-0.19,0.11-0.32,0.18c-0.12,0.07-0.22,0.13-0.28,0.18
		c-0.06,0.05-0.13,0.1-0.21,0.17c-0.08,0.07-0.14,0.13-0.17,0.19c-0.04,0.06-0.07,0.13-0.11,0.21c-0.04,0.08-0.06,0.16-0.08,0.25
		c-0.01,0.09-0.02,0.18-0.02,0.29c0,0.29,0.07,0.51,0.2,0.66C98.14-85.13,98.31-85.05,98.51-85.05z"/>
	<path class="st4" d="M103.17-84.4c-0.39,0-0.75-0.19-1.07-0.57v0.48h-0.76v-8.39h0.76v2.89c0.32-0.39,0.7-0.59,1.14-0.59
		c0.22,0,0.42,0.05,0.58,0.14c0.17,0.09,0.3,0.21,0.39,0.35c0.1,0.14,0.17,0.33,0.23,0.54c0.06,0.22,0.1,0.43,0.12,0.64
		c0.02,0.21,0.03,0.45,0.03,0.72v1.26c0,0.32-0.01,0.6-0.04,0.85c-0.03,0.25-0.07,0.48-0.14,0.7c-0.07,0.21-0.16,0.39-0.26,0.53
		c-0.11,0.14-0.25,0.25-0.41,0.33C103.58-84.44,103.39-84.4,103.17-84.4z M103.05-85c0.32,0,0.53-0.15,0.64-0.45
		c0.11-0.3,0.16-0.79,0.16-1.46v-1.27c0-0.64-0.05-1.1-0.16-1.38c-0.11-0.28-0.32-0.41-0.65-0.41c-0.31,0-0.62,0.15-0.93,0.46v4.08
		C102.38-85.15,102.69-85,103.05-85z"/>
	<path class="st4" d="M107.91-84.55c-0.21,0.1-0.47,0.15-0.77,0.15c-0.31,0-0.56-0.05-0.77-0.15c-0.21-0.1-0.37-0.25-0.49-0.45
		c-0.12-0.2-0.21-0.43-0.26-0.7c-0.05-0.27-0.08-0.59-0.08-0.97v-1.66c0-0.76,0.12-1.33,0.35-1.7c0.24-0.37,0.65-0.56,1.24-0.56
		c0.6,0,1.01,0.18,1.25,0.55c0.23,0.37,0.35,0.94,0.35,1.7v1.66c0,0.38-0.03,0.7-0.08,0.97c-0.05,0.27-0.14,0.5-0.25,0.7
		C108.28-84.8,108.12-84.65,107.91-84.55z M107.13-84.97c0.15,0,0.28-0.03,0.38-0.08s0.19-0.13,0.25-0.21
		c0.06-0.08,0.1-0.2,0.13-0.36c0.03-0.16,0.05-0.3,0.06-0.45c0.01-0.14,0.01-0.33,0.01-0.55v-1.74c0-0.23,0-0.41-0.01-0.55
		c-0.01-0.14-0.03-0.29-0.06-0.45c-0.03-0.15-0.08-0.27-0.13-0.36c-0.06-0.08-0.14-0.15-0.25-0.21s-0.23-0.08-0.38-0.08
		c-0.13,0-0.24,0.02-0.33,0.05c-0.09,0.03-0.17,0.09-0.23,0.16c-0.06,0.08-0.11,0.16-0.15,0.24c-0.04,0.09-0.07,0.2-0.08,0.34
		c-0.02,0.14-0.03,0.27-0.04,0.39c0,0.12-0.01,0.28-0.01,0.46v1.74c0,0.19,0,0.34,0.01,0.46c0,0.12,0.02,0.25,0.04,0.39
		c0.02,0.14,0.05,0.25,0.08,0.34c0.04,0.09,0.09,0.17,0.15,0.24c0.06,0.08,0.14,0.13,0.23,0.16C106.89-84.99,107-84.97,107.13-84.97
		z"/>
	<path class="st4" d="M109.83-84.5v-5.99h0.76v0.83c0.18-0.3,0.39-0.53,0.64-0.67c0.24-0.15,0.49-0.22,0.74-0.22
		c0.06,0,0.1,0,0.13,0v0.82c-0.11-0.04-0.23-0.07-0.36-0.07c-0.49,0-0.87,0.23-1.15,0.7v4.6H109.83z"/>
	<path class="st4" d="M114.37-84.4c-0.57,0-0.99-0.18-1.24-0.53c-0.25-0.35-0.38-0.96-0.38-1.82v-1.51c0-0.58,0.06-1.05,0.18-1.39
		c0.12-0.34,0.3-0.58,0.53-0.72c0.23-0.14,0.54-0.21,0.92-0.21c0.25,0,0.47,0.03,0.65,0.1c0.18,0.07,0.33,0.16,0.45,0.28
		c0.12,0.12,0.21,0.29,0.28,0.49c0.07,0.21,0.12,0.44,0.14,0.69c0.03,0.25,0.04,0.55,0.04,0.91l0,0.54h-2.42v0.9
		c0,0.62,0.06,1.06,0.18,1.31c0.12,0.26,0.34,0.38,0.68,0.38c0.26,0,0.46-0.08,0.61-0.25s0.21-0.47,0.21-0.91v-0.42h0.74v0.33
		c0,0.58-0.12,1.03-0.36,1.34C115.32-84.56,114.92-84.4,114.37-84.4z M113.51-88h1.67v-0.5c0-0.21,0-0.38-0.02-0.52
		c-0.01-0.14-0.03-0.28-0.06-0.41c-0.03-0.14-0.08-0.24-0.13-0.32c-0.06-0.08-0.14-0.14-0.24-0.19c-0.1-0.05-0.22-0.07-0.36-0.07
		c-0.32,0-0.54,0.11-0.67,0.33c-0.13,0.22-0.19,0.65-0.19,1.27V-88z"/>
</g>
<path class="st5" d="M600-4.58l-66.15,41.02c-7.38,4.56-9.67,14.23-5.11,21.61l22.21,35.97H600V-4.58z"/>
<path class="st4" d="M84.15,23.57c-1.77-6.36-6.8-11.29-13.19-12.94l-39-10.05c-6.39-1.65-13.18,0.24-17.8,4.95L0,19.97v74.04h76.85
	l13.49-13.76c4.62-4.71,6.38-11.53,4.61-17.89L84.15,23.57z"/>
<g>
	
		<rect x="515.93" y="-5.15" transform="matrix(0.2483 0.9687 -0.9687 0.2483 386.2361 -502.4848)" class="st6" width="1.91" height="5.54"/>
	
		<rect x="513.19" y="-2.48" transform="matrix(0.2482 0.9687 -0.9687 0.2482 386.7971 -497.831)" class="st6" width="1.91" height="5.54"/>
	
		<rect x="510.45" y="0.19" transform="matrix(0.2482 0.9687 -0.9687 0.2482 387.3198 -493.1673)" class="st6" width="1.91" height="5.54"/>
	
		<rect x="507.71" y="2.86" transform="matrix(0.2483 0.9687 -0.9687 0.2483 387.8303 -488.5007)" class="st6" width="1.91" height="5.54"/>
</g>
<g>
	<path class="st7" d="M400.98-168.86l-50.4,29.57c-12.78-3.92-29.06-2.71-39.8,3.59c-13.07,7.67-12.98,19.95,0.19,27.44
		c2.96,1.68,6.32,2.98,9.91,3.89c2.54,0.64,5.18,1.1,7.88,1.36c10.48,1.02,21.67-0.85,29.73-5.58c9.77-5.73,12.18-14.04,7.28-21
		l6.95-4.08l-0.2-4.41l7.32-0.05l-0.18-4.13l7.32-0.05l-0.18-4.13l7.32-0.05l-0.18-4.13l7.32-0.05l-0.18-4.13l7.81-0.05l2.38-1.4
		l2.63-10.86L400.98-168.86z M330.07-112.28c-3.4,2-8.94,2.04-12.37,0.09c-3.43-1.95-3.45-5.15-0.05-7.14
		c3.4-2,8.94-2.04,12.37-0.09C333.45-117.48,333.47-114.28,330.07-112.28z"/>
	<path class="st7" d="M428.55,18.18L360.59-20.9c-4.58-2.64-4-7.26,1.28-10.31l65.97-38.09c5.28-3.05,13.28-3.38,17.85-0.74
		l67.97,39.08c4.58,2.64,4,7.26-1.28,10.31l-65.97,38.09C441.12,20.49,433.13,20.82,428.55,18.18z"/>
	<g>
		<g>
			<path class="st6" d="M508.24-70.42l-11.75-6.78l43.32-25.01c2.05-1.18,2.05-3.1,0-4.28l-44.26-25.55c-2.05-1.18-5.38-1.18-7.42,0
				l-43.32,25.01l-11.75-6.78l43.32-25.01c8.52-4.92,22.4-4.92,30.92,0l44.26,25.55c8.53,4.92,8.53,12.93,0,17.85L508.24-70.42z"/>
		</g>
		<g>
			<path class="st5" d="M527.2-67.43c0-6.28-3.82-13.58-8.53-16.3l-78.49-45.32c-2.11-1.22-4.04-1.3-5.53-0.47l0,0l-93.72,54.46
				l90.63,68.29l92.33-53.59c0.29-0.13,0.56-0.28,0.82-0.47l0,0l0,0C526.24-62,527.2-64.29,527.2-67.43z"/>
			<path class="st1" d="M431.55-6.77l92.33-53.59c0.29-0.13,0.56-0.28,0.82-0.47l0,0l0,0c1.54-1.17,2.5-3.46,2.5-6.6
				c0-3-0.88-6.22-2.3-9.08L419.64-15.74L431.55-6.77z"/>
			<path class="st6" d="M425.65-7.01l-78.49-45.32c-4.71-2.72-8.53-10.02-8.53-16.3l0,0c0-6.28,3.82-9.17,8.53-6.45l78.49,45.32
				c4.71,2.72,8.53,10.02,8.53,16.3l0,0C434.18-7.18,430.36-4.29,425.65-7.01z"/>
		</g>
		<path class="st2" d="M413.89-22.3l-9.44-5.44c-0.94-0.54-1.7-2-1.7-3.25l0,0c0-1.25,0.76-1.83,1.7-1.29l9.44,5.44
			c0.94,0.54,1.7,2,1.7,3.25l0,0C415.59-22.33,414.83-21.75,413.89-22.3z"/>
	</g>
	<g>
		<g>
			<polygon class="st4" points="343.03,-181.88 359.16,-172.72 375.61,-182.38 375.57,-186.58 375.43,-186.49 375.41,-186.79 
				382.73,-186.84 382.69,-190.98 389.87,-191.03 389.82,-195.16 397,-195.21 396.96,-199.35 404.13,-199.4 404.09,-203.53 
				411.76,-203.59 414.15,-204.99 416.78,-215.84 416.73,-220.04 415.46,-216.02 403.85,-217.57 			"/>
			<g>
				<g>
					<g>
						<g>
							<g>
								<polygon class="st5" points="359.11,-176.92 375.57,-186.58 375.37,-190.99 382.69,-191.04 382.5,-195.18 389.82,-195.23 
									389.64,-199.36 396.96,-199.41 396.77,-203.55 404.09,-203.6 403.91,-207.73 411.72,-207.79 414.1,-209.19 416.73,-220.04 
									403.81,-221.77 342.99,-186.08 								"/>
							</g>
						</g>
						<g>
							<g>
								<path class="st4" d="M370.07-183.35c-1.66-2.35-4.14-4.55-7.47-6.44c-2.35-1.33-4.96-2.41-7.73-3.26l-11.89,6.97l16.13,9.16
									L370.07-183.35z"/>
							</g>
						</g>
						<g>
							<g>
								<polygon class="st6" points="416.29,-218.22 416.73,-220.04 414.57,-220.33 363.18,-190.18 365.88,-188.64 								"/>
							</g>
						</g>
						<g>
							<g>
								<polygon class="st8" points="304.05,-168.63 303.87,-174.6 305.78,-170.57 								"/>
							</g>
						</g>
						<path class="st4" d="M313.98-155.2c13.18,7.49,34.45,7.34,47.52-0.33c6.55-3.84,9.8-8.85,9.74-13.83l0,0l-0.18-6.33l-1.07,1.2
							c-1.52-3.12-4.4-6.05-8.68-8.48c-13.18-7.48-34.45-7.34-47.52,0.33C300.72-174.97,300.81-162.69,313.98-155.2z M333.02-166.37
							c3.43,1.95,3.45,5.15,0.05,7.14c-3.4,2-8.94,2.03-12.37,0.09c-3.43-1.95-3.45-5.15-0.05-7.14
							C324.05-168.28,329.59-168.32,333.02-166.37z"/>
						<g>
							<g>
								<path class="st9" d="M313.81-161.17c13.18,7.48,34.45,7.34,47.52-0.33c13.07-7.67,12.98-19.95-0.19-27.44
									c-13.18-7.48-34.45-7.34-47.52,0.33C300.54-180.94,300.63-168.65,313.81-161.17z M332.84-172.34
									c3.43,1.95,3.45,5.15,0.05,7.14c-3.4,2-8.94,2.04-12.37,0.09c-3.43-1.95-3.45-5.15-0.05-7.14
									C323.87-174.25,329.41-174.29,332.84-172.34z"/>
							</g>
						</g>
						<path class="st6" d="M329.08-157.9c-2.9,0.45-6.11,0.06-8.39-1.24c-2.46-1.4-3.16-3.44-2.11-5.21l-5.97-4.73
							c0,0-3.12-3.52-6.21-7.01c-4.81,7.03-2.28,15.3,7.57,20.9c4.35,2.47,9.21,3.87,14.74,4.68L329.08-157.9z"/>
						<g>
							<g>
								<path class="st5" d="M313.81-161.17c2.96,1.68,6.32,2.98,9.91,3.89c2.54,0.64,5.18,1.1,7.88,1.36
									c10.48,1.02,21.67-0.85,29.73-5.58c13.07-7.67,12.98-19.95-0.19-27.44c-13.18-7.48-34.45-7.34-47.52,0.33
									C300.54-180.94,300.63-168.65,313.81-161.17z M332.84-172.34c3.43,1.95,3.45,5.15,0.05,7.14c-3.4,2-8.94,2.04-12.37,0.09
									c-3.43-1.95-3.45-5.15-0.05-7.14C323.87-174.25,329.41-174.29,332.84-172.34z"/>
							</g>
						</g>
						<g>
							<g>
								<g>
									<path class="st4" d="M307.58-174.76c0.64-3.82,3.48-7.56,8.52-10.52c11.63-6.82,30.56-6.96,42.28-0.3
										c5.83,3.31,8.77,7.67,8.84,12.06c0.84-4.99-2.06-10.12-8.7-13.89c-11.72-6.66-30.65-6.53-42.28,0.3
										C310.4-183.68,307.51-179.21,307.58-174.76z"/>
								</g>
							</g>
						</g>
					</g>
					<g>
						<g>
							<g>
								<g>
									<path class="st4" d="M299.65-120.46c-2.37,0-4.59-0.56-6.59-1.7c-4.72-2.68-7.35-8.06-7.4-15.16
										c-0.09-12.95,8.92-28.81,20.09-35.37c6.12-3.59,12.09-4.09,16.81-1.41c2.01,1.14,3.66,2.79,4.89,4.89
										c1.64,2.79,2.48,6.25,2.51,10.28c0.09,12.95-8.92,28.81-20.09,35.37C306.34-121.5,302.87-120.46,299.65-120.46z
										 M315.96-171.04c-2.37,0-5.03,0.82-7.8,2.45c-9.86,5.79-17.82,19.8-17.74,31.24c0.04,5.33,1.81,9.26,4.99,11.06
										c3.18,1.81,7.46,1.32,12.06-1.38c9.87-5.79,17.82-19.8,17.74-31.24c-0.02-3.14-0.66-5.87-1.86-7.9l0,0
										c-0.8-1.37-1.86-2.44-3.14-3.16C318.95-170.68,317.52-171.04,315.96-171.04z"/>
								</g>
							</g>
						</g>
					</g>
				</g>
			</g>
		</g>
		<path class="st5" d="M322.16-160.53l9.38,2.3l1.35-6.96c-3.4,2-8.94,2.04-12.37,0.09L322.16-160.53z"/>
		<path class="st5" d="M313.81-161.17c2.96,1.68,6.32,2.98,9.91,3.89c2.54,0.64,5.18,1.1,7.88,1.36
			c10.48,1.02,21.67-0.85,29.73-5.58l-38.2-0.86L313.81-161.17z"/>
		<path class="st4" d="M327.92-156.35c0,0-4.06-0.66-8.3-2.14v5.86c2.02,0.7,5.35,1.72,8.2,2.1
			C336.57-149.37,327.92-156.35,327.92-156.35z"/>
	</g>
	<path class="st6" d="M321.83-157.78c-1.75-0.51-3.65-1.17-5.4-1.99c-5.11-2.39,1.35,6.47,1.35,6.47s1.74,0.69,4.05,1.4V-157.78z"/>
</g>
<polygon class="st6" points="417.67,-54.8 400.96,-44.02 392.82,-45.34 412.69,-54.95 "/>
<g>
	<g>
		<path class="st1" d="M397.46-0.37c0,0-4.81-2.43-7.77,1.19c-2.96,3.62-7.18,12.15-7.31,17.92c-0.13,5.77,4.56,5.38,7.35,4.01
			c2.79-1.36,10.94-13.19,11.44-15.51c0.49-2.32-0.58-5.45-1.37-6.06C399.02,0.56,397.46-0.37,397.46-0.37z"/>
		<path class="st6" d="M398.51-1.53l0.22,4.99c0.05,1.06-0.49,2.07-1.41,2.59c-0.84,0.48-2.06,0.84-3.71,0.58
			c-3.63-0.58-3.95-1.62-4.21-6.61C389.14-4.96,398.51-1.53,398.51-1.53z"/>
		<g>
			<path class="st1" d="M379.84-9.96c0,0-4.81-2.43-7.77,1.19c-2.96,3.62-7.18,12.15-7.31,17.92c-0.13,5.77,4.56,5.38,7.35,4.01
				c2.79-1.36,10.94-13.19,11.44-15.51c0.49-2.32-0.58-5.45-1.37-6.06C381.39-9.03,379.84-9.96,379.84-9.96z"/>
			<path class="st6" d="M380.89-11.12l0.22,4.99c0.05,1.06-0.49,2.07-1.41,2.59c-0.84,0.48-2.06,0.84-3.71,0.58
				c-3.63-0.58-3.95-1.62-4.21-6.61C371.52-14.55,380.89-11.12,380.89-11.12z"/>
			<path class="st5" d="M423.85-102.7c-1.42-23.19-25.11,3.41-25.11,3.41L382.53-83.4l-14.6,16.04c-2.85,3.13-4.18,7.36-3.63,11.56
				l5.91,44.96c0.29,2.22,2.19,3.86,4.43,3.84c0.63,0,1.36-0.06,2.19-0.19c5.27-0.82,4.88-5.83,4.88-5.83l-1.08-42.05l30.66-18.48
				C411.28-73.56,425.27-79.51,423.85-102.7z"/>
		</g>
		<path class="st6" d="M392.34-63.02l-4.36-1.6c-0.1,0-7.42,7.07-7.35,9.55l3.28,1.05l8.24-8L392.34-63.02z"/>
		<path class="st6" d="M417.67-54.8c0,0,18.22-10.4,20.4-14.76c0.85-1.71,2.18-3.49-3.13-6.07l-24.3,17.32l1.05,5.96L417.67-54.8z"
			/>
		<path class="st5" d="M441.47-93.75c-1.52-23.18-25.11,3.41-25.11,3.41l-16.21,15.89l-14.6,16.04c-2.85,3.13-4.18,7.36-3.63,11.56
			l5.91,44.96c0.29,2.22,2.19,3.86,4.43,3.84c0.63,0,1.36-0.06,2.19-0.19c5.27-0.82,4.88-5.83,4.88-5.83l-1.08-42.05l30.66-18.48
			C428.91-64.61,442.86-72.56,441.47-93.75z"/>
		<path class="st6" d="M427.46-168.29c17.96,7.44,17.6,18.06,17.6,18.06s-3.52,38.91-2.32,64.9c0.5,10.86-57.72,11.69-49.04-17.29
			c10.24-34.18,6.4-61.84,11.19-66.01C409.69-172.81,422.82-170.22,427.46-168.29z"/>
		<path class="st10" d="M433.24-158.88c-0.94,3.65-5.72,5.57-10.67,4.29c-4.95-1.28-8.21-5.27-7.27-8.91
			c0.94-3.65,5.72-5.57,10.67-4.29C430.92-166.52,434.18-162.53,433.24-158.88z"/>
		<path class="st2" d="M425.6-153.34c-1.05,0-2.15-0.13-3.25-0.42c-2.57-0.66-4.81-2.03-6.3-3.86c-1.55-1.9-2.11-4.07-1.59-6.1
			c1.05-4.1,6.31-6.3,11.71-4.91c2.57,0.66,4.81,2.03,6.29,3.86c1.55,1.9,2.12,4.07,1.59,6.1
			C433.23-155.4,429.72-153.34,425.6-153.34z M422.9-167.33c-3.33,0-6.12,1.55-6.77,4.04c-0.38,1.49,0.06,3.12,1.26,4.59
			c1.26,1.54,3.17,2.71,5.39,3.28c4.49,1.15,8.8-0.49,9.62-3.67c0.38-1.49-0.06-3.12-1.26-4.59c-1.26-1.54-3.17-2.71-5.39-3.28
			C424.78-167.21,423.82-167.33,422.9-167.33z"/>
		<path class="st10" d="M420.26-169.1c0,0,0.16,0.72-0.16,6.41c-0.1,1.79,6.17,3.46,7.78,1.84c1.62-1.62,0.97-3.3,1.36-9.39
			C429.64-176.33,420.26-169.1,420.26-169.1z"/>
		<path class="st11" d="M429.25-170.24c0,0-1.54,5.64-9.15,7.81l0.12-5.13L429.25-170.24z"/>
		<path class="st10" d="M434.07-184.59c1.91,7.39-2.53,14.93-9.92,16.84c-7.39,1.91-14.93-2.53-16.84-9.92
			c-1.91-7.39,2.53-14.93,9.92-16.84C424.62-196.42,432.16-191.98,434.07-184.59z"/>
		<path class="st11" d="M423.86-180.62c0,0-7.61,3.26-12.88,3.3c-5.27,0.04-4.11-4.38-4.11-4.38l15.64-2.26L423.86-180.62z"/>
		<path class="st0" d="M409.41-179.76c0,0,6.63-2.81,12.44-1.64c1.37,0.28,2.63,1.01,3.51,2.09c0.29,0.35,0.65,0.68,1.06,0.77
			c1.03,0.23,2.72-4.05,4.72-4.14c2-0.1,3.34,1.32,1.7,3.95c-1.64,2.63-1.09,5.58-0.33,6c0.76,0.42,8.78-5.72,1.7-19.74
			c-7.08-14.02-25.05-6.47-27.84-3.63c0,0-2.95,2.57-5.34,0.28C401.04-195.81,398.36-175.71,409.41-179.76z"/>
		<path class="st10" d="M434.98-121.8v10.51c0,1.2-0.51,2.35-1.4,3.17l-21.6,19.69l2.45,3.75l28.53-20.69
			c1.33-0.97,2.19-2.45,2.36-4.09l1.93-18.34L434.98-121.8z"/>
		<path class="st6" d="M443.54-155.49c0,0,6.55,9.86,8.99,35.8c0,0-11.19,3.62-17.55,1.57
			C428.63-120.19,443.54-155.49,443.54-155.49z"/>
		<path class="st4" d="M433.79-143.03c0,0-2.57,13.73-2.71,20.18c-0.04,1.77,1.04,3.37,2.71,3.98l0,0V-143.03z"/>
	</g>
	<g>
		<path class="st1" d="M428.18-74.76l-4.77-0.63l-30.82-17.79c-0.99-0.57-2.71-0.5-3.85,0.16l-21.84,12.6l-2.89-0.38v2.87l0,0
			c-0.02,0.38,0.2,0.74,0.66,1.01l34.93,20.16c0.99,0.57,2.71,0.5,3.85-0.16l23.78-13.73c0.64-0.37,0.96-0.85,0.94-1.3h0V-74.76z"/>
		<path class="st4" d="M405.03-86l-2.19-1.26h-24.07l-11.87,6.85l-2.89-0.38v2.87l0,0c-0.02,0.38,0.2,0.74,0.66,1.01l34.93,20.16
			c0.52,0.3,1.25,0.42,1.99,0.37L405.03-86z"/>
		<path class="st6" d="M365.29-80.63l-1.28-0.17v2.87l0,0c-0.02,0.38,0.2,0.74,0.66,1.01l0.62,0.36V-80.63z"/>
		<path class="st12" d="M399.96-56.58c0.94,0.36,2.28,0.28,3.28-0.2v-4.89h-3.28V-56.58z"/>
		<path class="st2" d="M399.6-59.62l-34.93-20.16c-0.99-0.57-0.86-1.57,0.28-2.23l23.78-13.73c1.14-0.66,2.87-0.73,3.85-0.16
			l34.93,20.16c0.99,0.57,0.86,1.57-0.28,2.23l-23.78,13.73C402.32-59.12,400.59-59.05,399.6-59.62z"/>
		<path class="st5" d="M399.01-62.68l-29.04-16.77c-0.82-0.47-0.72-1.3,0.23-1.85l12.74-7.17c0.95-0.55,2.38-0.61,3.21-0.13
			l29.04,16.77c0.82,0.47,0.72,1.3-0.23,1.85l-12.74,7.17C401.27-62.26,399.83-62.2,399.01-62.68z"/>
	</g>
	<path class="st10" d="M390.09-96.4l-0.36,2.41c-0.31,2.05-0.25,4.14,0.16,6.18l0.43,2.12c0.24,1.2,1.19,2.13,2.39,2.35l0,0
		c0.94,0.17,1.83-0.49,1.93-1.44l0.58-5.15c0,0,1.32,1.73,1.95,1.73c0.64,0-0.71-5.16-2.15-8.08
		C393.58-99.2,390.09-96.4,390.09-96.4z"/>
	<path class="st10" d="M401.93-134.7l-3.75,7.42c-0.89,1.75-1.41,3.67-1.53,5.63l-1.63,25.37l-4.93-0.12l-2.24-28.49
		c-0.07-0.88-0.03-1.76,0.13-2.63l2.56-14.45L401.93-134.7z"/>
	<g>
		<path class="st1" d="M398.42-57.68l-2.93-3.82l-30.8-17.83c-0.99-0.57-1.79-2.1-1.78-3.42l0.03-25.21l-1.77-2.31l1.66-0.96l0,0
			c0.32-0.21,0.74-0.2,1.21,0.07l34.9,20.21c0.99,0.57,1.79,2.1,1.78,3.42l-0.03,27.46c0,0.74-0.26,1.26-0.65,1.46h0L398.42-57.68z"
			/>
		<path class="st4" d="M377.12-72.14l-2.19-1.27l-12.01-20.86l0.01-13.7l-1.77-2.31l1.66-0.96l0,0c0.32-0.21,0.74-0.2,1.21,0.07
			l34.9,20.21c0.52,0.3,0.99,0.87,1.32,1.54L377.12-72.14z"/>
		<path class="st6" d="M361.95-109.26l-0.79-1.03l1.66-0.96l0,0c0.32-0.21,0.74-0.2,1.21,0.07l0.62,0.36L361.95-109.26z"/>
		<path class="st12" d="M399.26-90.74c0.77,0.63,1.38,1.83,1.46,2.94l-3.41,1.97l-1.63-2.84L399.26-90.74z"/>
		<path class="st6" d="M397.28-90l-34.9-20.21c-0.99-0.57-1.79,0.03-1.79,1.35l-0.03,27.46c0,1.32,0.8,2.85,1.78,3.42l34.9,20.21
			c0.99,0.57,1.79-0.03,1.79-1.35l0.03-27.46C399.07-87.9,398.27-89.43,397.28-90z"/>
	</g>
	<path class="st10" d="M414.44-84.68l-0.56,1.16c-0.64,1.33-1.66,2.46-2.92,3.23l-3.47,2.14c-1.08,0.66-2.44,0.72-3.54,0.08
		c-0.04-0.02-0.08-0.05-0.12-0.07c-1.1-0.69-1.2-2.27-0.29-3.2l3.62-3.72c0,0-2.04,1.56-2.61,0.93c-0.42-0.46,1.97-2.71,3.81-2.78
		c1.84-0.07,3.61-1.52,3.61-1.52L414.44-84.68z"/>
	<path class="st6" d="M405.25-168.69c0,0-13.28,14.45-18.64,27.71c0,0,4.54,8.18,15.66,11.39
		C413.39-126.38,405.25-168.69,405.25-168.69z"/>
	<path class="st4" d="M399.77-130.45l2.15-20.79l-5.07,19.48C397.76-131.29,398.74-130.85,399.77-130.45z"/>
	<path class="st2" d="M415.2-171.61l-3.57-0.98c0,0,1.7,2.68,4.19,3.36c2.49,0.68,2.87-1.42,2.87-1.42L415.2-171.61z"/>
</g>
<path class="st5" d="M347.47-203.55c-5.51,0-10-4.48-10-10c0-5.51,4.48-10,10-10c5.51,0,10,4.48,10,10
	C357.46-208.04,352.98-203.55,347.47-203.55z M347.47-221.36c-4.31,0-7.81,3.5-7.81,7.81c0,4.31,3.5,7.81,7.81,7.81
	c4.31,0,7.81-3.5,7.81-7.81C355.28-217.86,351.78-221.36,347.47-221.36z"/>
<path class="st6" d="M549.55-131.52c-3.91,0-7.09-3.18-7.09-7.09s3.18-7.09,7.09-7.09s7.09,3.18,7.09,7.09
	S553.46-131.52,549.55-131.52z M549.55-143.52c-2.71,0-4.91,2.2-4.91,4.91c0,2.71,2.2,4.91,4.91,4.91c2.71,0,4.91-2.2,4.91-4.91
	C554.46-141.32,552.26-143.52,549.55-143.52z"/>
<path class="st6" d="M317.14-3.46l-4.81-9.79l9.79-4.81l4.81,9.79L317.14-3.46z M315.25-12.25l2.89,5.87L324-9.27l-2.89-5.87
	L315.25-12.25z"/>
<path class="st6" d="M459.17-155.13l-4.81-9.79l9.79-4.81l4.81,9.79L459.17-155.13z M457.27-163.93l2.89,5.87l5.87-2.89l-2.89-5.87
	L457.27-163.93z"/>
<rect x="300.35" y="-62.29" transform="matrix(0.8974 -0.4412 0.4412 0.8974 57.4444 127.4853)" class="st6" width="5.01" height="5.01"/>
<g>
	<g>
		<path class="st13" d="M480.31-208.23l-26.74-15.44c-0.53-0.31-1.01-0.32-1.38-0.11c0,0,0-0.02,0-0.02l-2.59,1.5
			c0,0,1.15,0.42,1.82,0.67v19.47c0,1.58,0.96,3.42,2.15,4.11l25.56,14.76v2.28l2.62-1.51l-0.01-0.01c0.44-0.27,0.73-0.86,0.73-1.71
			v-19.88C482.46-205.71,481.5-207.55,480.31-208.23z"/>
		<path class="st0" d="M477.67-181.09l-26.74-15.44c-1.19-0.69-2.15-2.53-2.15-4.11v-19.88c0-1.58,0.96-2.31,2.15-1.63l26.74,15.44
			c1.19,0.69,2.15,2.53,2.15,4.11v19.88C479.82-181.13,478.86-180.41,477.67-181.09z"/>
	</g>
	<g>
		<path class="st2" d="M459.92-203.38c0,1.15-0.81,1.62-1.8,1.04c-1-0.58-1.8-1.97-1.8-3.12s0.81-1.62,1.8-1.04
			C459.12-205.93,459.92-204.53,459.92-203.38z"/>
		<path class="st2" d="M465.39-200.23c0,1.15-0.81,1.62-1.8,1.04c-1-0.58-1.8-1.97-1.8-3.12c0-1.15,0.81-1.62,1.8-1.04
			C464.58-202.77,465.39-201.38,465.39-200.23z"/>
		<path class="st2" d="M470.86-197.07c0,1.15-0.81,1.62-1.8,1.04c-1-0.58-1.8-1.97-1.8-3.12s0.81-1.62,1.8-1.04
			C470.05-199.62,470.86-198.22,470.86-197.07z"/>
	</g>
</g>
<g>
	<g>
		<path class="st6" d="M295.47-39.08l-26.23-15.14c-0.52-0.3-0.99-0.31-1.36-0.11c0,0,0-0.02,0-0.02l-2.54,1.47
			c0,0,1.13,0.41,1.79,0.65v19.1c0,1.55,0.94,3.36,2.11,4.03l25.07,14.48v2.24l2.57-1.48l-0.01,0c0.43-0.26,0.71-0.85,0.71-1.68
			v-19.5C297.58-36.6,296.64-38.41,295.47-39.08z"/>
		<path class="st5" d="M292.88-12.45L266.65-27.6c-1.17-0.67-2.11-2.48-2.11-4.03v-19.5c0-1.55,0.94-2.27,2.11-1.6l26.23,15.14
			c1.17,0.67,2.11,2.48,2.11,4.03v19.5C294.99-12.49,294.05-11.78,292.88-12.45z"/>
	</g>
	<g>
		<path class="st2" d="M275.47-34.32c0,1.13-0.79,1.59-1.77,1.02c-0.98-0.56-1.77-1.94-1.77-3.07c0-1.13,0.79-1.59,1.77-1.02
			C274.68-36.82,275.47-35.45,275.47-34.32z"/>
		<path class="st2" d="M280.83-31.22c0,1.13-0.79,1.59-1.77,1.02c-0.98-0.56-1.77-1.94-1.77-3.07c0-1.13,0.79-1.59,1.77-1.02
			C280.04-33.72,280.83-32.35,280.83-31.22z"/>
		<path class="st2" d="M286.2-28.13c0,1.13-0.79,1.59-1.77,1.02c-0.98-0.56-1.77-1.94-1.77-3.07c0-1.13,0.79-1.59,1.77-1.02
			C285.4-30.63,286.2-29.26,286.2-28.13z"/>
	</g>
</g>
</svg>
