<?xml version="1.0" encoding="utf-8"?>
<!-- Generator: Adobe Illustrator 25.0.0, SVG Export Plug-In . SVG Version: 6.00 Build 0)  -->
<svg version="1.1" id="Ñëîé_1" xmlns="http://www.w3.org/2000/svg" xmlns:xlink="http://www.w3.org/1999/xlink" x="0px" y="0px"
	 viewBox="0 0 73.61 98.6" style="enable-background:new 0 0 73.61 98.6;" xml:space="preserve">
<style type="text/css">
	.st0{fill:#FF2C9C;}
	.st1{fill:#173D7A;}
	.st2{fill:#FFFFFF;}
	.st3{opacity:0.6;}
	.st4{fill:#396CAA;}
	.st5{fill:#D4ECFF;}
	.st6{fill:#5793CE;}
	.st7{fill:#C4D9E8;}
	.st8{fill:#D3D0CF;}
	.st9{fill:#F2F2F2;}
	.st10{fill:#FFC2B0;}
	.st11{fill:#EA9C92;}
	.st12{fill:#274F89;}
	.st13{fill:#D3008D;}
</style>
<path class="st0" d="M-526.39-301.4v86.57c7.9,6.04,18.44,7.69,27.9,4.12l47.85-18.05c7.82-2.95,13.99-9.12,16.94-16.94l18.05-47.85
	c0.97-2.56,1.54-5.21,1.76-7.85H-526.39z"/>
<g>
	<path class="st1" d="M-441.1-129.31v-23.55h4.29v20.58h5.64v2.97H-441.1z"/>
	<path class="st1" d="M-422.75-129.03c-2.42,0-4.16-0.66-5.21-1.97c-1.05-1.32-1.58-3.24-1.58-5.78v-8.69
		c0-1.25,0.12-2.33,0.36-3.25c0.24-0.92,0.62-1.71,1.14-2.39c0.53-0.67,1.23-1.18,2.11-1.51c0.88-0.34,1.94-0.5,3.18-0.5
		c2.41,0,4.15,0.65,5.21,1.95c1.06,1.3,1.58,3.2,1.58,5.71v8.69c0,1.23-0.12,2.31-0.36,3.25c-0.24,0.93-0.62,1.74-1.15,2.43
		c-0.53,0.69-1.23,1.21-2.11,1.56C-420.46-129.2-421.52-129.03-422.75-129.03z M-423.82-132.39c0.3,0.12,0.66,0.18,1.07,0.18
		s0.77-0.06,1.07-0.18c0.29-0.12,0.53-0.28,0.7-0.48c0.18-0.2,0.31-0.46,0.41-0.78c0.1-0.32,0.17-0.64,0.2-0.97
		c0.03-0.32,0.05-0.71,0.05-1.15v-10.7c0-0.57-0.03-1.04-0.09-1.42c-0.06-0.38-0.17-0.74-0.33-1.07c-0.17-0.34-0.41-0.59-0.75-0.75
		c-0.33-0.16-0.75-0.25-1.26-0.25s-0.93,0.08-1.27,0.25c-0.34,0.17-0.58,0.42-0.75,0.75c-0.16,0.34-0.27,0.69-0.33,1.07
		c-0.06,0.38-0.09,0.85-0.09,1.42v10.7c0,0.45,0.02,0.83,0.05,1.15c0.03,0.32,0.1,0.64,0.2,0.97c0.1,0.32,0.23,0.58,0.4,0.78
		C-424.35-132.68-424.12-132.52-423.82-132.39z"/>
	<path class="st1" d="M-406.93-129c-2.23,0-3.83-0.7-4.81-2.09c-0.98-1.39-1.47-3.42-1.47-6.08v-7.67c0-1.35,0.11-2.52,0.32-3.5
		c0.21-0.98,0.57-1.84,1.07-2.58c0.5-0.74,1.19-1.29,2.07-1.66c0.88-0.37,1.96-0.55,3.24-0.55c2.33,0,4,0.57,5.01,1.71
		c1.01,1.14,1.52,2.87,1.52,5.19v1.15h-4.1v-1.22c0-0.52-0.01-0.95-0.04-1.28c-0.02-0.33-0.08-0.66-0.17-1
		c-0.09-0.34-0.22-0.59-0.39-0.77c-0.17-0.18-0.4-0.33-0.7-0.44c-0.29-0.11-0.65-0.17-1.08-0.17c-0.32,0-0.61,0.04-0.86,0.12
		c-0.25,0.08-0.46,0.18-0.63,0.3c-0.17,0.12-0.31,0.29-0.43,0.5c-0.12,0.22-0.21,0.43-0.27,0.63c-0.06,0.2-0.11,0.47-0.14,0.79
		c-0.03,0.32-0.05,0.61-0.06,0.85c-0.01,0.25-0.01,0.56-0.01,0.95v9.5c0,1.42,0.18,2.46,0.53,3.12c0.35,0.66,1.02,0.99,2,0.99
		c0.51,0,0.94-0.1,1.29-0.29c0.35-0.19,0.62-0.49,0.81-0.88c0.19-0.39,0.33-0.84,0.41-1.35c0.08-0.51,0.12-1.12,0.12-1.84v-1.93
		h-2.54v-2.77h6.41v11.96h-2.78l-0.31-2.39C-403.65-129.9-404.98-129-406.93-129z"/>
	<path class="st1" d="M-396.47-129.31v-23.55h4.23v23.55H-396.47z"/>
	<path class="st1" d="M-388.62-129.31v-23.55h2.95l5.77,13.34v-13.34h3.55v23.55h-2.81l-5.82-14.02v14.02H-388.62z"/>
	<path class="st1" d="M-365.6-129.31v-23.55h4.23v23.55H-365.6z"/>
	<path class="st1" d="M-351.42-129.03c-1.01,0-1.91-0.13-2.68-0.38c-0.78-0.26-1.42-0.61-1.92-1.07c-0.51-0.45-0.92-1.02-1.24-1.69
		c-0.32-0.67-0.54-1.39-0.67-2.17s-0.19-1.64-0.19-2.61v-8.21c0-1.02,0.07-1.93,0.2-2.72c0.13-0.79,0.36-1.52,0.67-2.2
		c0.31-0.68,0.72-1.23,1.23-1.67c0.51-0.44,1.15-0.78,1.92-1.02c0.77-0.25,1.67-0.37,2.69-0.37c1.17,0,2.18,0.16,3.01,0.47
		c0.83,0.31,1.49,0.77,1.97,1.38c0.48,0.61,0.83,1.31,1.05,2.12c0.22,0.81,0.33,1.75,0.33,2.83v2.02h-4.13v-2
		c0-1.17-0.06-1.96-0.18-2.37c-0.25-0.8-0.85-1.22-1.8-1.28c-0.08,0-0.15,0-0.23,0c-0.36,0-0.67,0.04-0.94,0.13
		c-0.27,0.08-0.49,0.22-0.66,0.4c-0.17,0.18-0.31,0.38-0.41,0.59c-0.1,0.21-0.18,0.48-0.23,0.82c-0.05,0.34-0.08,0.65-0.1,0.93
		c-0.01,0.28-0.02,0.64-0.02,1.08v9.97c0,1.38,0.17,2.37,0.52,2.95c0.35,0.59,0.96,0.88,1.85,0.88c0.3,0,0.57-0.04,0.8-0.11
		c0.23-0.07,0.43-0.16,0.58-0.27c0.16-0.11,0.29-0.27,0.4-0.47c0.11-0.2,0.19-0.39,0.25-0.57c0.06-0.17,0.1-0.42,0.13-0.73
		c0.03-0.31,0.05-0.58,0.05-0.79c0-0.22,0.01-0.52,0.01-0.9v-2.1h4.13v1.93c0,0.88-0.06,1.67-0.18,2.37
		c-0.12,0.7-0.33,1.36-0.63,1.97c-0.3,0.62-0.68,1.13-1.16,1.53c-0.47,0.41-1.08,0.73-1.82,0.96
		C-349.59-129.14-350.45-129.03-351.42-129.03z"/>
	<path class="st1" d="M-335.69-129.03c-2.42,0-4.16-0.66-5.21-1.97c-1.05-1.32-1.58-3.24-1.58-5.78v-8.69
		c0-1.25,0.12-2.33,0.36-3.25c0.24-0.92,0.62-1.71,1.14-2.39c0.53-0.67,1.23-1.18,2.11-1.51c0.88-0.34,1.94-0.5,3.18-0.5
		c2.41,0,4.15,0.65,5.21,1.95c1.06,1.3,1.58,3.2,1.58,5.71v8.69c0,1.23-0.12,2.31-0.36,3.25c-0.24,0.93-0.62,1.74-1.15,2.43
		c-0.53,0.69-1.23,1.21-2.11,1.56C-333.4-129.2-334.46-129.03-335.69-129.03z M-336.76-132.39c0.3,0.12,0.66,0.18,1.07,0.18
		c0.42,0,0.77-0.06,1.07-0.18c0.29-0.12,0.53-0.28,0.7-0.48c0.18-0.2,0.31-0.46,0.41-0.78c0.1-0.32,0.17-0.64,0.2-0.97
		c0.03-0.32,0.05-0.71,0.05-1.15v-10.7c0-0.57-0.03-1.04-0.09-1.42c-0.06-0.38-0.17-0.74-0.33-1.07c-0.17-0.34-0.41-0.59-0.75-0.75
		c-0.33-0.16-0.75-0.25-1.26-0.25c-0.51,0-0.93,0.08-1.27,0.25c-0.34,0.17-0.58,0.42-0.75,0.75c-0.16,0.34-0.27,0.69-0.33,1.07
		c-0.06,0.38-0.09,0.85-0.09,1.42v10.7c0,0.45,0.02,0.83,0.05,1.15c0.03,0.32,0.1,0.64,0.2,0.97c0.1,0.32,0.23,0.58,0.4,0.78
		C-337.29-132.68-337.06-132.52-336.76-132.39z"/>
	<path class="st1" d="M-325.76-129.31v-23.55h2.95l5.77,13.34v-13.34h3.55v23.55h-2.81l-5.82-14.02v14.02H-325.76z"/>
</g>
<g>
	<path class="st0" d="M-345.58-37.8h-83.84c-6.46,0-11.7-5.24-11.7-11.7l0,0c0-6.46,5.24-11.7,11.7-11.7h83.84
		c6.46,0,11.7,5.24,11.7,11.7l0,0C-333.88-43.04-339.12-37.8-345.58-37.8z"/>
	<g>
		<path class="st2" d="M-413.07-44.29v-8.55h-1.66v-1.33h5.06v1.33h-1.6v8.55H-413.07z"/>
		<path class="st2" d="M-408.88-44.29v-9.87h2.26c0.52,0,0.97,0.04,1.34,0.13c0.37,0.09,0.7,0.23,0.97,0.43
			c0.28,0.2,0.48,0.47,0.62,0.82c0.14,0.34,0.21,0.76,0.21,1.26c0,0.62-0.09,1.13-0.28,1.52c-0.18,0.39-0.49,0.68-0.91,0.86
			l1.37,4.87h-1.8l-1.18-4.51h-0.8v4.51H-408.88z M-407.08-49.95h0.43c0.53,0,0.91-0.11,1.13-0.34c0.22-0.23,0.34-0.61,0.34-1.16
			c0-0.53-0.1-0.91-0.29-1.13c-0.2-0.23-0.55-0.34-1.07-0.34h-0.54V-49.95z"/>
		<path class="st2" d="M-400.74-44.29v-3.76l-2.01-6.12h1.68l1.22,3.93l1.17-3.93h1.66l-2,6.12v3.76H-400.74z"/>
		<path class="st2" d="M-393.14-44.29v-9.87h1.77v9.87H-393.14z"/>
		<path class="st2" d="M-388.88-44.29v-8.55h-1.66v-1.33h5.06v1.33h-1.6v8.55H-388.88z"/>
		<path class="st2" d="M-381.72-44.29v-9.87h1.24l2.42,5.59v-5.59h1.49v9.87h-1.18l-2.44-5.88v5.88H-381.72z"/>
		<path class="st2" d="M-372.41-44.17c-1.02,0-1.75-0.28-2.19-0.83c-0.44-0.55-0.66-1.36-0.66-2.42v-3.64
			c0-0.52,0.05-0.98,0.15-1.36c0.1-0.39,0.26-0.72,0.48-1c0.22-0.28,0.51-0.49,0.88-0.63c0.37-0.14,0.81-0.21,1.33-0.21
			c1.01,0,1.74,0.27,2.18,0.82c0.44,0.54,0.66,1.34,0.66,2.39v3.64c0,0.52-0.05,0.97-0.15,1.36c-0.1,0.39-0.26,0.73-0.48,1.02
			c-0.22,0.29-0.51,0.5-0.88,0.65C-371.45-44.24-371.89-44.17-372.41-44.17z M-372.86-45.58c0.12,0.05,0.28,0.08,0.45,0.08
			c0.17,0,0.32-0.03,0.45-0.08c0.12-0.05,0.22-0.12,0.29-0.2c0.07-0.08,0.13-0.19,0.17-0.33c0.04-0.13,0.07-0.27,0.08-0.41
			c0.01-0.13,0.02-0.3,0.02-0.48v-4.48c0-0.24-0.01-0.44-0.04-0.6c-0.02-0.16-0.07-0.31-0.14-0.45c-0.07-0.14-0.17-0.25-0.31-0.32
			c-0.14-0.07-0.32-0.1-0.53-0.1c-0.21,0-0.39,0.04-0.53,0.1c-0.14,0.07-0.25,0.17-0.31,0.32c-0.07,0.14-0.11,0.29-0.14,0.45
			c-0.02,0.16-0.04,0.36-0.04,0.6V-47c0,0.19,0.01,0.35,0.02,0.48c0.01,0.13,0.04,0.27,0.08,0.41c0.04,0.13,0.1,0.24,0.17,0.33
			C-373.08-45.7-372.98-45.63-372.86-45.58z"/>
		<path class="st2" d="M-367.17-44.29l-1.41-9.87h1.51l0.81,6.37l1.05-6.37h1.21l1.08,6.37l0.81-6.37h1.48l-1.41,9.87h-1.44
			l-1.11-6.59l-1.11,6.59H-367.17z"/>
	</g>
</g>
<g class="st3">
	<path class="st4" d="M-440.39-104.78v-8.39h0.79v7.79h2.39v0.59H-440.39z"/>
	<path class="st4" d="M-434.32-104.83c-0.21,0.1-0.47,0.15-0.77,0.15c-0.31,0-0.56-0.05-0.77-0.15c-0.21-0.1-0.37-0.25-0.49-0.45
		c-0.12-0.2-0.21-0.43-0.26-0.7c-0.05-0.27-0.08-0.59-0.08-0.97v-1.66c0-0.76,0.12-1.33,0.35-1.7c0.24-0.37,0.65-0.56,1.24-0.56
		c0.6,0,1.01,0.18,1.25,0.55c0.23,0.37,0.35,0.94,0.35,1.7v1.66c0,0.38-0.03,0.7-0.08,0.97c-0.05,0.27-0.14,0.5-0.25,0.7
		C-433.94-105.07-434.11-104.92-434.32-104.83z M-435.09-105.25c0.15,0,0.28-0.03,0.38-0.08c0.1-0.06,0.19-0.13,0.25-0.21
		c0.06-0.08,0.1-0.2,0.13-0.36c0.03-0.16,0.05-0.3,0.06-0.45c0.01-0.14,0.01-0.33,0.01-0.55v-1.74c0-0.23,0-0.41-0.01-0.55
		c-0.01-0.14-0.03-0.29-0.06-0.45c-0.03-0.15-0.08-0.27-0.13-0.36c-0.06-0.08-0.14-0.15-0.25-0.21c-0.1-0.06-0.23-0.08-0.38-0.08
		c-0.13,0-0.24,0.02-0.33,0.05c-0.09,0.03-0.17,0.09-0.23,0.16c-0.06,0.08-0.11,0.16-0.15,0.24c-0.04,0.09-0.07,0.2-0.08,0.34
		c-0.02,0.14-0.03,0.27-0.04,0.39c0,0.12-0.01,0.28-0.01,0.46v1.74c0,0.19,0,0.34,0.01,0.46c0,0.12,0.02,0.25,0.04,0.39
		c0.02,0.14,0.05,0.25,0.08,0.34c0.04,0.09,0.09,0.17,0.15,0.24c0.06,0.08,0.14,0.13,0.23,0.16
		C-435.33-105.27-435.22-105.25-435.09-105.25z"/>
	<path class="st4" d="M-432.39-104.78v-5.99h0.76v0.83c0.18-0.3,0.39-0.53,0.64-0.67c0.24-0.15,0.49-0.22,0.74-0.22
		c0.06,0,0.1,0,0.13,0v0.82c-0.11-0.04-0.23-0.07-0.36-0.07c-0.49,0-0.87,0.23-1.15,0.7v4.6H-432.39z"/>
	<path class="st4" d="M-427.86-104.68c-0.57,0-0.99-0.18-1.24-0.53c-0.25-0.35-0.38-0.96-0.38-1.82v-1.51
		c0-0.58,0.06-1.05,0.18-1.39c0.12-0.34,0.3-0.58,0.53-0.72c0.23-0.14,0.54-0.21,0.92-0.21c0.25,0,0.47,0.03,0.65,0.1
		c0.18,0.07,0.33,0.16,0.45,0.28c0.12,0.12,0.21,0.29,0.28,0.49c0.07,0.21,0.12,0.44,0.14,0.69c0.03,0.25,0.04,0.55,0.04,0.91
		l0,0.54h-2.42v0.9c0,0.62,0.06,1.06,0.18,1.31c0.12,0.26,0.34,0.38,0.68,0.38c0.26,0,0.46-0.08,0.61-0.25s0.21-0.47,0.21-0.91
		v-0.42h0.74v0.33c0,0.58-0.12,1.03-0.36,1.34C-426.91-104.84-427.31-104.68-427.86-104.68z M-428.72-108.28h1.67v-0.5
		c0-0.21,0-0.38-0.02-0.52c-0.01-0.14-0.03-0.28-0.06-0.41c-0.03-0.14-0.08-0.24-0.13-0.32c-0.06-0.08-0.14-0.14-0.24-0.19
		c-0.1-0.05-0.22-0.07-0.36-0.07c-0.32,0-0.54,0.11-0.67,0.33c-0.13,0.22-0.19,0.65-0.19,1.27V-108.28z"/>
	<path class="st4" d="M-425.27-104.78v-5.99h0.71v0.61c0.4-0.48,0.87-0.71,1.41-0.71c0.5,0,0.81,0.26,0.94,0.79
		c0.42-0.53,0.91-0.79,1.48-0.79c0.3,0,0.54,0.11,0.73,0.32c0.19,0.21,0.29,0.56,0.29,1.05v4.72h-0.72v-4.7
		c0-0.33-0.05-0.55-0.15-0.68c-0.1-0.13-0.25-0.19-0.44-0.19c-0.38,0.01-0.76,0.21-1.13,0.62c0.01,0.1,0.01,0.18,0.01,0.23v4.72
		h-0.71v-4.7c0-0.33-0.05-0.55-0.16-0.68c-0.1-0.13-0.25-0.19-0.44-0.19c-0.38,0.01-0.75,0.21-1.12,0.62v4.96H-425.27z"/>
	<path class="st4" d="M-416.4-111.59v-1.03h0.76v1.03H-416.4z M-416.4-104.78v-5.99h0.76v5.99H-416.4z"/>
	<path class="st4" d="M-414.37-102.8v-7.96h0.76v0.5c0.32-0.39,0.7-0.59,1.15-0.59c0.22,0,0.42,0.05,0.59,0.14
		c0.17,0.09,0.3,0.21,0.39,0.35c0.1,0.14,0.17,0.33,0.23,0.54c0.06,0.22,0.1,0.43,0.12,0.64c0.02,0.21,0.03,0.45,0.03,0.72v1.26
		c0,0.32-0.01,0.6-0.04,0.85c-0.03,0.25-0.07,0.48-0.14,0.7c-0.07,0.21-0.16,0.39-0.27,0.53c-0.11,0.14-0.25,0.25-0.41,0.33
		c-0.17,0.08-0.36,0.12-0.58,0.12c-0.39,0-0.74-0.19-1.07-0.57v2.45H-414.37z M-412.66-105.28c0.13,0,0.25-0.03,0.34-0.08
		c0.09-0.06,0.17-0.13,0.23-0.23c0.06-0.1,0.11-0.23,0.14-0.39c0.03-0.17,0.06-0.34,0.07-0.53c0.01-0.19,0.02-0.41,0.02-0.68v-1.27
		c0-0.64-0.05-1.1-0.16-1.38c-0.11-0.28-0.33-0.42-0.65-0.42c-0.31,0-0.62,0.15-0.93,0.46v4.08
		C-413.33-105.43-413.02-105.28-412.66-105.28z"/>
	<path class="st4" d="M-408.68-104.68c-0.48,0-0.86-0.15-1.14-0.46c-0.29-0.31-0.45-0.72-0.49-1.24l0.64-0.19
		c0.04,0.46,0.14,0.79,0.31,1c0.17,0.21,0.4,0.32,0.71,0.32c0.26,0,0.47-0.08,0.62-0.23c0.15-0.15,0.22-0.35,0.22-0.6
		c0-0.01,0-0.02,0-0.04c-0.01-0.4-0.25-0.79-0.73-1.19l-0.81-0.69c-0.29-0.24-0.5-0.47-0.63-0.7c-0.13-0.22-0.19-0.48-0.19-0.78
		c0-0.44,0.13-0.78,0.39-1.02c0.26-0.24,0.6-0.35,1.04-0.35c0.44,0,0.78,0.14,1.02,0.42c0.24,0.28,0.37,0.67,0.4,1.15l-0.54,0.18
		c-0.02-0.4-0.11-0.7-0.25-0.89c-0.14-0.19-0.34-0.29-0.6-0.29c-0.24,0-0.42,0.07-0.57,0.2c-0.14,0.13-0.21,0.3-0.21,0.52
		c0,0.2,0.04,0.36,0.11,0.5c0.07,0.14,0.2,0.29,0.39,0.45l0.84,0.76c0.15,0.13,0.28,0.25,0.37,0.35c0.1,0.1,0.2,0.22,0.31,0.37
		c0.11,0.15,0.19,0.31,0.24,0.48c0.05,0.17,0.08,0.35,0.08,0.55c0,0.46-0.14,0.81-0.42,1.07
		C-407.83-104.81-408.21-104.68-408.68-104.68z"/>
	<path class="st4" d="M-405.41-104.69c-0.3,0-0.53-0.11-0.69-0.33c-0.16-0.22-0.24-0.54-0.24-0.95v-4.8h0.76v4.64
		c0,0.3,0.05,0.52,0.14,0.65c0.09,0.13,0.23,0.19,0.43,0.19c0.34,0,0.69-0.2,1.06-0.59v-4.9h0.76v5.99h-0.76v-0.66
		C-404.39-104.94-404.88-104.69-405.41-104.69z"/>
	<path class="st4" d="M-402.03-104.78v-5.99h0.71v0.61c0.4-0.48,0.87-0.71,1.41-0.71c0.5,0,0.81,0.26,0.94,0.79
		c0.42-0.53,0.91-0.79,1.48-0.79c0.3,0,0.54,0.11,0.73,0.32c0.19,0.21,0.29,0.56,0.29,1.05v4.72h-0.72v-4.7
		c0-0.33-0.05-0.55-0.15-0.68c-0.1-0.13-0.25-0.19-0.44-0.19c-0.38,0.01-0.76,0.21-1.13,0.62c0.01,0.1,0.01,0.18,0.01,0.23v4.72
		h-0.71v-4.7c0-0.33-0.05-0.55-0.16-0.68c-0.1-0.13-0.25-0.19-0.44-0.19c-0.38,0.01-0.75,0.21-1.12,0.62v4.96H-402.03z"/>
	<path class="st4" d="M-391.91-104.68c-0.52,0-0.89-0.19-1.11-0.58c-0.22-0.39-0.34-1.03-0.34-1.93v-1.11
		c0-0.33,0.01-0.62,0.04-0.87c0.02-0.25,0.07-0.48,0.13-0.7c0.06-0.22,0.15-0.4,0.25-0.54c0.1-0.14,0.24-0.25,0.41-0.33
		c0.17-0.08,0.36-0.12,0.59-0.12c0.39,0,0.75,0.18,1.06,0.52v-2.83h0.76v8.39h-0.76v-0.42
		C-391.19-104.86-391.53-104.68-391.91-104.68z M-391.75-105.28c0.29,0,0.58-0.13,0.87-0.39v-4.16c-0.3-0.28-0.6-0.42-0.89-0.42
		c-0.32,0-0.54,0.13-0.65,0.4c-0.11,0.27-0.17,0.71-0.17,1.31v1.41c0,0.65,0.06,1.13,0.17,1.42
		C-392.31-105.43-392.08-105.28-391.75-105.28z"/>
	<path class="st4" d="M-386.71-104.83c-0.21,0.1-0.47,0.15-0.77,0.15c-0.31,0-0.56-0.05-0.77-0.15c-0.21-0.1-0.37-0.25-0.49-0.45
		c-0.12-0.2-0.21-0.43-0.26-0.7c-0.05-0.27-0.08-0.59-0.08-0.97v-1.66c0-0.76,0.12-1.33,0.35-1.7c0.24-0.37,0.65-0.56,1.24-0.56
		c0.6,0,1.01,0.18,1.25,0.55c0.23,0.37,0.35,0.94,0.35,1.7v1.66c0,0.38-0.03,0.7-0.08,0.97c-0.05,0.27-0.14,0.5-0.25,0.7
		C-386.33-105.07-386.5-104.92-386.71-104.83z M-387.48-105.25c0.15,0,0.28-0.03,0.38-0.08c0.1-0.06,0.19-0.13,0.25-0.21
		c0.06-0.08,0.1-0.2,0.13-0.36c0.03-0.16,0.05-0.3,0.06-0.45c0.01-0.14,0.01-0.33,0.01-0.55v-1.74c0-0.23,0-0.41-0.01-0.55
		c-0.01-0.14-0.03-0.29-0.06-0.45c-0.03-0.15-0.08-0.27-0.13-0.36c-0.06-0.08-0.14-0.15-0.25-0.21c-0.1-0.06-0.23-0.08-0.38-0.08
		c-0.13,0-0.24,0.02-0.33,0.05c-0.09,0.03-0.17,0.09-0.23,0.16c-0.06,0.08-0.11,0.16-0.15,0.24c-0.04,0.09-0.07,0.2-0.08,0.34
		c-0.02,0.14-0.03,0.27-0.04,0.39c0,0.12-0.01,0.28-0.01,0.46v1.74c0,0.19,0,0.34,0.01,0.46c0,0.12,0.02,0.25,0.04,0.39
		c0.02,0.14,0.05,0.25,0.08,0.34c0.04,0.09,0.09,0.17,0.15,0.24c0.06,0.08,0.14,0.13,0.23,0.16
		C-387.72-105.27-387.61-105.25-387.48-105.25z"/>
	<path class="st4" d="M-384.73-104.78v-8.39h0.76v8.39H-384.73z"/>
	<path class="st4" d="M-380.48-104.83c-0.21,0.1-0.47,0.15-0.77,0.15c-0.31,0-0.56-0.05-0.77-0.15c-0.21-0.1-0.37-0.25-0.49-0.45
		c-0.12-0.2-0.21-0.43-0.26-0.7c-0.05-0.27-0.08-0.59-0.08-0.97v-1.66c0-0.76,0.12-1.33,0.35-1.7c0.24-0.37,0.65-0.56,1.24-0.56
		c0.6,0,1.01,0.18,1.25,0.55c0.23,0.37,0.35,0.94,0.35,1.7v1.66c0,0.38-0.03,0.7-0.08,0.97c-0.05,0.27-0.14,0.5-0.25,0.7
		C-380.11-105.07-380.28-104.92-380.48-104.83z M-381.26-105.25c0.15,0,0.28-0.03,0.38-0.08c0.1-0.06,0.19-0.13,0.25-0.21
		c0.06-0.08,0.1-0.2,0.13-0.36c0.03-0.16,0.05-0.3,0.06-0.45c0.01-0.14,0.01-0.33,0.01-0.55v-1.74c0-0.23,0-0.41-0.01-0.55
		c-0.01-0.14-0.03-0.29-0.06-0.45c-0.03-0.15-0.08-0.27-0.13-0.36c-0.06-0.08-0.14-0.15-0.25-0.21c-0.1-0.06-0.23-0.08-0.38-0.08
		c-0.13,0-0.24,0.02-0.33,0.05c-0.09,0.03-0.17,0.09-0.23,0.16c-0.06,0.08-0.11,0.16-0.15,0.24c-0.04,0.09-0.07,0.2-0.08,0.34
		c-0.02,0.14-0.03,0.27-0.04,0.39c0,0.12-0.01,0.28-0.01,0.46v1.74c0,0.19,0,0.34,0.01,0.46c0,0.12,0.02,0.25,0.04,0.39
		c0.02,0.14,0.05,0.25,0.08,0.34c0.04,0.09,0.09,0.17,0.15,0.24c0.06,0.08,0.14,0.13,0.23,0.16
		C-381.5-105.27-381.39-105.25-381.26-105.25z"/>
	<path class="st4" d="M-378.56-104.78v-5.99h0.76v0.83c0.18-0.3,0.39-0.53,0.64-0.67c0.24-0.15,0.49-0.22,0.74-0.22
		c0.06,0,0.1,0,0.13,0v0.82c-0.11-0.04-0.23-0.07-0.36-0.07c-0.49,0-0.87,0.23-1.15,0.7v4.6H-378.56z"/>
	<path class="st4" d="M-372.05-104.68c-0.48,0-0.86-0.15-1.14-0.46c-0.29-0.31-0.45-0.72-0.49-1.24l0.64-0.19
		c0.04,0.46,0.14,0.79,0.31,1c0.17,0.21,0.4,0.32,0.71,0.32c0.26,0,0.47-0.08,0.62-0.23c0.15-0.15,0.22-0.35,0.22-0.6
		c0-0.01,0-0.02,0-0.04c-0.01-0.4-0.25-0.79-0.73-1.19l-0.81-0.69c-0.29-0.24-0.5-0.47-0.63-0.7c-0.13-0.22-0.19-0.48-0.19-0.78
		c0-0.44,0.13-0.78,0.39-1.02c0.26-0.24,0.6-0.35,1.04-0.35c0.44,0,0.78,0.14,1.02,0.42c0.24,0.28,0.37,0.67,0.4,1.15l-0.54,0.18
		c-0.02-0.4-0.11-0.7-0.25-0.89c-0.14-0.19-0.34-0.29-0.6-0.29c-0.24,0-0.42,0.07-0.57,0.2c-0.14,0.13-0.21,0.3-0.21,0.52
		c0,0.2,0.04,0.36,0.11,0.5c0.07,0.14,0.2,0.29,0.39,0.45l0.84,0.76c0.15,0.13,0.28,0.25,0.37,0.35c0.1,0.1,0.2,0.22,0.31,0.37
		c0.11,0.15,0.19,0.31,0.24,0.48c0.05,0.17,0.08,0.35,0.08,0.55c0,0.46-0.14,0.81-0.41,1.07
		C-371.2-104.81-371.58-104.68-372.05-104.68z"/>
	<path class="st4" d="M-369.57-111.59v-1.03h0.76v1.03H-369.57z M-369.57-104.78v-5.99h0.76v5.99H-369.57z"/>
	<path class="st4" d="M-366.13-104.7c-0.41,0-0.69-0.11-0.84-0.34c-0.16-0.22-0.23-0.55-0.24-0.98v-4.24h-0.72v-0.51h0.72v-1.85
		h0.76v1.85h1v0.51h-1v4.17c0,0.3,0.04,0.51,0.11,0.62c0.07,0.11,0.21,0.17,0.43,0.17c0.14,0,0.28-0.01,0.43-0.04v0.57
		C-365.71-104.72-365.93-104.7-366.13-104.7z"/>
	<path class="st4" d="M-361.5-104.68c-0.35,0-0.64-0.13-0.86-0.39c-0.23-0.26-0.34-0.58-0.34-0.96c0-0.2,0.02-0.38,0.05-0.53
		c0.03-0.16,0.1-0.3,0.19-0.44c0.09-0.14,0.19-0.26,0.3-0.37c0.11-0.11,0.27-0.22,0.47-0.34c0.2-0.12,0.41-0.23,0.61-0.33
		c0.2-0.1,0.47-0.22,0.79-0.37v-0.43c0-0.55-0.05-0.93-0.16-1.14c-0.1-0.21-0.3-0.31-0.59-0.31c-0.55,0-0.83,0.34-0.83,1.03v0.22
		l-0.75-0.03c0-0.1,0-0.16,0-0.18c0.02-0.56,0.17-0.97,0.44-1.23c0.27-0.25,0.66-0.38,1.17-0.38c0.53,0,0.91,0.16,1.13,0.47
		c0.22,0.31,0.33,0.82,0.33,1.51v2.91c0,0.48,0.02,0.88,0.06,1.19h-0.67l-0.11-0.83c-0.09,0.26-0.25,0.48-0.46,0.66
		C-360.94-104.77-361.2-104.68-361.5-104.68z M-361.25-105.33c0.2,0,0.39-0.07,0.56-0.21c0.17-0.14,0.3-0.31,0.4-0.5v-1.87
		c-0.02,0.01-0.05,0.03-0.1,0.05c-0.17,0.09-0.29,0.16-0.38,0.2c-0.09,0.05-0.19,0.11-0.32,0.18c-0.12,0.07-0.22,0.13-0.28,0.18
		c-0.06,0.05-0.13,0.1-0.21,0.17c-0.08,0.07-0.14,0.13-0.17,0.19c-0.04,0.06-0.07,0.13-0.11,0.21c-0.04,0.08-0.06,0.16-0.08,0.25
		c-0.01,0.09-0.02,0.18-0.02,0.29c0,0.29,0.07,0.51,0.2,0.66C-361.61-105.4-361.45-105.33-361.25-105.33z"/>
	<path class="st4" d="M-358.42-104.78v-5.99h0.71v0.61c0.4-0.48,0.87-0.71,1.41-0.71c0.5,0,0.81,0.26,0.94,0.79
		c0.42-0.53,0.91-0.79,1.48-0.79c0.3,0,0.54,0.11,0.73,0.32c0.19,0.21,0.29,0.56,0.29,1.05v4.72h-0.72v-4.7
		c0-0.33-0.05-0.55-0.15-0.68c-0.1-0.13-0.25-0.19-0.44-0.19c-0.38,0.01-0.76,0.21-1.13,0.62c0.01,0.1,0.01,0.18,0.01,0.23v4.72
		h-0.71v-4.7c0-0.33-0.05-0.55-0.16-0.68c-0.1-0.13-0.25-0.19-0.44-0.19c-0.38,0.01-0.75,0.21-1.12,0.62v4.96H-358.42z"/>
	<path class="st4" d="M-350.24-104.68c-0.57,0-0.99-0.18-1.24-0.53c-0.25-0.35-0.38-0.96-0.38-1.82v-1.51
		c0-0.58,0.06-1.05,0.18-1.39c0.12-0.34,0.3-0.58,0.53-0.72c0.23-0.14,0.54-0.21,0.92-0.21c0.25,0,0.47,0.03,0.65,0.1
		c0.18,0.07,0.33,0.16,0.45,0.28c0.12,0.12,0.21,0.29,0.28,0.49c0.07,0.21,0.12,0.44,0.14,0.69c0.03,0.25,0.04,0.55,0.04,0.91
		l0,0.54h-2.42v0.9c0,0.62,0.06,1.06,0.18,1.31c0.12,0.26,0.34,0.38,0.68,0.38c0.26,0,0.46-0.08,0.61-0.25s0.21-0.47,0.21-0.91
		v-0.42h0.74v0.33c0,0.58-0.12,1.03-0.36,1.34C-349.29-104.84-349.69-104.68-350.24-104.68z M-351.1-108.28h1.67v-0.5
		c0-0.21,0-0.38-0.02-0.52c-0.01-0.14-0.03-0.28-0.06-0.41c-0.03-0.14-0.08-0.24-0.13-0.32c-0.06-0.08-0.14-0.14-0.24-0.19
		c-0.1-0.05-0.22-0.07-0.36-0.07c-0.32,0-0.54,0.11-0.67,0.33c-0.13,0.22-0.19,0.65-0.19,1.27V-108.28z"/>
	<path class="st4" d="M-346.24-104.7c-0.41,0-0.69-0.11-0.84-0.34c-0.16-0.22-0.23-0.55-0.24-0.98v-4.24h-0.72v-0.51h0.72v-1.85
		h0.76v1.85h1v0.51h-1v4.17c0,0.3,0.04,0.51,0.11,0.62c0.07,0.11,0.21,0.17,0.43,0.17c0.14,0,0.28-0.01,0.43-0.04v0.57
		C-345.83-104.72-346.04-104.7-346.24-104.7z"/>
	<path class="st4" d="M-344.67-103.57l-0.16-0.33c0.18-0.1,0.31-0.22,0.38-0.35c0.08-0.13,0.11-0.31,0.11-0.52h-0.46v-1.13h0.85
		v1.05c0,0.34-0.06,0.6-0.17,0.8C-344.21-103.87-344.4-103.7-344.67-103.57z"/>
	<path class="st4" d="M-339.28-104.68c-0.27,0-0.51-0.04-0.7-0.12c-0.2-0.08-0.35-0.19-0.46-0.32c-0.11-0.13-0.21-0.3-0.27-0.51
		c-0.07-0.21-0.11-0.43-0.13-0.65c-0.02-0.22-0.03-0.47-0.03-0.77v-1.4c0-0.44,0.02-0.8,0.07-1.08s0.13-0.54,0.25-0.74
		c0.12-0.21,0.28-0.35,0.49-0.45c0.21-0.09,0.47-0.14,0.79-0.14c0.25,0,0.47,0.03,0.65,0.09c0.18,0.06,0.33,0.14,0.44,0.25
		c0.11,0.11,0.2,0.24,0.27,0.41c0.07,0.17,0.11,0.34,0.14,0.52c0.03,0.18,0.04,0.4,0.04,0.64v0.28h-0.7v-0.28
		c0-0.51-0.06-0.87-0.18-1.06c-0.12-0.19-0.33-0.29-0.64-0.29c-0.34,0-0.57,0.12-0.68,0.37c-0.11,0.24-0.17,0.7-0.17,1.35v1.68
		c0,0.61,0.06,1.04,0.18,1.28c0.12,0.24,0.34,0.36,0.68,0.36c0.14,0,0.26-0.02,0.36-0.06c0.1-0.04,0.18-0.1,0.23-0.17
		c0.06-0.07,0.11-0.17,0.14-0.29c0.03-0.12,0.06-0.26,0.07-0.4c0.01-0.14,0.02-0.32,0.02-0.53v-0.33h0.7v0.29
		c0,0.26-0.01,0.49-0.03,0.68c-0.02,0.19-0.07,0.38-0.13,0.56c-0.07,0.18-0.15,0.33-0.26,0.44c-0.11,0.11-0.26,0.2-0.44,0.27
		C-338.81-104.71-339.03-104.68-339.28-104.68z"/>
	<path class="st4" d="M-334.49-104.83c-0.21,0.1-0.47,0.15-0.77,0.15c-0.31,0-0.56-0.05-0.77-0.15c-0.21-0.1-0.37-0.25-0.49-0.45
		c-0.12-0.2-0.21-0.43-0.26-0.7c-0.05-0.27-0.08-0.59-0.08-0.97v-1.66c0-0.76,0.12-1.33,0.35-1.7s0.65-0.56,1.24-0.56
		c0.6,0,1.01,0.18,1.25,0.55c0.23,0.37,0.35,0.94,0.35,1.7v1.66c0,0.38-0.03,0.7-0.08,0.97c-0.05,0.27-0.14,0.5-0.25,0.7
		C-334.11-105.07-334.28-104.92-334.49-104.83z M-335.26-105.25c0.15,0,0.28-0.03,0.38-0.08c0.1-0.06,0.19-0.13,0.25-0.21
		c0.06-0.08,0.1-0.2,0.13-0.36c0.03-0.16,0.05-0.3,0.06-0.45c0.01-0.14,0.01-0.33,0.01-0.55v-1.74c0-0.23,0-0.41-0.01-0.55
		c-0.01-0.14-0.03-0.29-0.06-0.45c-0.03-0.15-0.08-0.27-0.13-0.36c-0.06-0.08-0.14-0.15-0.25-0.21c-0.1-0.06-0.23-0.08-0.38-0.08
		c-0.13,0-0.24,0.02-0.33,0.05c-0.09,0.03-0.17,0.09-0.23,0.16c-0.06,0.08-0.11,0.16-0.15,0.24c-0.04,0.09-0.07,0.2-0.08,0.34
		c-0.02,0.14-0.03,0.27-0.04,0.39c0,0.12-0.01,0.28-0.01,0.46v1.74c0,0.19,0,0.34,0.01,0.46c0,0.12,0.02,0.25,0.04,0.39
		c0.02,0.14,0.05,0.25,0.08,0.34c0.04,0.09,0.09,0.17,0.15,0.24c0.06,0.08,0.14,0.13,0.23,0.16
		C-335.5-105.27-335.39-105.25-335.26-105.25z"/>
	<path class="st4" d="M-332.62-104.78v-5.99h0.76v0.62c0.44-0.48,0.92-0.71,1.44-0.71c0.3,0,0.52,0.11,0.68,0.33
		c0.16,0.22,0.24,0.54,0.24,0.94v4.81h-0.76v-4.64c0-0.3-0.05-0.52-0.14-0.65c-0.09-0.13-0.24-0.19-0.43-0.19
		c-0.33,0-0.67,0.18-1.03,0.55v4.93H-332.62z"/>
	<path class="st4" d="M-327.01-104.68c-0.48,0-0.86-0.15-1.14-0.46c-0.29-0.31-0.45-0.72-0.49-1.24l0.64-0.19
		c0.04,0.46,0.14,0.79,0.31,1c0.17,0.21,0.4,0.32,0.71,0.32c0.26,0,0.47-0.08,0.62-0.23c0.15-0.15,0.22-0.35,0.22-0.6
		c0-0.01,0-0.02,0-0.04c-0.01-0.4-0.25-0.79-0.73-1.19l-0.81-0.69c-0.29-0.24-0.5-0.47-0.63-0.7c-0.13-0.22-0.19-0.48-0.19-0.78
		c0-0.44,0.13-0.78,0.39-1.02c0.26-0.24,0.6-0.35,1.04-0.35c0.44,0,0.78,0.14,1.02,0.42c0.24,0.28,0.37,0.67,0.4,1.15l-0.54,0.18
		c-0.02-0.4-0.11-0.7-0.25-0.89c-0.14-0.19-0.34-0.29-0.6-0.29c-0.24,0-0.42,0.07-0.57,0.2c-0.14,0.13-0.21,0.3-0.21,0.52
		c0,0.2,0.04,0.36,0.11,0.5c0.07,0.14,0.2,0.29,0.39,0.45l0.84,0.76c0.15,0.13,0.28,0.25,0.37,0.35c0.1,0.1,0.2,0.22,0.31,0.37
		c0.11,0.15,0.19,0.31,0.24,0.48c0.05,0.17,0.08,0.35,0.08,0.55c0,0.46-0.14,0.81-0.41,1.07
		C-326.17-104.81-326.54-104.68-327.01-104.68z"/>
	<path class="st4" d="M-323.12-104.68c-0.57,0-0.99-0.18-1.24-0.53c-0.25-0.35-0.38-0.96-0.38-1.82v-1.51
		c0-0.58,0.06-1.05,0.18-1.39c0.12-0.34,0.3-0.58,0.53-0.72c0.23-0.14,0.54-0.21,0.92-0.21c0.25,0,0.47,0.03,0.65,0.1
		c0.18,0.07,0.33,0.16,0.45,0.28c0.12,0.12,0.21,0.29,0.28,0.49c0.07,0.21,0.12,0.44,0.14,0.69c0.03,0.25,0.04,0.55,0.04,0.91
		l0,0.54h-2.42v0.9c0,0.62,0.06,1.06,0.18,1.31c0.12,0.26,0.34,0.38,0.68,0.38c0.26,0,0.46-0.08,0.61-0.25s0.21-0.47,0.21-0.91
		v-0.42h0.74v0.33c0,0.58-0.12,1.03-0.36,1.34C-322.17-104.84-322.57-104.68-323.12-104.68z M-323.98-108.28h1.67v-0.5
		c0-0.21,0-0.38-0.02-0.52c-0.01-0.14-0.03-0.28-0.06-0.41c-0.03-0.14-0.08-0.24-0.13-0.32c-0.06-0.08-0.14-0.14-0.24-0.19
		c-0.1-0.05-0.22-0.07-0.36-0.07c-0.32,0-0.54,0.11-0.67,0.33c-0.13,0.22-0.19,0.65-0.19,1.27V-108.28z"/>
	<path class="st4" d="M-319.04-104.68c-0.27,0-0.51-0.04-0.7-0.12c-0.2-0.08-0.35-0.19-0.46-0.32c-0.11-0.13-0.21-0.3-0.27-0.51
		c-0.07-0.21-0.11-0.43-0.13-0.65c-0.02-0.22-0.03-0.47-0.03-0.77v-1.4c0-0.44,0.02-0.8,0.07-1.08c0.05-0.29,0.13-0.54,0.25-0.74
		c0.12-0.21,0.28-0.35,0.49-0.45c0.21-0.09,0.47-0.14,0.79-0.14c0.25,0,0.47,0.03,0.65,0.09c0.18,0.06,0.33,0.14,0.44,0.25
		c0.11,0.11,0.2,0.24,0.27,0.41c0.07,0.17,0.11,0.34,0.14,0.52c0.03,0.18,0.04,0.4,0.04,0.64v0.28h-0.7v-0.28
		c0-0.51-0.06-0.87-0.18-1.06c-0.12-0.19-0.33-0.29-0.64-0.29c-0.34,0-0.57,0.12-0.68,0.37c-0.11,0.24-0.17,0.7-0.17,1.35v1.68
		c0,0.61,0.06,1.04,0.18,1.28c0.12,0.24,0.34,0.36,0.68,0.36c0.14,0,0.26-0.02,0.36-0.06c0.1-0.04,0.18-0.1,0.23-0.17
		c0.06-0.07,0.11-0.17,0.14-0.29c0.03-0.12,0.06-0.26,0.07-0.4c0.01-0.14,0.02-0.32,0.02-0.53v-0.33h0.7v0.29
		c0,0.26-0.01,0.49-0.03,0.68c-0.02,0.19-0.07,0.38-0.13,0.56c-0.07,0.18-0.15,0.33-0.26,0.44c-0.11,0.11-0.26,0.2-0.44,0.27
		C-318.57-104.71-318.79-104.68-319.04-104.68z"/>
	<path class="st4" d="M-315.09-104.7c-0.41,0-0.69-0.11-0.84-0.34c-0.16-0.22-0.23-0.55-0.24-0.98v-4.24h-0.72v-0.51h0.72v-1.85
		h0.76v1.85h1v0.51h-1v4.17c0,0.3,0.04,0.51,0.11,0.62c0.07,0.11,0.21,0.17,0.43,0.17c0.14,0,0.28-0.01,0.43-0.04v0.57
		C-314.67-104.72-314.89-104.7-315.09-104.7z"/>
	<path class="st4" d="M-312.1-104.68c-0.57,0-0.99-0.18-1.24-0.53c-0.25-0.35-0.38-0.96-0.38-1.82v-1.51c0-0.58,0.06-1.05,0.18-1.39
		c0.12-0.34,0.3-0.58,0.53-0.72c0.23-0.14,0.54-0.21,0.92-0.21c0.25,0,0.47,0.03,0.65,0.1c0.18,0.07,0.33,0.16,0.45,0.28
		c0.12,0.12,0.21,0.29,0.28,0.49c0.07,0.21,0.12,0.44,0.14,0.69c0.03,0.25,0.04,0.55,0.04,0.91l0,0.54h-2.42v0.9
		c0,0.62,0.06,1.06,0.18,1.31c0.12,0.26,0.34,0.38,0.68,0.38c0.26,0,0.46-0.08,0.61-0.25s0.21-0.47,0.21-0.91v-0.42h0.74v0.33
		c0,0.58-0.12,1.03-0.36,1.34C-311.15-104.84-311.55-104.68-312.1-104.68z M-312.96-108.28h1.67v-0.5c0-0.21,0-0.38-0.02-0.52
		c-0.01-0.14-0.03-0.28-0.06-0.41c-0.03-0.14-0.08-0.24-0.13-0.32c-0.06-0.08-0.14-0.14-0.24-0.19c-0.1-0.05-0.22-0.07-0.36-0.07
		c-0.32,0-0.54,0.11-0.67,0.33c-0.13,0.22-0.19,0.65-0.19,1.27V-108.28z"/>
	<path class="st4" d="M-308.1-104.7c-0.41,0-0.69-0.11-0.84-0.34c-0.16-0.22-0.23-0.55-0.24-0.98v-4.24h-0.72v-0.51h0.72v-1.85h0.76
		v1.85h1v0.51h-1v4.17c0,0.3,0.04,0.51,0.11,0.62c0.07,0.11,0.21,0.17,0.43,0.17c0.14,0,0.28-0.01,0.43-0.04v0.57
		C-307.68-104.72-307.9-104.7-308.1-104.7z"/>
	<path class="st4" d="M-305.74-104.69c-0.3,0-0.53-0.11-0.69-0.33c-0.16-0.22-0.24-0.54-0.24-0.95v-4.8h0.76v4.64
		c0,0.3,0.05,0.52,0.14,0.65c0.09,0.13,0.23,0.19,0.43,0.19c0.34,0,0.69-0.2,1.06-0.59v-4.9h0.76v5.99h-0.76v-0.66
		C-304.72-104.94-305.21-104.69-305.74-104.69z"/>
	<path class="st4" d="M-302.29-104.78v-5.99h0.76v0.83c0.18-0.3,0.39-0.53,0.64-0.67c0.24-0.15,0.49-0.22,0.74-0.22
		c0.06,0,0.1,0,0.13,0v0.82c-0.11-0.04-0.23-0.07-0.36-0.07c-0.49,0-0.87,0.23-1.15,0.7v4.6H-302.29z"/>
	<path class="st4" d="M-296.12-104.68c-0.35,0-0.64-0.13-0.86-0.39c-0.23-0.26-0.34-0.58-0.34-0.96c0-0.2,0.02-0.38,0.05-0.53
		c0.03-0.16,0.1-0.3,0.19-0.44c0.09-0.14,0.19-0.26,0.3-0.37c0.11-0.11,0.27-0.22,0.47-0.34c0.2-0.12,0.41-0.23,0.61-0.33
		c0.2-0.1,0.47-0.22,0.79-0.37v-0.43c0-0.55-0.05-0.93-0.16-1.14s-0.3-0.31-0.59-0.31c-0.55,0-0.83,0.34-0.83,1.03v0.22l-0.75-0.03
		c0-0.1,0-0.16,0-0.18c0.02-0.56,0.17-0.97,0.44-1.23c0.27-0.25,0.66-0.38,1.17-0.38c0.53,0,0.91,0.16,1.13,0.47
		c0.22,0.31,0.33,0.82,0.33,1.51v2.91c0,0.48,0.02,0.88,0.06,1.19h-0.67l-0.11-0.83c-0.09,0.26-0.25,0.48-0.46,0.66
		C-295.56-104.77-295.82-104.68-296.12-104.68z M-295.87-105.33c0.2,0,0.39-0.07,0.56-0.21c0.17-0.14,0.3-0.31,0.4-0.5v-1.87
		c-0.02,0.01-0.05,0.03-0.1,0.05c-0.17,0.09-0.29,0.16-0.38,0.2c-0.09,0.05-0.19,0.11-0.32,0.18c-0.12,0.07-0.22,0.13-0.28,0.18
		c-0.06,0.05-0.13,0.1-0.21,0.17c-0.08,0.07-0.14,0.13-0.17,0.19c-0.04,0.06-0.07,0.13-0.11,0.21c-0.04,0.08-0.06,0.16-0.08,0.25
		c-0.01,0.09-0.02,0.18-0.02,0.29c0,0.29,0.07,0.51,0.2,0.66C-296.23-105.4-296.07-105.33-295.87-105.33z"/>
	<path class="st4" d="M-291.71-104.68c-0.52,0-0.89-0.19-1.11-0.58c-0.22-0.39-0.34-1.03-0.34-1.93v-1.11
		c0-0.33,0.01-0.62,0.04-0.87c0.02-0.25,0.07-0.48,0.13-0.7c0.06-0.22,0.15-0.4,0.25-0.54c0.1-0.14,0.24-0.25,0.41-0.33
		c0.17-0.08,0.36-0.12,0.59-0.12c0.39,0,0.75,0.18,1.06,0.52v-2.83h0.76v8.39h-0.76v-0.42
		C-290.99-104.86-291.33-104.68-291.71-104.68z M-291.56-105.28c0.29,0,0.58-0.13,0.87-0.39v-4.16c-0.3-0.28-0.6-0.42-0.89-0.42
		c-0.32,0-0.54,0.13-0.65,0.4c-0.11,0.27-0.17,0.71-0.17,1.31v1.41c0,0.65,0.06,1.13,0.17,1.42
		C-292.11-105.43-291.89-105.28-291.56-105.28z"/>
	<path class="st4" d="M-288.68-111.59v-1.03h0.76v1.03H-288.68z M-288.68-104.78v-5.99h0.76v5.99H-288.68z"/>
	<path class="st4" d="M-286.65-102.8v-7.96h0.76v0.5c0.32-0.39,0.7-0.59,1.15-0.59c0.22,0,0.42,0.05,0.58,0.14
		c0.17,0.09,0.3,0.21,0.39,0.35c0.1,0.14,0.17,0.33,0.23,0.54c0.06,0.22,0.1,0.43,0.12,0.64c0.02,0.21,0.03,0.45,0.03,0.72v1.26
		c0,0.32-0.01,0.6-0.04,0.85c-0.03,0.25-0.07,0.48-0.14,0.7c-0.07,0.21-0.16,0.39-0.27,0.53c-0.11,0.14-0.25,0.25-0.41,0.33
		c-0.17,0.08-0.36,0.12-0.58,0.12c-0.39,0-0.74-0.19-1.07-0.57v2.45H-286.65z M-284.94-105.28c0.13,0,0.25-0.03,0.34-0.08
		c0.09-0.06,0.17-0.13,0.23-0.23c0.06-0.1,0.11-0.23,0.14-0.39c0.03-0.17,0.06-0.34,0.07-0.53c0.01-0.19,0.02-0.41,0.02-0.68v-1.27
		c0-0.64-0.05-1.1-0.16-1.38c-0.11-0.28-0.33-0.42-0.65-0.42c-0.31,0-0.62,0.15-0.93,0.46v4.08
		C-285.61-105.43-285.3-105.28-284.94-105.28z"/>
	<path class="st4" d="M-282.24-111.59v-1.03h0.76v1.03H-282.24z M-282.24-104.78v-5.99h0.76v5.99H-282.24z"/>
	<path class="st4" d="M-278.84-104.68c-0.48,0-0.86-0.15-1.14-0.46c-0.29-0.31-0.45-0.72-0.49-1.24l0.64-0.19
		c0.04,0.46,0.14,0.79,0.31,1c0.17,0.21,0.4,0.32,0.71,0.32c0.26,0,0.47-0.08,0.62-0.23c0.15-0.15,0.22-0.35,0.22-0.6
		c0-0.01,0-0.02,0-0.04c-0.01-0.4-0.25-0.79-0.73-1.19l-0.81-0.69c-0.29-0.24-0.5-0.47-0.63-0.7c-0.13-0.22-0.19-0.48-0.19-0.78
		c0-0.44,0.13-0.78,0.39-1.02c0.26-0.24,0.6-0.35,1.04-0.35c0.44,0,0.78,0.14,1.02,0.42c0.24,0.28,0.37,0.67,0.4,1.15l-0.54,0.18
		c-0.02-0.4-0.11-0.7-0.25-0.89c-0.14-0.19-0.34-0.29-0.6-0.29c-0.24,0-0.42,0.07-0.57,0.2c-0.14,0.13-0.21,0.3-0.21,0.52
		c0,0.2,0.04,0.36,0.11,0.5c0.07,0.14,0.2,0.29,0.39,0.45l0.84,0.76c0.15,0.13,0.28,0.25,0.37,0.35c0.1,0.1,0.2,0.22,0.31,0.37
		c0.11,0.15,0.19,0.31,0.24,0.48c0.05,0.17,0.08,0.35,0.08,0.55c0,0.46-0.14,0.81-0.42,1.07
		C-278-104.81-278.37-104.68-278.84-104.68z"/>
	<path class="st4" d="M-274.96-104.68c-0.27,0-0.51-0.04-0.7-0.12c-0.2-0.08-0.35-0.19-0.46-0.32c-0.11-0.13-0.2-0.3-0.27-0.51
		c-0.07-0.21-0.11-0.43-0.13-0.65c-0.02-0.22-0.03-0.47-0.03-0.77v-1.4c0-0.44,0.02-0.8,0.07-1.08c0.05-0.29,0.13-0.54,0.25-0.74
		c0.12-0.21,0.28-0.35,0.49-0.45c0.21-0.09,0.47-0.14,0.79-0.14c0.25,0,0.47,0.03,0.65,0.09c0.18,0.06,0.33,0.14,0.44,0.25
		c0.11,0.11,0.2,0.24,0.27,0.41c0.07,0.17,0.11,0.34,0.14,0.52c0.03,0.18,0.04,0.4,0.04,0.64v0.28h-0.7v-0.28
		c0-0.51-0.06-0.87-0.18-1.06c-0.12-0.19-0.33-0.29-0.64-0.29c-0.34,0-0.57,0.12-0.68,0.37c-0.11,0.24-0.17,0.7-0.17,1.35v1.68
		c0,0.61,0.06,1.04,0.18,1.28c0.12,0.24,0.34,0.36,0.68,0.36c0.14,0,0.26-0.02,0.36-0.06c0.1-0.04,0.18-0.1,0.23-0.17
		c0.06-0.07,0.11-0.17,0.14-0.29c0.03-0.12,0.06-0.26,0.07-0.4c0.01-0.14,0.02-0.32,0.02-0.53v-0.33h0.7v0.29
		c0,0.26-0.01,0.49-0.03,0.68c-0.02,0.19-0.07,0.38-0.13,0.56c-0.07,0.18-0.15,0.33-0.26,0.44c-0.11,0.11-0.26,0.2-0.44,0.27
		C-274.49-104.71-274.71-104.68-274.96-104.68z"/>
	<path class="st4" d="M-272.34-111.59v-1.03h0.76v1.03H-272.34z M-272.34-104.78v-5.99h0.76v5.99H-272.34z"/>
	<path class="st4" d="M-270.32-104.78v-5.99h0.76v0.62c0.44-0.48,0.92-0.71,1.44-0.71c0.3,0,0.52,0.11,0.68,0.33
		c0.16,0.22,0.24,0.54,0.24,0.94v4.81h-0.76v-4.64c0-0.3-0.05-0.52-0.14-0.65c-0.09-0.13-0.24-0.19-0.43-0.19
		c-0.33,0-0.67,0.18-1.03,0.55v4.93H-270.32z"/>
	<path class="st4" d="M-264.43-102.81c-0.32,0-0.6-0.02-0.84-0.05c-0.24-0.03-0.45-0.09-0.64-0.17c-0.19-0.08-0.33-0.18-0.42-0.32
		c-0.1-0.13-0.15-0.29-0.15-0.48c0-0.29,0.1-0.56,0.29-0.8c0.19-0.24,0.43-0.43,0.7-0.58c-0.18-0.05-0.34-0.12-0.47-0.22
		c-0.13-0.1-0.2-0.2-0.2-0.31c0-0.32,0.24-0.72,0.71-1.21c-0.5-0.36-0.75-0.97-0.75-1.83c0-0.29,0.03-0.56,0.1-0.81
		c0.07-0.25,0.17-0.47,0.3-0.66c0.13-0.19,0.31-0.35,0.52-0.46c0.22-0.11,0.46-0.17,0.74-0.17c0.6,0,1.03,0.25,1.29,0.74
		c0.06-0.11,0.17-0.23,0.32-0.36c0.15-0.13,0.31-0.23,0.49-0.31l0.16-0.07l0.2,0.53c-0.17,0.04-0.35,0.11-0.55,0.22
		s-0.35,0.21-0.43,0.3c0.05,0.12,0.09,0.29,0.13,0.51c0.04,0.22,0.06,0.4,0.06,0.54c0,0.64-0.13,1.15-0.4,1.53
		c-0.26,0.38-0.68,0.56-1.26,0.56c-0.09,0-0.2-0.01-0.33-0.03c-0.13-0.02-0.22-0.04-0.27-0.06c-0.01,0.02-0.05,0.07-0.11,0.17
		c-0.07,0.1-0.12,0.17-0.15,0.23c-0.03,0.05-0.07,0.12-0.1,0.19c-0.03,0.08-0.05,0.14-0.05,0.19c0,0.1,0.17,0.17,0.5,0.23
		c0.07,0.02,0.24,0.05,0.51,0.09c0.27,0.04,0.42,0.06,0.46,0.07c0.49,0.09,0.86,0.24,1.12,0.46c0.25,0.22,0.38,0.53,0.38,0.92
		c0,0.48-0.17,0.83-0.5,1.05C-263.41-102.92-263.86-102.81-264.43-102.81z M-264.44-103.42c0.39,0,0.7-0.06,0.93-0.19
		c0.23-0.13,0.34-0.32,0.34-0.57c0-0.22-0.08-0.39-0.23-0.51c-0.16-0.12-0.45-0.22-0.9-0.3l-0.77-0.1
		c-0.51,0.31-0.76,0.66-0.76,1.03c0,0.23,0.11,0.4,0.32,0.5C-265.29-103.47-264.94-103.42-264.44-103.42z M-264.51-107.2
		c0.17,0,0.32-0.03,0.44-0.1c0.12-0.06,0.22-0.15,0.29-0.24c0.07-0.1,0.12-0.22,0.16-0.37c0.04-0.15,0.07-0.28,0.08-0.41
		c0.01-0.13,0.02-0.28,0.02-0.45c0-1.03-0.33-1.55-0.98-1.55c-0.16,0-0.3,0.03-0.42,0.1c-0.12,0.07-0.22,0.15-0.29,0.25
		c-0.07,0.1-0.13,0.22-0.18,0.36c-0.05,0.14-0.08,0.28-0.09,0.41c-0.02,0.13-0.02,0.27-0.02,0.42
		C-265.52-107.72-265.18-107.2-264.51-107.2z"/>
	<path class="st4" d="M-439.03-92.25c-0.57,0-0.99-0.18-1.24-0.53c-0.25-0.35-0.38-0.96-0.38-1.82v-1.51c0-0.58,0.06-1.05,0.18-1.39
		c0.12-0.34,0.3-0.58,0.53-0.72c0.23-0.14,0.54-0.21,0.92-0.21c0.25,0,0.47,0.03,0.65,0.1c0.18,0.07,0.33,0.16,0.45,0.28
		c0.12,0.12,0.21,0.29,0.28,0.49c0.07,0.21,0.12,0.44,0.14,0.69c0.03,0.25,0.04,0.55,0.04,0.91l0,0.54h-2.42v0.9
		c0,0.62,0.06,1.06,0.18,1.31c0.12,0.26,0.34,0.38,0.68,0.38c0.26,0,0.46-0.08,0.61-0.25c0.14-0.17,0.21-0.47,0.21-0.91v-0.41h0.74
		v0.33c0,0.58-0.12,1.03-0.36,1.34C-438.08-92.41-438.48-92.25-439.03-92.25z M-439.89-95.85h1.67v-0.5c0-0.21,0-0.38-0.02-0.52
		c-0.01-0.14-0.03-0.28-0.06-0.41c-0.03-0.14-0.08-0.24-0.13-0.32c-0.06-0.08-0.14-0.14-0.24-0.19c-0.1-0.05-0.22-0.07-0.36-0.07
		c-0.32,0-0.54,0.11-0.67,0.33c-0.13,0.22-0.19,0.65-0.19,1.27V-95.85z"/>
	<path class="st4" d="M-436.34-92.35v-8.39h0.76v8.39H-436.34z"/>
	<path class="st4" d="M-434.27-99.16v-1.03h0.76v1.03H-434.27z M-434.27-92.35v-5.99h0.76v5.99H-434.27z"/>
	<path class="st4" d="M-430.82-92.27c-0.41,0-0.69-0.11-0.84-0.34c-0.16-0.22-0.23-0.55-0.24-0.98v-4.24h-0.72v-0.51h0.72v-1.85
		h0.76v1.85h1v0.51h-1v4.17c0,0.3,0.04,0.51,0.11,0.62c0.07,0.11,0.21,0.17,0.43,0.17c0.14,0,0.28-0.01,0.43-0.04v0.57
		C-430.41-92.29-430.62-92.27-430.82-92.27z"/>
	<path class="st4" d="M-429.25-91.14l-0.16-0.33c0.18-0.1,0.31-0.22,0.38-0.35c0.08-0.13,0.11-0.31,0.11-0.52h-0.45v-1.13h0.85v1.05
		c0,0.34-0.06,0.6-0.17,0.8C-428.8-91.44-428.98-91.27-429.25-91.14z"/>
	<path class="st4" d="M-423.99-92.25c-0.48,0-0.86-0.15-1.14-0.46c-0.29-0.31-0.45-0.72-0.49-1.24l0.64-0.19
		c0.04,0.46,0.14,0.79,0.31,1c0.17,0.21,0.4,0.32,0.71,0.32c0.26,0,0.47-0.08,0.62-0.23c0.15-0.15,0.22-0.35,0.22-0.6
		c0-0.01,0-0.02,0-0.04c-0.01-0.4-0.25-0.79-0.73-1.19l-0.81-0.69c-0.29-0.24-0.5-0.47-0.63-0.7c-0.13-0.22-0.19-0.48-0.19-0.78
		c0-0.44,0.13-0.78,0.39-1.02c0.26-0.24,0.6-0.35,1.04-0.35c0.44,0,0.78,0.14,1.02,0.42c0.24,0.28,0.37,0.67,0.4,1.15l-0.54,0.18
		c-0.02-0.4-0.11-0.7-0.25-0.89c-0.14-0.19-0.34-0.29-0.6-0.29c-0.24,0-0.42,0.07-0.57,0.2c-0.14,0.13-0.21,0.3-0.21,0.52
		c0,0.2,0.04,0.36,0.11,0.5c0.07,0.14,0.2,0.29,0.39,0.45l0.84,0.76c0.15,0.13,0.28,0.25,0.37,0.35c0.1,0.1,0.2,0.22,0.31,0.37
		c0.11,0.15,0.19,0.31,0.24,0.48c0.05,0.17,0.08,0.35,0.08,0.55c0,0.46-0.14,0.81-0.41,1.07
		C-423.14-92.37-423.51-92.25-423.99-92.25z"/>
	<path class="st4" d="M-420.09-92.25c-0.57,0-0.99-0.18-1.24-0.53c-0.25-0.35-0.38-0.96-0.38-1.82v-1.51c0-0.58,0.06-1.05,0.18-1.39
		c0.12-0.34,0.3-0.58,0.53-0.72c0.23-0.14,0.54-0.21,0.92-0.21c0.25,0,0.47,0.03,0.65,0.1c0.18,0.07,0.33,0.16,0.45,0.28
		c0.12,0.12,0.21,0.29,0.28,0.49c0.07,0.21,0.12,0.44,0.14,0.69c0.03,0.25,0.04,0.55,0.04,0.91l0,0.54h-2.42v0.9
		c0,0.62,0.06,1.06,0.18,1.31c0.12,0.26,0.34,0.38,0.68,0.38c0.26,0,0.46-0.08,0.61-0.25c0.14-0.17,0.21-0.47,0.21-0.91v-0.41h0.74
		v0.33c0,0.58-0.12,1.03-0.36,1.34C-419.14-92.41-419.54-92.25-420.09-92.25z M-420.95-95.85h1.67v-0.5c0-0.21,0-0.38-0.02-0.52
		c-0.01-0.14-0.03-0.28-0.06-0.41c-0.03-0.14-0.08-0.24-0.13-0.32c-0.06-0.08-0.14-0.14-0.24-0.19c-0.1-0.05-0.22-0.07-0.36-0.07
		c-0.32,0-0.54,0.11-0.67,0.33c-0.13,0.22-0.19,0.65-0.19,1.27V-95.85z"/>
	<path class="st4" d="M-416.17-92.25c-0.52,0-0.89-0.19-1.11-0.58c-0.22-0.39-0.34-1.03-0.34-1.93v-1.11c0-0.33,0.01-0.62,0.04-0.87
		c0.02-0.25,0.07-0.48,0.13-0.7c0.06-0.22,0.15-0.4,0.25-0.54c0.1-0.14,0.24-0.25,0.41-0.33c0.17-0.08,0.36-0.12,0.59-0.12
		c0.39,0,0.75,0.18,1.06,0.52v-2.83h0.76v8.39h-0.76v-0.42C-415.45-92.43-415.79-92.25-416.17-92.25z M-416.02-92.85
		c0.29,0,0.58-0.13,0.87-0.39v-4.16c-0.3-0.28-0.6-0.42-0.89-0.42c-0.32,0-0.54,0.13-0.65,0.4c-0.11,0.27-0.17,0.71-0.17,1.31v1.41
		c0,0.65,0.06,1.13,0.17,1.42C-416.57-93-416.35-92.85-416.02-92.85z"/>
	<path class="st4" d="M-409.78-92.25c-0.52,0-0.89-0.19-1.11-0.58c-0.22-0.39-0.34-1.03-0.34-1.93v-1.11c0-0.33,0.01-0.62,0.04-0.87
		s0.07-0.48,0.13-0.7c0.06-0.22,0.15-0.4,0.25-0.54c0.1-0.14,0.24-0.25,0.41-0.33c0.17-0.08,0.36-0.12,0.59-0.12
		c0.39,0,0.75,0.18,1.06,0.52v-2.83h0.76v8.39h-0.76v-0.42C-409.07-92.43-409.4-92.25-409.78-92.25z M-409.63-92.85
		c0.29,0,0.58-0.13,0.87-0.39v-4.16c-0.3-0.28-0.6-0.42-0.89-0.42c-0.32,0-0.54,0.13-0.65,0.4c-0.11,0.27-0.17,0.71-0.17,1.31v1.41
		c0,0.65,0.06,1.13,0.17,1.42C-410.18-93-409.96-92.85-409.63-92.85z"/>
	<path class="st4" d="M-404.58-92.4c-0.21,0.1-0.47,0.15-0.77,0.15c-0.31,0-0.56-0.05-0.77-0.15c-0.21-0.1-0.37-0.25-0.49-0.45
		c-0.12-0.2-0.21-0.43-0.26-0.7c-0.05-0.27-0.08-0.59-0.08-0.97v-1.66c0-0.76,0.12-1.33,0.35-1.7s0.65-0.56,1.24-0.56
		c0.6,0,1.01,0.18,1.25,0.55c0.23,0.37,0.35,0.94,0.35,1.7v1.66c0,0.38-0.03,0.7-0.08,0.97c-0.05,0.27-0.14,0.5-0.25,0.7
		C-404.21-92.64-404.37-92.49-404.58-92.4z M-405.36-92.82c0.15,0,0.28-0.03,0.38-0.08c0.1-0.06,0.19-0.13,0.25-0.21
		c0.06-0.08,0.1-0.2,0.13-0.36c0.03-0.16,0.05-0.3,0.06-0.45c0.01-0.14,0.01-0.33,0.01-0.55v-1.74c0-0.23,0-0.41-0.01-0.55
		c-0.01-0.14-0.03-0.29-0.06-0.45c-0.03-0.15-0.08-0.27-0.13-0.36c-0.06-0.08-0.14-0.15-0.25-0.21c-0.1-0.06-0.23-0.08-0.38-0.08
		c-0.13,0-0.24,0.02-0.33,0.05c-0.09,0.03-0.17,0.09-0.23,0.16c-0.06,0.08-0.11,0.16-0.15,0.24c-0.04,0.09-0.07,0.2-0.08,0.34
		c-0.02,0.14-0.03,0.27-0.04,0.39c0,0.12-0.01,0.28-0.01,0.46v1.74c0,0.19,0,0.34,0.01,0.46c0,0.12,0.02,0.25,0.04,0.39
		c0.02,0.14,0.05,0.25,0.08,0.34c0.04,0.09,0.09,0.17,0.15,0.24c0.06,0.08,0.14,0.13,0.23,0.16
		C-405.6-92.84-405.48-92.82-405.36-92.82z"/>
	<path class="st4" d="M-399.1-92.25c-0.57,0-0.99-0.18-1.24-0.53c-0.25-0.35-0.38-0.96-0.38-1.82v-1.51c0-0.58,0.06-1.05,0.18-1.39
		c0.12-0.34,0.3-0.58,0.53-0.72c0.23-0.14,0.54-0.21,0.92-0.21c0.25,0,0.47,0.03,0.65,0.1c0.18,0.07,0.33,0.16,0.45,0.28
		c0.12,0.12,0.21,0.29,0.28,0.49c0.07,0.21,0.12,0.44,0.14,0.69c0.03,0.25,0.04,0.55,0.04,0.91l0,0.54h-2.42v0.9
		c0,0.62,0.06,1.06,0.18,1.31c0.12,0.26,0.34,0.38,0.68,0.38c0.26,0,0.46-0.08,0.61-0.25c0.14-0.17,0.21-0.47,0.21-0.91v-0.41h0.74
		v0.33c0,0.58-0.12,1.03-0.36,1.34C-398.14-92.41-398.54-92.25-399.1-92.25z M-399.96-95.85h1.67v-0.5c0-0.21,0-0.38-0.02-0.52
		c-0.01-0.14-0.03-0.28-0.06-0.41c-0.03-0.14-0.08-0.24-0.13-0.32c-0.06-0.08-0.14-0.14-0.24-0.19c-0.1-0.05-0.22-0.07-0.36-0.07
		c-0.32,0-0.54,0.11-0.67,0.33c-0.13,0.22-0.19,0.65-0.19,1.27V-95.85z"/>
	<path class="st4" d="M-396.42-99.16v-1.03h0.76v1.03H-396.42z M-396.42-92.35v-5.99h0.76v5.99H-396.42z"/>
	<path class="st4" d="M-393.52-92.25c-0.3,0-0.53-0.11-0.69-0.33c-0.16-0.22-0.24-0.54-0.24-0.95v-4.8h0.76v4.64
		c0,0.3,0.05,0.52,0.14,0.65c0.09,0.13,0.23,0.19,0.43,0.19c0.34,0,0.69-0.2,1.06-0.59v-4.9h0.76v5.99h-0.76v-0.66
		C-392.49-92.51-392.98-92.25-393.52-92.25z"/>
	<path class="st4" d="M-388.76-92.25c-0.48,0-0.86-0.15-1.14-0.46c-0.29-0.31-0.45-0.72-0.49-1.24l0.64-0.19
		c0.04,0.46,0.14,0.79,0.31,1c0.17,0.21,0.4,0.32,0.71,0.32c0.26,0,0.47-0.08,0.62-0.23c0.15-0.15,0.22-0.35,0.22-0.6
		c0-0.01,0-0.02,0-0.04c-0.01-0.4-0.25-0.79-0.73-1.19l-0.81-0.69c-0.29-0.24-0.5-0.47-0.63-0.7c-0.13-0.22-0.19-0.48-0.19-0.78
		c0-0.44,0.13-0.78,0.39-1.02c0.26-0.24,0.6-0.35,1.04-0.35c0.44,0,0.78,0.14,1.02,0.42c0.24,0.28,0.37,0.67,0.4,1.15l-0.54,0.18
		c-0.02-0.4-0.11-0.7-0.25-0.89c-0.14-0.19-0.34-0.29-0.6-0.29c-0.24,0-0.42,0.07-0.57,0.2c-0.14,0.13-0.21,0.3-0.21,0.52
		c0,0.2,0.04,0.36,0.11,0.5c0.07,0.14,0.2,0.29,0.39,0.45l0.84,0.76c0.15,0.13,0.28,0.25,0.37,0.35c0.1,0.1,0.2,0.22,0.31,0.37
		c0.11,0.15,0.19,0.31,0.24,0.48c0.05,0.17,0.08,0.35,0.08,0.55c0,0.46-0.14,0.81-0.41,1.07
		C-387.92-92.37-388.29-92.25-388.76-92.25z"/>
	<path class="st4" d="M-386.38-92.35v-5.99h0.71v0.61c0.4-0.48,0.87-0.71,1.41-0.71c0.5,0,0.81,0.26,0.94,0.79
		c0.42-0.53,0.91-0.79,1.48-0.79c0.3,0,0.54,0.11,0.73,0.32c0.19,0.21,0.29,0.56,0.29,1.05v4.72h-0.72v-4.7
		c0-0.33-0.05-0.55-0.15-0.68c-0.1-0.13-0.25-0.19-0.44-0.19c-0.38,0.01-0.76,0.21-1.13,0.62c0.01,0.1,0.01,0.18,0.01,0.23v4.72
		h-0.71v-4.7c0-0.33-0.05-0.55-0.16-0.68c-0.1-0.13-0.25-0.19-0.44-0.19c-0.38,0.01-0.75,0.21-1.12,0.62v4.96H-386.38z"/>
	<path class="st4" d="M-377.44-92.4c-0.21,0.1-0.47,0.15-0.77,0.15c-0.31,0-0.56-0.05-0.77-0.15c-0.21-0.1-0.37-0.25-0.49-0.45
		c-0.12-0.2-0.2-0.43-0.26-0.7c-0.05-0.27-0.08-0.59-0.08-0.97v-1.66c0-0.76,0.12-1.33,0.35-1.7s0.65-0.56,1.24-0.56
		c0.6,0,1.01,0.18,1.25,0.55c0.23,0.37,0.35,0.94,0.35,1.7v1.66c0,0.38-0.03,0.7-0.08,0.97c-0.05,0.27-0.14,0.5-0.25,0.7
		C-377.07-92.64-377.23-92.49-377.44-92.4z M-378.22-92.82c0.15,0,0.28-0.03,0.38-0.08c0.1-0.06,0.19-0.13,0.25-0.21
		c0.06-0.08,0.1-0.2,0.13-0.36c0.03-0.16,0.05-0.3,0.06-0.45c0.01-0.14,0.01-0.33,0.01-0.55v-1.74c0-0.23,0-0.41-0.01-0.55
		s-0.03-0.29-0.06-0.45c-0.03-0.15-0.08-0.27-0.13-0.36c-0.06-0.08-0.14-0.15-0.25-0.21c-0.1-0.06-0.23-0.08-0.38-0.08
		c-0.13,0-0.24,0.02-0.33,0.05c-0.09,0.03-0.17,0.09-0.23,0.16c-0.06,0.08-0.11,0.16-0.15,0.24c-0.04,0.09-0.07,0.2-0.08,0.34
		c-0.02,0.14-0.03,0.27-0.04,0.39c0,0.12-0.01,0.28-0.01,0.46v1.74c0,0.19,0,0.34,0.01,0.46c0,0.12,0.02,0.25,0.04,0.39
		c0.02,0.14,0.05,0.25,0.08,0.34c0.04,0.09,0.09,0.17,0.15,0.24c0.06,0.08,0.14,0.13,0.23,0.16
		C-378.46-92.84-378.34-92.82-378.22-92.82z"/>
	<path class="st4" d="M-374.24-92.25c-0.52,0-0.89-0.19-1.11-0.58c-0.22-0.39-0.34-1.03-0.34-1.93v-1.11c0-0.33,0.01-0.62,0.04-0.87
		c0.02-0.25,0.07-0.48,0.13-0.7c0.06-0.22,0.15-0.4,0.25-0.54c0.1-0.14,0.24-0.25,0.41-0.33c0.16-0.08,0.36-0.12,0.59-0.12
		c0.39,0,0.75,0.18,1.06,0.52v-2.83h0.76v8.39h-0.76v-0.42C-373.52-92.43-373.86-92.25-374.24-92.25z M-374.09-92.85
		c0.29,0,0.58-0.13,0.87-0.39v-4.16c-0.3-0.28-0.6-0.42-0.89-0.42c-0.32,0-0.54,0.13-0.65,0.4c-0.11,0.27-0.17,0.71-0.17,1.31v1.41
		c0,0.65,0.06,1.13,0.17,1.42C-374.64-93-374.42-92.85-374.09-92.85z"/>
	<path class="st4" d="M-367.77-92.27c-0.41,0-0.69-0.11-0.84-0.34c-0.16-0.22-0.23-0.55-0.24-0.98v-4.24h-0.72v-0.51h0.72v-1.85
		h0.76v1.85h1v0.51h-1v4.17c0,0.3,0.04,0.51,0.11,0.62c0.07,0.11,0.21,0.17,0.43,0.17c0.14,0,0.28-0.01,0.43-0.04v0.57
		C-367.36-92.29-367.57-92.27-367.77-92.27z"/>
	<path class="st4" d="M-364.78-92.25c-0.57,0-0.99-0.18-1.24-0.53c-0.25-0.35-0.38-0.96-0.38-1.82v-1.51c0-0.58,0.06-1.05,0.18-1.39
		c0.12-0.34,0.3-0.58,0.53-0.72c0.23-0.14,0.54-0.21,0.92-0.21c0.25,0,0.47,0.03,0.65,0.1c0.18,0.07,0.33,0.16,0.45,0.28
		c0.12,0.12,0.21,0.29,0.28,0.49c0.07,0.21,0.12,0.44,0.14,0.69c0.03,0.25,0.04,0.55,0.04,0.91l0,0.54h-2.42v0.9
		c0,0.62,0.06,1.06,0.18,1.31c0.12,0.26,0.34,0.38,0.68,0.38c0.26,0,0.46-0.08,0.61-0.25c0.14-0.17,0.21-0.47,0.21-0.91v-0.41h0.74
		v0.33c0,0.58-0.12,1.03-0.36,1.34C-363.83-92.41-364.23-92.25-364.78-92.25z M-365.64-95.85h1.67v-0.5c0-0.21,0-0.38-0.02-0.52
		c-0.01-0.14-0.03-0.28-0.06-0.41c-0.03-0.14-0.08-0.24-0.13-0.32c-0.06-0.08-0.14-0.14-0.24-0.19c-0.1-0.05-0.22-0.07-0.36-0.07
		c-0.32,0-0.54,0.11-0.67,0.33c-0.13,0.22-0.19,0.65-0.19,1.27V-95.85z"/>
	<path class="st4" d="M-362.2-92.35v-5.99h0.71v0.61c0.4-0.48,0.87-0.71,1.41-0.71c0.5,0,0.81,0.26,0.94,0.79
		c0.42-0.53,0.91-0.79,1.48-0.79c0.3,0,0.54,0.11,0.73,0.32c0.19,0.21,0.29,0.56,0.29,1.05v4.72h-0.72v-4.7
		c0-0.33-0.05-0.55-0.15-0.68c-0.1-0.13-0.25-0.19-0.44-0.19c-0.38,0.01-0.76,0.21-1.13,0.62c0.01,0.1,0.01,0.18,0.01,0.23v4.72
		h-0.71v-4.7c0-0.33-0.05-0.55-0.16-0.68s-0.25-0.19-0.44-0.19c-0.38,0.01-0.75,0.21-1.12,0.62v4.96H-362.2z"/>
	<path class="st4" d="M-355.52-90.37v-7.96h0.76v0.5c0.32-0.39,0.7-0.59,1.15-0.59c0.22,0,0.42,0.05,0.58,0.14
		c0.17,0.09,0.3,0.21,0.39,0.35c0.1,0.14,0.17,0.33,0.23,0.54c0.06,0.22,0.1,0.43,0.12,0.64c0.02,0.21,0.03,0.45,0.03,0.72v1.26
		c0,0.32-0.01,0.6-0.04,0.85c-0.03,0.25-0.07,0.48-0.14,0.7c-0.07,0.21-0.16,0.39-0.27,0.53c-0.11,0.14-0.25,0.25-0.41,0.33
		c-0.17,0.08-0.36,0.12-0.58,0.12c-0.39,0-0.74-0.19-1.07-0.57v2.45H-355.52z M-353.82-92.85c0.13,0,0.25-0.03,0.34-0.08
		c0.09-0.06,0.17-0.13,0.23-0.23c0.06-0.1,0.11-0.23,0.14-0.39c0.03-0.17,0.06-0.34,0.07-0.53c0.01-0.19,0.02-0.41,0.02-0.68v-1.27
		c0-0.64-0.05-1.1-0.16-1.38c-0.11-0.28-0.33-0.42-0.65-0.42c-0.31,0-0.62,0.15-0.93,0.46v4.08
		C-354.48-93-354.17-92.85-353.82-92.85z"/>
	<path class="st4" d="M-348.94-92.4c-0.21,0.1-0.47,0.15-0.77,0.15c-0.31,0-0.56-0.05-0.77-0.15c-0.21-0.1-0.37-0.25-0.49-0.45
		c-0.12-0.2-0.21-0.43-0.26-0.7c-0.05-0.27-0.08-0.59-0.08-0.97v-1.66c0-0.76,0.12-1.33,0.35-1.7c0.24-0.37,0.65-0.56,1.24-0.56
		c0.6,0,1.01,0.18,1.25,0.55c0.23,0.37,0.35,0.94,0.35,1.7v1.66c0,0.38-0.03,0.7-0.08,0.97c-0.05,0.27-0.14,0.5-0.25,0.7
		C-348.57-92.64-348.73-92.49-348.94-92.4z M-349.71-92.82c0.15,0,0.28-0.03,0.38-0.08c0.1-0.06,0.19-0.13,0.25-0.21
		c0.06-0.08,0.1-0.2,0.13-0.36c0.03-0.16,0.05-0.3,0.06-0.45c0.01-0.14,0.01-0.33,0.01-0.55v-1.74c0-0.23,0-0.41-0.01-0.55
		c-0.01-0.14-0.03-0.29-0.06-0.45c-0.03-0.15-0.08-0.27-0.13-0.36c-0.06-0.08-0.14-0.15-0.25-0.21c-0.1-0.06-0.23-0.08-0.38-0.08
		c-0.13,0-0.24,0.02-0.33,0.05c-0.09,0.03-0.17,0.09-0.23,0.16c-0.06,0.08-0.11,0.16-0.15,0.24c-0.04,0.09-0.07,0.2-0.08,0.34
		c-0.02,0.14-0.03,0.27-0.04,0.39c0,0.12-0.01,0.28-0.01,0.46v1.74c0,0.19,0,0.34,0.01,0.46c0,0.12,0.02,0.25,0.04,0.39
		c0.02,0.14,0.05,0.25,0.08,0.34c0.04,0.09,0.09,0.17,0.15,0.24c0.06,0.08,0.14,0.13,0.23,0.16
		C-349.95-92.84-349.84-92.82-349.71-92.82z"/>
	<path class="st4" d="M-347.01-92.35v-5.99h0.76v0.83c0.18-0.3,0.39-0.53,0.64-0.67c0.24-0.15,0.49-0.22,0.74-0.22
		c0.06,0,0.1,0,0.13,0v0.82c-0.11-0.04-0.23-0.07-0.36-0.07c-0.49,0-0.87,0.23-1.15,0.7v4.6H-347.01z"/>
	<path class="st4" d="M-341.79-99.16v-1.03h0.76v1.03H-341.79z M-341.79-92.35v-5.99h0.76v5.99H-341.79z"/>
	<path class="st4" d="M-339.76-92.35v-5.99h0.76v0.62c0.44-0.48,0.92-0.71,1.44-0.71c0.3,0,0.52,0.11,0.68,0.33
		c0.16,0.22,0.24,0.54,0.24,0.94v4.81h-0.76v-4.64c0-0.3-0.05-0.52-0.14-0.65c-0.09-0.13-0.24-0.19-0.43-0.19
		c-0.33,0-0.67,0.18-1.03,0.55v4.93H-339.76z"/>
	<path class="st4" d="M-334.03-92.25c-0.27,0-0.51-0.04-0.7-0.12c-0.2-0.08-0.35-0.19-0.46-0.32c-0.11-0.13-0.21-0.3-0.27-0.51
		c-0.07-0.21-0.11-0.43-0.13-0.65c-0.02-0.22-0.03-0.47-0.03-0.77v-1.4c0-0.44,0.02-0.8,0.07-1.08c0.05-0.29,0.13-0.54,0.25-0.74
		c0.12-0.21,0.28-0.35,0.49-0.45c0.21-0.09,0.47-0.14,0.79-0.14c0.25,0,0.47,0.03,0.65,0.09c0.18,0.06,0.33,0.14,0.44,0.25
		c0.11,0.11,0.2,0.24,0.27,0.41c0.07,0.17,0.11,0.34,0.14,0.52c0.03,0.18,0.04,0.4,0.04,0.64v0.28h-0.7v-0.28
		c0-0.51-0.06-0.87-0.18-1.06c-0.12-0.19-0.33-0.29-0.64-0.29c-0.34,0-0.57,0.12-0.68,0.37c-0.11,0.24-0.17,0.7-0.17,1.35v1.68
		c0,0.61,0.06,1.04,0.18,1.28c0.12,0.24,0.34,0.36,0.68,0.36c0.14,0,0.26-0.02,0.36-0.06c0.1-0.04,0.18-0.1,0.23-0.17
		c0.06-0.07,0.11-0.17,0.14-0.29c0.03-0.12,0.06-0.26,0.07-0.4c0.01-0.14,0.02-0.32,0.02-0.53v-0.33h0.7v0.29
		c0,0.26-0.01,0.49-0.03,0.68c-0.02,0.19-0.07,0.38-0.13,0.56c-0.07,0.18-0.15,0.33-0.26,0.44c-0.11,0.11-0.26,0.2-0.44,0.27
		C-333.56-92.28-333.78-92.25-334.03-92.25z"/>
	<path class="st4" d="M-331.41-99.16v-1.03h0.76v1.03H-331.41z M-331.41-92.35v-5.99h0.76v5.99H-331.41z"/>
	<path class="st4" d="M-328.05-92.25c-0.52,0-0.89-0.19-1.11-0.58c-0.22-0.39-0.34-1.03-0.34-1.93v-1.11c0-0.33,0.01-0.62,0.04-0.87
		s0.07-0.48,0.13-0.7c0.06-0.22,0.15-0.4,0.25-0.54c0.1-0.14,0.24-0.25,0.41-0.33c0.17-0.08,0.36-0.12,0.59-0.12
		c0.39,0,0.75,0.18,1.06,0.52v-2.83h0.76v8.39h-0.76v-0.42C-327.33-92.43-327.67-92.25-328.05-92.25z M-327.89-92.85
		c0.29,0,0.58-0.13,0.87-0.39v-4.16c-0.3-0.28-0.6-0.42-0.89-0.42c-0.32,0-0.54,0.13-0.65,0.4c-0.11,0.27-0.17,0.71-0.17,1.31v1.41
		c0,0.65,0.06,1.13,0.17,1.42C-328.45-93-328.22-92.85-327.89-92.85z"/>
	<path class="st4" d="M-325.02-99.16v-1.03h0.76v1.03H-325.02z M-325.02-92.35v-5.99h0.76v5.99H-325.02z"/>
	<path class="st4" d="M-321.66-92.25c-0.52,0-0.89-0.19-1.11-0.58c-0.22-0.39-0.34-1.03-0.34-1.93v-1.11c0-0.33,0.01-0.62,0.04-0.87
		c0.02-0.25,0.07-0.48,0.13-0.7c0.06-0.22,0.15-0.4,0.25-0.54c0.1-0.14,0.24-0.25,0.41-0.33c0.17-0.08,0.36-0.12,0.59-0.12
		c0.39,0,0.75,0.18,1.06,0.52v-2.83h0.76v8.39h-0.76v-0.42C-320.94-92.43-321.28-92.25-321.66-92.25z M-321.51-92.85
		c0.29,0,0.58-0.13,0.87-0.39v-4.16c-0.3-0.28-0.6-0.42-0.89-0.42c-0.32,0-0.54,0.13-0.65,0.4c-0.11,0.27-0.17,0.71-0.17,1.31v1.41
		c0,0.65,0.06,1.13,0.17,1.42C-322.06-93-321.84-92.85-321.51-92.85z"/>
	<path class="st4" d="M-317.84-92.25c-0.3,0-0.53-0.11-0.69-0.33c-0.16-0.22-0.24-0.54-0.24-0.95v-4.8h0.76v4.64
		c0,0.3,0.05,0.52,0.14,0.65c0.09,0.13,0.23,0.19,0.43,0.19c0.34,0,0.69-0.2,1.06-0.59v-4.9h0.76v5.99h-0.76v-0.66
		C-316.82-92.51-317.31-92.25-317.84-92.25z"/>
	<path class="st4" d="M-314.45-92.35v-5.99h0.76v0.62c0.44-0.48,0.92-0.71,1.44-0.71c0.3,0,0.52,0.11,0.68,0.33
		c0.16,0.22,0.24,0.54,0.24,0.94v4.81h-0.76v-4.64c0-0.3-0.05-0.52-0.14-0.65c-0.09-0.13-0.24-0.19-0.43-0.19
		c-0.33,0-0.67,0.18-1.03,0.55v4.93H-314.45z"/>
	<path class="st4" d="M-308.79-92.27c-0.41,0-0.69-0.11-0.84-0.34c-0.16-0.22-0.23-0.55-0.24-0.98v-4.24h-0.72v-0.51h0.72v-1.85
		h0.76v1.85h1v0.51h-1v4.17c0,0.3,0.04,0.51,0.11,0.62c0.07,0.11,0.21,0.17,0.43,0.17c0.14,0,0.28-0.01,0.43-0.04v0.57
		C-308.38-92.29-308.6-92.27-308.79-92.27z"/>
	<path class="st4" d="M-439.66-79.82c-0.3,0-0.53-0.11-0.69-0.33c-0.16-0.22-0.24-0.54-0.24-0.95v-4.8h0.76v4.64
		c0,0.3,0.05,0.52,0.14,0.65c0.09,0.13,0.23,0.19,0.43,0.19c0.34,0,0.69-0.2,1.06-0.59v-4.9h0.76v5.99h-0.76v-0.66
		C-438.64-80.07-439.13-79.82-439.66-79.82z"/>
	<path class="st4" d="M-434.86-79.84c-0.41,0-0.69-0.11-0.84-0.34c-0.16-0.22-0.23-0.55-0.24-0.98v-4.24h-0.72v-0.51h0.72v-1.85
		h0.76v1.85h1v0.51h-1v4.17c0,0.3,0.04,0.51,0.11,0.62c0.07,0.11,0.21,0.17,0.43,0.17c0.14,0,0.28-0.01,0.43-0.04v0.57
		C-434.44-79.86-434.66-79.84-434.86-79.84z"/>
	<path class="st4" d="M-431.16-79.91v-8.39h0.76v8.39H-431.16z"/>
	<path class="st4" d="M-428.13-79.82c-0.35,0-0.64-0.13-0.86-0.39c-0.23-0.26-0.34-0.58-0.34-0.96c0-0.2,0.02-0.38,0.05-0.53
		c0.03-0.16,0.1-0.3,0.19-0.44c0.09-0.14,0.19-0.26,0.3-0.37c0.11-0.11,0.27-0.22,0.47-0.34c0.2-0.12,0.41-0.23,0.61-0.33
		c0.2-0.1,0.47-0.22,0.79-0.37v-0.43c0-0.55-0.05-0.93-0.16-1.14c-0.1-0.21-0.3-0.31-0.59-0.31c-0.55,0-0.83,0.34-0.83,1.03v0.22
		l-0.75-0.03c0-0.1,0-0.16,0-0.18c0.02-0.56,0.17-0.97,0.44-1.23c0.27-0.25,0.66-0.38,1.17-0.38c0.53,0,0.91,0.16,1.13,0.47
		c0.22,0.31,0.33,0.82,0.33,1.51v2.91c0,0.48,0.02,0.88,0.06,1.19h-0.67l-0.11-0.83c-0.09,0.26-0.25,0.48-0.46,0.66
		C-427.57-79.91-427.83-79.82-428.13-79.82z M-427.89-80.47c0.2,0,0.39-0.07,0.56-0.21c0.17-0.14,0.3-0.31,0.4-0.5v-1.87
		c-0.02,0.01-0.05,0.03-0.1,0.05c-0.16,0.09-0.29,0.16-0.38,0.2c-0.09,0.05-0.19,0.11-0.32,0.18c-0.12,0.07-0.22,0.13-0.28,0.18
		c-0.06,0.05-0.13,0.1-0.21,0.17c-0.08,0.07-0.14,0.13-0.17,0.19c-0.04,0.06-0.07,0.13-0.11,0.21c-0.04,0.08-0.06,0.16-0.08,0.25
		c-0.01,0.09-0.02,0.18-0.02,0.29c0,0.29,0.07,0.51,0.2,0.66C-428.25-80.54-428.08-80.47-427.89-80.47z"/>
	<path class="st4" d="M-423.22-79.82c-0.39,0-0.75-0.19-1.07-0.57v0.48h-0.76v-8.39h0.76v2.89c0.32-0.39,0.7-0.59,1.14-0.59
		c0.22,0,0.42,0.05,0.58,0.14c0.17,0.09,0.3,0.21,0.39,0.35c0.1,0.14,0.17,0.33,0.23,0.54c0.06,0.22,0.1,0.43,0.12,0.64
		c0.02,0.21,0.03,0.45,0.03,0.72v1.26c0,0.32-0.01,0.6-0.04,0.85c-0.03,0.25-0.07,0.48-0.14,0.7c-0.07,0.21-0.16,0.39-0.26,0.53
		c-0.11,0.14-0.25,0.25-0.41,0.33C-422.81-79.86-423-79.82-423.22-79.82z M-423.35-80.42c0.32,0,0.53-0.15,0.64-0.45
		c0.11-0.3,0.16-0.79,0.16-1.46v-1.27c0-0.64-0.05-1.1-0.16-1.38c-0.11-0.28-0.32-0.42-0.65-0.42c-0.31,0-0.62,0.15-0.93,0.46v4.08
		C-424.01-80.57-423.7-80.42-423.35-80.42z"/>
	<path class="st4" d="M-418.49-79.97c-0.21,0.1-0.47,0.15-0.77,0.15c-0.31,0-0.56-0.05-0.77-0.15c-0.21-0.1-0.37-0.25-0.49-0.45
		c-0.12-0.2-0.21-0.43-0.26-0.7c-0.05-0.27-0.08-0.59-0.08-0.97v-1.66c0-0.76,0.12-1.33,0.35-1.7c0.24-0.37,0.65-0.56,1.24-0.56
		c0.6,0,1.01,0.18,1.25,0.55c0.23,0.37,0.35,0.94,0.35,1.7v1.66c0,0.38-0.03,0.7-0.08,0.97c-0.05,0.27-0.14,0.5-0.25,0.7
		C-418.11-80.21-418.28-80.06-418.49-79.97z M-419.26-80.39c0.15,0,0.28-0.03,0.38-0.08c0.1-0.06,0.19-0.13,0.25-0.21
		c0.06-0.08,0.1-0.2,0.13-0.36c0.03-0.16,0.05-0.3,0.06-0.45c0.01-0.14,0.01-0.33,0.01-0.55v-1.74c0-0.23,0-0.41-0.01-0.55
		c-0.01-0.14-0.03-0.29-0.06-0.45c-0.03-0.15-0.08-0.27-0.13-0.36c-0.06-0.08-0.14-0.15-0.25-0.21c-0.1-0.06-0.23-0.08-0.38-0.08
		c-0.13,0-0.24,0.02-0.33,0.05c-0.09,0.03-0.17,0.09-0.23,0.16c-0.06,0.08-0.11,0.16-0.15,0.24c-0.04,0.09-0.07,0.2-0.08,0.34
		c-0.02,0.14-0.03,0.27-0.04,0.39c0,0.12-0.01,0.28-0.01,0.46v1.74c0,0.19,0,0.34,0.01,0.46c0,0.12,0.02,0.25,0.04,0.39
		c0.02,0.14,0.05,0.25,0.08,0.34c0.04,0.09,0.09,0.17,0.15,0.24c0.06,0.08,0.14,0.13,0.23,0.16
		C-419.5-80.41-419.39-80.39-419.26-80.39z"/>
	<path class="st4" d="M-416.56-79.91v-5.99h0.76v0.83c0.18-0.3,0.39-0.53,0.64-0.67c0.24-0.15,0.49-0.22,0.74-0.22
		c0.06,0,0.1,0,0.13,0v0.82c-0.11-0.04-0.23-0.07-0.36-0.07c-0.49,0-0.87,0.23-1.15,0.7v4.6H-416.56z"/>
	<path class="st4" d="M-412.03-79.82c-0.57,0-0.99-0.18-1.24-0.53c-0.25-0.35-0.38-0.96-0.38-1.82v-1.51c0-0.58,0.06-1.05,0.18-1.39
		c0.12-0.34,0.3-0.58,0.53-0.72c0.23-0.14,0.54-0.21,0.92-0.21c0.25,0,0.47,0.03,0.65,0.1c0.18,0.07,0.33,0.16,0.45,0.28
		c0.12,0.12,0.21,0.29,0.28,0.49c0.07,0.21,0.12,0.44,0.14,0.69c0.03,0.25,0.04,0.55,0.04,0.91l0,0.54h-2.42v0.9
		c0,0.62,0.06,1.06,0.18,1.31c0.12,0.26,0.34,0.38,0.68,0.38c0.26,0,0.46-0.08,0.61-0.25s0.21-0.47,0.21-0.91v-0.42h0.74v0.33
		c0,0.58-0.12,1.03-0.36,1.34C-411.08-79.98-411.48-79.82-412.03-79.82z M-412.89-83.42h1.67v-0.5c0-0.21,0-0.38-0.02-0.52
		c-0.01-0.14-0.03-0.28-0.06-0.41c-0.03-0.14-0.08-0.24-0.13-0.32c-0.06-0.08-0.14-0.14-0.24-0.19c-0.1-0.05-0.22-0.07-0.36-0.07
		c-0.32,0-0.54,0.11-0.67,0.33c-0.13,0.22-0.19,0.65-0.19,1.27V-83.42z"/>
</g>
<path class="st5" d="M73.61,0L7.45,41.02c-7.38,4.56-9.66,14.23-5.11,21.61L24.56,98.6h49.05V0z"/>
<path class="st4" d="M-442.25,28.15c-1.77-6.36-6.8-11.29-13.19-12.94l-39-10.05c-6.39-1.65-13.18,0.24-17.8,4.95l-14.16,14.43V98.6
	h76.85l13.49-13.76c4.62-4.71,6.38-11.53,4.61-17.89L-442.25,28.15z"/>
<g>
	
		<rect x="-10.47" y="-0.57" transform="matrix(0.2483 0.9687 -0.9687 0.2483 -5.0193 10.8708)" class="st6" width="1.91" height="5.54"/>
	
		<rect x="-13.21" y="2.1" transform="matrix(0.2482 0.9687 -0.9687 0.2482 -4.4908 15.5333)" class="st6" width="1.91" height="5.54"/>
	
		<rect x="-15.95" y="4.77" transform="matrix(0.2482 0.9687 -0.9687 0.2482 -3.9615 20.1952)" class="st6" width="1.91" height="5.54"/>
	
		<rect x="-18.69" y="7.45" transform="matrix(0.2483 0.9687 -0.9687 0.2483 -3.4318 24.8567)" class="st6" width="1.91" height="5.54"/>
</g>
<g>
	<path class="st7" d="M-125.41-164.27l-50.4,29.57c-12.78-3.92-29.06-2.71-39.8,3.59c-13.07,7.67-12.98,19.95,0.19,27.44
		c2.96,1.68,6.32,2.98,9.91,3.89c2.54,0.64,5.18,1.1,7.88,1.36c10.48,1.02,21.67-0.85,29.73-5.58c9.77-5.73,12.18-14.04,7.28-21
		l6.95-4.08l-0.2-4.41l7.32-0.05l-0.18-4.13l7.32-0.05l-0.18-4.13l7.32-0.05l-0.18-4.13l7.32-0.05l-0.18-4.13l7.81-0.05l2.38-1.4
		l2.63-10.86L-125.41-164.27z M-196.33-107.7c-3.4,2-8.94,2.03-12.37,0.09c-3.43-1.95-3.45-5.15-0.05-7.14
		c3.4-2,8.94-2.03,12.37-0.09C-192.95-112.89-192.92-109.69-196.33-107.7z"/>
	<path class="st7" d="M-97.84,22.76l-67.97-39.08c-4.58-2.64-4-7.26,1.28-10.31l65.97-38.09c5.28-3.05,13.28-3.38,17.85-0.74
		l67.97,39.08c4.58,2.64,4,7.26-1.28,10.31l-65.97,38.09C-85.27,25.07-93.26,25.41-97.84,22.76z"/>
	<g>
		<g>
			<path class="st6" d="M-18.16-65.84l-11.75-6.78l43.32-25.01c2.05-1.18,2.05-3.1,0-4.28l-44.26-25.55c-2.05-1.18-5.38-1.18-7.42,0
				l-43.32,25.01l-11.75-6.78l43.32-25.01c8.52-4.92,22.4-4.92,30.92,0l44.26,25.55c8.53,4.92,8.53,12.93,0,17.85L-18.16-65.84z"/>
		</g>
		<g>
			<path class="st5" d="M0.8-62.85c0-6.28-3.82-13.58-8.53-16.3l-78.49-45.32c-2.11-1.22-4.04-1.3-5.53-0.47l0,0l-93.72,54.46
				l90.63,68.29l92.33-53.59c0.29-0.13,0.56-0.28,0.82-0.47l0,0l0,0C-0.15-57.42,0.8-59.71,0.8-62.85z"/>
			<path class="st1" d="M-94.84-2.19l92.33-53.59c0.29-0.13,0.56-0.28,0.82-0.47l0,0l0,0c1.54-1.17,2.5-3.46,2.5-6.6
				c0-3-0.88-6.22-2.3-9.08l-105.25,60.77L-94.84-2.19z"/>
			<path class="st6" d="M-100.75-2.43l-78.49-45.32c-4.71-2.72-8.53-10.02-8.53-16.3l0,0c0-6.28,3.82-9.17,8.53-6.45l78.49,45.32
				c4.71,2.72,8.53,10.02,8.53,16.3l0,0C-92.22-2.6-96.03,0.29-100.75-2.43z"/>
		</g>
		<path class="st2" d="M-112.5-17.71l-9.44-5.44c-0.94-0.54-1.7-2-1.7-3.25l0,0c0-1.25,0.76-1.83,1.7-1.29l9.44,5.44
			c0.94,0.54,1.7,2,1.7,3.25l0,0C-110.8-17.75-111.56-17.17-112.5-17.71z"/>
	</g>
	<g>
		<g>
			<polygon class="st4" points="-183.36,-177.3 -167.24,-168.14 -150.78,-177.79 -150.83,-181.99 -150.97,-181.91 -150.98,-182.21 
				-143.66,-182.26 -143.7,-186.39 -136.53,-186.44 -136.57,-190.58 -129.39,-190.63 -129.44,-194.77 -122.26,-194.82 
				-122.3,-198.95 -114.63,-199 -112.25,-200.4 -109.62,-211.26 -109.66,-215.46 -110.93,-211.43 -122.54,-212.99 			"/>
			<g>
				<g>
					<g>
						<g>
							<g>
								<polygon class="st5" points="-167.28,-172.34 -150.83,-181.99 -151.02,-186.41 -143.7,-186.46 -143.89,-190.59 
									-136.57,-190.64 -136.76,-194.78 -129.44,-194.83 -129.62,-198.96 -122.3,-199.02 -122.49,-203.15 -114.67,-203.2 
									-112.29,-204.6 -109.66,-215.46 -122.59,-217.18 -183.41,-181.5 								"/>
							</g>
						</g>
						<g>
							<g>
								<path class="st4" d="M-156.32-178.77c-1.66-2.35-4.14-4.55-7.47-6.44c-2.35-1.33-4.96-2.41-7.73-3.26l-11.89,6.97
									l16.13,9.16L-156.32-178.77z"/>
							</g>
						</g>
						<g>
							<g>
								<polygon class="st6" points="-110.1,-213.64 -109.66,-215.46 -111.83,-215.75 -163.22,-185.6 -160.51,-184.06 								"/>
							</g>
						</g>
						<g>
							<g>
								<polygon class="st8" points="-222.34,-164.05 -222.52,-170.02 -220.61,-165.99 								"/>
							</g>
						</g>
						<path class="st4" d="M-212.41-150.62c13.18,7.49,34.45,7.34,47.52-0.33c6.55-3.84,9.8-8.85,9.74-13.83l0,0l-0.18-6.33
							l-1.07,1.2c-1.52-3.12-4.4-6.05-8.68-8.48c-13.18-7.48-34.45-7.34-47.52,0.33C-225.67-170.39-225.59-158.1-212.41-150.62z
							 M-193.38-161.79c3.43,1.95,3.45,5.15,0.05,7.14c-3.4,2-8.94,2.04-12.37,0.09c-3.43-1.95-3.45-5.15-0.05-7.14
							C-202.35-163.7-196.81-163.73-193.38-161.79z"/>
						<g>
							<g>
								<path class="st9" d="M-212.59-156.59c13.18,7.48,34.45,7.34,47.52-0.33c13.07-7.67,12.98-19.95-0.19-27.44
									c-13.18-7.48-34.45-7.34-47.52,0.33C-225.85-176.35-225.76-164.07-212.59-156.59z M-193.55-167.75
									c3.43,1.95,3.45,5.15,0.05,7.14c-3.4,2-8.94,2.04-12.37,0.09c-3.43-1.95-3.45-5.15-0.05-7.14
									C-202.52-169.66-196.98-169.7-193.55-167.75z"/>
							</g>
						</g>
						<path class="st6" d="M-197.31-153.32c-2.9,0.45-6.11,0.06-8.39-1.24c-2.46-1.4-3.16-3.44-2.11-5.21l-5.97-4.73
							c0,0-3.12-3.52-6.21-7.01c-4.81,7.03-2.28,15.3,7.57,20.9c4.35,2.47,9.21,3.87,14.74,4.68L-197.31-153.32z"/>
						<g>
							<g>
								<path class="st5" d="M-212.59-156.59c2.96,1.68,6.32,2.98,9.91,3.89c2.54,0.64,5.18,1.1,7.88,1.36
									c10.48,1.02,21.67-0.85,29.73-5.58c13.07-7.67,12.98-19.95-0.19-27.44c-13.18-7.48-34.45-7.34-47.52,0.33
									C-225.85-176.35-225.76-164.07-212.59-156.59z M-193.55-167.75c3.43,1.95,3.45,5.15,0.05,7.14c-3.4,2-8.94,2.04-12.37,0.09
									c-3.43-1.95-3.45-5.15-0.05-7.14C-202.52-169.66-196.98-169.7-193.55-167.75z"/>
							</g>
						</g>
						<g>
							<g>
								<g>
									<path class="st4" d="M-218.81-170.18c0.64-3.82,3.48-7.56,8.52-10.52c11.63-6.82,30.56-6.96,42.28-0.3
										c5.83,3.31,8.77,7.67,8.84,12.06c0.84-4.99-2.06-10.12-8.7-13.89c-11.72-6.66-30.65-6.53-42.28,0.3
										C-216-179.1-218.88-174.63-218.81-170.18z"/>
								</g>
							</g>
						</g>
					</g>
					<g>
						<g>
							<g>
								<g>
									<path class="st4" d="M-226.74-115.87c-2.37,0-4.59-0.56-6.59-1.7c-4.72-2.68-7.35-8.06-7.4-15.16
										c-0.09-12.95,8.92-28.81,20.09-35.37c6.12-3.59,12.09-4.09,16.81-1.41c2.01,1.14,3.66,2.79,4.89,4.89
										c1.64,2.79,2.48,6.25,2.51,10.28c0.09,12.95-8.92,28.81-20.09,35.37C-220.05-116.92-223.52-115.87-226.74-115.87z
										 M-210.43-166.46c-2.37,0-5.03,0.82-7.8,2.45c-9.86,5.79-17.82,19.8-17.74,31.24c0.04,5.33,1.81,9.26,4.99,11.06
										c3.18,1.81,7.46,1.32,12.06-1.38c9.87-5.79,17.82-19.8,17.74-31.24c-0.02-3.14-0.66-5.87-1.86-7.9l0,0
										c-0.8-1.37-1.86-2.44-3.14-3.16C-207.44-166.1-208.88-166.46-210.43-166.46z"/>
								</g>
							</g>
						</g>
					</g>
				</g>
			</g>
		</g>
		<path class="st5" d="M-204.23-155.95l9.38,2.3l1.35-6.96c-3.4,2-8.94,2.04-12.37,0.09L-204.23-155.95z"/>
		<path class="st5" d="M-212.59-156.59c2.96,1.68,6.32,2.98,9.91,3.89c2.54,0.64,5.18,1.1,7.88,1.36
			c10.48,1.02,21.67-0.85,29.73-5.58l-38.2-0.86L-212.59-156.59z"/>
		<path class="st4" d="M-198.47-151.76c0,0-4.06-0.66-8.3-2.14v5.86c2.02,0.7,5.35,1.72,8.2,2.1
			C-189.83-144.78-198.47-151.76-198.47-151.76z"/>
	</g>
	<path class="st6" d="M-204.56-153.19c-1.75-0.51-3.65-1.17-5.4-1.99c-5.11-2.39,1.35,6.47,1.35,6.47s1.74,0.69,4.05,1.4V-153.19z"
		/>
</g>
<polygon class="st6" points="-108.72,-50.21 -125.44,-39.43 -133.58,-40.75 -113.7,-50.36 "/>
<g>
	<g>
		<path class="st1" d="M-128.93,4.21c0,0-4.81-2.43-7.77,1.19c-2.96,3.62-7.18,12.15-7.31,17.92c-0.13,5.77,4.56,5.38,7.35,4.01
			c2.79-1.36,10.94-13.19,11.44-15.51c0.49-2.32-0.58-5.45-1.37-6.06C-127.38,5.15-128.93,4.21-128.93,4.21z"/>
		<path class="st6" d="M-127.88,3.05l0.22,4.99c0.05,1.06-0.49,2.07-1.41,2.59c-0.84,0.48-2.06,0.84-3.71,0.58
			c-3.63-0.58-3.95-1.62-4.21-6.61C-137.25-0.38-127.88,3.05-127.88,3.05z"/>
		<g>
			<path class="st1" d="M-146.56-5.38c0,0-4.81-2.43-7.77,1.19c-2.96,3.62-7.18,12.15-7.31,17.92c-0.13,5.77,4.56,5.38,7.35,4.01
				c2.79-1.36,10.94-13.19,11.44-15.51c0.49-2.32-0.58-5.45-1.37-6.06C-145-4.44-146.56-5.38-146.56-5.38z"/>
			<path class="st6" d="M-145.51-6.54l0.22,4.99c0.05,1.06-0.49,2.07-1.41,2.59c-0.84,0.48-2.06,0.84-3.71,0.58
				c-3.63-0.58-3.95-1.62-4.21-6.61C-154.88-9.97-145.51-6.54-145.51-6.54z"/>
			<path class="st5" d="M-102.54-98.12c-1.42-23.19-25.11,3.41-25.11,3.41l-16.21,15.89l-14.6,16.04
				c-2.85,3.13-4.18,7.36-3.63,11.56l5.91,44.96c0.29,2.22,2.19,3.86,4.43,3.84c0.63-0.01,1.36-0.06,2.19-0.19
				c5.27-0.82,4.88-5.83,4.88-5.83l-1.08-42.05l30.66-18.48C-115.11-68.97-101.12-74.93-102.54-98.12z"/>
		</g>
		<path class="st6" d="M-134.05-58.44l-4.36-1.6c-0.1,0-7.42,7.07-7.35,9.55l3.28,1.05l8.24-8L-134.05-58.44z"/>
		<path class="st6" d="M-108.72-50.21c0,0,18.22-10.4,20.4-14.76c0.85-1.71,2.18-3.49-3.13-6.07l-24.3,17.32l1.05,5.96
			L-108.72-50.21z"/>
		<path class="st5" d="M-84.92-89.17c-1.52-23.18-25.11,3.41-25.11,3.41l-16.21,15.89l-14.6,16.04c-2.85,3.13-4.18,7.36-3.63,11.56
			l5.91,44.96c0.29,2.22,2.19,3.86,4.43,3.84c0.63-0.01,1.36-0.06,2.19-0.19c5.27-0.82,4.88-5.83,4.88-5.83l-1.08-42.05l30.66-18.48
			C-97.49-60.02-83.53-67.98-84.92-89.17z"/>
		<path class="st6" d="M-98.93-163.71c17.96,7.44,17.6,18.06,17.6,18.06s-3.52,38.91-2.32,64.9c0.5,10.86-57.72,11.69-49.04-17.29
			c10.24-34.18,6.4-61.84,11.19-66.01C-116.71-168.23-103.58-165.64-98.93-163.71z"/>
		<path class="st10" d="M-93.16-154.3c-0.94,3.65-5.72,5.57-10.67,4.29c-4.95-1.28-8.21-5.27-7.27-8.91s5.72-5.57,10.67-4.29
			C-95.47-161.93-92.22-157.94-93.16-154.3z"/>
		<path class="st2" d="M-100.79-148.76c-1.05,0-2.15-0.13-3.25-0.42c-2.57-0.66-4.81-2.03-6.3-3.86c-1.55-1.9-2.11-4.07-1.59-6.1
			c1.05-4.1,6.31-6.3,11.71-4.91c2.57,0.66,4.81,2.03,6.29,3.86c1.55,1.9,2.12,4.07,1.59,6.1
			C-93.17-150.82-96.67-148.76-100.79-148.76z M-103.5-162.75c-3.33,0-6.12,1.55-6.77,4.04c-0.38,1.49,0.06,3.12,1.26,4.59
			c1.26,1.54,3.17,2.71,5.39,3.28c4.49,1.15,8.8-0.49,9.62-3.67c0.38-1.49-0.06-3.12-1.26-4.59c-1.26-1.54-3.17-2.71-5.39-3.28
			C-101.61-162.63-102.57-162.75-103.5-162.75z"/>
		<path class="st10" d="M-106.13-164.52c0,0,0.16,0.72-0.16,6.41c-0.1,1.79,6.17,3.46,7.79,1.84c1.62-1.62,0.97-3.3,1.36-9.39
			C-96.75-171.75-106.13-164.52-106.13-164.52z"/>
		<path class="st11" d="M-97.14-165.66c0,0-1.54,5.64-9.15,7.81l0.12-5.13L-97.14-165.66z"/>
		<path class="st10" d="M-92.33-180c1.91,7.39-2.53,14.93-9.92,16.84c-7.39,1.91-14.93-2.53-16.84-9.92
			c-1.91-7.39,2.53-14.93,9.92-16.84C-101.78-191.83-94.24-187.39-92.33-180z"/>
		<path class="st11" d="M-102.53-176.03c0,0-7.61,3.26-12.88,3.3c-5.27,0.04-4.11-4.38-4.11-4.38l15.64-2.26L-102.53-176.03z"/>
		<path class="st0" d="M-116.98-175.18c0,0,6.63-2.81,12.44-1.64c1.37,0.28,2.63,1.01,3.51,2.09c0.29,0.35,0.65,0.68,1.06,0.77
			c1.03,0.23,2.72-4.05,4.72-4.14c2-0.1,3.34,1.32,1.7,3.95c-1.64,2.63-1.09,5.58-0.33,6c0.76,0.42,8.78-5.72,1.7-19.74
			c-7.08-14.02-25.05-6.47-27.84-3.63c0,0-2.95,2.57-5.34,0.28C-125.35-191.23-128.04-171.12-116.98-175.18z"/>
		<path class="st10" d="M-91.41-117.22v10.51c0,1.2-0.51,2.35-1.4,3.17l-21.6,19.69l2.45,3.75l28.53-20.69
			c1.33-0.97,2.19-2.45,2.36-4.09l1.93-18.34L-91.41-117.22z"/>
		<path class="st6" d="M-82.86-150.91c0,0,6.55,9.86,8.99,35.8c0,0-11.19,3.62-17.55,1.57C-97.76-115.6-82.86-150.91-82.86-150.91z"
			/>
		<path class="st4" d="M-92.61-138.45c0,0-2.57,13.73-2.71,20.18c-0.04,1.77,1.04,3.37,2.71,3.98l0,0V-138.45z"/>
	</g>
	<g>
		<path class="st1" d="M-98.21-70.17l-4.77-0.63L-133.8-88.6c-0.99-0.57-2.71-0.5-3.85,0.16l-21.84,12.6l-2.89-0.38v2.87l0,0
			c-0.02,0.38,0.2,0.74,0.66,1.01l34.93,20.16c0.99,0.57,2.71,0.5,3.85-0.16l23.78-13.73c0.64-0.37,0.96-0.85,0.94-1.3h0V-70.17z"/>
		<path class="st4" d="M-121.37-81.42l-2.19-1.26h-24.07l-11.87,6.85l-2.89-0.38v2.87l0,0c-0.02,0.38,0.2,0.74,0.66,1.01
			l34.93,20.16c0.52,0.3,1.25,0.42,1.99,0.37L-121.37-81.42z"/>
		<path class="st6" d="M-161.1-76.05l-1.28-0.17v2.87l0,0c-0.02,0.38,0.2,0.74,0.66,1.01l0.62,0.36V-76.05z"/>
		<path class="st12" d="M-126.44-52c0.94,0.36,2.28,0.28,3.28-0.2v-4.89h-3.28V-52z"/>
		<path class="st2" d="M-126.79-55.04l-34.93-20.16c-0.99-0.57-0.86-1.57,0.28-2.23l23.78-13.73c1.14-0.66,2.87-0.73,3.85-0.16
			l34.93,20.16c0.99,0.57,0.86,1.57-0.28,2.23l-23.78,13.73C-124.08-54.54-125.8-54.47-126.79-55.04z"/>
		<path class="st5" d="M-127.38-58.09l-29.04-16.77c-0.82-0.47-0.72-1.3,0.23-1.85l12.74-7.17c0.95-0.55,2.38-0.61,3.21-0.13
			l29.04,16.77c0.82,0.47,0.72,1.3-0.23,1.85l-12.74,7.17C-125.12-57.68-126.56-57.62-127.38-58.09z"/>
	</g>
	<path class="st10" d="M-136.31-91.81l-0.36,2.41c-0.31,2.05-0.25,4.14,0.16,6.18l0.43,2.12c0.24,1.2,1.19,2.13,2.39,2.35l0,0
		c0.94,0.17,1.83-0.49,1.93-1.44l0.58-5.15c0,0,1.32,1.73,1.95,1.73c0.64,0-0.71-5.16-2.15-8.08S-136.31-91.81-136.31-91.81z"/>
	<path class="st10" d="M-124.47-130.12l-3.75,7.42c-0.89,1.75-1.41,3.67-1.53,5.63l-1.63,25.37l-4.93-0.12l-2.24-28.49
		c-0.07-0.88-0.03-1.76,0.13-2.63l2.56-14.45L-124.47-130.12z"/>
	<g>
		<path class="st1" d="M-127.97-53.1l-2.93-3.82l-30.8-17.83c-0.99-0.57-1.79-2.1-1.78-3.42l0.03-25.21l-1.77-2.31l1.66-0.96l0,0
			c0.32-0.21,0.74-0.2,1.21,0.07l34.9,20.21c0.99,0.57,1.79,2.1,1.78,3.42l-0.03,27.46c0,0.74-0.26,1.26-0.65,1.46h0L-127.97-53.1z"
			/>
		<path class="st4" d="M-149.27-67.56l-2.19-1.27l-12.01-20.86l0.01-13.7l-1.77-2.31l1.66-0.96l0,0c0.32-0.21,0.74-0.2,1.21,0.07
			l34.9,20.21c0.52,0.3,0.99,0.87,1.32,1.54L-149.27-67.56z"/>
		<path class="st6" d="M-164.44-104.67l-0.79-1.03l1.66-0.96l0,0c0.32-0.21,0.74-0.2,1.21,0.07l0.62,0.36L-164.44-104.67z"/>
		<path class="st12" d="M-127.13-86.16c0.78,0.63,1.38,1.83,1.46,2.94l-3.41,1.97l-1.63-2.84L-127.13-86.16z"/>
		<path class="st6" d="M-129.11-85.42l-34.9-20.21c-0.99-0.57-1.79,0.03-1.79,1.35l-0.03,27.46c0,1.32,0.8,2.85,1.78,3.42
			l34.9,20.21c0.99,0.57,1.79-0.03,1.79-1.35l0.03-27.46C-127.33-83.32-128.13-84.85-129.11-85.42z"/>
	</g>
	<path class="st10" d="M-111.95-80.09l-0.56,1.16c-0.64,1.33-1.66,2.46-2.92,3.23l-3.47,2.14c-1.08,0.66-2.44,0.72-3.54,0.08
		c-0.04-0.02-0.08-0.05-0.12-0.07c-1.1-0.69-1.2-2.27-0.29-3.2l3.62-3.72c0,0-2.04,1.56-2.61,0.93c-0.42-0.46,1.97-2.71,3.81-2.78
		c1.84-0.07,3.61-1.52,3.61-1.52L-111.95-80.09z"/>
	<path class="st6" d="M-121.14-164.11c0,0-13.28,14.45-18.64,27.71c0,0,4.54,8.18,15.66,11.39S-121.14-164.11-121.14-164.11z"/>
	<path class="st4" d="M-126.62-125.87l2.15-20.79l-5.07,19.48C-128.64-126.71-127.66-126.27-126.62-125.87z"/>
	<path class="st2" d="M-111.19-167.02l-3.57-0.98c0,0,1.7,2.68,4.19,3.36c2.49,0.68,2.87-1.42,2.87-1.42L-111.19-167.02z"/>
</g>
<path class="st5" d="M-178.93-198.97c-5.51,0-10-4.48-10-10c0-5.51,4.48-10,10-10c5.51,0,10,4.48,10,10
	C-168.93-203.45-173.41-198.97-178.93-198.97z M-178.93-216.78c-4.31,0-7.81,3.5-7.81,7.81c0,4.31,3.5,7.81,7.81,7.81
	c4.31,0,7.81-3.5,7.81-7.81C-171.11-213.28-174.62-216.78-178.93-216.78z"/>
<path class="st6" d="M23.16-126.94c-3.91,0-7.09-3.18-7.09-7.09c0-3.91,3.18-7.09,7.09-7.09s7.09,3.18,7.09,7.09
	C30.25-130.12,27.07-126.94,23.16-126.94z M23.16-138.93c-2.71,0-4.91,2.2-4.91,4.91c0,2.7,2.2,4.91,4.91,4.91
	c2.71,0,4.91-2.2,4.91-4.91C28.07-136.73,25.87-138.93,23.16-138.93z"/>
<path class="st6" d="M-209.25,1.12l-4.81-9.79l9.79-4.81l4.81,9.79L-209.25,1.12z M-211.15-7.67l2.89,5.87l5.87-2.89l-2.89-5.87
	L-211.15-7.67z"/>
<path class="st6" d="M-67.23-150.55l-4.81-9.79l9.79-4.81l4.81,9.79L-67.23-150.55z M-69.12-159.34l2.89,5.87l5.87-2.89l-2.89-5.87
	L-69.12-159.34z"/>
<rect x="-226.05" y="-57.7" transform="matrix(0.8974 -0.4412 0.4412 0.8974 1.42 -104.2869)" class="st6" width="5.01" height="5.01"/>
<g>
	<g>
		<path class="st13" d="M-46.08-203.65l-26.74-15.44c-0.53-0.31-1.01-0.32-1.38-0.11c0,0,0-0.02,0-0.02l-2.59,1.5
			c0,0,1.15,0.42,1.82,0.67v19.47c0,1.58,0.96,3.42,2.15,4.11l25.56,14.76v2.28l2.62-1.51l-0.01-0.01c0.44-0.27,0.73-0.86,0.73-1.71
			v-19.88C-43.93-201.12-44.89-202.96-46.08-203.65z"/>
		<path class="st0" d="M-48.72-176.51l-26.74-15.44c-1.19-0.69-2.15-2.53-2.15-4.11v-19.88c0-1.58,0.96-2.31,2.15-1.63l26.74,15.44
			c1.19,0.69,2.15,2.53,2.15,4.11v19.88C-46.57-176.55-47.53-175.82-48.72-176.51z"/>
	</g>
	<g>
		<path class="st2" d="M-66.47-198.8c0,1.15-0.81,1.62-1.8,1.04c-1-0.58-1.8-1.97-1.8-3.12c0-1.15,0.81-1.62,1.8-1.04
			C-67.28-201.35-66.47-199.95-66.47-198.8z"/>
		<path class="st2" d="M-61-195.64c0,1.15-0.81,1.62-1.8,1.04c-1-0.58-1.8-1.97-1.8-3.12c0-1.15,0.81-1.62,1.8-1.04
			C-61.81-198.19-61-196.79-61-195.64z"/>
		<path class="st2" d="M-55.54-192.49c0,1.15-0.81,1.62-1.8,1.04c-1-0.58-1.8-1.97-1.8-3.12s0.81-1.62,1.8-1.04
			C-56.35-195.04-55.54-193.64-55.54-192.49z"/>
	</g>
</g>
<g>
	<g>
		<path class="st6" d="M-230.92-34.5l-26.23-15.14c-0.52-0.3-0.99-0.31-1.36-0.11c0,0,0-0.02,0-0.02l-2.54,1.47
			c0,0,1.13,0.41,1.79,0.65v19.1c0,1.55,0.94,3.36,2.11,4.03l25.07,14.48v2.24l2.57-1.48l-0.01-0.01c0.43-0.26,0.71-0.85,0.71-1.68
			v-19.5C-228.81-32.02-229.75-33.82-230.92-34.5z"/>
		<path class="st5" d="M-233.51-7.87l-26.23-15.14c-1.17-0.67-2.11-2.48-2.11-4.03v-19.5c0-1.55,0.94-2.27,2.11-1.6L-233.51-33
			c1.17,0.67,2.11,2.48,2.11,4.03v19.5C-231.4-7.91-232.35-7.2-233.51-7.87z"/>
	</g>
	<g>
		<path class="st2" d="M-250.92-29.74c0,1.13-0.79,1.59-1.77,1.02c-0.98-0.56-1.77-1.94-1.77-3.07c0-1.13,0.79-1.59,1.77-1.02
			C-251.71-32.24-250.92-30.86-250.92-29.74z"/>
		<path class="st2" d="M-245.56-26.64c0,1.13-0.79,1.59-1.77,1.02c-0.98-0.56-1.77-1.94-1.77-3.07c0-1.13,0.79-1.59,1.77-1.02
			C-246.35-29.14-245.56-27.77-245.56-26.64z"/>
		<path class="st2" d="M-240.2-23.54c0,1.13-0.79,1.59-1.77,1.02c-0.98-0.56-1.77-1.94-1.77-3.07c0-1.13,0.79-1.59,1.77-1.02
			C-240.99-26.05-240.2-24.67-240.2-23.54z"/>
	</g>
</g>
</svg>
